<svg width="66" height="65" viewBox="0 0 66 65" fill="none" xmlns="http://www.w3.org/2000/svg">
<path d="M8.1173 38.4478H8.0049C7.09161 38.4478 6.24857 38.1948 5.47579 37.7031C4.54846 37.0989 4.08479 36.2699 4.08479 35.2302C4.08479 34.8508 4.21124 34.5136 4.46415 34.1904C4.81542 33.8111 5.22288 33.6284 5.68655 33.6284C6.09402 33.6284 6.47338 33.797 6.82465 34.1202C7.13376 34.4574 7.28832 34.8227 7.28832 35.2302C7.28832 35.6236 7.16186 35.9608 6.923 36.2418C6.68414 36.5228 6.40313 36.7055 6.07997 36.7757C6.07997 36.7898 6.13617 36.8038 6.26262 36.8319C6.52959 36.9022 6.79655 36.9443 7.06351 36.9443C7.69578 36.9443 8.25781 36.7617 8.73552 36.3823C9.3116 35.8905 9.60666 35.2161 9.60666 34.345V23.1467C9.60666 22.7392 9.4521 22.4723 9.12894 22.3458C9.03059 22.3036 8.93223 22.2755 8.84793 22.2755H7.86439C7.33047 22.2755 6.88085 22.4301 6.51553 22.7392C6.13617 23.1045 5.89731 23.5963 5.82706 24.2286C5.92541 24.0178 6.13617 23.8352 6.45933 23.7087C6.58579 23.6666 6.71224 23.6525 6.8387 23.6525C7.13376 23.6525 7.41477 23.7649 7.68173 24.0038C7.90654 24.2567 8.01895 24.5236 8.01895 24.8187C8.01895 25.17 7.87844 25.465 7.59743 25.7039C7.38667 25.8865 7.11971 25.9708 6.82465 25.9708C6.23452 25.9708 5.77085 25.7179 5.41959 25.2121C5.15263 24.8046 5.01212 24.3269 5.01212 23.779C5.01212 22.9219 5.33529 22.1772 5.96756 21.5309C6.62794 20.8986 7.49907 20.5895 8.58097 20.5895H11.3349C11.8267 20.5895 12.2482 20.8002 12.6135 21.2358C12.9085 21.6292 13.049 22.0367 13.049 22.4723V34.4152C13.049 35.3566 12.7118 36.1856 12.0374 36.9303C11.6018 37.3659 11.1101 37.689 10.5761 37.9279C9.78932 38.2791 8.97438 38.4478 8.1173 38.4478ZM22.3927 34.6541C21.8307 34.6541 21.3108 34.4855 20.819 34.1623C20.3834 33.8673 20.0743 33.502 19.8636 33.0383C19.7652 33.1788 19.6247 33.3474 19.4561 33.5301C18.7114 34.2747 17.9246 34.6541 17.0675 34.6541C16.2947 34.6541 15.6344 34.3731 15.0583 33.8111C14.5384 33.2631 14.2855 32.6168 14.2855 31.8861V24.8187H15.9716C16.4633 24.8187 16.8708 24.9873 17.2221 25.3245C17.5733 25.6758 17.7419 26.0692 17.7419 26.5188V31.844C17.7419 32.7432 18.0089 33.1928 18.5288 33.1928C18.88 33.1928 19.2594 32.8697 19.6388 32.2374C19.6247 32.1109 19.6247 29.638 19.6247 24.8187H23.0671V31.9564C23.0671 32.392 23.1655 32.7151 23.3481 32.954C23.4746 33.1085 23.6432 33.1928 23.8539 33.1928C24.4019 33.1928 24.9077 32.5746 25.3854 31.3241H26.0318C25.7227 32.2234 25.3152 32.9399 24.8234 33.4879C24.0928 34.2607 23.2779 34.6541 22.3927 34.6541ZM26.6922 24.0319C26.2847 24.0319 25.9194 23.9054 25.5962 23.6385C25.1747 23.2591 24.9639 22.8235 24.9639 22.3036C24.9639 21.8821 25.1044 21.5028 25.3995 21.1515C25.7789 20.7721 26.2004 20.5754 26.6922 20.5754C27.1277 20.5754 27.5071 20.7159 27.8443 21.011C28.2237 21.3904 28.4204 21.8119 28.4204 22.3036C28.4204 22.7392 28.2658 23.1186 27.9708 23.4698C27.6054 23.8492 27.1839 24.0319 26.6922 24.0319ZM23.5589 38.8833C22.8704 38.8833 22.2381 38.7569 21.648 38.518C21.2827 38.3634 20.9595 38.1527 20.6785 37.8857C20.2991 37.4783 20.1165 37.0427 20.1165 36.565C20.1165 36.1013 20.271 35.7219 20.5942 35.4128C20.8893 35.1459 21.2265 35.0194 21.5918 35.0194C21.9712 35.0194 22.3224 35.1599 22.6315 35.4269C22.9828 35.75 23.1514 36.1294 23.1514 36.5509C23.1514 36.846 23.0531 37.141 22.8423 37.4502C22.6877 37.6609 22.5191 37.7874 22.3646 37.8436C22.477 37.8436 22.6877 37.8155 22.9969 37.7452C23.8539 37.5064 24.416 37.0989 24.6689 36.5228C24.8656 36.0592 24.9639 35.3566 24.9639 34.4152V26.5891C24.9639 26.0833 25.1466 25.6477 25.5119 25.2964C25.8632 24.9733 26.2425 24.8187 26.6641 24.8187H28.4204V34.3028C28.4204 35.1037 28.2799 35.7922 27.9989 36.3683C27.5633 37.2816 26.8327 37.97 25.8351 38.4197C25.1747 38.7288 24.416 38.8833 23.5589 38.8833ZM37.483 34.6541C36.921 34.6541 36.4011 34.4855 35.9093 34.1623C35.4738 33.8673 35.1646 33.502 34.9539 33.0383C34.8555 33.1788 34.715 33.3474 34.5464 33.5301C33.8017 34.2747 33.0149 34.6541 32.1578 34.6541C31.385 34.6541 30.7247 34.3731 30.1486 33.8111C29.6287 33.2631 29.3758 32.6168 29.3758 31.8861V24.8187H31.0619C31.5537 24.8187 31.9611 24.9873 32.3124 25.3245C32.6636 25.6758 32.8323 26.0692 32.8323 26.5188V31.844C32.8323 32.7432 33.0992 33.1928 33.6191 33.1928C33.9703 33.1928 34.3497 32.8697 34.7291 32.2374C34.715 32.1109 34.715 29.638 34.715 24.8187H38.1574V31.9564C38.1574 32.392 38.2558 32.7151 38.4384 32.954C38.5649 33.1085 38.7335 33.1928 38.9443 33.1928C39.4922 33.1928 39.998 32.5746 40.4758 31.3241H41.1221C40.813 32.2234 40.4055 32.9399 39.9137 33.4879C39.1831 34.2607 38.3682 34.6541 37.483 34.6541Z" fill="#4F2712"/>
<path d="M31.0811 37.4297C31.7026 37.4297 32.2258 37.756 32.2258 38.4242C32.2258 38.9888 31.8114 39.5378 31.2157 39.5378H29.4547C29.6826 39.4032 29.7188 39.0717 29.7188 38.8334V36.3161C29.7188 36.0727 29.6877 35.7464 29.4547 35.6117H30.8065C31.397 35.6117 31.972 35.9484 31.972 36.5958C31.972 37.1086 31.5783 37.4297 31.0811 37.4297ZM30.475 37.3676C30.9775 37.3676 31.252 37.0413 31.252 36.544C31.252 36.1245 31.0085 35.736 30.5527 35.736H30.475V37.3676ZM30.475 39.4135C31.0707 39.4135 31.5006 39.0872 31.5006 38.4605C31.5006 37.9063 31.1173 37.4919 30.5527 37.4919H30.475V39.4135ZM34.1789 35.5599C35.3132 35.5599 35.9296 36.5285 35.9296 37.5748C35.9296 38.621 35.3132 39.5896 34.1789 39.5896C33.0445 39.5896 32.4333 38.621 32.4333 37.5748C32.4333 36.5285 33.0445 35.5599 34.1789 35.5599ZM34.1789 39.4653C34.9817 39.4653 35.1682 38.1549 35.1682 37.5696C35.1682 36.9791 34.9869 35.6842 34.1789 35.6842C33.376 35.6842 33.1896 36.9946 33.1896 37.5799C33.1896 38.1756 33.3709 39.4653 34.1789 39.4653ZM36.1113 35.6117H37.3958C37.1627 35.7464 37.1316 36.0727 37.1316 36.3161V39.4135H37.546C38.2608 39.4135 38.6803 38.9474 38.9134 38.3206L38.8254 39.5378H36.1113C36.3392 39.4083 36.3754 39.0717 36.3754 38.8334V36.3161C36.3754 36.0727 36.3443 35.7464 36.1113 35.6117ZM40.8152 35.5599C41.9496 35.5599 42.5659 36.5285 42.5659 37.5748C42.5659 38.621 41.9496 39.5896 40.8152 39.5896C39.6809 39.5896 39.0697 38.621 39.0697 37.5748C39.0697 36.5285 39.6809 35.5599 40.8152 35.5599ZM40.8152 39.4653C41.6181 39.4653 41.8045 38.1549 41.8045 37.5696C41.8045 36.9791 41.6233 35.6842 40.8152 35.6842C40.0124 35.6842 39.8259 36.9946 39.8259 37.5799C39.8259 38.1756 40.0072 39.4653 40.8152 39.4653ZM45.498 36.4404C45.498 36.7046 45.3271 36.9221 45.0526 36.9221C44.7521 36.9221 44.5657 36.6787 44.5346 36.399C44.69 36.399 44.7625 36.254 44.7625 36.1193C44.7625 35.7982 44.4103 35.6842 44.1461 35.6842C43.7318 35.6842 43.4728 35.995 43.4728 36.399C43.4728 37.3002 45.5964 37.2225 45.5964 38.4915C45.5964 39.2581 44.8298 39.5896 44.1668 39.5896C43.5453 39.5896 42.7217 39.2996 42.7217 38.5589C42.7217 38.2688 42.8823 37.9839 43.1983 37.9839C43.5297 37.9839 43.7214 38.2844 43.7577 38.5796C43.5556 38.5796 43.4521 38.7868 43.4521 38.9629C43.4521 39.2996 43.7369 39.4653 44.0425 39.4653C44.4569 39.4653 44.8143 39.2322 44.8143 38.7868C44.8143 37.7612 42.8512 37.9063 42.8512 36.658C42.8512 35.9328 43.5142 35.5599 44.172 35.5599C44.6744 35.5599 45.498 35.8241 45.498 36.4404Z" fill="#4F2712"/>
<path d="M31.1121 40.9352C32.205 40.9352 32.7644 41.9089 32.7644 42.8982C32.7644 43.8927 32.205 44.8613 31.1121 44.8613H29.4547C29.6826 44.7266 29.7188 44.3951 29.7188 44.1569V41.6396C29.7188 41.3961 29.6877 41.075 29.4547 40.9352H31.1121ZM30.7392 44.737C31.6715 44.737 32.0082 43.6648 32.0082 42.8982C32.0082 42.1368 31.6715 41.0595 30.7392 41.0595H30.475V44.737H30.7392ZM35.7158 44.8613H32.9499C33.1778 44.7318 33.214 44.3951 33.214 44.1569V41.6396C33.214 41.3961 33.183 41.0698 32.9499 40.9352H35.5604L35.6485 41.997C35.3221 41.1216 34.7213 41.0595 33.9703 41.0595V42.862C34.7006 42.862 35.0839 42.862 35.2393 42.0436V43.6389C35.1201 43.2142 34.9699 43.0588 34.5245 43.0122C34.338 42.9915 34.1567 42.9863 33.9703 42.9863V44.737H34.4364C35.1512 44.737 35.5708 44.2708 35.8038 43.6441L35.7158 44.8613ZM37.7096 41.0129C36.9638 41.0129 36.6633 41.883 36.6633 42.5046C36.6633 43.4162 37.1813 44.1931 38.1602 44.1931C38.5176 44.1931 38.8595 44.0844 39.1081 43.815L39.1495 43.8461C38.9942 44.5557 38.5021 44.9131 37.777 44.9131C36.6478 44.9131 35.9641 44.0326 35.9641 42.95C35.9641 41.8727 36.6789 40.8834 37.8236 40.8834C38.3519 40.8834 39.077 41.1786 39.077 41.8105C39.077 42.0436 38.932 42.2197 38.6886 42.2197C38.4192 42.2197 38.2587 42.0073 38.1861 41.7691C38.2846 41.7639 38.3001 41.624 38.3001 41.5567C38.3001 41.22 38.0308 41.0129 37.7096 41.0129ZM41.053 40.8834C42.1873 40.8834 42.8037 41.8519 42.8037 42.8982C42.8037 43.9445 42.1873 44.9131 41.053 44.9131C39.9186 44.9131 39.3074 43.9445 39.3074 42.8982C39.3074 41.8519 39.9186 40.8834 41.053 40.8834ZM41.053 44.7888C41.8558 44.7888 42.0423 43.4783 42.0423 42.893C42.0423 42.3026 41.861 41.0077 41.053 41.0077C40.2501 41.0077 40.0637 42.3181 40.0637 42.9034C40.0637 43.4991 40.245 44.7888 41.053 44.7888ZM42.9348 44.8613C43.1627 44.7318 43.1989 44.3951 43.1989 44.1569V41.6396C43.1989 41.3961 43.1679 41.0698 42.9348 40.9352H44.5301C45.276 40.9352 45.8146 41.3858 45.8146 42.1472C45.8146 42.7325 45.478 43.209 44.8927 43.3333C45.1465 43.8047 45.5867 44.5971 46.0633 44.8613H44.9289L44.1002 43.3696H43.9552V44.1569C43.9552 44.3951 43.9914 44.7318 44.2193 44.8613H42.9348ZM43.9552 43.2453C44.6544 43.2453 45.0636 42.8827 45.0636 42.1731C45.0636 41.479 44.6648 41.0595 43.9603 41.0595H43.9552V43.2453ZM46.9646 43.9497C46.9646 44.4107 47.2392 44.7111 47.6587 44.8613H46.0634C46.3793 44.7214 46.7523 43.8513 46.8818 43.525L47.9021 40.9403H48.0938L49.2955 44.0947C49.3835 44.3278 49.5544 44.737 49.7772 44.8613H48.3994C48.5289 44.7836 48.6014 44.6748 48.6014 44.5246C48.6014 44.4107 48.56 44.3071 48.5237 44.2035L48.3113 43.6337C48.1041 43.5923 47.8918 43.5612 47.6794 43.5612C47.4515 43.5612 47.234 43.5975 47.0113 43.6389C46.9802 43.7632 46.9646 43.8668 46.9646 43.9497ZM48.2647 43.4991L47.6587 41.8623C47.524 42.2197 47.1977 42.9707 47.0475 43.5094C47.2547 43.468 47.4671 43.4369 47.6794 43.4369C47.8762 43.4369 48.0731 43.4628 48.2647 43.4991ZM51.5372 40.9352C52.6301 40.9352 53.1895 41.9089 53.1895 42.8982C53.1895 43.8927 52.6301 44.8613 51.5372 44.8613H49.8797C50.1076 44.7266 50.1439 44.3951 50.1439 44.1569V41.6396C50.1439 41.3961 50.1128 41.075 49.8797 40.9352H51.5372ZM51.1642 44.737C52.0966 44.737 52.4332 43.6648 52.4332 42.8982C52.4332 42.1368 52.0966 41.0595 51.1642 41.0595H50.9001V44.737H51.1642ZM55.1957 40.8834C56.33 40.8834 56.9464 41.8519 56.9464 42.8982C56.9464 43.9445 56.33 44.9131 55.1957 44.9131C54.0614 44.9131 53.4502 43.9445 53.4502 42.8982C53.4502 41.8519 54.0614 40.8834 55.1957 40.8834ZM55.1957 44.7888C55.9985 44.7888 56.185 43.4783 56.185 42.893C56.185 42.3026 56.0037 41.0077 55.1957 41.0077C54.3929 41.0077 54.2064 42.3181 54.2064 42.9034C54.2064 43.4991 54.3877 44.7888 55.1957 44.7888ZM59.8785 41.7639C59.8785 42.0281 59.7075 42.2456 59.433 42.2456C59.1326 42.2456 58.9461 42.0022 58.9151 41.7225C59.0705 41.7225 59.143 41.5774 59.143 41.4428C59.143 41.1216 58.7908 41.0077 58.5266 41.0077C58.1122 41.0077 57.8533 41.3184 57.8533 41.7225C57.8533 42.6237 59.9769 42.546 59.9769 43.815C59.9769 44.5816 59.2103 44.9131 58.5473 44.9131C57.9258 44.9131 57.1022 44.623 57.1022 43.8824C57.1022 43.5923 57.2628 43.3074 57.5787 43.3074C57.9102 43.3074 58.1019 43.6078 58.1381 43.9031C57.9361 43.9031 57.8325 44.1103 57.8325 44.2864C57.8325 44.623 58.1174 44.7888 58.423 44.7888C58.8374 44.7888 59.1948 44.5557 59.1948 44.1103C59.1948 43.0847 57.2317 43.2297 57.2317 41.9814C57.2317 41.2563 57.8947 40.8834 58.5525 40.8834C59.0549 40.8834 59.8785 41.1475 59.8785 41.7639Z" fill="#4F2712"/>
<path d="M50.3365 29.7056C50.4555 29.7122 50.5573 29.6211 50.5639 29.5021C50.5705 29.3831 50.4794 29.2813 50.3604 29.2746L50.3484 29.4901L50.3365 29.7056ZM45.7576 25.9764L45.6065 26.1306L45.6099 26.1338L45.7576 25.9764ZM50.3484 29.4901L50.3604 29.2746C50.072 29.2586 49.672 29.0774 48.9659 28.5334C48.2683 27.9959 47.308 27.1343 45.9052 25.819L45.7576 25.9764L45.6099 26.1338C47.0115 27.4481 47.9861 28.3233 48.7025 28.8753C49.4104 29.4207 49.9036 29.6816 50.3365 29.7056L50.3484 29.4901ZM45.7576 25.9764L45.9086 25.8223C43.6244 23.5839 42.3336 22.1303 41.7182 21.0813C41.4122 20.5597 41.2838 20.1555 41.2726 19.8173C41.2616 19.4847 41.363 19.1932 41.5619 18.8926L41.3819 18.7736L41.2019 18.6545C40.966 19.011 40.8265 19.3893 40.8412 19.8316C40.8557 20.2682 41.0198 20.7439 41.3459 21.2997C41.9945 22.4053 43.3263 23.8961 45.6065 26.1306L45.7576 25.9764Z" fill="#4F2712"/>
<path d="M47.4622 24.4947L47.6365 24.3674L47.6394 24.3715L47.4622 24.4947ZM40.9709 19.4075C40.864 19.4603 40.7346 19.4166 40.6818 19.3097C40.6289 19.2029 40.6727 19.0734 40.7796 19.0206L40.8752 19.2141L40.9709 19.4075ZM50.2513 29.5747L50.0368 29.5504C50.0704 29.2539 49.9548 28.8266 49.5229 28.0461C49.0958 27.2743 48.3836 26.1977 47.285 24.6179L47.4622 24.4947L47.6394 24.3715C48.737 25.9499 49.4613 27.0434 49.9006 27.8371C50.335 28.6221 50.5159 29.1557 50.4657 29.5989L50.2513 29.5747ZM47.4622 24.4947L47.2879 24.622C45.4005 22.0385 44.1425 20.5585 43.1808 19.8128C42.7033 19.4425 42.3143 19.266 41.9715 19.216C41.633 19.1667 41.3153 19.2372 40.9709 19.4075L40.8752 19.2141L40.7796 19.0206C41.18 18.8226 41.5867 18.7238 42.0337 18.7889C42.4762 18.8534 42.9338 19.0751 43.4453 19.4717C44.4618 20.26 45.7525 21.7886 47.6364 24.3674L47.4622 24.4947Z" fill="#4F2712"/>
<path d="M48.7066 23.5017L48.8914 23.3899L48.8962 23.3986L48.7066 23.5017ZM40.995 19.3936C40.8958 19.4597 40.7618 19.4329 40.6957 19.3337C40.6296 19.2345 40.6565 19.1005 40.7557 19.0344L40.8753 19.214L40.995 19.3936ZM50.5476 29.4664L50.3516 29.376C50.5803 28.8804 50.6026 28.3159 50.3229 27.4286C50.0408 26.5336 49.4607 25.3399 48.517 23.6048L48.7066 23.5017L48.8962 23.3986C49.839 25.132 50.4384 26.3592 50.7346 27.2989C51.0332 28.2462 51.0328 28.9298 50.7436 29.5568L50.5476 29.4664ZM48.7066 23.5017L48.522 23.6135C47.6809 22.2238 46.9494 21.154 46.2837 20.3584C45.6172 19.5618 45.0256 19.0511 44.4673 18.7667C43.9157 18.4857 43.3892 18.4216 42.8365 18.5322C42.2761 18.6444 41.6784 18.9383 40.995 19.3936L40.8753 19.214L40.7557 19.0344C41.4586 18.566 42.1112 18.2372 42.7518 18.109C43.4001 17.9792 44.0254 18.0572 44.6632 18.3821C45.2943 18.7036 45.9298 19.2628 46.6147 20.0814C47.3006 20.9011 48.0451 21.992 48.8912 23.39L48.7066 23.5017Z" fill="#4F2712"/>
<path d="M50.2791 29.9566C50.3943 29.9259 50.4628 29.8077 50.4321 29.6925C50.4015 29.5773 50.2832 29.5088 50.1681 29.5394L50.2236 29.748L50.2791 29.9566ZM44.7276 26.9606L44.5888 27.1261L44.5961 27.1317L44.7276 26.9606ZM50.2236 29.748L50.1681 29.5394C49.6829 29.6686 49.1463 29.5939 48.3262 29.1721C47.501 28.7477 46.4198 27.988 44.859 26.7894L44.7276 26.9606L44.5961 27.1317C46.1553 28.3292 47.2647 29.1115 48.1288 29.556C48.998 30.003 49.6495 30.1241 50.2791 29.9566L50.2236 29.748ZM44.7276 26.9606L44.8662 26.7951C43.6238 25.7539 42.6746 24.872 41.9798 24.1001C41.284 23.3271 40.8523 22.6743 40.6331 22.092C40.4164 21.5163 40.4058 21.006 40.5609 20.5049C40.7181 19.9965 41.0502 19.4834 41.5448 18.9152L41.382 18.7735L41.2192 18.6318C40.7072 19.22 40.3313 19.7864 40.1485 20.3773C39.9635 20.9754 39.9807 21.5842 40.2291 22.2441C40.4751 22.8974 40.9458 23.5966 41.659 24.3889C42.3732 25.1823 43.3396 26.0789 44.589 27.126L44.7276 26.9606Z" fill="#4F2712"/>
<path d="M52.9655 31.0065C52.5304 30.5743 51.9386 30.6047 51.5571 30.9388C51.1168 31.2704 51.0579 31.9727 51.4343 32.4021C51.4343 32.4021 57.1737 39.1426 57.8337 39.7032C58.4938 40.2639 58.9419 39.7086 59.2081 39.4754C59.4743 39.2422 59.8343 38.8591 59.4823 38.3133C59.1304 37.7674 52.9655 31.0065 52.9655 31.0065Z" stroke="#4F2712" stroke-width="0.431634"/>
<path d="M49.2764 22.0512C50.3425 24.1649 51.1185 26.913 51.1036 27.7962C51.0959 28.2568 51.032 28.6186 50.9099 28.9065C50.7978 29.1706 50.6368 29.3725 50.4252 29.5315C49.9829 29.8638 49.1327 30.1175 47.7469 29.6974C46.3611 29.2773 44.0576 28.0137 42.1991 26.6611C40.5701 25.4218 40.0813 25.0861 39.6049 23.7078C39.1284 22.3295 39.6544 20.9994 40.0083 20.3093C40.3623 19.6192 41.1635 18.5379 42.5002 18.1308C43.837 17.7236 45.6209 17.6325 46.7363 18.4522C47.8517 19.272 48.2103 19.9374 49.2764 22.0512Z" stroke="#4F2712" stroke-width="0.431634"/>
<path d="M41.1286 18.7953L50.4387 29.8401" stroke="#4F2712" stroke-width="0.575511"/>
<path d="M58.423 38.224C58.6475 38.2348 58.8145 38.425 58.7957 38.6493C58.7768 38.8736 58.5794 39.0464 58.3549 39.0356C58.1307 39.0246 57.9644 38.8344 57.9832 38.6103C58.002 38.3861 58.1987 38.2135 58.423 38.224Z" fill="#4F2712" stroke="#4F2712" stroke-width="0.143878"/>
<path d="M51.5129 30.8664L41.1648 18.9623" stroke="#4F2712" stroke-width="0.431634"/>
</svg>
