<svg width="88" height="57" viewBox="0 0 88 57" fill="none" xmlns="http://www.w3.org/2000/svg">
<path fill-rule="evenodd" clip-rule="evenodd" d="M79.6312 34.9867L80.5103 36.1207L81.2932 35.1644C81.8059 34.5306 82.4729 33.8047 83.6534 33.8047C85.0979 33.8047 86.4449 34.9674 86.4449 36.4845C86.4449 37.2904 85.9993 37.9798 85.6392 38.4475L85.6379 38.4493L83.9753 40.5932L86.0808 43.3339C86.4779 43.8428 86.6759 44.4496 86.6759 45.0734C86.6759 46.5084 85.528 47.7907 83.9806 47.7907C83.0202 47.7907 82.2499 47.3159 81.728 46.6461L81.7275 46.6454L80.4946 45.0706L79.2622 46.6316C79.0046 46.9557 78.7135 47.2502 78.3414 47.4587C77.9609 47.672 77.5379 47.772 77.0514 47.772C75.5803 47.772 74.2792 46.6211 74.2792 45.0921C74.2792 44.4304 74.5278 43.7889 74.914 43.2948L74.9145 43.294L77.0163 40.591L75.5275 38.6726L75.526 38.6706C75.1429 38.1729 74.5679 37.426 74.5679 36.5032C74.5679 34.9781 75.865 33.8047 77.3594 33.8047C78.3561 33.8047 79.1021 34.3144 79.6298 34.9849L79.6312 34.9867ZM75.0222 39.0584C75.0132 39.0467 75.004 39.0347 74.9945 39.0224C74.6226 38.54 73.9321 37.6445 73.9321 36.5032C73.9321 34.5948 75.547 33.1689 77.3594 33.1689C78.6028 33.1689 79.5174 33.8141 80.1294 34.5918L80.1322 34.5954L80.5239 35.1006L80.8001 34.7631C81.3252 34.1141 82.1589 33.1689 83.6534 33.1689C85.4037 33.1689 87.0806 34.5727 87.0806 36.4845C87.0806 37.5147 86.517 38.3494 86.1431 38.8352C86.1431 38.8353 86.1431 38.8352 86.1431 38.8352L86.1402 38.8389L84.7784 40.595L86.582 42.9428C86.5825 42.9435 86.583 42.9441 86.5836 42.9448C87.0698 43.5688 87.3116 44.3136 87.3116 45.0734C87.3116 46.8353 85.9027 48.4264 83.9806 48.4264C82.7903 48.4264 81.8464 47.8324 81.2265 47.0368L81.226 47.0361L80.4925 46.0992L79.7599 47.0271C79.4757 47.3847 79.1244 47.7487 78.6522 48.0133C78.1629 48.2875 77.6298 48.4077 77.0514 48.4077C75.2665 48.4077 73.6434 47.0084 73.6434 45.0921C73.6434 44.2747 73.9485 43.4978 74.4131 42.9033L74.4136 42.9026L76.2113 40.5906L75.023 39.0594L75.0222 39.0584Z" fill="#333333"/>
<path fill-rule="evenodd" clip-rule="evenodd" d="M69.7832 35.9165L69.2923 35.5126C69.8796 34.7987 70.708 34.4404 71.5774 34.4404C72.4307 34.4404 73.2448 34.7973 73.8249 35.47C74.5978 36.3546 74.5974 37.3347 74.5971 37.9889C74.5971 38.0015 74.5971 38.014 74.5971 38.0263V45.0084C74.5971 45.7804 74.4022 46.6049 73.9071 47.2711C73.3824 47.9772 72.5715 48.4265 71.5774 48.4265C70.7317 48.4265 69.8986 48.0475 69.3296 47.4146C68.5875 46.5926 68.5577 45.6283 68.5577 45.0084L68.5577 37.9821C68.5577 37.9821 68.5577 37.982 68.5577 37.982C68.5577 37.9819 68.5577 37.9819 68.5577 37.9818C68.5577 37.9729 68.5576 37.9639 68.5576 37.9548C68.5572 37.2802 68.5566 36.4067 69.2923 35.5126L69.7832 35.9165ZM69.1934 37.9818C69.1931 37.3104 69.1928 36.6341 69.7832 35.9165C70.2437 35.3568 70.8883 35.0762 71.5774 35.0762C72.2505 35.0762 72.8879 35.3561 73.3448 35.8867C73.9614 36.5912 73.9614 37.3627 73.9614 38.0263V45.0084C73.9614 45.6819 73.7903 46.3624 73.3968 46.8919C72.9884 47.4415 72.3644 47.7907 71.5774 47.7907C70.9162 47.7907 70.2532 47.4914 69.8018 46.9889C69.232 46.3581 69.1934 45.6137 69.1934 45.0084L69.1934 37.9818Z" fill="#333333"/>
<path fill-rule="evenodd" clip-rule="evenodd" d="M55.298 37.2318C55.4175 36.5521 55.707 35.8585 56.2408 35.3198C56.7962 34.7593 57.5461 34.4404 58.4092 34.4404C59.7463 34.4404 60.9531 35.2508 61.4811 36.4444L62.041 37.6842L62.772 36.1581C63.3022 35.0556 64.4728 34.4404 65.5876 34.4404C66.3978 34.4404 67.1591 34.7521 67.7403 35.2684L67.7426 35.2704C68.4493 35.9013 68.6335 36.6641 68.7331 37.2307C68.7331 37.2307 68.7331 37.2307 68.7331 37.2307L68.7334 37.2327L70.0604 44.5085L70.0627 44.5235L70.0706 44.5733L70.0724 44.585C70.1028 44.7771 70.147 45.0558 70.147 45.3633C70.147 47.1571 68.637 48.4265 66.9992 48.4265C66.0688 48.4265 65.0904 48.0401 64.467 47.2685C64.3482 47.4133 64.2158 47.5511 64.0683 47.6784C63.5163 48.1544 62.8162 48.4265 62.007 48.4265C61.206 48.4265 60.5095 48.1732 59.9544 47.6857C59.8067 47.556 59.6757 47.4155 59.5591 47.2685C59.4815 47.3674 59.3973 47.4626 59.3062 47.5533L58.8577 47.1027C58.982 46.979 59.0914 46.8433 59.1865 46.6986C59.3385 46.4673 59.4541 46.2127 59.5363 45.9468C59.6401 46.2041 59.7656 46.4571 59.9227 46.6898C60.0504 46.8788 60.199 47.0544 60.3739 47.208C60.8042 47.5859 61.3482 47.7907 62.007 47.7907C62.6655 47.7907 63.2179 47.5723 63.6531 47.1969C63.8267 47.0471 63.9768 46.8768 64.1064 46.6931C64.2743 46.4552 64.4078 46.1949 64.5137 45.9281C64.5793 46.2221 64.6941 46.4829 64.846 46.7094C65.3217 47.4184 66.1616 47.7907 66.9992 47.7907C68.3274 47.7907 69.5113 46.7659 69.5113 45.3633C69.5113 45.1062 69.4737 44.8687 69.4426 44.6727L69.4347 44.6226L69.4335 44.6148L68.1073 37.3429L68.107 37.3409C68.0142 36.813 67.8618 36.229 67.3192 35.7447L67.3181 35.7437C66.8467 35.3249 66.2337 35.0762 65.5876 35.0762C64.6854 35.0762 63.7561 35.5786 63.3449 36.4336L62.024 39.1912L60.9006 36.7037C60.4731 35.7349 59.4909 35.0762 58.4092 35.0762C57.7108 35.0762 57.125 35.3307 56.6924 35.7673C56.2707 36.1928 56.027 36.7571 55.9241 37.3419L55.9239 37.3429L54.6356 44.545C54.5932 44.7371 54.5716 44.9313 54.5716 45.1267C54.5716 45.8262 54.7957 46.493 55.2485 46.9925C55.7079 47.4993 56.365 47.7907 57.1354 47.7907C57.833 47.7907 58.4216 47.5369 58.8577 47.1027L59.3062 47.5533C58.748 48.1089 57.997 48.4265 57.1354 48.4265C56.1973 48.4265 55.3651 48.0676 54.7775 47.4195C54.2031 46.7859 53.9359 45.9592 53.9359 45.1267C53.9359 44.8886 53.9618 44.6529 54.0119 44.4212L55.2978 37.233L55.298 37.2318Z" fill="#333333"/>
<path fill-rule="evenodd" clip-rule="evenodd" d="M54.5385 43.7705C53.986 44.1583 53.3282 44.2943 52.7574 44.2943L50.7886 44.2943C50.5469 44.2944 50.1594 44.2944 49.767 44.1941C49.3126 44.078 48.8997 43.8453 48.5475 43.4663C48.1559 43.057 47.8965 42.549 47.8965 41.894C47.8965 40.9812 48.3784 40.299 49.0673 39.9189C49.6588 39.5925 50.3239 39.5264 50.8016 39.5264H52.7402C53.2666 39.5264 53.907 39.6382 54.4606 39.9861C55.0702 40.3691 55.5252 41.0196 55.5252 41.8776C55.5252 42.6875 55.1376 43.35 54.5385 43.7705ZM49.0398 43.04C48.7412 42.7294 48.5599 42.3689 48.5599 41.894C48.5599 41.2211 48.9035 40.7428 49.3983 40.4698C49.8442 40.2238 50.3741 40.1621 50.8016 40.1621H52.7402C53.1794 40.1621 53.6818 40.2569 54.0969 40.5177C54.5404 40.7964 54.8619 41.2568 54.8619 41.8776C54.8619 42.4788 54.5802 42.9532 54.1465 43.2576C53.7364 43.5455 53.2274 43.6586 52.7574 43.6586H50.8016C50.5534 43.6586 50.242 43.6576 49.9379 43.5799C49.6065 43.4951 49.3056 43.3275 49.0398 43.04Z" fill="#333333"/>
<path fill-rule="evenodd" clip-rule="evenodd" d="M49.1679 41.2577C49.1679 45.2535 45.8321 48.4265 41.8484 48.4265C37.7915 48.4265 34.5461 45.2154 34.5461 41.2073C34.5461 37.1924 37.8845 34.1226 41.8484 34.1226C45.8223 34.1226 49.1679 37.2524 49.1679 41.2577ZM42.845 41.2577C42.845 40.8161 42.4339 40.3618 41.8484 40.3618C41.2689 40.3618 40.8691 40.8105 40.8691 41.2409C40.8691 41.7401 41.2882 42.1872 41.8656 42.1872C42.4087 42.1872 42.845 41.7233 42.845 41.2577ZM48.5322 41.2577C48.5322 44.8851 45.4986 47.7907 41.8484 47.7907C38.1361 47.7907 35.1819 44.8578 35.1819 41.2073C35.1819 37.5705 38.208 34.7583 41.8484 34.7583C45.4938 34.7583 48.5322 37.6256 48.5322 41.2577ZM43.4807 41.2577C43.4807 40.4341 42.7533 39.7261 41.8484 39.7261C40.9467 39.7261 40.2333 40.4312 40.2333 41.2409C40.2333 42.103 40.9489 42.823 41.8656 42.823C42.7479 42.823 43.4807 42.0862 43.4807 41.2577Z" fill="#333333"/>
<path fill-rule="evenodd" clip-rule="evenodd" d="M35.0792 41.8552C35.7019 42.2963 36.1355 42.996 36.1355 43.832C36.1355 44.43 35.9404 44.9521 35.6084 45.4222C34.4084 47.1456 32.0796 48.1086 30.0578 48.1086C26.2861 48.1086 23.103 45.1999 23.103 41.4507C23.103 37.7061 26.2633 34.7583 30.0757 34.7583C31.7137 34.7583 33.1907 35.3127 34.4559 36.2883C35.1933 36.857 36.1355 37.7999 36.1355 39.0694C36.1355 39.9173 35.7166 40.6529 35.0782 41.1099C34.9066 41.2327 34.7192 41.3354 34.5197 41.4148C34.4585 41.4391 34.3962 41.4613 34.3328 41.4811C34.3925 41.5005 34.4515 41.5218 34.5097 41.5451C34.711 41.6259 34.9027 41.7301 35.0792 41.8552ZM32.0251 41.0927C31.813 40.9281 31.6407 40.7474 31.4898 40.5891C31.4672 40.5654 31.445 40.5422 31.4233 40.5196C31.2111 40.299 31.0429 40.1375 30.8373 40.0205C30.6453 39.9112 30.3921 39.826 30.0041 39.826C29.0262 39.826 28.3127 40.5467 28.3127 41.4334C28.3127 42.3029 29.0441 43.0409 30.0041 43.0409C30.6251 43.0409 30.9609 42.7698 31.4115 42.3606C31.4337 42.3404 31.4564 42.3197 31.4794 42.2986L31.4796 42.2984C31.634 42.1573 31.809 41.9972 32.0149 41.8493C32.1635 41.7426 32.3281 41.6422 32.5127 41.5598C32.581 41.5293 32.6521 41.5012 32.7261 41.4762C32.6487 41.4499 32.5751 41.4202 32.5049 41.3877C32.3239 41.3039 32.1658 41.2018 32.0251 41.0927ZM31.0506 41.8293L31.0504 41.8294C31.0272 41.8507 31.0054 41.8706 30.9841 41.89C30.5478 42.2863 30.3685 42.4052 30.0041 42.4052C29.3756 42.4052 28.9484 41.9325 28.9484 41.4334C28.9484 40.9171 29.3577 40.4617 30.0041 40.4617C30.2877 40.4617 30.4317 40.5211 30.523 40.573C30.6408 40.6401 30.7537 40.7405 30.9651 40.9603C30.9857 40.9817 31.0069 41.004 31.0297 41.0279L31.4898 40.5891L31.0297 41.0279C31.0356 41.0341 31.0416 41.0403 31.0476 41.0466C31.1609 41.1655 31.3008 41.3124 31.4733 41.4619C31.3147 41.5876 31.1807 41.7102 31.0697 41.8118C31.0635 41.8174 31.0575 41.823 31.0515 41.8284C31.0512 41.8287 31.0509 41.829 31.0506 41.8293ZM36.129 45.7871C34.785 47.7158 32.2395 48.7443 30.0578 48.7443C25.9702 48.7443 22.4673 45.5853 22.4673 41.4507C22.4673 37.3255 25.9424 34.1226 30.0757 34.1226C31.866 34.1226 33.4774 34.731 34.8441 35.7849C35.6025 36.3697 36.7712 37.479 36.7712 39.0694C36.7712 40.0516 36.3247 40.9078 35.6356 41.4816C36.3055 42.0314 36.7712 42.8487 36.7712 43.832C36.7712 44.5793 36.5244 45.2267 36.129 45.7871Z" fill="#333333"/>
<path fill-rule="evenodd" clip-rule="evenodd" d="M18.4616 46.634C18.5988 46.4104 18.7023 46.1637 18.7668 45.9026L19.1871 46.6109L19.1879 46.6123C19.1884 46.6132 19.189 46.6141 19.1895 46.615C19.6389 47.3662 20.3812 47.7907 21.2592 47.7907C22.5986 47.7907 23.7388 46.7401 23.7388 45.333C23.7388 44.7831 23.5686 44.2279 23.2954 43.7786C23.15 43.5353 23.0008 43.2972 22.8557 43.0655L22.854 43.0628C22.7878 42.9571 22.7224 42.8527 22.6579 42.7487C23.2983 41.9151 23.7053 40.9594 23.7053 39.7987C23.7053 37.9904 22.662 36.3165 21.0275 35.5456L21.0243 35.5441L21.0211 35.5426C20.0336 35.0902 19.2783 35.0762 18.3425 35.0762H16.8004C16.1281 35.0762 15.3877 35.0798 14.6868 35.7444C14.0015 36.3941 13.885 37.1145 13.885 37.8745V44.8732C13.885 45.5691 14.0402 46.2868 14.4489 46.8481C14.878 47.4373 15.5424 47.7907 16.3981 47.7907C17.3002 47.7907 18.0398 47.3214 18.4616 46.634ZM23.4225 42.7727C23.984 41.9298 24.341 40.9544 24.341 39.7987C24.341 37.7488 23.1598 35.8484 21.2987 34.9706L21.2923 34.9676L21.2859 34.9647C20.166 34.4516 19.2926 34.4404 18.3425 34.4404H16.8004C16.7932 34.4404 16.7859 34.4404 16.7786 34.4404C16.1043 34.4403 15.1383 34.4402 14.2494 35.2831C13.3814 36.106 13.2493 37.0365 13.2493 37.8745V44.8732C13.2493 45.6518 13.4213 46.5169 13.935 47.2224C14.4895 47.9837 15.3491 48.4265 16.3981 48.4265C17.4264 48.4265 18.2833 47.9425 18.83 47.2195C19.4044 47.9893 20.2696 48.4265 21.2592 48.4265C22.9308 48.4265 24.3745 47.1097 24.3745 45.333C24.3745 44.6589 24.1683 43.9914 23.8399 43.4504C23.7005 43.2173 23.5583 42.9896 23.4225 42.7727Z" fill="#333333"/>
<path fill-rule="evenodd" clip-rule="evenodd" d="M10.5659 35.1231L10.5669 35.1252L14.4908 43.3038C14.7223 43.7878 14.8386 44.305 14.8386 44.8412C14.8386 46.696 13.3212 48.1086 11.5198 48.1086C10.6222 48.1086 9.89008 47.8164 9.31775 47.2778C9.03993 47.0163 8.82294 46.7174 8.64699 46.4239H6.40485C6.22115 46.7319 5.99335 47.0359 5.70216 47.3002L5.27489 46.8295C5.59847 46.5358 5.83723 46.1695 6.02789 45.7882H9.02055C9.21093 46.1549 9.44104 46.5208 9.75343 46.8148C10.2001 47.2351 10.7732 47.4728 11.5198 47.4728C12.9888 47.4728 14.2028 46.3265 14.2028 44.8412C14.2028 44.3991 14.1075 43.9757 13.9173 43.5781L9.99187 35.3964L9.99085 35.3942C9.53642 34.4314 8.61151 33.8047 7.49976 33.8047C6.39856 33.8047 5.49834 34.4387 5.0475 35.3725L1.15993 43.4798C0.943117 43.9095 0.852526 44.3744 0.852526 44.8229C0.852526 46.2893 2.01022 47.4728 3.5169 47.4728C4.24246 47.4728 4.8208 47.2416 5.27489 46.8295L5.70216 47.3002C5.12424 47.8248 4.39093 48.1086 3.5169 48.1086C1.65733 48.1086 0.216797 46.6386 0.216797 44.8229C0.216797 44.2923 0.323499 43.7289 0.589329 43.1994L4.475 35.0962C5.02279 33.9615 6.13427 33.1689 7.49976 33.1689C8.86807 33.1689 10.011 33.9475 10.5659 35.1231Z" fill="#333333"/>
<path d="M86.0402 45.0734C86.0402 46.1798 85.1548 47.155 83.9806 47.155C83.2492 47.155 82.6525 46.7987 82.2291 46.2549L80.4968 44.042L78.7645 46.2361C78.3025 46.8174 77.8406 47.1363 77.0514 47.1363C75.8966 47.1363 74.9149 46.2361 74.9149 45.0922C74.9149 44.5858 75.1074 44.0795 75.4154 43.6857L77.8213 40.5914L76.0313 38.2848C75.6271 37.7597 75.2036 37.1784 75.2036 36.5033C75.2036 35.3593 76.1853 34.4404 77.3594 34.4404C78.1101 34.4404 78.6875 34.8155 79.1302 35.3781L80.4968 37.1409L81.7864 35.5656C82.2868 34.9468 82.7873 34.4404 83.6534 34.4404C84.7891 34.4404 85.8092 35.3593 85.8092 36.4845C85.8092 37.0659 85.482 37.6097 85.1355 38.0598L83.1722 40.5914L85.5782 43.7232C85.8862 44.117 86.0402 44.5858 86.0402 45.0734Z" fill="#333333"/>
<path fill-rule="evenodd" clip-rule="evenodd" d="M85.1355 38.0598L83.1722 40.5914L85.5782 43.7232C85.8862 44.117 86.0402 44.5858 86.0402 45.0734C86.0402 46.1798 85.1548 47.155 83.9806 47.155C83.2492 47.155 82.6525 46.7987 82.2291 46.2548L80.4968 44.042L78.7645 46.2361C78.3025 46.8174 77.8406 47.1362 77.0514 47.1362C75.8965 47.1362 74.9149 46.2361 74.9149 45.0922C74.9149 44.5858 75.1074 44.0795 75.4153 43.6857L77.8213 40.5914L76.0313 38.2848C75.6271 37.7597 75.2036 37.1784 75.2036 36.5033C75.2036 35.3593 76.1853 34.4404 77.3594 34.4404C78.11 34.4404 78.6875 34.8155 79.1302 35.3781L80.4968 37.1409L81.7864 35.5656C82.2868 34.9467 82.7873 34.4404 83.6534 34.4404C84.789 34.4404 85.8092 35.3593 85.8092 36.4845C85.8092 37.0658 85.482 37.6097 85.1355 38.0598ZM81.2933 35.1643C81.8059 34.5306 82.473 33.8047 83.6534 33.8047C85.0979 33.8047 86.4449 34.9674 86.4449 36.4845C86.4449 37.2905 85.9993 37.9798 85.6393 38.4475L85.6379 38.4493L83.9753 40.5932L86.0807 43.3338C86.4779 43.8427 86.6759 44.4496 86.6759 45.0734C86.6759 46.5084 85.528 47.7907 83.9806 47.7907C83.0202 47.7907 82.2499 47.316 81.728 46.6461C81.7279 46.6459 81.7277 46.6457 81.7275 46.6454L80.4947 45.0706L79.2622 46.6316C79.0047 46.9557 78.7135 47.2502 78.3414 47.4587C77.9609 47.672 77.5379 47.772 77.0514 47.772C75.5803 47.772 74.2792 46.6211 74.2792 45.0922C74.2792 44.4304 74.5278 43.789 74.914 43.2948C74.9142 43.2945 74.9144 43.2943 74.9146 43.2941L77.0163 40.591L75.5275 38.6726L75.526 38.6706C75.1429 38.1729 74.5679 37.426 74.5679 36.5033C74.5679 34.9781 75.865 33.8047 77.3594 33.8047C78.3561 33.8047 79.1021 34.3144 79.6298 34.9849L79.6312 34.9867L80.5103 36.1207L81.2933 35.1643Z" fill="white"/>
<path d="M73.3256 45.0084C73.3256 46.1578 72.7376 47.155 71.5774 47.155C71.1006 47.155 70.6079 46.9353 70.2741 46.5634C69.8768 46.124 69.8291 45.6 69.8291 45.0084V38.0276C69.8291 37.3346 69.8291 36.8613 70.2741 36.3204C70.6079 35.9147 71.0688 35.7119 71.5774 35.7119C72.07 35.7119 72.5309 35.9147 72.8647 36.3035C73.3097 36.8106 73.3256 37.3515 73.3256 38.0276V45.0084Z" fill="#333333"/>
<path fill-rule="evenodd" clip-rule="evenodd" d="M73.3968 46.8919C72.9884 47.4415 72.3644 47.7907 71.5774 47.7907C70.9161 47.7907 70.2532 47.4914 69.8018 46.9889C69.232 46.3581 69.1934 45.6137 69.1934 45.0084V38.0276C69.1934 38.0123 69.1934 37.9971 69.1934 37.9818C69.1931 37.3104 69.1928 36.6341 69.7832 35.9165L70.2741 36.3204C69.8291 36.8613 69.8291 37.3346 69.8291 38.0276V45.0084C69.8291 45.6 69.8768 46.124 70.2741 46.5634C70.6079 46.9353 71.1006 47.155 71.5774 47.155C72.7376 47.155 73.3256 46.1578 73.3256 45.0084V38.0276C73.3256 37.3515 73.3097 36.8106 72.8647 36.3035C72.531 35.9147 72.0701 35.7119 71.5774 35.7119C71.0688 35.7119 70.6079 35.9147 70.2741 36.3204L69.7832 35.9165C70.2437 35.3568 70.8883 35.0762 71.5774 35.0762C72.2505 35.0762 72.8879 35.3561 73.3448 35.8868C73.9614 36.5912 73.9614 37.3627 73.9614 38.0263V45.0084C73.9614 45.6819 73.7903 46.3624 73.3968 46.8919Z" fill="white"/>
<path d="M68.8754 45.3633C68.8754 46.3775 68.0147 47.155 66.9991 47.155C66.1039 47.155 65.2949 46.631 65.1227 45.7352L64.7096 43.6224L63.9521 45.6169C63.6251 46.4958 63.0226 47.155 62.0069 47.155C60.9741 47.155 60.4404 46.5296 60.0961 45.6338L59.3387 43.6224L59.0116 45.4141C58.8395 46.3944 58.2026 47.155 57.1353 47.155C55.9303 47.155 55.2073 46.2592 55.2073 45.1267C55.2073 44.9746 55.2245 44.8225 55.2589 44.6703L56.55 37.4529C56.7221 36.4725 57.3418 35.7119 58.4091 35.7119C59.2354 35.7119 59.9929 36.219 60.3199 36.9627L62.0069 40.6982L63.9177 36.7092C64.2104 36.1007 64.8989 35.7119 65.5875 35.7119C66.0695 35.7119 66.5343 35.8978 66.8958 36.219C67.2745 36.557 67.395 36.9627 67.4811 37.4529L68.8066 44.721C68.841 44.9408 68.8754 45.1436 68.8754 45.3633Z" fill="#333333"/>
<path fill-rule="evenodd" clip-rule="evenodd" d="M63.9177 36.7092C64.2103 36.1007 64.8989 35.7119 65.5875 35.7119C66.0695 35.7119 66.5343 35.8978 66.8958 36.219C67.2745 36.557 67.395 36.9627 67.4811 37.4529L68.8066 44.721C68.8089 44.7358 68.8112 44.7504 68.8135 44.765C68.8455 44.968 68.8754 45.1583 68.8754 45.3633C68.8754 46.3775 68.0147 47.155 66.9991 47.155C66.1039 47.155 65.2948 46.631 65.1227 45.7352L64.7096 43.6224L63.9521 45.6169C63.6251 46.4958 63.0226 47.155 62.0069 47.155C60.9741 47.155 60.4404 46.5296 60.0961 45.6338L59.3387 43.6224L59.0116 45.414C58.8395 46.3944 58.2026 47.155 57.1353 47.155C55.9303 47.155 55.2073 46.2592 55.2073 45.1267C55.2073 44.9746 55.2245 44.8224 55.2589 44.6703L56.55 37.4529C56.7221 36.4725 57.3418 35.7119 58.4091 35.7119C59.2354 35.7119 59.9928 36.219 60.3199 36.9627L62.0069 40.6982L63.9177 36.7092ZM62.0239 39.1912L63.3448 36.4336C63.756 35.5786 64.6853 35.0762 65.5875 35.0762C66.2336 35.0762 66.8466 35.3249 67.318 35.7437L67.3191 35.7447C67.8617 36.229 68.014 36.813 68.1069 37.3409C68.107 37.3416 68.1071 37.3422 68.1072 37.3429L69.4334 44.6148L69.4346 44.6226C69.4372 44.639 69.4398 44.6557 69.4425 44.6727C69.4736 44.8687 69.5112 45.1062 69.5112 45.3633C69.5112 46.7659 68.3273 47.7907 66.9991 47.7907C65.894 47.7907 64.7848 47.1427 64.5135 45.9281C64.326 46.4009 64.0516 46.8531 63.6529 47.197C63.2178 47.5723 62.6654 47.7907 62.0069 47.7907C61.3481 47.7907 60.8041 47.5859 60.3738 47.208C59.9836 46.8653 59.7243 46.4132 59.5362 45.9468C59.4026 46.3791 59.1807 46.7812 58.8576 47.1027C58.4214 47.5369 57.8329 47.7907 57.1353 47.7907C56.3649 47.7907 55.7078 47.4993 55.2484 46.9925C54.7956 46.4931 54.5715 45.8262 54.5715 45.1267C54.5715 44.9313 54.5931 44.7371 54.6355 44.545L55.9238 37.3429C55.9239 37.3426 55.924 37.3422 55.924 37.3419C56.0269 36.7571 56.2706 36.1928 56.6923 35.7673C57.1249 35.3307 57.7107 35.0762 58.4091 35.0762C59.4908 35.0762 60.473 35.7349 60.9005 36.7037L62.0239 39.1912Z" fill="white"/>
<path d="M54.2537 41.8777C54.2537 42.663 53.5346 43.0229 52.7805 43.0229H50.7813C50.2552 43.0229 49.8518 43.0065 49.4835 42.6139C49.2731 42.4012 49.1678 42.1885 49.1678 41.894C49.1678 41.0269 50.0096 40.7979 50.7813 40.7979H52.763C53.482 40.7979 54.2537 41.1087 54.2537 41.8777Z" fill="#333333"/>
<path fill-rule="evenodd" clip-rule="evenodd" d="M54.1679 43.2576C53.7542 43.5455 53.2407 43.6586 52.7666 43.6586H50.7936C50.5432 43.6586 50.2291 43.6576 49.9224 43.5799C49.5881 43.4952 49.2846 43.3275 49.0163 43.0401C48.7152 42.7294 48.5322 42.3689 48.5322 41.894C48.5322 41.2211 48.8789 40.7428 49.3781 40.4698C49.8278 40.2238 50.3624 40.1621 50.7936 40.1621H52.7493C53.1923 40.1621 53.6991 40.2569 54.1178 40.5177C54.5652 40.7964 54.8895 41.2568 54.8895 41.8776C54.8895 42.4788 54.6054 42.9533 54.1679 43.2576ZM49.5129 42.6139C49.8764 43.0065 50.2744 43.0229 50.7936 43.0229H52.7666C53.5108 43.0229 54.2203 42.663 54.2203 41.8776C54.2203 41.1087 53.4588 40.7978 52.7493 40.7978H50.7936C50.0321 40.7978 49.2014 41.0269 49.2014 41.894C49.2014 42.1885 49.3053 42.4012 49.5129 42.6139Z" fill="white"/>
<path d="M35.4998 43.832C35.4998 44.2806 35.3565 44.6775 35.088 45.0571C34.0319 46.5756 31.9195 47.4729 30.0578 47.4729C26.6029 47.4729 23.7388 44.8155 23.7388 41.4507C23.7388 38.0859 26.585 35.394 30.0757 35.394C31.5615 35.394 32.9041 35.8945 34.0677 36.7917C34.7837 37.3439 35.4998 38.1204 35.4998 39.0695C35.4998 40.122 34.6226 40.9676 33.5306 40.9676C31.8658 40.9676 31.9732 39.1903 30.0041 39.1903C28.6974 39.1903 27.677 40.1738 27.677 41.4335C27.677 42.6759 28.7153 43.6767 30.0041 43.6767C31.7584 43.6767 31.9732 41.9856 33.5127 41.9856C34.551 41.9856 35.4998 42.7967 35.4998 43.832Z" fill="#333333"/>
<path fill-rule="evenodd" clip-rule="evenodd" d="M35.6085 45.4222C35.9404 44.9521 36.1355 44.43 36.1355 43.832C36.1355 42.6906 35.3273 41.8033 34.3328 41.4811C35.3707 41.1559 36.1355 40.2151 36.1355 39.0694C36.1355 37.7999 35.1933 36.857 34.4559 36.2883C33.1908 35.3127 31.7137 34.7583 30.0757 34.7583C26.2633 34.7583 23.103 37.7061 23.103 41.4507C23.103 45.1999 26.2861 48.1086 30.0578 48.1086C32.0796 48.1086 34.4084 47.1456 35.6085 45.4222ZM32.7261 41.4762C32.1484 41.2797 31.7796 40.8931 31.4898 40.5892C31.4672 40.5654 31.445 40.5422 31.4233 40.5196C31.2112 40.299 31.0429 40.1375 30.8374 40.0205C30.6453 39.9112 30.3921 39.826 30.0041 39.826C29.0262 39.826 28.3127 40.5467 28.3127 41.4335C28.3127 42.3029 29.0441 43.0409 30.0041 43.0409C30.6251 43.0409 30.961 42.7698 31.4115 42.3606C31.4338 42.3404 31.4565 42.3196 31.4796 42.2985C31.7867 42.0177 32.1755 41.6621 32.7261 41.4762ZM35.088 45.0571C35.3565 44.6775 35.4997 44.2806 35.4997 43.832C35.4997 42.7966 34.551 41.9856 33.5127 41.9856C32.7681 41.9856 32.3334 42.3812 31.8845 42.7898C31.4053 43.2259 30.9099 43.6767 30.0041 43.6767C28.7152 43.6767 27.677 42.6758 27.677 41.4335C27.677 40.1738 28.6973 39.1902 30.0041 39.1902C31.03 39.1902 31.4922 39.6726 31.9351 40.1348C32.3423 40.5597 32.7331 40.9676 33.5306 40.9676C34.6226 40.9676 35.4997 40.122 35.4997 39.0694C35.4997 38.1204 34.7837 37.3439 34.0677 36.7917C32.9041 35.8944 31.5615 35.394 30.0757 35.394C26.585 35.394 23.7388 38.0859 23.7388 41.4507C23.7388 44.8155 26.6029 47.4729 30.0578 47.4729C31.9195 47.4729 34.0319 46.5756 35.088 45.0571Z" fill="white"/>
<path d="M23.103 45.333C23.103 46.3717 22.2648 47.155 21.2591 47.155C20.6054 47.155 20.069 46.8485 19.7337 46.2866L18.2084 43.7153V45.2649C18.2084 46.3036 17.4373 47.155 16.398 47.155C15.0738 47.155 14.5206 46.0993 14.5206 44.8732V37.8745C14.5206 37.1934 14.6212 36.6825 15.1241 36.2057C15.6269 35.7289 16.1298 35.7119 16.8003 35.7119H18.3425C19.2644 35.7119 19.9014 35.7289 20.7562 36.1206C22.1643 36.7847 23.0694 38.2321 23.0694 39.7987C23.0694 40.9396 22.6169 41.8592 21.8793 42.6936C22.1643 43.1704 22.466 43.6301 22.751 44.1069C22.9689 44.4645 23.103 44.9073 23.103 45.333ZM19.4488 39.8158C19.4488 39.1687 18.6609 39.2027 18.2084 39.1857V40.4118H18.6107C19.0297 40.4118 19.4488 40.3266 19.4488 39.8158Z" fill="#333333"/>
<path fill-rule="evenodd" clip-rule="evenodd" d="M19.1879 46.6123L19.1871 46.6109L18.7669 45.9026C18.5039 46.9665 17.5936 47.7907 16.3981 47.7907C15.5424 47.7907 14.878 47.4373 14.4489 46.8481C14.0402 46.2868 13.885 45.5691 13.885 44.8732V37.8745C13.885 37.1145 14.0015 36.3941 14.6868 35.7444C15.3877 35.0798 16.1281 35.0762 16.8004 35.0762H18.3426C19.2784 35.0762 20.0336 35.0902 21.0211 35.5426L21.0243 35.5441L21.0275 35.5456C22.6621 36.3165 23.7053 37.9904 23.7053 39.7987C23.7053 40.9594 23.2983 41.9151 22.6579 42.7487C22.7224 42.8527 22.7878 42.9571 22.854 43.0628L22.8557 43.0655C23.0008 43.2971 23.15 43.5353 23.2955 43.7786C23.5686 44.2279 23.7388 44.7831 23.7388 45.333C23.7388 46.7401 22.5986 47.7907 21.2592 47.7907C20.3801 47.7907 19.6371 47.3652 19.1879 46.6123ZM21.8794 42.6936C22.617 41.8592 23.0696 40.9396 23.0696 39.7987C23.0696 38.2321 22.1644 36.7847 20.7563 36.1206C19.9015 35.7289 19.2645 35.7119 18.3426 35.7119H16.8004C16.1299 35.7119 15.6271 35.7289 15.1242 36.2057C14.6213 36.6825 14.5207 37.1934 14.5207 37.8745V44.8732C14.5207 46.0993 15.0739 47.155 16.3981 47.155C17.4374 47.155 18.2085 46.3036 18.2085 45.2649V43.7153L19.7338 46.2866C20.0691 46.8485 20.6055 47.155 21.2592 47.155C22.265 47.155 23.1031 46.3717 23.1031 45.333C23.1031 44.9073 22.969 44.4645 22.7511 44.1069C22.6086 43.8685 22.4619 43.6344 22.3152 43.4002C22.1686 43.1661 22.0219 42.932 21.8794 42.6936ZM18.2085 39.1857V40.4118H18.6108C18.6895 40.4118 18.7682 40.4087 18.8442 40.4005C19.1725 40.3647 19.4489 40.2306 19.4489 39.8158C19.4489 39.4289 19.1673 39.2855 18.8442 39.2291C18.6694 39.1986 18.4825 39.1935 18.3213 39.1891C18.282 39.1881 18.2442 39.187 18.2085 39.1857Z" fill="white"/>
<path d="M13.5671 44.8412C13.5671 45.9582 12.6552 46.8371 11.5199 46.8371C10.3287 46.8371 9.86344 46.1047 9.41677 45.1525H5.62003C5.21058 46.123 4.67084 46.8371 3.51693 46.8371C2.36302 46.8371 1.48828 45.9399 1.48828 44.8229C1.48828 44.4567 1.56273 44.0905 1.73023 43.7609L5.62003 35.649C5.97365 34.9165 6.66227 34.4404 7.49979 34.4404C8.35591 34.4404 9.06315 34.9165 9.41677 35.6673L13.3438 43.8524C13.4927 44.1637 13.5671 44.4933 13.5671 44.8412ZM8.13258 42.2593L7.49979 40.7761L6.867 42.2593H8.13258Z" fill="#333333"/>
<path fill-rule="evenodd" clip-rule="evenodd" d="M13.3438 43.8524C13.4927 44.1637 13.5671 44.4933 13.5671 44.8412C13.5671 45.9582 12.6551 46.8371 11.5198 46.8371C10.3287 46.8371 9.86343 46.1047 9.41675 45.1525H5.62001C5.21056 46.123 4.67083 46.8371 3.51692 46.8371C2.36301 46.8371 1.48827 45.9399 1.48827 44.8229C1.48827 44.4567 1.56271 44.0904 1.73022 43.7608L5.62001 35.649C5.97363 34.9165 6.66226 34.4404 7.49977 34.4404C8.3559 34.4404 9.06314 34.9165 9.41675 35.6673L13.3438 43.8524ZM9.99086 35.3942C9.9912 35.3949 9.99154 35.3957 9.99188 35.3964L13.9173 43.5781C14.1075 43.9757 14.2028 44.3992 14.2028 44.8412C14.2028 46.3265 12.9888 47.4729 11.5198 47.4729C10.7732 47.4729 10.2001 47.2352 9.75344 46.8148C9.44106 46.5208 9.21094 46.1549 9.02056 45.7882H6.0279C5.83724 46.1695 5.59848 46.5358 5.2749 46.8295C4.82081 47.2416 4.24247 47.4729 3.51692 47.4729C2.01024 47.4729 0.852539 46.2893 0.852539 44.8229C0.852539 44.3744 0.943131 43.9095 1.15994 43.4798L5.04751 35.3726C5.49836 34.4387 6.39857 33.8047 7.49977 33.8047C8.61152 33.8047 9.53643 34.4314 9.99086 35.3942ZM7.49977 40.7761L6.86698 42.2593H8.13256L7.49977 40.7761Z" fill="white"/>
<path d="M47.8965 41.2577C47.8965 44.5172 45.1646 47.155 41.8485 47.155C38.4808 47.155 35.8176 44.5004 35.8176 41.2073C35.8176 37.9479 38.5324 35.394 41.8485 35.394C45.1646 35.394 47.8965 37.9983 47.8965 41.2577ZM44.1165 41.2577C44.1165 40.048 43.0684 39.0904 41.8485 39.0904C40.6285 39.0904 39.5976 40.048 39.5976 41.2409C39.5976 42.4674 40.6114 43.4587 41.8656 43.4587C43.0856 43.4587 44.1165 42.4506 44.1165 41.2577Z" fill="#333333"/>
<path fill-rule="evenodd" clip-rule="evenodd" d="M48.5322 41.2577C48.5322 44.8851 45.4986 47.7907 41.8484 47.7907C38.1361 47.7907 35.1819 44.8578 35.1819 41.2073C35.1819 37.5705 38.208 34.7583 41.8484 34.7583C45.4938 34.7583 48.5322 37.6257 48.5322 41.2577ZM43.4807 41.2577C43.4807 40.4341 42.7533 39.7261 41.8484 39.7261C40.9467 39.7261 40.2334 40.4312 40.2334 41.2409C40.2334 42.103 40.949 42.823 41.8656 42.823C42.7479 42.823 43.4807 42.0862 43.4807 41.2577ZM41.8484 47.155C45.1645 47.155 47.8965 44.5172 47.8965 41.2577C47.8965 37.9982 45.1645 35.394 41.8484 35.394C38.5323 35.394 35.8176 37.9478 35.8176 41.2073C35.8176 44.5004 38.4808 47.155 41.8484 47.155ZM41.8484 39.0903C43.0684 39.0903 44.1165 40.048 44.1165 41.2577C44.1165 42.4506 43.0855 43.4587 41.8656 43.4587C40.6114 43.4587 39.5976 42.4674 39.5976 41.2409C39.5976 40.048 40.6285 39.0903 41.8484 39.0903Z" fill="white"/>
<path d="M85.3978 52.3477L84.0512 56.055H83.5009L85.0514 51.9873H85.4062L85.3978 52.3477ZM86.5265 56.055L85.1771 52.3477L85.1687 51.9873H85.5235L87.0796 56.055H86.5265ZM86.4566 54.5492V54.9906H84.1713V54.5492H86.4566Z" fill="#333333"/>
<path d="M82.6322 51.9873V56.055H82.093V51.9873H82.6322Z" fill="#333333"/>
<path d="M81.2077 55.6164V56.055H79.1739V55.6164H81.2077ZM79.28 51.9873V56.055H78.7408V51.9873H79.28Z" fill="#333333"/>
<path d="M77.5313 51.9873V56.055H76.9921V51.9873H77.5313ZM76.9753 51.6856L77.5173 50.8643H78.1403L77.3916 51.6856H76.9753Z" fill="#333333"/>
<path d="M71.8993 51.9873H72.4217L73.7543 55.3035L75.0842 51.9873H75.6094L73.9555 56.055H73.5476L71.8993 51.9873ZM71.7289 51.9873H72.1898L72.2653 54.4681V56.055H71.7289V51.9873ZM75.316 51.9873H75.777V56.055H75.2406V54.4681L75.316 51.9873Z" fill="#333333"/>
<path d="M69.2734 52.3477L67.9268 56.055H67.3765L68.927 51.9873H69.2818L69.2734 52.3477ZM70.4021 56.055L69.0527 52.3477L69.0443 51.9873H69.3991L70.9552 56.055H70.4021ZM70.3322 54.5492V54.9906H68.047V54.5492H70.3322Z" fill="#333333"/>
<path d="M65.3904 51.9873V56.055H64.8512V51.9873H65.3904ZM67.0946 53.8172V54.2586H65.273V53.8172H67.0946ZM67.3711 51.9873V52.4287H65.273V51.9873H67.3711Z" fill="#333333"/>
<path d="M60.7477 52.3477L59.4011 56.055H58.8507L60.4012 51.9873H60.756L60.7477 52.3477ZM61.8763 56.055L60.5269 52.3477L60.5186 51.9873H60.8734L62.4295 56.055H61.8763ZM61.8065 54.5492V54.9906H59.5212V54.5492H61.8065Z" fill="#333333"/>
<path d="M56.4204 56.055H55.5711L55.5767 55.6164H56.4204C56.711 55.6164 56.9531 55.5558 57.1468 55.4348C57.3405 55.3118 57.4858 55.1405 57.5826 54.9207C57.6813 54.6991 57.7307 54.4402 57.7307 54.1441V53.8954C57.7307 53.6626 57.7028 53.4559 57.6469 53.2752C57.591 53.0927 57.5091 52.939 57.401 52.8142C57.293 52.6876 57.1608 52.5917 57.0043 52.5265C56.8497 52.4613 56.6719 52.4287 56.4707 52.4287H55.5544V51.9873H56.4707C56.7371 51.9873 56.9801 52.032 57.1999 52.1214C57.4197 52.2089 57.6087 52.3365 57.767 52.5041C57.9272 52.6699 58.0501 52.8711 58.1358 53.1076C58.2215 53.3423 58.2643 53.6067 58.2643 53.901V54.1441C58.2643 54.4383 58.2215 54.7037 58.1358 54.9403C58.0501 55.175 57.9263 55.3752 57.7642 55.5409C57.604 55.7067 57.4103 55.8343 57.1831 55.9237C56.9578 56.0112 56.7035 56.055 56.4204 56.055ZM55.8589 51.9873V56.055H55.3197V51.9873H55.8589Z" fill="#333333"/>
<path d="M52.6355 53.8928V54.1499C52.6355 54.4553 52.5973 54.7291 52.5209 54.9712C52.4446 55.2133 52.3347 55.4191 52.1913 55.5886C52.0479 55.7581 51.8756 55.8876 51.6744 55.977C51.4751 56.0664 51.2516 56.1111 51.0039 56.1111C50.7637 56.1111 50.543 56.0664 50.3418 55.977C50.1425 55.8876 49.9693 55.7581 49.8222 55.5886C49.6769 55.4191 49.5642 55.2133 49.4841 54.9712C49.4041 54.7291 49.364 54.4553 49.364 54.1499V53.8928C49.364 53.5874 49.4031 53.3145 49.4814 53.0743C49.5614 52.8322 49.6741 52.6263 49.8194 52.4569C49.9647 52.2855 50.1369 52.1551 50.3362 52.0657C50.5374 51.9763 50.7581 51.9316 50.9983 51.9316C51.2461 51.9316 51.4696 51.9763 51.6688 52.0657C51.87 52.1551 52.0423 52.2855 52.1857 52.4569C52.331 52.6263 52.4418 52.8322 52.5181 53.0743C52.5964 53.3145 52.6355 53.5874 52.6355 53.8928ZM52.1019 54.1499V53.8873C52.1019 53.6451 52.0767 53.4309 52.0264 53.2447C51.978 53.0584 51.9063 52.902 51.8113 52.7753C51.7163 52.6487 51.5999 52.5528 51.4621 52.4876C51.3261 52.4224 51.1716 52.3898 50.9983 52.3898C50.8307 52.3898 50.6789 52.4224 50.543 52.4876C50.4089 52.5528 50.2934 52.6487 50.1965 52.7753C50.1016 52.902 50.028 53.0584 49.9758 53.2447C49.9237 53.4309 49.8976 53.6451 49.8976 53.8873V54.1499C49.8976 54.3938 49.9237 54.6099 49.9758 54.798C50.028 54.9843 50.1025 55.1416 50.1993 55.2701C50.2981 55.3968 50.4145 55.4927 50.5486 55.5579C50.6845 55.6231 50.8363 55.6557 51.0039 55.6557C51.179 55.6557 51.3345 55.6231 51.4705 55.5579C51.6064 55.4927 51.721 55.3968 51.8141 55.2701C51.9091 55.1416 51.9808 54.9843 52.0292 54.798C52.0777 54.6099 52.1019 54.3938 52.1019 54.1499Z" fill="#333333"/>
<path d="M46.6206 56.055H45.7713L45.7769 55.6164H46.6206C46.9112 55.6164 47.1533 55.5558 47.347 55.4348C47.5407 55.3118 47.686 55.1405 47.7828 54.9207C47.8815 54.6991 47.9309 54.4402 47.9309 54.1441V53.8954C47.9309 53.6626 47.9029 53.4559 47.8471 53.2752C47.7912 53.0927 47.7093 52.939 47.6012 52.8142C47.4932 52.6876 47.361 52.5917 47.2045 52.5265C47.0499 52.4613 46.8721 52.4287 46.6709 52.4287H45.7546V51.9873H46.6709C46.9372 51.9873 47.1803 52.032 47.4001 52.1214C47.6199 52.2089 47.8089 52.3365 47.9672 52.5041C48.1274 52.6699 48.2503 52.8711 48.336 53.1076C48.4217 53.3423 48.4645 53.6067 48.4645 53.901V54.1441C48.4645 54.4383 48.4217 54.7037 48.336 54.9403C48.2503 55.175 48.1264 55.3752 47.9644 55.5409C47.8042 55.7067 47.6105 55.8343 47.3833 55.9237C47.158 56.0112 46.9037 56.055 46.6206 56.055ZM46.0591 51.9873V56.055H45.5199V51.9873H46.0591Z" fill="#333333"/>
<path d="M43.0644 52.3477L41.7178 56.055H41.1675L42.718 51.9873H43.0728L43.0644 52.3477ZM44.1931 56.055L42.8437 52.3477L42.8353 51.9873H43.1901L44.7462 56.055H44.1931ZM44.1232 54.5492V54.9906H41.838V54.5492H44.1232Z" fill="#333333"/>
<path d="M40.0586 54.7617H40.595C40.5671 55.0187 40.4935 55.2487 40.3743 55.4517C40.2551 55.6548 40.0866 55.8159 39.8687 55.9351C39.6508 56.0524 39.3788 56.1111 39.0529 56.1111C38.8145 56.1111 38.5975 56.0664 38.402 55.977C38.2083 55.8876 38.0416 55.7609 37.9019 55.597C37.7622 55.4313 37.6542 55.2329 37.5778 55.0019C37.5033 54.7691 37.4661 54.5103 37.4661 54.2253V53.8202C37.4661 53.5352 37.5033 53.2773 37.5778 53.0463C37.6542 52.8135 37.7631 52.6142 37.9047 52.4485C38.0481 52.2827 38.2204 52.1551 38.4215 52.0657C38.6227 51.9763 38.849 51.9316 39.1004 51.9316C39.4077 51.9316 39.6675 51.9894 39.8798 52.1049C40.0922 52.2203 40.257 52.3805 40.3743 52.5854C40.4935 52.7884 40.5671 53.024 40.595 53.2922H40.0586C40.0326 53.1022 39.9841 52.9392 39.9134 52.8033C39.8426 52.6655 39.742 52.5593 39.6116 52.4848C39.4813 52.4103 39.3109 52.373 39.1004 52.373C38.9197 52.373 38.7605 52.4075 38.6227 52.4764C38.4867 52.5453 38.3722 52.6431 38.279 52.7698C38.1878 52.8964 38.1189 53.0482 38.0723 53.2251C38.0257 53.4021 38.0025 53.5986 38.0025 53.8146V54.2253C38.0025 54.4246 38.0229 54.6118 38.0639 54.7868C38.1068 54.9619 38.171 55.1156 38.2567 55.2478C38.3424 55.38 38.4513 55.4843 38.5836 55.5607C38.7158 55.6352 38.8722 55.6724 39.0529 55.6724C39.282 55.6724 39.4645 55.6361 39.6005 55.5635C39.7364 55.4909 39.8389 55.3866 39.9078 55.2506C39.9786 55.1146 40.0288 54.9517 40.0586 54.7617Z" fill="#333333"/>
<path d="M33.8484 51.9873H35.195C35.5004 51.9873 35.7584 52.0339 35.9688 52.127C36.1812 52.2201 36.3423 52.3579 36.4521 52.5405C36.5639 52.7211 36.6198 52.9437 36.6198 53.2082C36.6198 53.3944 36.5816 53.5648 36.5052 53.7194C36.4307 53.8721 36.3227 54.0025 36.1812 54.1105C36.0415 54.2167 35.8738 54.2959 35.6783 54.348L35.5274 54.4067H34.2619L34.2563 53.9681H35.2117C35.4054 53.9681 35.5665 53.9345 35.695 53.8675C35.8236 53.7986 35.9204 53.7064 35.9856 53.5909C36.0508 53.4754 36.0834 53.3479 36.0834 53.2082C36.0834 53.0517 36.0526 52.9148 35.9912 52.7975C35.9297 52.6801 35.8329 52.5898 35.7006 52.5265C35.5703 52.4613 35.4017 52.4287 35.195 52.4287H34.3876V56.055H33.8484V51.9873ZM36.2259 56.055L35.2369 54.2111L35.7984 54.2083L36.8014 56.0215V56.055H36.2259Z" fill="#333333"/>
<path d="M32.9519 55.6164V56.055H30.7979V55.6164H32.9519ZM30.9069 51.9873V56.055H30.3677V51.9873H30.9069ZM32.6669 53.7362V54.1748H30.7979V53.7362H32.6669ZM32.9239 51.9873V52.4287H30.7979V51.9873H32.9239Z" fill="#333333"/>
<path d="M25.3141 51.9873H25.8365L27.1691 55.3035L28.4989 51.9873H29.0242L27.3703 56.055H26.9624L25.3141 51.9873ZM25.1437 51.9873H25.6046L25.6801 54.4681V56.055H25.1437V51.9873ZM28.7308 51.9873H29.1918V56.055H28.6554V54.4681L28.7308 51.9873Z" fill="#333333"/>
<path d="M21.3892 51.9873H22.7357C23.0412 51.9873 23.2991 52.0339 23.5096 52.127C23.7219 52.2201 23.883 52.3579 23.9929 52.5405C24.1047 52.7211 24.1605 52.9437 24.1605 53.2082C24.1605 53.3944 24.1224 53.5648 24.046 53.7194C23.9715 53.8721 23.8635 54.0025 23.7219 54.1105C23.5822 54.2167 23.4146 54.2959 23.2191 54.348L23.0682 54.4067H21.8026L21.797 53.9681H22.7525C22.9462 53.9681 23.1073 53.9345 23.2358 53.8675C23.3643 53.7986 23.4612 53.7064 23.5264 53.5909C23.5916 53.4754 23.6241 53.3479 23.6241 53.2082C23.6241 53.0517 23.5934 52.9148 23.532 52.7975C23.4705 52.6801 23.3736 52.5898 23.2414 52.5265C23.111 52.4613 22.9425 52.4287 22.7357 52.4287H21.9283V56.055H21.3892V51.9873ZM23.7666 56.055L22.7776 54.2111L23.3392 54.2083L24.3421 56.0215V56.055H23.7666Z" fill="#333333"/>
<path d="M20.4925 55.6164V56.055H18.3386V55.6164H20.4925ZM18.4475 51.9873V56.055H17.9083V51.9873H18.4475ZM20.2076 53.7362V54.1748H18.3386V53.7362H20.2076ZM20.4646 51.9873V52.4287H18.3386V51.9873H20.4646Z" fill="#333333"/>
<path d="M15.5702 54.4598H14.4834V54.0211H15.5702C15.7806 54.0211 15.9511 53.9876 16.0814 53.9206C16.2118 53.8535 16.3068 53.7604 16.3664 53.6412C16.4279 53.522 16.4586 53.386 16.4586 53.2333C16.4586 53.0936 16.4279 52.9623 16.3664 52.8394C16.3068 52.7165 16.2118 52.6178 16.0814 52.5433C15.9511 52.4669 15.7806 52.4287 15.5702 52.4287H14.6091V56.055H14.0699V51.9873H15.5702C15.8775 51.9873 16.1373 52.0404 16.3496 52.1465C16.562 52.2527 16.7231 52.3998 16.8329 52.588C16.9428 52.7742 16.9978 52.9875 16.9978 53.2277C16.9978 53.4885 16.9428 53.711 16.8329 53.8954C16.7231 54.0798 16.562 54.2204 16.3496 54.3173C16.1373 54.4123 15.8775 54.4598 15.5702 54.4598Z" fill="#333333"/>
<path d="M12.4581 51.9873H12.9945V54.7391C12.9945 55.0446 12.9265 55.2988 12.7906 55.5018C12.6546 55.7048 12.474 55.8576 12.2486 55.96C12.0251 56.0606 11.782 56.1108 11.5194 56.1108C11.2438 56.1108 10.9942 56.0606 10.7707 55.96C10.5491 55.8576 10.3731 55.7048 10.2427 55.5018C10.1142 55.2988 10.0499 55.0446 10.0499 54.7391V51.9873H10.5835V54.7391C10.5835 54.9515 10.6226 55.1265 10.7009 55.2643C10.7791 55.4022 10.888 55.5046 11.0277 55.5717C11.1693 55.6387 11.3332 55.6722 11.5194 55.6722C11.7075 55.6722 11.8714 55.6387 12.0111 55.5717C12.1527 55.5046 12.2626 55.4022 12.3408 55.2643C12.419 55.1265 12.4581 54.9515 12.4581 54.7391V51.9873Z" fill="#333333"/>
<path d="M8.67294 55.0271C8.67294 54.9321 8.65804 54.8483 8.62824 54.7757C8.6003 54.7012 8.55001 54.6341 8.47738 54.5745C8.4066 54.5149 8.30789 54.4581 8.18124 54.4041C8.05645 54.3501 7.89814 54.2951 7.70631 54.2393C7.50516 54.1797 7.32357 54.1135 7.16153 54.0409C6.99949 53.9664 6.86074 53.8817 6.74526 53.7867C6.62979 53.6917 6.54132 53.5827 6.47986 53.4598C6.4184 53.3369 6.38767 53.1963 6.38767 53.038C6.38767 52.8796 6.42026 52.7334 6.48545 52.5993C6.55063 52.4652 6.64376 52.3488 6.76482 52.2501C6.88774 52.1496 7.03395 52.0713 7.20344 52.0155C7.37292 51.9596 7.56196 51.9316 7.77056 51.9316C8.07601 51.9316 8.3349 51.9903 8.54722 52.1076C8.76141 52.2231 8.92437 52.3749 9.03612 52.563C9.14787 52.7493 9.20375 52.9486 9.20375 53.1609H8.66735C8.66735 53.0082 8.63476 52.8731 8.56957 52.7558C8.50438 52.6366 8.40567 52.5435 8.27343 52.4764C8.1412 52.4075 7.97357 52.373 7.77056 52.373C7.57873 52.373 7.42042 52.4019 7.29563 52.4597C7.17084 52.5174 7.07772 52.5956 7.01626 52.6943C6.95666 52.793 6.92686 52.9057 6.92686 53.0324C6.92686 53.118 6.94455 53.1963 6.97994 53.267C7.01719 53.336 7.07399 53.4002 7.15036 53.4598C7.22858 53.5194 7.32729 53.5744 7.44649 53.6246C7.56755 53.6749 7.71189 53.7234 7.87952 53.7699C8.11047 53.8351 8.30975 53.9077 8.47738 53.9878C8.645 54.0679 8.78282 54.1582 8.89085 54.2588C9.00074 54.3575 9.08175 54.4702 9.1339 54.5969C9.18792 54.7216 9.21492 54.8632 9.21492 55.0215C9.21492 55.1873 9.1814 55.3372 9.11435 55.4713C9.0473 55.6054 8.95138 55.7199 8.82659 55.8149C8.70181 55.9099 8.55188 55.9835 8.3768 56.0356C8.20359 56.0859 8.00989 56.1111 7.79571 56.1111C7.6076 56.1111 7.42228 56.085 7.23975 56.0328C7.05909 55.9807 6.89426 55.9025 6.74526 55.7982C6.59813 55.6939 6.47986 55.5654 6.39046 55.4126C6.30292 55.258 6.25916 55.0792 6.25916 54.8762H6.79555C6.79555 55.0159 6.82256 55.136 6.87657 55.2366C6.93058 55.3353 7.00415 55.4173 7.09727 55.4825C7.19226 55.5477 7.29935 55.5961 7.41855 55.6277C7.53961 55.6575 7.66533 55.6724 7.79571 55.6724C7.98382 55.6724 8.14306 55.6464 8.27343 55.5942C8.40381 55.5421 8.50252 55.4676 8.56957 55.3707C8.63848 55.2739 8.67294 55.1593 8.67294 55.0271Z" fill="#333333"/>
<path d="M3.82065 53.8928V54.1499C3.82065 54.4553 3.78247 54.7291 3.70611 54.9712C3.62975 55.2133 3.51986 55.4191 3.37645 55.5886C3.23304 55.7581 3.06076 55.8876 2.85961 55.977C2.66032 56.0664 2.43682 56.1111 2.18911 56.1111C1.94885 56.1111 1.72815 56.0664 1.527 55.977C1.32771 55.8876 1.1545 55.7581 1.00737 55.5886C0.862092 55.4191 0.749412 55.2133 0.669325 54.9712C0.589238 54.7291 0.549194 54.4553 0.549194 54.1499V53.8928C0.549194 53.5874 0.588307 53.3145 0.666531 53.0743C0.746618 52.8322 0.859298 52.6263 1.00457 52.4569C1.14985 52.2855 1.32213 52.1551 1.52141 52.0657C1.72256 51.9763 1.94327 51.9316 2.18353 51.9316C2.43124 51.9316 2.65474 51.9763 2.85402 52.0657C3.05517 52.1551 3.22745 52.2855 3.37086 52.4569C3.51613 52.6263 3.62695 52.8322 3.70331 53.0743C3.78154 53.3145 3.82065 53.5874 3.82065 53.8928ZM3.28705 54.1499V53.8873C3.28705 53.6451 3.26191 53.4309 3.21162 53.2447C3.16319 53.0584 3.09149 52.902 2.9965 52.7753C2.90151 52.6487 2.78511 52.5528 2.64729 52.4876C2.51132 52.4224 2.35674 52.3898 2.18353 52.3898C2.0159 52.3898 1.86411 52.4224 1.72815 52.4876C1.59405 52.5528 1.47857 52.6487 1.38173 52.7753C1.28674 52.902 1.21317 53.0584 1.16102 53.2447C1.10887 53.4309 1.0828 53.6451 1.0828 53.8873V54.1499C1.0828 54.3938 1.10887 54.6099 1.16102 54.798C1.21317 54.9843 1.28767 55.1416 1.38452 55.2701C1.48323 55.3968 1.59964 55.4927 1.73374 55.5579C1.8697 55.6231 2.02149 55.6557 2.18911 55.6557C2.36419 55.6557 2.5197 55.6231 2.65567 55.5579C2.79163 55.4927 2.90617 55.3968 2.99929 55.2701C3.09428 55.1416 3.16599 54.9843 3.21441 54.798C3.26284 54.6099 3.28705 54.3938 3.28705 54.1499Z" fill="#333333"/>
<path fill-rule="evenodd" clip-rule="evenodd" d="M9.71891 30.6258C10.2652 30.6258 10.7485 30.2754 10.9358 29.7622C15.8942 16.1713 28.9344 6.46813 44.241 6.46813C59.5476 6.46813 72.5878 16.1713 77.5463 29.7622C77.7335 30.2754 78.2168 30.6258 78.7631 30.6258H82.8234C83.6652 30.6258 84.2746 29.8221 84.0153 29.0212C78.5824 12.2434 62.8285 0.11084 44.241 0.11084C25.6535 0.11084 9.89966 12.2434 4.46674 29.0212C4.20741 29.8221 4.81686 30.6258 5.65865 30.6258H9.71891Z" fill="#5C5C5C"/>
<path fill-rule="evenodd" clip-rule="evenodd" d="M23.7716 30.6256C24.2273 30.6256 24.6458 30.3802 24.8851 29.9924C28.8874 23.5057 36.0593 19.1825 44.241 19.1825C52.4226 19.1825 59.5945 23.5057 63.5968 29.9924C63.8361 30.3802 64.2546 30.6256 64.7103 30.6256H69.1401C70.0495 30.6256 70.6615 29.699 70.2538 28.8861C65.4761 19.3621 55.6219 12.8252 44.241 12.8252C32.86 12.8252 23.0058 19.3621 18.2282 28.8861C17.8204 29.699 18.4324 30.6256 19.3418 30.6256H23.7716Z" fill="#333333"/>
<path fill-rule="evenodd" clip-rule="evenodd" d="M16.5824 30.626C17.0939 30.626 17.5533 30.3181 17.7656 29.8528C22.3478 19.8074 32.479 12.8255 44.241 12.8255C56.0029 12.8255 66.1342 19.8074 70.7164 29.8528C70.9286 30.3181 71.3881 30.626 71.8995 30.626H76.0808C76.9497 30.626 77.5616 29.7731 77.244 28.9642C72.0735 15.7932 59.2462 6.46826 44.241 6.46826C29.2357 6.46826 16.4084 15.7932 11.2379 28.9642C10.9204 29.7731 11.5322 30.626 12.4012 30.626H16.5824Z" fill="#BCBCBC"/>
</svg>
