<svg width="88" height="57" viewBox="0 0 88 57" fill="none" xmlns="http://www.w3.org/2000/svg">
<g id="arcomix">
<g id="Group 6">
<g id="Group 2">
<path id="Union (Stroke)" fill-rule="evenodd" clip-rule="evenodd" d="M80.143 35.098L81.0221 36.232L81.8051 35.2756C82.3177 34.6418 82.9848 33.9159 84.1652 33.9159C85.6097 33.9159 86.9567 35.0786 86.9567 36.5957C86.9567 37.4017 86.5111 38.0911 86.1511 38.5588L86.1497 38.5606L84.4871 40.7045L86.5926 43.4451C86.9898 43.954 87.1877 44.5609 87.1877 45.1846C87.1877 46.6196 86.0398 47.9019 84.4925 47.9019C83.532 47.9019 82.7617 47.4272 82.2399 46.7574L82.2393 46.7566L81.0065 45.1818L79.774 46.7428C79.5165 47.0669 79.2253 47.3615 78.8533 47.57C78.4727 47.7832 78.0498 47.8832 77.5632 47.8832C76.0921 47.8832 74.791 46.7323 74.791 45.2034C74.791 44.5417 75.0396 43.9002 75.4258 43.406L75.4264 43.4053L77.5282 40.7023L76.0393 38.7838L76.0378 38.7818C75.6547 38.2841 75.0797 37.5372 75.0797 36.6145C75.0797 35.0893 76.3769 33.9159 77.8712 33.9159C78.8679 33.9159 79.614 34.4256 80.1416 35.0962L80.143 35.098ZM75.5341 39.1696C75.525 39.1579 75.5158 39.1459 75.5064 39.1337C75.1344 38.6513 74.444 37.7558 74.444 36.6145C74.444 34.7061 76.0588 33.2802 77.8712 33.2802C79.1147 33.2802 80.0292 33.9253 80.6412 34.703L80.6441 34.7067L81.0357 35.2118L81.3119 34.8744C81.8371 34.2253 82.6707 33.2802 84.1652 33.2802C85.9156 33.2802 87.5925 34.6839 87.5925 36.5957C87.5925 37.6259 87.0289 38.4607 86.6549 38.9465C86.6549 38.9465 86.6549 38.9464 86.6549 38.9465L86.6521 38.9502L85.2902 40.7063L87.0938 43.054C87.0944 43.0547 87.0949 43.0554 87.0954 43.0561C87.5816 43.68 87.8234 44.4249 87.8234 45.1846C87.8234 46.9466 86.4146 48.5377 84.4925 48.5377C83.3022 48.5377 82.3582 47.9437 81.7384 47.1481L81.7378 47.1473L81.0044 46.2104L80.2717 47.1383C79.9876 47.4959 79.6362 47.8599 79.1641 48.1245C78.6748 48.3988 78.1416 48.5189 77.5632 48.5189C75.7784 48.5189 74.1553 47.1196 74.1553 45.2034C74.1553 44.3859 74.4603 43.6091 74.9249 43.0145L74.9255 43.0138L76.7232 40.7019L75.5348 39.1706L75.5341 39.1696Z" fill="#F9F5F2"/>
<path id="Union (Stroke)_2" fill-rule="evenodd" clip-rule="evenodd" d="M70.2949 36.0277L69.804 35.6238C70.3913 34.9099 71.2198 34.5516 72.0891 34.5516C72.9425 34.5516 73.7565 34.9085 74.3366 35.5812C75.1096 36.4658 75.1091 37.4459 75.1088 38.1001C75.1088 38.1127 75.1088 38.1252 75.1088 38.1375V45.1196C75.1088 45.8916 74.9139 46.7161 74.4188 47.3823C73.8941 48.0884 73.0833 48.5377 72.0891 48.5377C71.2434 48.5377 70.4104 48.1587 69.8413 47.5258C69.0992 46.7038 69.0694 45.7395 69.0694 45.1196L69.0694 38.0933C69.0694 38.0933 69.0694 38.0932 69.0694 38.0932C69.0694 38.0931 69.0694 38.0931 69.0694 38.093C69.0694 38.0841 69.0694 38.0751 69.0694 38.066C69.0689 37.3914 69.0683 36.5179 69.804 35.6238L70.2949 36.0277ZM69.7051 38.093C69.7048 37.4216 69.7045 36.7453 70.2949 36.0277C70.7554 35.468 71.4 35.1874 72.0891 35.1874C72.7622 35.1874 73.3996 35.4673 73.8565 35.998C74.4731 36.7024 74.4731 37.4739 74.4731 38.1375V45.1196C74.4731 45.7931 74.302 46.4736 73.9086 47.0031C73.5001 47.5527 72.8762 47.9019 72.0891 47.9019C71.4279 47.9019 70.7649 47.6026 70.3135 47.1001C69.7437 46.4693 69.7051 45.7249 69.7051 45.1196L69.7051 38.093Z" fill="#F9F5F2"/>
<path id="Union (Stroke)_3" fill-rule="evenodd" clip-rule="evenodd" d="M55.8094 37.343C55.9289 36.6634 56.2183 35.9697 56.7522 35.431C57.3076 34.8705 58.0574 34.5516 58.9206 34.5516C60.2576 34.5516 61.4644 35.362 61.9924 36.5556L62.5523 37.7954L63.2833 36.2693C63.8135 35.1668 64.9842 34.5516 66.099 34.5516C66.9092 34.5516 67.6705 34.8633 68.2517 35.3796L68.2539 35.3816C68.9607 36.0125 69.1448 36.7754 69.2444 37.3419C69.2444 37.3419 69.2444 37.3419 69.2444 37.3419L69.2448 37.3439L70.5717 44.6197L70.5741 44.6347L70.5819 44.6845L70.5838 44.6962C70.6142 44.8883 70.6583 45.167 70.6583 45.4745C70.6583 47.2683 69.1483 48.5377 67.5105 48.5377C66.5802 48.5377 65.6018 48.1513 64.9783 47.3797C64.8595 47.5246 64.7272 47.6623 64.5796 47.7896C64.0277 48.2656 63.3276 48.5377 62.5184 48.5377C61.7173 48.5377 61.0209 48.2844 60.4658 47.7969C60.3181 47.6672 60.1871 47.5267 60.0704 47.3798C59.9928 47.4787 59.9086 47.5738 59.8175 47.6645L59.3691 47.2139C59.4934 47.0902 59.6027 46.9545 59.6978 46.8098C59.8498 46.5785 59.9654 46.324 60.0476 46.058C60.1515 46.3153 60.2769 46.5683 60.4341 46.801C60.5618 46.99 60.7104 47.1656 60.8853 47.3192C61.3155 47.6971 61.8596 47.9019 62.5184 47.9019C63.1769 47.9019 63.7292 47.6835 64.1644 47.3082C64.3381 47.1583 64.4882 46.988 64.6178 46.8043C64.7857 46.5664 64.9192 46.3061 65.025 46.0393C65.0907 46.3333 65.2054 46.5941 65.3573 46.8206C65.833 47.5296 66.6729 47.9019 67.5105 47.9019C68.8388 47.9019 70.0226 46.8771 70.0226 45.4745C70.0226 45.2174 69.985 44.9799 69.954 44.7839L69.9461 44.7338L69.9449 44.726L68.6187 37.4541L68.6183 37.4521C68.5255 36.9242 68.3731 36.3402 67.8306 35.8559L67.8295 35.8549C67.3581 35.4361 66.745 35.1874 66.099 35.1874C65.1967 35.1874 64.2675 35.6898 63.8562 36.5448L62.5353 39.3024L61.412 36.8149C60.9844 35.8461 60.0022 35.1874 58.9206 35.1874C58.2221 35.1874 57.6363 35.4419 57.2038 35.8785C56.7821 36.304 56.5383 36.8683 56.4355 37.4531L56.4353 37.4541L55.147 44.6562C55.1046 44.8483 55.083 45.0425 55.083 45.2379C55.083 45.9374 55.3071 46.6043 55.7599 47.1037C56.2193 47.6105 56.8763 47.9019 57.6467 47.9019C58.3444 47.9019 58.9329 47.6481 59.3691 47.2139L59.8175 47.6645C59.2593 48.2201 58.5083 48.5377 57.6467 48.5377C56.7086 48.5377 55.8764 48.1788 55.2889 47.5307C54.7145 46.8971 54.4473 46.0704 54.4473 45.2379C54.4473 44.9998 54.4731 44.7641 54.5233 44.5324L55.8091 37.3442L55.8094 37.343Z" fill="#F9F5F2"/>
<path id="Union (Stroke)_4" fill-rule="evenodd" clip-rule="evenodd" d="M55.0502 43.8816C54.4977 44.2694 53.8399 44.4054 53.2691 44.4054L51.3003 44.4054C51.0586 44.4055 50.6711 44.4055 50.2787 44.3052C49.8243 44.1891 49.4114 43.9564 49.0593 43.5774C48.6676 43.1681 48.4082 42.6601 48.4082 42.0051C48.4082 41.0923 48.8901 40.4101 49.5791 40.03C50.1705 39.7037 50.8356 39.6375 51.3133 39.6375H53.2519C53.7783 39.6375 54.4187 39.7493 54.9723 40.0972C55.5819 40.4802 56.0369 41.1307 56.0369 41.9887C56.0369 42.7986 55.6493 43.4611 55.0502 43.8816ZM49.5515 43.1512C49.2529 42.8405 49.0716 42.48 49.0716 42.0051C49.0716 41.3322 49.4152 40.8539 49.9101 40.5809C50.3559 40.3349 50.8858 40.2732 51.3133 40.2732H53.2519C53.6911 40.2732 54.1935 40.368 54.6086 40.6288C55.0521 40.9075 55.3736 41.3679 55.3736 41.9887C55.3736 42.5899 55.0919 43.0644 54.6583 43.3687C54.2481 43.6566 53.7391 43.7697 53.2691 43.7697H51.3133C51.0651 43.7697 50.7537 43.7687 50.4497 43.691C50.1182 43.6063 49.8174 43.4386 49.5515 43.1512Z" fill="#F9F5F2"/>
<path id="Union (Stroke)_5" fill-rule="evenodd" clip-rule="evenodd" d="M49.6794 41.3689C49.6794 45.3647 46.3436 48.5377 42.3599 48.5377C38.303 48.5377 35.0576 45.3267 35.0576 41.3185C35.0576 37.3036 38.396 34.2338 42.3599 34.2338C46.3338 34.2338 49.6794 37.3636 49.6794 41.3689ZM43.3565 41.3689C43.3565 40.9273 42.9453 40.473 42.3599 40.473C41.7803 40.473 41.3805 40.9217 41.3805 41.3521C41.3805 41.8513 41.7997 42.2984 42.3771 42.2984C42.9202 42.2984 43.3565 41.8345 43.3565 41.3689ZM49.0436 41.3689C49.0436 44.9963 46.01 47.9019 42.3599 47.9019C38.6475 47.9019 35.6933 44.969 35.6933 41.3185C35.6933 37.6817 38.7195 34.8695 42.3599 34.8695C46.0052 34.8695 49.0436 37.7369 49.0436 41.3689ZM43.9922 41.3689C43.9922 40.5453 43.2648 39.8373 42.3599 39.8373C41.4581 39.8373 40.7448 40.5424 40.7448 41.3521C40.7448 42.2142 41.4604 42.9342 42.3771 42.9342C43.2594 42.9342 43.9922 42.1974 43.9922 41.3689Z" fill="#F9F5F2"/>
<path id="Union (Stroke)_6" fill-rule="evenodd" clip-rule="evenodd" d="M35.5914 41.9664C36.2141 42.4075 36.6477 43.1072 36.6477 43.9432C36.6477 44.5412 36.4526 45.0633 36.1207 45.5334C34.9206 47.2568 32.5918 48.2198 30.57 48.2198C26.7983 48.2198 23.6152 45.3111 23.6152 41.5619C23.6152 37.8173 26.7755 34.8695 30.5879 34.8695C32.2259 34.8695 33.7029 35.4239 34.9681 36.3995C35.7055 36.9682 36.6477 37.9111 36.6477 39.1806C36.6477 40.0285 36.2288 40.7641 35.5904 41.2211C35.4188 41.344 35.2314 41.4466 35.0319 41.526C34.9707 41.5503 34.9084 41.5725 34.845 41.5923C34.9047 41.6117 34.9637 41.633 35.0219 41.6564C35.2232 41.7371 35.4149 41.8413 35.5914 41.9664ZM32.5373 41.2039C32.3252 41.0393 32.1529 40.8586 32.002 40.7003C31.9794 40.6766 31.9572 40.6534 31.9355 40.6308C31.7234 40.4102 31.5551 40.2487 31.3496 40.1317C31.1575 40.0224 30.9043 39.9372 30.5163 39.9372C29.5384 39.9372 28.8249 40.6579 28.8249 41.5446C28.8249 42.4141 29.5563 43.1521 30.5163 43.1521C31.1373 43.1521 31.4731 42.881 31.9237 42.4718C31.9459 42.4516 31.9686 42.4309 31.9917 42.4098L31.9918 42.4097C32.1462 42.2685 32.3212 42.1084 32.5271 41.9605C32.6757 41.8538 32.8403 41.7534 33.0249 41.671C33.0932 41.6405 33.1643 41.6124 33.2383 41.5874C33.161 41.5611 33.0873 41.5314 33.0171 41.4989C32.8361 41.4151 32.678 41.3131 32.5373 41.2039ZM31.5628 41.9405L31.5626 41.9406C31.5394 41.9619 31.5176 41.9819 31.4963 42.0012C31.06 42.3975 30.8807 42.5164 30.5163 42.5164C29.8878 42.5164 29.4606 42.0437 29.4606 41.5446C29.4606 41.0283 29.87 40.5729 30.5163 40.5729C30.7999 40.5729 30.9439 40.6323 31.0352 40.6842C31.153 40.7513 31.2659 40.8517 31.4773 41.0715C31.4979 41.0929 31.5191 41.1152 31.542 41.1391L32.002 40.7003L31.542 41.1391C31.5478 41.1453 31.5538 41.1515 31.5598 41.1579C31.6731 41.2767 31.813 41.4236 31.9855 41.5731C31.8269 41.6989 31.6929 41.8214 31.5819 41.923C31.5757 41.9286 31.5697 41.9342 31.5637 41.9397C31.5634 41.9399 31.5631 41.9402 31.5628 41.9405ZM36.6412 45.8984C35.2972 47.827 32.7517 48.8555 30.57 48.8555C26.4824 48.8555 22.9795 45.6965 22.9795 41.5619C22.9795 37.4367 26.4547 34.2338 30.5879 34.2338C32.3782 34.2338 33.9897 34.8422 35.3563 35.8961C36.1147 36.4809 37.2834 37.5902 37.2834 39.1806C37.2834 40.1628 36.8369 41.019 36.1478 41.5929C36.8177 42.1426 37.2834 42.9599 37.2834 43.9432C37.2834 44.6905 37.0366 45.3379 36.6412 45.8984Z" fill="#F9F5F2"/>
<path id="Union (Stroke)_7" fill-rule="evenodd" clip-rule="evenodd" d="M18.9731 46.7452C19.1102 46.5216 19.2138 46.2749 19.2783 46.0138L19.6985 46.7221L19.6993 46.7235C19.6999 46.7244 19.7005 46.7253 19.701 46.7263C20.1504 47.4774 20.8927 47.9019 21.7707 47.9019C23.11 47.9019 24.2503 46.8513 24.2503 45.4442C24.2503 44.8943 24.0801 44.3391 23.8069 43.8898C23.6615 43.6465 23.5123 43.4084 23.3672 43.1768L23.3655 43.174C23.2992 43.0683 23.2339 42.9639 23.1694 42.8599C23.8098 42.0263 24.2167 41.0706 24.2167 39.9099C24.2167 38.1016 23.1735 36.4277 21.539 35.6568L21.5358 35.6553L21.5326 35.6538C20.5451 35.2014 19.7898 35.1874 18.854 35.1874H17.3119C16.6396 35.1874 15.8992 35.191 15.1982 35.8556C14.513 36.5053 14.3965 37.2257 14.3965 37.9857V44.9844C14.3965 45.6803 14.5517 46.398 14.9604 46.9593C15.3895 47.5485 16.0539 47.9019 16.9096 47.9019C17.8116 47.9019 18.5513 47.4326 18.9731 46.7452ZM23.9339 42.8839C24.4955 42.041 24.8525 41.0656 24.8525 39.9099C24.8525 37.86 23.6713 35.9596 21.8102 35.0818L21.8038 35.0788L21.7974 35.0759C20.6775 34.5628 19.8041 34.5516 18.854 34.5516H17.3119C17.3046 34.5516 17.2974 34.5516 17.2901 34.5516C16.6157 34.5515 15.6498 34.5514 14.7608 35.3943C13.8928 36.2173 13.7607 37.1477 13.7607 37.9857V44.9844C13.7607 45.763 13.9327 46.6281 14.4465 47.3336C15.0009 48.0949 15.8606 48.5377 16.9096 48.5377C17.9379 48.5377 18.7948 48.0537 19.3415 47.3308C19.9158 48.1005 20.7811 48.5377 21.7707 48.5377C23.4423 48.5377 24.886 47.2209 24.886 45.4442C24.886 44.7701 24.6798 44.1026 24.3514 43.5616C24.212 43.3285 24.0698 43.1008 23.9339 42.8839Z" fill="#F9F5F2"/>
<path id="Union (Stroke)_8" fill-rule="evenodd" clip-rule="evenodd" d="M11.0776 35.2343L11.0786 35.2365L15.0025 43.415C15.234 43.899 15.3503 44.4163 15.3503 44.9524C15.3503 46.8073 13.8329 48.2198 12.0316 48.2198C11.134 48.2198 10.4018 47.9276 9.82946 47.389C9.55164 47.1276 9.33465 46.8286 9.15871 46.5352H6.91657C6.73287 46.8432 6.50507 47.1471 6.21388 47.4114L5.78661 46.9407C6.11019 46.647 6.34894 46.2808 6.5396 45.8994H9.53227C9.72265 46.2662 9.95276 46.6321 10.2652 46.9261C10.7118 47.3464 11.2849 47.5841 12.0316 47.5841C13.5005 47.5841 14.7145 46.4377 14.7145 44.9524C14.7145 44.5104 14.6192 44.087 14.429 43.6893L10.5036 35.5076L10.5026 35.5054C10.0481 34.5426 9.12323 33.9159 8.01148 33.9159C6.91028 33.9159 6.01006 34.55 5.55922 35.4838L1.67165 43.591C1.45484 44.0207 1.36424 44.4856 1.36424 44.9341C1.36424 46.4005 2.52194 47.5841 4.02862 47.5841C4.75418 47.5841 5.33252 47.3529 5.78661 46.9407L6.21388 47.4114C5.63596 47.936 4.90265 48.2198 4.02862 48.2198C2.16905 48.2198 0.728516 46.7498 0.728516 44.9341C0.728516 44.4035 0.835218 43.8402 1.10105 43.3107L4.98672 35.2074C5.53451 34.0727 6.64599 33.2802 8.01148 33.2802C9.37979 33.2802 10.5227 34.0588 11.0776 35.2343Z" fill="#F9F5F2"/>
<path id="Vector" d="M86.552 45.1846C86.552 46.2911 85.6666 47.2662 84.4925 47.2662C83.7611 47.2662 83.1644 46.9099 82.7409 46.3661L81.0086 44.1532L79.2763 46.3473C78.8144 46.9287 78.3524 47.2475 77.5633 47.2475C76.4084 47.2475 75.4268 46.3473 75.4268 45.2034C75.4268 44.697 75.6192 44.1907 75.9272 43.7969L78.3332 40.7026L76.5431 38.396C76.1389 37.8709 75.7155 37.2896 75.7155 36.6145C75.7155 35.4705 76.6971 34.5516 77.8712 34.5516C78.6219 34.5516 79.1993 34.9267 79.642 35.4893L81.0086 37.2521L82.2982 35.6768C82.7987 35.058 83.2991 34.5516 84.1653 34.5516C85.3009 34.5516 86.321 35.4705 86.321 36.5957C86.321 37.1771 85.9938 37.7209 85.6474 38.171L83.6841 40.7026L86.0901 43.8344C86.398 44.2282 86.552 44.697 86.552 45.1846Z" fill="#F9F5F2"/>
<path id="Vector (Stroke)" fill-rule="evenodd" clip-rule="evenodd" d="M85.6473 38.171L83.6841 40.7027L86.09 43.8344C86.398 44.2282 86.552 44.6971 86.552 45.1846C86.552 46.2911 85.6666 47.2662 84.4925 47.2662C83.7611 47.2662 83.1644 46.9099 82.7409 46.3661L81.0086 44.1532L79.2763 46.3473C78.8144 46.9287 78.3524 47.2475 77.5633 47.2475C76.4084 47.2475 75.4267 46.3473 75.4267 45.2034C75.4267 44.6971 75.6192 44.1907 75.9272 43.7969L78.3332 40.7027L76.5431 38.396C76.1389 37.8709 75.7155 37.2896 75.7155 36.6145C75.7155 35.4706 76.6971 34.5517 77.8712 34.5517C78.6219 34.5517 79.1993 34.9267 79.642 35.4893L81.0086 37.2521L82.2982 35.6768C82.7987 35.058 83.2991 34.5517 84.1653 34.5517C85.3009 34.5517 86.321 35.4706 86.321 36.5957C86.321 37.1771 85.9938 37.7209 85.6473 38.171ZM81.8051 35.2756C82.3178 34.6418 82.9848 33.9159 84.1653 33.9159C85.6097 33.9159 86.9567 35.0786 86.9567 36.5957C86.9567 37.4017 86.5111 38.0911 86.1511 38.5588L86.1497 38.5606L84.4871 40.7045L86.5925 43.445C86.9897 43.9539 87.1877 44.5608 87.1877 45.1846C87.1877 46.6196 86.0398 47.902 84.4925 47.902C83.532 47.902 82.7617 47.4272 82.2399 46.7574C82.2397 46.7571 82.2395 46.7569 82.2393 46.7566L81.0065 45.1818L79.774 46.7428C79.5165 47.0669 79.2253 47.3615 78.8533 47.57C78.4727 47.7833 78.0498 47.8832 77.5633 47.8832C76.0921 47.8832 74.791 46.7323 74.791 45.2034C74.791 44.5417 75.0396 43.9002 75.4258 43.406C75.426 43.4058 75.4262 43.4055 75.4264 43.4053L77.5282 40.7023L76.0394 38.7838L76.0378 38.7818C75.6547 38.2842 75.0797 37.5372 75.0797 36.6145C75.0797 35.0894 76.3769 33.9159 77.8712 33.9159C78.8679 33.9159 79.614 34.4256 80.1416 35.0962L80.143 35.098L81.0222 36.232L81.8051 35.2756Z" fill="#063B27"/>
<path id="Vector_2" d="M73.8373 45.1196C73.8373 46.2689 73.2493 47.2662 72.0891 47.2662C71.6123 47.2662 71.1196 47.0465 70.7858 46.6746C70.3885 46.2351 70.3408 45.7112 70.3408 45.1196V38.1388C70.3408 37.4457 70.3408 36.9725 70.7858 36.4316C71.1196 36.0259 71.5805 35.8231 72.0891 35.8231C72.5818 35.8231 73.0427 36.0259 73.3764 36.4147C73.8214 36.9218 73.8373 37.4626 73.8373 38.1388V45.1196Z" fill="#F9F5F2"/>
<path id="Vector (Stroke)_2" fill-rule="evenodd" clip-rule="evenodd" d="M73.9086 47.0031C73.5001 47.5527 72.8761 47.902 72.0891 47.902C71.4279 47.902 70.7649 47.6026 70.3135 47.1001C69.7437 46.4693 69.7051 45.7249 69.7051 45.1196V38.1388C69.7051 38.1235 69.7051 38.1083 69.7051 38.0931C69.7048 37.4216 69.7045 36.7453 70.2949 36.0277L70.7858 36.4316C70.3408 36.9725 70.3408 37.4458 70.3408 38.1388V45.1196C70.3408 45.7112 70.3885 46.2352 70.7858 46.6746C71.1196 47.0465 71.6123 47.2662 72.0891 47.2662C73.2493 47.2662 73.8373 46.269 73.8373 45.1196V38.1388C73.8373 37.4627 73.8214 36.9218 73.3764 36.4147C73.0427 36.0259 72.5818 35.8231 72.0891 35.8231C71.5805 35.8231 71.1196 36.0259 70.7858 36.4316L70.2949 36.0277C70.7554 35.468 71.4 35.1874 72.0891 35.1874C72.7622 35.1874 73.3996 35.4673 73.8565 35.998C74.4731 36.7024 74.4731 37.4739 74.4731 38.1375V45.1196C74.4731 45.7931 74.302 46.4736 73.9086 47.0031Z" fill="#063B27"/>
<path id="Vector_3" d="M69.3869 45.4745C69.3869 46.4887 68.5262 47.2662 67.5106 47.2662C66.6154 47.2662 65.8063 46.7422 65.6342 45.8464L65.221 43.7335L64.4636 45.7281C64.1365 46.607 63.534 47.2662 62.5184 47.2662C61.4855 47.2662 60.9519 46.6408 60.6076 45.745L59.8502 43.7335L59.5231 45.5252C59.351 46.5056 58.714 47.2662 57.6468 47.2662C56.4418 47.2662 55.7188 46.3704 55.7188 45.2379C55.7188 45.0858 55.736 44.9336 55.7704 44.7815L57.0615 37.5641C57.2336 36.5837 57.8533 35.8231 58.9206 35.8231C59.7469 35.8231 60.5043 36.3302 60.8314 37.0739L62.5184 40.8094L64.4292 36.8203C64.7218 36.2119 65.4104 35.8231 66.099 35.8231C66.581 35.8231 67.0458 36.009 67.4073 36.3302C67.786 36.6682 67.9065 37.0739 67.9926 37.5641L69.3181 44.8322C69.3525 45.052 69.3869 45.2548 69.3869 45.4745Z" fill="#F9F5F2"/>
<path id="Vector (Stroke)_3" fill-rule="evenodd" clip-rule="evenodd" d="M64.4292 36.8204C64.7218 36.2119 65.4104 35.8231 66.099 35.8231C66.581 35.8231 67.0458 36.009 67.4073 36.3302C67.786 36.6682 67.9065 37.0739 67.9925 37.5641L69.318 44.8322C69.3204 44.847 69.3227 44.8616 69.325 44.8762C69.3569 45.0792 69.3869 45.2695 69.3869 45.4745C69.3869 46.4887 68.5262 47.2662 67.5105 47.2662C66.6154 47.2662 65.8063 46.7422 65.6342 45.8464L65.221 43.7336L64.4636 45.7281C64.1365 46.607 63.534 47.2662 62.5184 47.2662C61.4855 47.2662 60.9519 46.6408 60.6076 45.745L59.8502 43.7336L59.5231 45.5252C59.351 46.5056 58.714 47.2662 57.6467 47.2662C56.4417 47.2662 55.7187 46.3704 55.7187 45.2379C55.7187 45.0858 55.736 44.9337 55.7704 44.7815L57.0615 37.5641C57.2336 36.5837 57.8533 35.8231 58.9206 35.8231C59.7469 35.8231 60.5043 36.3302 60.8314 37.0739L62.5184 40.8094L64.4292 36.8204ZM62.5354 39.3024L63.8563 36.5448C64.2675 35.6898 65.1967 35.1874 66.099 35.1874C66.745 35.1874 67.3581 35.4361 67.8295 35.8549L67.8306 35.8559C68.3731 36.3402 68.5255 36.9242 68.6183 37.4521C68.6185 37.4528 68.6186 37.4535 68.6187 37.4541L69.9449 44.726L69.9461 44.7338C69.9487 44.7502 69.9513 44.7669 69.954 44.7839C69.985 44.9799 70.0226 45.2174 70.0226 45.4745C70.0226 46.8771 68.8388 47.902 67.5105 47.902C66.4054 47.902 65.2963 47.2539 65.025 46.0393C64.8375 46.5121 64.5631 46.9643 64.1644 47.3082C63.7292 47.6835 63.1769 47.902 62.5184 47.902C61.8596 47.902 61.3156 47.6971 60.8853 47.3192C60.495 46.9765 60.2358 46.5244 60.0477 46.058C59.914 46.4903 59.6922 46.8924 59.3691 47.2139C58.9329 47.6481 58.3444 47.902 57.6467 47.902C56.8763 47.902 56.2193 47.6105 55.7599 47.1037C55.3071 46.6043 55.083 45.9374 55.083 45.2379C55.083 45.0425 55.1046 44.8483 55.147 44.6562L56.4353 37.4541C56.4354 37.4538 56.4354 37.4534 56.4355 37.4531C56.5383 36.8683 56.7821 36.3041 57.2038 35.8785C57.6364 35.4419 58.2222 35.1874 58.9206 35.1874C60.0022 35.1874 60.9844 35.8461 61.412 36.8149L62.5354 39.3024Z" fill="#063B27"/>
<path id="Vector_4" d="M54.7655 41.9887C54.7655 42.7741 54.0465 43.134 53.2924 43.134H51.2931C50.767 43.134 50.3636 43.1176 49.9954 42.725C49.7849 42.5123 49.6797 42.2996 49.6797 42.0051C49.6797 41.138 50.5215 40.9089 51.2931 40.9089H53.2748C53.9939 40.9089 54.7655 41.2198 54.7655 41.9887Z" fill="#F9F5F2"/>
<path id="Vector (Stroke)_4" fill-rule="evenodd" clip-rule="evenodd" d="M54.6796 43.3687C54.2659 43.6566 53.7524 43.7697 53.2783 43.7697H51.3053C51.0549 43.7697 50.7408 43.7687 50.4341 43.691C50.0998 43.6062 49.7963 43.4386 49.5281 43.1511C49.2269 42.8405 49.0439 42.48 49.0439 42.0051C49.0439 41.3322 49.3906 40.8539 49.8898 40.5809C50.3396 40.3349 50.8741 40.2732 51.3053 40.2732H53.261C53.704 40.2732 54.2109 40.368 54.6295 40.6288C55.0769 40.9075 55.4012 41.3679 55.4012 41.9887C55.4012 42.5899 55.1171 43.0643 54.6796 43.3687ZM50.0247 42.725C50.3881 43.1176 50.7861 43.134 51.3053 43.134H53.2783C54.0225 43.134 54.732 42.774 54.732 41.9887C54.732 41.2198 53.9706 40.9089 53.261 40.9089H51.3053C50.5438 40.9089 49.7131 41.138 49.7131 42.0051C49.7131 42.2996 49.817 42.5123 50.0247 42.725Z" fill="#063B27"/>
<path id="Vector_5" d="M36.011 43.9432C36.011 44.3918 35.8678 44.7887 35.5993 45.1683C34.5431 46.6868 32.4308 47.5841 30.5691 47.5841C27.1142 47.5841 24.25 44.9267 24.25 41.5619C24.25 38.1971 27.0963 35.5052 30.587 35.5052C32.0728 35.5052 33.4153 36.0056 34.5789 36.9029C35.2949 37.4551 36.011 38.2316 36.011 39.1806C36.011 40.2332 35.1338 41.0787 34.0419 41.0787C32.3771 41.0787 32.4845 39.3014 30.5154 39.3014C29.2086 39.3014 28.1882 40.285 28.1882 41.5446C28.1882 42.787 29.2265 43.7879 30.5154 43.7879C32.2697 43.7879 32.4845 42.0968 34.024 42.0968C35.0622 42.0968 36.011 42.9078 36.011 43.9432Z" fill="#F9F5F2"/>
<path id="Vector (Stroke)_5" fill-rule="evenodd" clip-rule="evenodd" d="M36.1207 45.5334C36.4527 45.0633 36.6477 44.5412 36.6477 43.9432C36.6477 42.8018 35.8395 41.9145 34.845 41.5923C35.8829 41.2671 36.6477 40.3263 36.6477 39.1807C36.6477 37.9111 35.7055 36.9682 34.9681 36.3995C33.703 35.4239 32.2259 34.8695 30.5879 34.8695C26.7755 34.8695 23.6152 37.8173 23.6152 41.5619C23.6152 45.3112 26.7983 48.2198 30.57 48.2198C32.5919 48.2198 34.9206 47.2568 36.1207 45.5334ZM33.2384 41.5875C32.6606 41.391 32.2918 41.0043 32.002 40.7004C31.9794 40.6766 31.9573 40.6534 31.9355 40.6308C31.7234 40.4103 31.5552 40.2487 31.3496 40.1317C31.1575 40.0224 30.9043 39.9372 30.5163 39.9372C29.5384 39.9372 28.8249 40.6579 28.8249 41.5447C28.8249 42.4141 29.5563 43.1521 30.5163 43.1521C31.1373 43.1521 31.4732 42.881 31.9237 42.4718C31.946 42.4516 31.9687 42.4308 31.9918 42.4097C32.2989 42.1289 32.6877 41.7733 33.2384 41.5875ZM35.6002 45.1683C35.8687 44.7887 36.0119 44.3918 36.0119 43.9432C36.0119 42.9078 35.0632 42.0968 34.0249 42.0968C33.2803 42.0968 32.8456 42.4924 32.3967 42.901C31.9175 43.3371 31.4221 43.7879 30.5163 43.7879C29.2275 43.7879 28.1892 42.7871 28.1892 41.5447C28.1892 40.285 29.2096 39.3014 30.5163 39.3014C31.5422 39.3014 32.0044 39.7838 32.4473 40.246C32.8545 40.6709 33.2453 41.0788 34.0428 41.0788C35.1348 41.0788 36.0119 40.2332 36.0119 39.1807C36.0119 38.2316 35.2959 37.4551 34.5799 36.9029C33.4163 36.0056 32.0737 35.5052 30.5879 35.5052C27.0972 35.5052 24.251 38.1971 24.251 41.5619C24.251 44.9267 27.1151 47.5841 30.57 47.5841C32.4317 47.5841 34.5441 46.6868 35.6002 45.1683Z" fill="#063B27"/>
<path id="Vector_6" d="M23.6146 45.4442C23.6146 46.4829 22.7764 47.2662 21.7707 47.2662C21.117 47.2662 20.5806 46.9597 20.2453 46.3978L18.7199 43.8265V45.376C18.7199 46.4148 17.9489 47.2662 16.9096 47.2662C15.5854 47.2662 15.0322 46.2104 15.0322 44.9844V37.9857C15.0322 37.3046 15.1328 36.7937 15.6357 36.3169C16.1385 35.8401 16.6414 35.8231 17.3119 35.8231H18.854C19.776 35.8231 20.413 35.8401 21.2678 36.2318C22.6759 36.8959 23.581 38.3433 23.581 39.9099C23.581 41.0508 23.1285 41.9704 22.3909 42.8048C22.6759 43.2816 22.9776 43.7413 23.2626 44.2181C23.4805 44.5757 23.6146 45.0185 23.6146 45.4442ZM19.9604 39.9269C19.9604 39.2799 19.1725 39.3139 18.7199 39.2969V40.5229H19.1222C19.5413 40.5229 19.9604 40.4378 19.9604 39.9269Z" fill="#F9F5F2"/>
<path id="Vector (Stroke)_6" fill-rule="evenodd" clip-rule="evenodd" d="M19.6994 46.7235L19.6986 46.7221L19.2783 46.0138C19.0154 47.0777 18.1051 47.902 16.9096 47.902C16.0539 47.902 15.3895 47.5485 14.9604 46.9593C14.5517 46.398 14.3965 45.6803 14.3965 44.9844V37.9857C14.3965 37.2257 14.513 36.5053 15.1983 35.8556C15.8992 35.191 16.6396 35.1874 17.3119 35.1874H18.854C19.7898 35.1874 20.5451 35.2014 21.5326 35.6538L21.5358 35.6553L21.539 35.6568C23.1735 36.4277 24.2168 38.1016 24.2168 39.9099C24.2168 41.0706 23.8098 42.0263 23.1694 42.86C23.2339 42.9639 23.2993 43.0683 23.3655 43.174L23.3672 43.1767C23.5123 43.4083 23.6615 43.6465 23.8069 43.8898C24.0801 44.3391 24.2503 44.8943 24.2503 45.4442C24.2503 46.8513 23.11 47.902 21.7707 47.902C20.8916 47.902 20.1485 47.4764 19.6994 46.7235ZM22.3909 42.8048C23.1284 41.9704 23.581 41.0508 23.581 39.9099C23.581 38.3433 22.6759 36.8959 21.2678 36.2318C20.4129 35.8401 19.776 35.8231 18.854 35.8231H17.3119C16.6414 35.8231 16.1385 35.8401 15.6357 36.3169C15.1328 36.7937 15.0322 37.3046 15.0322 37.9857V44.9844C15.0322 46.2105 15.5854 47.2662 16.9096 47.2662C17.9489 47.2662 18.7199 46.4148 18.7199 45.3761V43.8265L20.2453 46.3978C20.5806 46.9597 21.117 47.2662 21.7707 47.2662C22.7764 47.2662 23.6146 46.4829 23.6146 45.4442C23.6146 45.0185 23.4805 44.5757 23.2625 44.2181C23.1201 43.9797 22.9734 43.7456 22.8267 43.5114C22.68 43.2773 22.5334 43.0432 22.3909 42.8048ZM18.7199 39.2969V40.523H19.1222C19.201 40.523 19.2797 40.52 19.3557 40.5117C19.684 40.4759 19.9604 40.3418 19.9604 39.927C19.9604 39.5401 19.6788 39.3967 19.3557 39.3403C19.1809 39.3098 18.9939 39.3047 18.8328 39.3003C18.7934 39.2993 18.7556 39.2983 18.7199 39.2969Z" fill="#063B27"/>
<path id="Vector_7" d="M14.0788 44.9524C14.0788 46.0694 13.1669 46.9483 12.0316 46.9483C10.8404 46.9483 10.3752 46.2159 9.92849 45.2637H6.13175C5.72229 46.2342 5.18256 46.9483 4.02865 46.9483C2.87474 46.9483 2 46.0511 2 44.9341C2 44.5679 2.07445 44.2017 2.24195 43.8721L6.13175 35.7602C6.48536 35.0277 7.17399 34.5516 8.01151 34.5516C8.86763 34.5516 9.57487 35.0277 9.92849 35.7785L13.8555 43.9636C14.0044 44.2749 14.0788 44.6045 14.0788 44.9524ZM8.6443 42.3705L8.01151 40.8873L7.37872 42.3705H8.6443Z" fill="#F9F5F2"/>
<path id="Vector (Stroke)_7" fill-rule="evenodd" clip-rule="evenodd" d="M13.8555 43.9636C14.0044 44.2749 14.0788 44.6045 14.0788 44.9524C14.0788 46.0694 13.1669 46.9484 12.0316 46.9484C10.8404 46.9484 10.3751 46.2159 9.92847 45.2637H6.13173C5.72228 46.2342 5.18255 46.9484 4.02864 46.9484C2.87473 46.9484 1.99999 46.0511 1.99999 44.9341C1.99999 44.5679 2.07443 44.2017 2.24194 43.8721L6.13173 35.7602C6.48535 35.0277 7.17398 34.5517 8.01149 34.5517C8.86762 34.5517 9.57485 35.0277 9.92847 35.7785L13.8555 43.9636ZM10.5026 35.5055C10.5029 35.5062 10.5033 35.5069 10.5036 35.5076L14.429 43.6893C14.6192 44.087 14.7146 44.5104 14.7146 44.9524C14.7146 46.4377 13.5005 47.5841 12.0316 47.5841C11.2849 47.5841 10.7118 47.3464 10.2652 46.9261C9.95277 46.6321 9.72266 46.2662 9.53228 45.8995H6.53962C6.34896 46.2808 6.1102 46.647 5.78662 46.9407C5.33253 47.3529 4.75419 47.5841 4.02864 47.5841C2.52195 47.5841 1.36426 46.4005 1.36426 44.9341C1.36426 44.4857 1.45485 44.0207 1.67166 43.591L5.55923 35.4838C6.01008 34.55 6.91029 33.9159 8.01149 33.9159C9.12324 33.9159 10.0481 34.5427 10.5026 35.5055ZM8.01149 40.8873L7.3787 42.3706H8.64428L8.01149 40.8873Z" fill="#063B27"/>
<path id="Vector_8" d="M48.4079 41.3689C48.4079 44.6284 45.676 47.2662 42.3599 47.2662C38.9923 47.2662 36.3291 44.6116 36.3291 41.3185C36.3291 38.059 39.0438 35.5052 42.3599 35.5052C45.676 35.5052 48.4079 38.1094 48.4079 41.3689ZM44.6279 41.3689C44.6279 40.1592 43.5798 39.2015 42.3599 39.2015C41.14 39.2015 40.1091 40.1592 40.1091 41.3521C40.1091 42.5786 41.1228 43.5699 42.3771 43.5699C43.597 43.5699 44.6279 42.5618 44.6279 41.3689Z" fill="#F9F5F2"/>
<path id="Vector (Stroke)_8" fill-rule="evenodd" clip-rule="evenodd" d="M49.0437 41.3689C49.0437 44.9963 46.0101 47.9019 42.3599 47.9019C38.6475 47.9019 35.6934 44.969 35.6934 41.3185C35.6934 37.6817 38.7195 34.8695 42.3599 34.8695C46.0052 34.8695 49.0437 37.7369 49.0437 41.3689ZM43.9922 41.3689C43.9922 40.5453 43.2648 39.8373 42.3599 39.8373C41.4581 39.8373 40.7448 40.5424 40.7448 41.3521C40.7448 42.2142 41.4604 42.9342 42.3771 42.9342C43.2594 42.9342 43.9922 42.1974 43.9922 41.3689ZM42.3599 47.2662C45.676 47.2662 48.4079 44.6284 48.4079 41.3689C48.4079 38.1095 45.676 35.5052 42.3599 35.5052C39.0438 35.5052 36.3291 38.059 36.3291 41.3185C36.3291 44.6116 38.9923 47.2662 42.3599 47.2662ZM42.3599 39.2015C43.5798 39.2015 44.6279 40.1592 44.6279 41.3689C44.6279 42.5618 43.597 43.5699 42.3771 43.5699C41.1228 43.5699 40.1091 42.5786 40.1091 41.3521C40.1091 40.1592 41.14 39.2015 42.3599 39.2015Z" fill="#063B27"/>
</g>
<g id="o supermercado da fam&#195;&#173;lia">
<path id="Vector_9" d="M85.9087 52.4591L84.5621 56.1664H84.0117L85.5622 52.0988H85.917L85.9087 52.4591ZM87.0373 56.1664L85.688 52.4591L85.6796 52.0988H86.0344L87.5905 56.1664H87.0373ZM86.9675 54.6606V55.102H84.6822V54.6606H86.9675Z" fill="#F9F5F2"/>
<path id="Vector_10" d="M83.1437 52.0988V56.1664H82.6045V52.0988H83.1437Z" fill="#F9F5F2"/>
<path id="Vector_11" d="M81.7188 55.7278V56.1664H79.685V55.7278H81.7188ZM79.7911 52.0988V56.1664H79.252V52.0988H79.7911Z" fill="#F9F5F2"/>
<path id="Vector_12" d="M78.0423 52.0988V56.1664H77.5031V52.0988H78.0423ZM77.4863 51.797L78.0283 50.9757H78.6513L77.9026 51.797H77.4863Z" fill="#F9F5F2"/>
<path id="Vector_13" d="M72.4107 52.0988H72.9331L74.2657 55.4149L75.5955 52.0988H76.1207L74.4668 56.1664H74.059L72.4107 52.0988ZM72.2402 52.0988H72.7012L72.7766 54.5796V56.1664H72.2402V52.0988ZM75.8274 52.0988H76.2883V56.1664H75.752V54.5796L75.8274 52.0988Z" fill="#F9F5F2"/>
<path id="Vector_14" d="M69.7846 52.4591L68.4381 56.1664H67.8877L69.4382 52.0988H69.793L69.7846 52.4591ZM70.9133 56.1664L69.5639 52.4591L69.5556 52.0988H69.9104L71.4665 56.1664H70.9133ZM70.8435 54.6606V55.102H68.5582V54.6606H70.8435Z" fill="#F9F5F2"/>
<path id="Vector_15" d="M65.9015 52.0988V56.1664H65.3623V52.0988H65.9015ZM67.6057 53.9286V54.3701H65.7842V53.9286H67.6057ZM67.8822 52.0988V52.5402H65.7842V52.0988H67.8822Z" fill="#F9F5F2"/>
<path id="Vector_16" d="M61.2592 52.4591L59.9127 56.1664H59.3623L60.9128 52.0988H61.2676L61.2592 52.4591ZM62.3879 56.1664L61.0385 52.4591L61.0302 52.0988H61.385L62.9411 56.1664H62.3879ZM62.3181 54.6606V55.102H60.0328V54.6606H62.3181Z" fill="#F9F5F2"/>
<path id="Vector_17" d="M56.9318 56.1664H56.0825L56.0881 55.7278H56.9318C57.2223 55.7278 57.4645 55.6673 57.6582 55.5462C57.8519 55.4233 57.9971 55.2519 58.094 55.0322C58.1927 54.8105 58.242 54.5516 58.242 54.2555V54.0069C58.242 53.7741 58.2141 53.5673 58.1582 53.3867C58.1024 53.2041 58.0204 53.0505 57.9124 52.9257C57.8044 52.799 57.6721 52.7031 57.5157 52.6379C57.3611 52.5728 57.1832 52.5402 56.9821 52.5402H56.0657V52.0988H56.9821C57.2484 52.0988 57.4915 52.1435 57.7112 52.2329C57.931 52.3204 58.1201 52.448 58.2784 52.6156C58.4385 52.7814 58.5615 52.9825 58.6471 53.219C58.7328 53.4537 58.7756 53.7182 58.7756 54.0125V54.2555C58.7756 54.5498 58.7328 54.8152 58.6471 55.0517C58.5615 55.2864 58.4376 55.4866 58.2756 55.6524C58.1154 55.8181 57.9217 55.9457 57.6945 56.0351C57.4691 56.1227 57.2149 56.1664 56.9318 56.1664ZM56.3702 52.0988V56.1664H55.8311V52.0988H56.3702Z" fill="#F9F5F2"/>
<path id="Vector_18" d="M53.1465 54.0041V54.2611C53.1465 54.5665 53.1083 54.8403 53.0319 55.0825C52.9556 55.3246 52.8457 55.5304 52.7023 55.6999C52.5588 55.8694 52.3866 55.9988 52.1854 56.0882C51.9861 56.1776 51.7626 56.2223 51.5149 56.2223C51.2747 56.2223 51.054 56.1776 50.8528 56.0882C50.6535 55.9988 50.4803 55.8694 50.3332 55.6999C50.1879 55.5304 50.0752 55.3246 49.9951 55.0825C49.915 54.8403 49.875 54.5665 49.875 54.2611V54.0041C49.875 53.6986 49.9141 53.4258 49.9923 53.1855C50.0724 52.9434 50.1851 52.7376 50.3304 52.5681C50.4757 52.3967 50.6479 52.2664 50.8472 52.177C51.0484 52.0876 51.2691 52.0429 51.5093 52.0429C51.757 52.0429 51.9805 52.0876 52.1798 52.177C52.381 52.2664 52.5533 52.3967 52.6967 52.5681C52.8419 52.7376 52.9528 52.9434 53.0291 53.1855C53.1073 53.4258 53.1465 53.6986 53.1465 54.0041ZM52.6129 54.2611V53.9985C52.6129 53.7564 52.5877 53.5422 52.5374 53.3559C52.489 53.1697 52.4173 53.0132 52.3223 52.8866C52.2273 52.7599 52.1109 52.664 51.9731 52.5988C51.8371 52.5336 51.6825 52.501 51.5093 52.501C51.3417 52.501 51.1899 52.5336 51.054 52.5988C50.9199 52.664 50.8044 52.7599 50.7075 52.8866C50.6125 53.0132 50.539 53.1697 50.4868 53.3559C50.4347 53.5422 50.4086 53.7564 50.4086 53.9985V54.2611C50.4086 54.5051 50.4347 54.7211 50.4868 54.9092C50.539 55.0955 50.6135 55.2529 50.7103 55.3814C50.809 55.508 50.9254 55.604 51.0595 55.6691C51.1955 55.7343 51.3473 55.7669 51.5149 55.7669C51.69 55.7669 51.8455 55.7343 51.9815 55.6691C52.1174 55.604 52.232 55.508 52.3251 55.3814C52.4201 55.2529 52.4918 55.0955 52.5402 54.9092C52.5886 54.7211 52.6129 54.5051 52.6129 54.2611Z" fill="#F9F5F2"/>
<path id="Vector_19" d="M47.132 56.1664H46.2827L46.2883 55.7278H47.132C47.4225 55.7278 47.6647 55.6673 47.8583 55.5462C48.052 55.4233 48.1973 55.2519 48.2942 55.0322C48.3929 54.8105 48.4422 54.5516 48.4422 54.2555V54.0069C48.4422 53.7741 48.4143 53.5673 48.3584 53.3867C48.3026 53.2041 48.2206 53.0505 48.1126 52.9257C48.0046 52.799 47.8723 52.7031 47.7159 52.6379C47.5613 52.5728 47.3834 52.5402 47.1823 52.5402H46.2659V52.0988H47.1823C47.4486 52.0988 47.6917 52.1435 47.9114 52.2329C48.1312 52.3204 48.3202 52.448 48.4786 52.6156C48.6387 52.7814 48.7617 52.9825 48.8473 53.219C48.933 53.4537 48.9758 53.7182 48.9758 54.0125V54.2555C48.9758 54.5498 48.933 54.8152 48.8473 55.0517C48.7617 55.2864 48.6378 55.4866 48.4758 55.6524C48.3156 55.8181 48.1219 55.9457 47.8947 56.0351C47.6693 56.1227 47.4151 56.1664 47.132 56.1664ZM46.5704 52.0988V56.1664H46.0312V52.0988H46.5704Z" fill="#F9F5F2"/>
<path id="Vector_20" d="M43.5757 52.4591L42.2291 56.1664H41.6787L43.2292 52.0988H43.584L43.5757 52.4591ZM44.7043 56.1664L43.3549 52.4591L43.3466 52.0988H43.7014L45.2575 56.1664H44.7043ZM44.6345 54.6606V55.102H42.3492V54.6606H44.6345Z" fill="#F9F5F2"/>
<path id="Vector_21" d="M40.5701 54.8729H41.1065C41.0786 55.1299 41.005 55.36 40.8858 55.563C40.7666 55.766 40.5981 55.9271 40.3801 56.0463C40.1622 56.1636 39.8903 56.2223 39.5644 56.2223C39.326 56.2223 39.109 56.1776 38.9134 56.0882C38.7197 55.9988 38.553 55.8721 38.4134 55.7083C38.2737 55.5425 38.1657 55.3441 38.0893 55.1132C38.0148 54.8804 37.9775 54.6215 37.9775 54.3365V53.9314C37.9775 53.6465 38.0148 53.3885 38.0893 53.1576C38.1657 52.9248 38.2746 52.7255 38.4162 52.5597C38.5596 52.394 38.7318 52.2664 38.933 52.177C39.1341 52.0876 39.3604 52.0429 39.6119 52.0429C39.9192 52.0429 40.179 52.1006 40.3913 52.2161C40.6036 52.3316 40.7685 52.4917 40.8858 52.6966C41.005 52.8996 41.0786 53.1352 41.1065 53.4034H40.5701C40.544 53.2134 40.4956 53.0505 40.4248 52.9145C40.3541 52.7767 40.2535 52.6705 40.1231 52.596C39.9927 52.5215 39.8223 52.4843 39.6119 52.4843C39.4312 52.4843 39.272 52.5187 39.1341 52.5877C38.9982 52.6566 38.8836 52.7543 38.7905 52.881C38.6993 53.0076 38.6303 53.1594 38.5838 53.3364C38.5372 53.5133 38.5139 53.7098 38.5139 53.9259V54.3365C38.5139 54.5358 38.5344 54.723 38.5754 54.8981C38.6182 55.0731 38.6825 55.2268 38.7682 55.359C38.8538 55.4913 38.9628 55.5956 39.095 55.6719C39.2273 55.7464 39.3837 55.7837 39.5644 55.7837C39.7935 55.7837 39.976 55.7474 40.1119 55.6747C40.2479 55.6021 40.3503 55.4978 40.4193 55.3618C40.49 55.2259 40.5403 55.0629 40.5701 54.8729Z" fill="#F9F5F2"/>
<path id="Vector_22" d="M34.3594 52.0988H35.706C36.0114 52.0988 36.2694 52.1453 36.4798 52.2384C36.6921 52.3316 36.8532 52.4694 36.9631 52.6519C37.0749 52.8326 37.1308 53.0551 37.1308 53.3196C37.1308 53.5059 37.0926 53.6763 37.0162 53.8309C36.9417 53.9836 36.8337 54.114 36.6921 54.222C36.5525 54.3282 36.3848 54.4073 36.1893 54.4595L36.0384 54.5181H34.7728L34.7673 54.0795H35.7227C35.9164 54.0795 36.0775 54.046 36.206 53.9789C36.3345 53.91 36.4314 53.8178 36.4966 53.7024C36.5618 53.5869 36.5944 53.4593 36.5944 53.3196C36.5944 53.1632 36.5636 53.0263 36.5022 52.9089C36.4407 52.7916 36.3439 52.7013 36.2116 52.6379C36.0812 52.5728 35.9127 52.5402 35.706 52.5402H34.8986V56.1664H34.3594V52.0988ZM36.7368 56.1664L35.7479 54.3226L36.3094 54.3198L37.3123 56.1329V56.1664H36.7368Z" fill="#F9F5F2"/>
<path id="Vector_23" d="M33.4631 55.7278V56.1664H31.3091V55.7278H33.4631ZM31.4181 52.0988V56.1664H30.8789V52.0988H31.4181ZM33.1781 53.8476V54.2862H31.3091V53.8476H33.1781ZM33.4352 52.0988V52.5402H31.3091V52.0988H33.4352Z" fill="#F9F5F2"/>
<path id="Vector_24" d="M25.8257 52.0988H26.3481L27.6807 55.4149L29.0105 52.0988H29.5358L27.8819 56.1664H27.474L25.8257 52.0988ZM25.6553 52.0988H26.1162L26.1917 54.5796V56.1664H25.6553V52.0988ZM29.2424 52.0988H29.7034V56.1664H29.167V54.5796L29.2424 52.0988Z" fill="#F9F5F2"/>
<path id="Vector_25" d="M21.9004 52.0988H23.247C23.5524 52.0988 23.8104 52.1453 24.0208 52.2384C24.2332 52.3316 24.3943 52.4694 24.5041 52.6519C24.6159 52.8326 24.6718 53.0551 24.6718 53.3196C24.6718 53.5059 24.6336 53.6763 24.5572 53.8309C24.4827 53.9836 24.3747 54.114 24.2332 54.222C24.0935 54.3282 23.9258 54.4073 23.7303 54.4595L23.5794 54.5181H22.3139L22.3083 54.0795H23.2637C23.4574 54.0795 23.6185 54.046 23.747 53.9789C23.8756 53.91 23.9724 53.8178 24.0376 53.7024C24.1028 53.5869 24.1354 53.4593 24.1354 53.3196C24.1354 53.1632 24.1046 53.0263 24.0432 52.9089C23.9817 52.7916 23.8849 52.7013 23.7526 52.6379C23.6223 52.5728 23.4537 52.5402 23.247 52.5402H22.4396V56.1664H21.9004V52.0988ZM24.2779 56.1664L23.2889 54.3226L23.8504 54.3198L24.8534 56.1329V56.1664H24.2779Z" fill="#F9F5F2"/>
<path id="Vector_26" d="M21.0041 55.7278V56.1664H18.8502V55.7278H21.0041ZM18.9591 52.0988V56.1664H18.4199V52.0988H18.9591ZM20.7192 53.8476V54.2862H18.8502V53.8476H20.7192ZM20.9762 52.0988V52.5402H18.8502V52.0988H20.9762Z" fill="#F9F5F2"/>
<path id="Vector_27" d="M16.0813 54.5712H14.9945V54.1326H16.0813C16.2917 54.1326 16.4622 54.0991 16.5925 54.032C16.7229 53.965 16.8179 53.8718 16.8775 53.7526C16.939 53.6334 16.9697 53.4975 16.9697 53.3448C16.9697 53.2051 16.939 53.0738 16.8775 52.9508C16.8179 52.8279 16.7229 52.7292 16.5925 52.6547C16.4622 52.5783 16.2917 52.5402 16.0813 52.5402H15.1202V56.1664H14.5811V52.0988H16.0813C16.3886 52.0988 16.6484 52.1518 16.8607 52.258C17.0731 52.3642 17.2342 52.5113 17.3441 52.6994C17.4539 52.8857 17.5089 53.0989 17.5089 53.3392C17.5089 53.5999 17.4539 53.8225 17.3441 54.0069C17.2342 54.1913 17.0731 54.3319 16.8607 54.4287C16.6484 54.5237 16.3886 54.5712 16.0813 54.5712Z" fill="#F9F5F2"/>
<path id="Vector_28" d="M12.9697 52.0988H13.5061V54.8506C13.5061 55.156 13.4381 55.4103 13.3022 55.6133C13.1662 55.8163 12.9855 55.969 12.7602 56.0714C12.5367 56.172 12.2936 56.2223 12.031 56.2223C11.7554 56.2223 11.5058 56.172 11.2823 56.0714C11.0607 55.969 10.8847 55.8163 10.7543 55.6133C10.6258 55.4103 10.5615 55.156 10.5615 54.8506V52.0988H11.0951V54.8506C11.0951 55.0629 11.1342 55.238 11.2125 55.3758C11.2907 55.5136 11.3996 55.6161 11.5393 55.6831C11.6809 55.7502 11.8448 55.7837 12.031 55.7837C12.2191 55.7837 12.383 55.7502 12.5227 55.6831C12.6643 55.6161 12.7742 55.5136 12.8524 55.3758C12.9306 55.238 12.9697 55.0629 12.9697 54.8506V52.0988Z" fill="#F9F5F2"/>
<path id="Vector_29" d="M9.18429 55.1383C9.18429 55.0433 9.16939 54.9595 9.13959 54.8869C9.11165 54.8124 9.06137 54.7453 8.98873 54.6857C8.91795 54.6261 8.81924 54.5693 8.69259 54.5153C8.56781 54.4613 8.4095 54.4064 8.21766 54.3505C8.01651 54.2909 7.83492 54.2248 7.67288 54.1521C7.51085 54.0776 7.37209 53.9929 7.25662 53.8979C7.14114 53.8029 7.05267 53.694 6.99121 53.571C6.92975 53.4481 6.89902 53.3075 6.89902 53.1492C6.89902 52.9909 6.93161 52.8447 6.9968 52.7106C7.06199 52.5765 7.15511 52.4601 7.27617 52.3614C7.3991 52.2608 7.5453 52.1826 7.71479 52.1267C7.88427 52.0708 8.07332 52.0429 8.28192 52.0429C8.58736 52.0429 8.84625 52.1015 9.05857 52.2189C9.27276 52.3344 9.43573 52.4861 9.54748 52.6743C9.65922 52.8605 9.7151 53.0598 9.7151 53.2721H9.1787C9.1787 53.1194 9.14611 52.9844 9.08092 52.867C9.01574 52.7478 8.91702 52.6547 8.78479 52.5877C8.65255 52.5187 8.48493 52.4843 8.28192 52.4843C8.09008 52.4843 7.93177 52.5132 7.80698 52.5709C7.6822 52.6286 7.58907 52.7069 7.52761 52.8056C7.46801 52.9043 7.43821 53.017 7.43821 53.1436C7.43821 53.2293 7.4559 53.3075 7.49129 53.3783C7.52854 53.4472 7.58535 53.5114 7.66171 53.571C7.73993 53.6306 7.83864 53.6856 7.95784 53.7359C8.0789 53.7862 8.22325 53.8346 8.39087 53.8812C8.62182 53.9463 8.82111 54.019 8.98873 54.0991C9.15635 54.1791 9.29418 54.2695 9.4022 54.3701C9.51209 54.4688 9.59311 54.5814 9.64526 54.7081C9.69927 54.8329 9.72627 54.9744 9.72627 55.1327C9.72627 55.2985 9.69275 55.4484 9.6257 55.5825C9.55865 55.7166 9.46273 55.8312 9.33795 55.9262C9.21316 56.0211 9.06323 56.0947 8.88816 56.1469C8.71494 56.1972 8.52125 56.2223 8.30706 56.2223C8.11895 56.2223 7.93363 56.1962 7.75111 56.1441C7.57045 56.0919 7.40562 56.0137 7.25662 55.9094C7.10948 55.8051 6.99121 55.6766 6.90181 55.5239C6.81428 55.3693 6.77051 55.1905 6.77051 54.9875H7.3069C7.3069 55.1272 7.33391 55.2473 7.38792 55.3479C7.44193 55.4466 7.5155 55.5285 7.60863 55.5937C7.70361 55.6589 7.81071 55.7073 7.92991 55.739C8.05097 55.7688 8.17669 55.7837 8.30706 55.7837C8.49517 55.7837 8.65441 55.7576 8.78479 55.7055C8.91516 55.6533 9.01387 55.5788 9.08092 55.482C9.14983 55.3851 9.18429 55.2706 9.18429 55.1383Z" fill="#F9F5F2"/>
<path id="Vector_30" d="M4.332 54.0041V54.2611C4.332 54.5665 4.29382 54.8403 4.21746 55.0825C4.1411 55.3246 4.03121 55.5304 3.8878 55.6999C3.74439 55.8694 3.57211 55.9988 3.37096 56.0882C3.17168 56.1776 2.94818 56.2223 2.70047 56.2223C2.46021 56.2223 2.2395 56.1776 2.03835 56.0882C1.83907 55.9988 1.66585 55.8694 1.51872 55.6999C1.37344 55.5304 1.26076 55.3246 1.18068 55.0825C1.10059 54.8403 1.06055 54.5665 1.06055 54.2611V54.0041C1.06055 53.6986 1.09966 53.4258 1.17788 53.1855C1.25797 52.9434 1.37065 52.7376 1.51592 52.5681C1.6612 52.3967 1.83348 52.2664 2.03276 52.177C2.23391 52.0876 2.45462 52.0429 2.69488 52.0429C2.94259 52.0429 3.16609 52.0876 3.36537 52.177C3.56652 52.2664 3.7388 52.3967 3.88221 52.5681C4.02749 52.7376 4.13831 52.9434 4.21467 53.1855C4.29289 53.4258 4.332 53.6986 4.332 54.0041ZM3.7984 54.2611V53.9985C3.7984 53.7564 3.77326 53.5422 3.72297 53.3559C3.67455 53.1697 3.60284 53.0132 3.50785 52.8866C3.41287 52.7599 3.29646 52.664 3.15864 52.5988C3.02268 52.5336 2.86809 52.501 2.69488 52.501C2.52725 52.501 2.37546 52.5336 2.2395 52.5988C2.1054 52.664 1.98993 52.7599 1.89308 52.8866C1.79809 53.0132 1.72452 53.1697 1.67237 53.3559C1.62022 53.5422 1.59415 53.7564 1.59415 53.9985V54.2611C1.59415 54.5051 1.62022 54.7211 1.67237 54.9092C1.72452 55.0955 1.79902 55.2529 1.89587 55.3814C1.99458 55.508 2.11099 55.604 2.24509 55.6691C2.38105 55.7343 2.53284 55.7669 2.70047 55.7669C2.87554 55.7669 3.03106 55.7343 3.16702 55.6691C3.30298 55.604 3.41752 55.508 3.51065 55.3814C3.60563 55.2529 3.67734 55.0955 3.72576 54.9092C3.77419 54.7211 3.7984 54.5051 3.7984 54.2611Z" fill="#F9F5F2"/>
</g>
<g id="Group 3">
<path id="Subtract" fill-rule="evenodd" clip-rule="evenodd" d="M10.2305 30.7373C10.7768 30.7373 11.2601 30.3868 11.4473 29.8736C16.4058 16.2828 29.446 6.57958 44.7526 6.57958C60.0592 6.57958 73.0994 16.2828 78.0579 29.8736C78.2451 30.3868 78.7284 30.7373 79.2747 30.7373H83.335C84.1768 30.7373 84.7862 29.9335 84.5269 29.1327C79.094 12.3548 63.3401 0.22229 44.7526 0.22229C26.1651 0.22229 10.4113 12.3548 4.97834 29.1327C4.71901 29.9335 5.32846 30.7373 6.17025 30.7373H10.2305Z" fill="#5C5C5C"/>
<path id="Subtract_2" fill-rule="evenodd" clip-rule="evenodd" d="M24.2836 30.7373C24.7393 30.7373 25.1578 30.4919 25.397 30.104C29.3994 23.6174 36.5713 19.2941 44.7529 19.2941C52.9346 19.2941 60.1064 23.6174 64.1088 30.104C64.3481 30.4919 64.7666 30.7373 65.2223 30.7373H69.652C70.5615 30.7373 71.1735 29.8106 70.7657 28.9977C65.9881 19.4737 56.1339 12.9369 44.7529 12.9369C33.372 12.9369 23.5178 19.4737 18.7401 28.9977C18.3323 29.8106 18.9443 30.7373 19.8538 30.7373H24.2836Z" fill="#F9F5F2"/>
<path id="Subtract_3" fill-rule="evenodd" clip-rule="evenodd" d="M17.0937 30.7373C17.6051 30.7373 18.0645 30.4294 18.2768 29.9641C22.859 19.9187 32.9903 12.9369 44.7522 12.9369C56.5141 12.9369 66.6454 19.9187 71.2276 29.9641C71.4399 30.4294 71.8993 30.7373 72.4107 30.7373H76.592C77.4609 30.7373 78.0728 29.8844 77.7553 29.0755C72.5847 15.9045 59.7574 6.57959 44.7522 6.57959C29.747 6.57959 16.9197 15.9045 11.7491 29.0755C11.4316 29.8844 12.0435 30.7373 12.9124 30.7373H17.0937Z" fill="#BCBCBC"/>
</g>
</g>
</g>
</svg>
