<svg width="48" height="48" viewBox="0 0 48 48" fill="none" xmlns="http://www.w3.org/2000/svg">
<g id="beneficios">
<g id="Vector">
<path d="M21 42C21 42 18 42 18 39C18 36 21 27 33 27C45 27 48 36 48 39C48 42 45 42 45 42H21Z" fill="#A0DD7F"/>
<path d="M33 24C37.9706 24 42 19.9706 42 15C42 10.0294 37.9706 6 33 6C28.0294 6 24 10.0294 24 15C24 19.9706 28.0294 24 33 24Z" fill="#A0DD7F"/>
<path d="M15.6491 42C15.2267 41.1477 15 40.1374 15 39C15 34.9336 17.0372 30.7517 20.8078 27.8399C19.1583 27.3123 17.2353 27 15 27C3 27 0 36 0 39C0 42 3 42 3 42H15.6491Z" fill="#A0DD7F"/>
<path d="M13.5 24C17.6421 24 21 20.6421 21 16.5C21 12.3579 17.6421 9 13.5 9C9.35786 9 6 12.3579 6 16.5C6 20.6421 9.35786 24 13.5 24Z" fill="#A0DD7F"/>
</g>
</g>
</svg>
