<svg width="48" height="49" viewBox="0 0 48 49" fill="none" xmlns="http://www.w3.org/2000/svg">
<g id="beneficios">
<path id="Vector 300 (Stroke)" fill-rule="evenodd" clip-rule="evenodd" d="M0 0.5H3V45.5H48V48.5H0V0.5ZM30 11C30 10.1716 30.6716 9.5 31.5 9.5H43.5C44.3284 9.5 45 10.1716 45 11V23C45 23.8284 44.3284 24.5 43.5 24.5C42.6716 24.5 42 23.8284 42 23V15.2021L31.1609 28.4499C30.8926 28.7779 30.498 28.977 30.0747 28.9981C29.6515 29.0192 29.239 28.8603 28.9393 28.5607L21.1806 20.8019L10.2131 35.8823C9.72585 36.5522 8.78772 36.7004 8.11774 36.2131C7.44776 35.7258 7.29964 34.7877 7.7869 34.1177L19.7869 17.6177C20.0449 17.263 20.4453 17.0389 20.8827 17.0046C21.32 16.9703 21.7505 17.1291 22.0607 17.4393L29.8886 25.2673L40.3346 12.5H31.5C30.6716 12.5 30 11.8284 30 11Z" fill="#A0DD7F"/>
</g>
</svg>
