<svg width="48" height="48" viewBox="0 0 48 48" fill="none" xmlns="http://www.w3.org/2000/svg">
<g id="beneficios">
<g id="Union">
<path d="M27.9072 3.76737C26.1796 0.744205 21.8205 0.744212 20.093 3.76738L14.9834 12.7091C14.5724 13.4284 14.8223 14.3447 15.5416 14.7557C16.2609 15.1667 17.1771 14.9168 17.5882 14.1975L22.6977 5.25579C23.2735 4.24807 24.7266 4.24807 25.3024 5.25579L32.9204 18.5873L29.1526 17.5777C28.3524 17.3633 27.5299 17.8382 27.3155 18.6384C27.1011 19.4386 27.576 20.2611 28.3762 20.4755L35.6206 22.4166C36.4208 22.631 37.2433 22.1562 37.4577 21.356L39.3989 14.1115C39.6133 13.3113 39.1384 12.4888 38.3382 12.2744C37.538 12.06 36.7155 12.5349 36.5011 13.3351L35.503 17.0601L27.9072 3.76737Z" fill="#A0DD7F"/>
<path d="M8.92045 23.3193L5.15263 24.3289C4.35243 24.5433 3.52993 24.0684 3.31552 23.2682C3.1011 22.468 3.57598 21.6455 4.37618 21.4311L11.6206 19.49C12.4208 19.2756 13.2433 19.7504 13.4577 20.5506L15.3989 27.7951C15.6133 28.5953 15.1384 29.4178 14.3382 29.6322C13.538 29.8466 12.7155 29.3717 12.5011 28.5715L11.503 24.8465L3.86725 38.2091C3.29583 39.2091 4.01788 40.4533 5.16961 40.4533H15.0001C15.8285 40.4533 16.5001 41.1249 16.5001 41.9533C16.5001 42.7817 15.8285 43.4533 15.0001 43.4533H5.16961C1.71441 43.4533 -0.451741 39.7206 1.26252 36.7207L8.92045 23.3193Z" fill="#A0DD7F"/>
<path d="M41.5881 27.7091C41.1771 26.9898 40.2608 26.7399 39.5416 27.1509C38.8223 27.562 38.5724 28.4782 38.9834 29.1975L44.1329 38.2091C44.7043 39.2091 43.9823 40.4533 42.8305 40.4533H26.1214L28.0607 38.514C28.6465 37.9282 28.6465 36.9784 28.0607 36.3926C27.4749 35.8069 26.5252 35.8069 25.9394 36.3926L21.4394 40.8927C21.2851 41.0469 21.1714 41.2265 21.0984 41.4179C21.0464 41.554 21.0137 41.6995 21.0035 41.8512C20.9987 41.9224 20.9989 41.9938 21.0042 42.065C21.0147 42.2087 21.0456 42.3468 21.0938 42.4764C21.1666 42.6725 21.2818 42.8564 21.4394 43.014L25.9394 47.514C26.5252 48.0998 27.4749 48.0998 28.0607 47.514C28.6465 46.9282 28.6465 45.9784 28.0607 45.3926L26.1213 43.4533H42.8305C46.2857 43.4533 48.4519 39.7206 46.7376 36.7207L41.5881 27.7091Z" fill="#A0DD7F"/>
</g>
</g>
</svg>
