<svg width="48" height="49" viewBox="0 0 48 49" fill="none" xmlns="http://www.w3.org/2000/svg">
<g id="beneficios">
<path id="Union" d="M24 0.5C10.7452 0.5 0 11.2452 0 24.5C0 37.7548 10.7452 48.5 24 48.5C37.2548 48.5 48 37.7548 48 24.5C48 11.2452 37.2548 0.5 24 0.5ZM6.12126 13.4785C7.09648 17.4645 13.7156 21.096 17.2695 23.0458C18.7115 23.8369 19.6488 24.3512 19.5 24.5C19.2579 24.7421 19.0131 24.9751 18.7733 25.2034C17.5272 26.3896 16.4144 27.449 16.5 29C16.6051 30.9031 18.3534 31.471 20.1426 32.0521C21.8745 32.6147 23.6447 33.1897 24 35C24.2458 36.2523 23.7764 37.9644 23.3391 39.5592C22.6956 41.9066 22.1216 44 24 44C28.5 42.5 35.3952 34.4432 36 29C36.4142 25.2721 30 23 25.5 21.5C24.066 21.022 23.2335 21.7432 22.5291 22.3534C22.0127 22.8007 21.5651 23.1884 21 23C19.6641 22.5547 13.5 17 16.5 15.5C18.8423 14.3289 19.3558 14.9865 20.1823 16.0451C20.4144 16.3424 20.6712 16.6712 21 17C22.8255 17.9128 22.9848 16.6039 23.1677 15.1012C23.2853 14.1344 23.4127 13.0873 24 12.5C25.3009 11.1992 27.7944 10.1263 30.0831 9.14152C32.2208 8.2217 34.1798 7.37881 34.821 6.49892C40.9205 10.1734 45 16.8603 45 24.5C45 36.098 35.598 45.5 24 45.5C12.402 45.5 3 36.098 3 24.5C3 20.4577 4.14212 16.6822 6.12126 13.4785Z" fill="#A0DD7F"/>
</g>
</svg>
