<svg width="143" height="49" viewBox="0 0 143 49" fill="none" xmlns="http://www.w3.org/2000/svg">
<g id="centerbox">
<g id="Group 8">
<rect id="Rectangle 34" x="0.823242" y="0.22229" width="141.809" height="33.2518" fill="#5C5C5C"/>
<path id="centerbox_2" fill-rule="evenodd" clip-rule="evenodd" d="M14.6458 27.4106C14.6676 27.4107 14.6893 27.4108 14.711 27.4105H18.5252V19.7523C17.7592 21.1825 16.4247 22.1294 14.9066 22.1294C12.5301 22.1294 10.6034 19.8087 10.6034 16.946C10.6034 14.0833 12.5301 11.7626 14.9066 11.7626C16.4247 11.7626 17.7592 12.7095 18.5252 14.1397V6.48145H14.711C14.6949 6.48126 14.6788 6.48126 14.6627 6.48126L14.6132 6.48145C9.48194 6.48145 5.32227 11.1666 5.32227 16.946C5.32227 22.7254 9.48194 27.4105 14.6132 27.4105L14.6458 27.4106ZM21.9482 6.48145H19.4054V27.4105H21.9482H23.513H30.9457V22.9118H23.513V18.9998H28.9897V14.501H23.513V10.9802H30.9457V6.48145H23.513H21.9482ZM60.6768 6.48145H63.2195H64.7843H72.2171V10.9802H64.7843V14.501H70.2611V18.9998H64.7843V22.9118H72.2171V27.4105H64.7843H63.2195H60.6768V6.48145ZM35.8357 16.7641V27.4105H32.1193V6.48145L41.7037 17.1229V6.48145H45.42V27.0193L35.8357 16.7641ZM46.7892 6.48145H59.5032V10.9802H55.5912V27.4105H50.7012V10.9802H46.7892V6.48145ZM73.3907 6.48145V27.0193H77.4983V19.5866H80.8139C81.2171 19.752 81.5238 20.1137 81.6058 20.5646L83.1706 27.0193H87.2782C87.2782 27.0193 86.1046 22.0316 85.42 19.1954C85.3121 18.7483 85.0062 18.2373 84.6376 18.0218C84.6269 18.0155 84.6162 18.0094 84.6056 18.0034C86.0025 16.8018 86.887 15.0211 86.887 13.034C86.887 9.57961 84.214 6.74954 80.8234 6.49941V6.48145H73.3907ZM80.4322 10.589H77.4983V15.479H80.4322V15.4771C81.7373 15.4257 82.7794 14.3515 82.7794 13.034C82.7794 11.7165 81.7373 10.6423 80.4322 10.5909V10.589ZM88.4518 6.48145H95.1022V6.48222C95.1347 6.48174 95.1673 6.48145 95.2 6.48145C98.4948 6.48145 101.166 9.15241 101.166 12.4472C101.166 14.0423 100.54 15.4912 99.52 16.5616C100.6 17.6715 101.265 19.1871 101.265 20.858C101.265 24.2608 98.5066 27.0193 95.1037 27.0193H88.4518V6.48145ZM92.3638 14.6966V10.7846H95.1022C96.1824 10.7846 97.0582 11.6603 97.0582 12.7406C97.0582 13.8209 96.1824 14.6966 95.1022 14.6966H92.3638ZM92.3638 23.303H95.0044C96.12 23.303 97.0229 22.2766 97.0229 21.161C97.0229 20.0786 96.1717 19.2472 95.1022 19.1954H92.3638V23.303ZM110.652 27.0193C115.784 27.0193 119.943 22.4218 119.943 16.7504C119.943 11.079 115.784 6.48145 110.652 6.48145C105.521 6.48145 101.361 11.079 101.361 16.7504C101.361 22.4218 105.521 27.0193 110.652 27.0193ZM110.652 21.7382C112.867 21.7382 114.662 19.5051 114.662 16.7504C114.662 13.9957 112.867 11.7626 110.652 11.7626C108.438 11.7626 106.643 13.9957 106.643 16.7504C106.643 19.5051 108.438 21.7382 110.652 21.7382ZM129.919 6.48145H135.004L128.379 16.8864L135.004 27.2149H129.821L125.811 20.9181L121.801 27.2149H116.618L123.244 16.8864L116.618 6.48145H121.704L125.811 12.8844L129.919 6.48145Z" fill="white"/>
<path id="Subtract" d="M0.823242 33.4175L0.860681 33.4741L6.32126 25.214C4.48394 22.9969 3.36603 20.0641 3.36603 16.8482C3.36603 13.6323 4.48394 10.6995 6.32126 8.48242L0.860681 0.22229L0.823242 0.278926V33.4175Z" fill="#F9F5F2"/>
<path id="Subtract_2" d="M142.633 0.283905L131.683 16.8482L142.633 33.4125V0.283905Z" fill="#F9F5F2"/>
<g id="Tudo de bom pra voc&#195;&#170;.">
<path id="Vector" d="M134.919 45.7968V44.2567H136.411V45.7968H134.919Z" fill="#F9F5F2"/>
<path id="Vector_2" d="M129.341 38.8358L130.445 37.1866H131.766L132.882 38.8358H131.73L131.124 37.8535H131.099L130.481 38.8358H129.341ZM128.031 42.7044C128.031 41.7504 128.322 40.9743 128.904 40.376C129.495 39.7696 130.255 39.4665 131.184 39.4665C132.041 39.4665 132.712 39.7454 133.197 40.3032C133.683 40.853 133.925 41.5523 133.925 42.4012C133.925 42.6033 133.909 42.8014 133.877 42.9954H129.608C129.656 43.5129 129.854 43.9171 130.202 44.2082C130.558 44.4911 130.982 44.6326 131.475 44.6326C132.009 44.6326 132.599 44.4062 133.246 43.9535L133.852 45.0571C133.577 45.2834 133.218 45.4896 132.773 45.6755C132.328 45.8534 131.859 45.9423 131.366 45.9423C130.372 45.9423 129.567 45.6311 128.953 45.0086C128.338 44.3779 128.031 43.6099 128.031 42.7044ZM129.656 41.9404H132.385C132.377 41.5362 132.256 41.2168 132.021 40.9823C131.795 40.7479 131.504 40.6307 131.148 40.6307C130.76 40.6307 130.432 40.7519 130.166 40.9945C129.899 41.2289 129.729 41.5442 129.656 41.9404Z" fill="#F9F5F2"/>
<path id="Vector_3" d="M121.649 42.7044C121.649 41.7989 121.957 41.0349 122.571 40.4124C123.186 39.7818 124.006 39.4665 125.033 39.4665C125.348 39.4665 125.664 39.5069 125.979 39.5878C126.294 39.6605 126.589 39.8101 126.864 40.0365C127.139 40.2548 127.276 40.5296 127.276 40.8611V41.5887H125.93V41.2492C125.93 41.0956 125.833 40.9783 125.639 40.8975C125.453 40.8086 125.251 40.7641 125.033 40.7641C124.499 40.7641 124.059 40.946 123.711 41.3098C123.371 41.6736 123.202 42.1345 123.202 42.6923C123.202 43.2906 123.388 43.7595 123.76 44.0991C124.14 44.4305 124.6 44.5963 125.142 44.5963C125.336 44.5963 125.53 44.568 125.724 44.5114C125.926 44.4548 126.096 44.3861 126.233 44.3052C126.379 44.2163 126.508 44.1314 126.622 44.0505C126.743 43.9697 126.832 43.901 126.888 43.8444L126.973 43.7595L127.604 44.8267C127.58 44.859 127.543 44.8994 127.495 44.948C127.446 44.9965 127.337 45.0854 127.167 45.2147C127.006 45.3441 126.832 45.4573 126.646 45.5543C126.46 45.6513 126.217 45.7403 125.918 45.8211C125.627 45.902 125.324 45.9424 125.009 45.9424C124.006 45.9424 123.194 45.6352 122.571 45.0207C121.957 44.3982 121.649 43.6261 121.649 42.7044Z" fill="#F9F5F2"/>
<path id="Vector_4" d="M115.196 45.0328C114.549 44.4184 114.226 43.6423 114.226 42.7044C114.226 41.7666 114.549 40.9945 115.196 40.3882C115.851 39.7737 116.655 39.4665 117.609 39.4665C118.563 39.4665 119.367 39.7737 120.022 40.3882C120.677 40.9945 121.005 41.7666 121.005 42.7044C121.005 43.6423 120.677 44.4184 120.022 45.0328C119.376 45.6392 118.575 45.9424 117.621 45.9424C116.659 45.9424 115.851 45.6392 115.196 45.0328ZM115.778 42.7044C115.778 43.2704 115.956 43.7352 116.311 44.0991C116.667 44.4548 117.104 44.6326 117.621 44.6326C118.131 44.6326 118.563 44.4548 118.919 44.0991C119.275 43.7352 119.452 43.2704 119.452 42.7044C119.452 42.1466 119.275 41.6858 118.919 41.3219C118.563 40.9581 118.131 40.7762 117.621 40.7762C117.112 40.7762 116.675 40.9581 116.311 41.3219C115.956 41.6858 115.778 42.1466 115.778 42.7044Z" fill="#F9F5F2"/>
<path id="Vector_5" d="M109.823 45.7968L108.04 41.14C107.984 40.9945 107.871 40.9217 107.701 40.9217H107.567V39.612H108.465C108.715 39.612 108.905 39.6564 109.035 39.7454C109.172 39.8343 109.281 39.9839 109.362 40.1941L110.539 43.4441L110.757 44.3294H110.781C110.846 43.9818 110.919 43.6867 110.999 43.4441L112.164 40.1941C112.244 39.9839 112.354 39.8343 112.491 39.7454C112.628 39.6564 112.822 39.612 113.073 39.612H113.898V40.9217H113.764C113.586 40.9217 113.469 40.9945 113.413 41.14L111.642 45.7968H109.823Z" fill="#F9F5F2"/>
<path id="Vector_6" d="M98.0039 44.0991C98.0039 43.7029 98.1009 43.3633 98.295 43.0804C98.4971 42.7893 98.7315 42.5751 98.9983 42.4376C99.2651 42.2921 99.5845 42.1789 99.9564 42.0981C100.336 42.0091 100.648 41.9566 100.89 41.9404C101.141 41.9243 101.404 41.9162 101.678 41.9162H101.872V41.8313C101.872 41.4109 101.779 41.1117 101.594 40.9339C101.416 40.7479 101.129 40.6549 100.733 40.6549C100.538 40.6549 100.353 40.6873 100.175 40.752C99.9968 40.8086 99.9079 40.9137 99.9079 41.0673V41.3947H98.4647V40.7398C98.4647 40.473 98.5496 40.2507 98.7194 40.0728C98.8892 39.8869 99.1075 39.7535 99.3743 39.6727C99.6411 39.5918 99.8796 39.5393 100.09 39.515C100.3 39.4827 100.502 39.4665 100.696 39.4665C101.682 39.4665 102.382 39.6848 102.794 40.1214C103.206 40.5498 103.413 41.1522 103.413 41.9283V44.2325C103.413 44.4103 103.502 44.4992 103.679 44.4992H104.164V45.7969H102.77C102.252 45.7969 101.994 45.5705 101.994 45.1177V44.8509H101.969C101.978 44.8509 101.957 44.8914 101.909 44.9722C101.868 45.045 101.796 45.1339 101.691 45.239C101.594 45.3441 101.472 45.4492 101.327 45.5543C101.189 45.6594 101.007 45.7483 100.781 45.8211C100.555 45.902 100.312 45.9424 100.053 45.9424C99.4794 45.9424 98.9943 45.7766 98.5981 45.4452C98.202 45.1056 98.0039 44.6569 98.0039 44.0991ZM99.5319 43.9414C99.5319 44.1678 99.6128 44.3618 99.7745 44.5235C99.9442 44.6852 100.175 44.766 100.466 44.766C100.87 44.766 101.205 44.5963 101.472 44.2567C101.747 43.9171 101.885 43.5452 101.885 43.141V42.9712H101.606C100.223 42.9712 99.5319 43.2946 99.5319 43.9414Z" fill="#F9F5F2"/>
<path id="Vector_7" d="M93.9355 45.7968V41.1885C93.9355 41.0106 93.8465 40.9217 93.6687 40.9217H93.1836V39.6119H94.6025C95.1441 39.6119 95.415 39.8626 95.415 40.3638V40.7276L95.3907 41.1157H95.415C95.5686 40.6549 95.8192 40.2749 96.1669 39.9757C96.5226 39.6766 96.9268 39.527 97.3796 39.527L97.6706 39.5513V41.0672C97.5574 41.051 97.4321 41.0429 97.2947 41.0429C96.9309 41.0429 96.5913 41.1521 96.276 41.3704C95.9688 41.5887 95.7465 41.912 95.609 42.3405C95.5201 42.6154 95.4756 42.9509 95.4756 43.3471V45.7968H93.9355Z" fill="#F9F5F2"/>
<path id="Vector_8" d="M86.4882 48.2223V41.1885C86.4882 41.0107 86.3993 40.9217 86.2214 40.9217H85.7363V39.612H87.1188C87.6363 39.612 87.895 39.8101 87.895 40.2062V40.4488H87.9192C87.9354 40.4245 87.9556 40.3922 87.9798 40.3518C88.0122 40.3033 88.0849 40.2224 88.1981 40.1092C88.3113 39.996 88.4326 39.899 88.562 39.8182C88.6994 39.7292 88.8853 39.6484 89.1198 39.5756C89.3623 39.5029 89.617 39.4665 89.8838 39.4665C90.7165 39.4665 91.3795 39.7656 91.8727 40.3639C92.3739 40.9622 92.6245 41.7423 92.6245 42.7044C92.6245 43.6746 92.3577 44.4588 91.8242 45.0571C91.2986 45.6473 90.6236 45.9424 89.7989 45.9424C89.5725 45.9424 89.3543 45.9141 89.1441 45.8575C88.9419 45.8009 88.7762 45.7362 88.6468 45.6635C88.5175 45.5826 88.4003 45.5018 88.2952 45.4209C88.1981 45.3401 88.1294 45.2713 88.089 45.2147L88.0284 45.1299H88.0041C88.0203 45.2754 88.0284 45.4533 88.0284 45.6635V48.2223H86.4882ZM87.9798 42.7408C87.9798 43.2582 88.1133 43.7069 88.38 44.0869C88.6549 44.4588 89.0349 44.6448 89.52 44.6448C89.9647 44.6448 90.3325 44.475 90.6236 44.1354C90.9227 43.7878 91.0723 43.3189 91.0723 42.7287C91.0723 42.1466 90.9308 41.6777 90.6478 41.3219C90.3649 40.9662 89.997 40.7883 89.5443 40.7883C89.0996 40.7883 88.7277 40.9541 88.4286 41.2856C88.1294 41.609 87.9798 42.094 87.9798 42.7408Z" fill="#F9F5F2"/>
<path id="Vector_9" d="M71.9951 45.7969V41.1885C71.9951 41.0107 71.9061 40.9217 71.7283 40.9217H71.2432V39.612H72.6742C73.2158 39.612 73.4867 39.8424 73.4867 40.3033V40.4852L73.4746 40.752H73.4988C73.6605 40.4124 73.9192 40.1133 74.2749 39.8546C74.6388 39.5958 75.047 39.4665 75.4998 39.4665C76.4376 39.4665 77.0359 39.8909 77.2946 40.7398H77.3189C77.4967 40.3841 77.7757 40.085 78.1556 39.8424C78.5437 39.5918 78.9681 39.4665 79.429 39.4665C80.7791 39.4665 81.4542 40.2507 81.4542 41.8192V44.2325C81.4542 44.4103 81.5431 44.4992 81.721 44.4992H82.2061V45.7969H80.7387C80.4557 45.7969 80.2496 45.7322 80.1202 45.6028C79.9909 45.4735 79.9262 45.2633 79.9262 44.9722V42.1102C79.9262 41.7141 79.8656 41.4109 79.7443 41.2007C79.623 40.9824 79.4007 40.8732 79.0773 40.8732C78.7135 40.8732 78.3982 41.0107 78.1314 41.2856C77.8646 41.5524 77.6827 41.8879 77.5857 42.2921C77.5291 42.5185 77.5008 42.7812 77.5008 43.0804V45.7969H75.9606V42.1102C75.9606 41.7141 75.904 41.4109 75.7908 41.2007C75.6777 40.9824 75.4553 40.8732 75.1238 40.8732C74.7519 40.8732 74.4326 41.0107 74.1658 41.2856C73.9071 41.5524 73.7252 41.8919 73.6201 42.3042C73.5635 42.5872 73.5352 42.8459 73.5352 43.0804V45.7969H71.9951Z" fill="#F9F5F2"/>
<path id="Vector_10" d="M64.8989 45.0328C64.2521 44.4184 63.9287 43.6423 63.9287 42.7044C63.9287 41.7666 64.2521 40.9945 64.8989 40.3882C65.5537 39.7737 66.3582 39.4665 67.3122 39.4665C68.2662 39.4665 69.0706 39.7737 69.7255 40.3882C70.3803 40.9945 70.7078 41.7666 70.7078 42.7044C70.7078 43.6423 70.3803 44.4184 69.7255 45.0328C69.0787 45.6392 68.2783 45.9424 67.3243 45.9424C66.3622 45.9424 65.5537 45.6392 64.8989 45.0328ZM65.481 42.7044C65.481 43.2704 65.6588 43.7352 66.0146 44.0991C66.3703 44.4548 66.8069 44.6326 67.3243 44.6326C67.8336 44.6326 68.2662 44.4548 68.6219 44.0991C68.9776 43.7352 69.1555 43.2704 69.1555 42.7044C69.1555 42.1466 68.9776 41.6858 68.6219 41.3219C68.2662 40.9581 67.8336 40.7762 67.3243 40.7762C66.815 40.7762 66.3784 40.9581 66.0146 41.3219C65.6588 41.6858 65.481 42.1466 65.481 42.7044Z" fill="#F9F5F2"/>
<path id="Vector_11" d="M57.1415 45.7968V38.7631C57.1415 38.5852 57.0526 38.4963 56.8747 38.4963H56.3896V37.1866H57.857C58.14 37.1866 58.3462 37.2553 58.4755 37.3927C58.6049 37.5221 58.6696 37.7282 58.6696 38.0112V39.806L58.6453 40.3275H58.6696C58.6857 40.3032 58.7059 40.2749 58.7302 40.2426C58.7625 40.2022 58.8353 40.1334 58.9485 40.0364C59.0617 39.9313 59.1829 39.8424 59.3123 39.7696C59.4416 39.6888 59.6155 39.6201 59.8338 39.5635C60.052 39.4988 60.2825 39.4665 60.525 39.4665C61.3577 39.4665 62.0247 39.7656 62.526 40.3639C63.0272 40.9621 63.2779 41.7423 63.2779 42.7044C63.2779 43.6746 63.0111 44.4588 62.4775 45.0571C61.9439 45.6472 61.2607 45.9423 60.428 45.9423C60.1854 45.9423 59.955 45.91 59.7367 45.8453C59.5265 45.7887 59.3527 45.72 59.2153 45.6392C59.0859 45.5502 58.9727 45.4653 58.8757 45.3845C58.7787 45.2956 58.7059 45.2228 58.6574 45.1662L58.5968 45.0692H58.5725C58.5806 45.1824 58.5847 45.3198 58.5847 45.4815V45.7968H57.1415ZM58.6332 42.7408C58.6332 43.2582 58.7666 43.7069 59.0334 44.0869C59.3002 44.4588 59.6761 44.6447 60.1612 44.6447C60.6059 44.6447 60.9778 44.475 61.2769 44.1354C61.576 43.7878 61.7256 43.3188 61.7256 42.7287C61.7256 42.1465 61.5841 41.6776 61.3011 41.3219C61.0182 40.9662 60.6463 40.7883 60.1854 40.7883C59.7489 40.7883 59.381 40.954 59.0819 41.2855C58.7827 41.6089 58.6332 42.094 58.6332 42.7408Z" fill="#F9F5F2"/>
<path id="Vector_12" d="M47.0449 42.7044C47.0449 41.7504 47.336 40.9743 47.9181 40.376C48.5083 39.7697 49.2682 39.4665 50.198 39.4665C51.055 39.4665 51.726 39.7454 52.2111 40.3033C52.6962 40.853 52.9387 41.5524 52.9387 42.4013C52.9387 42.6034 52.9225 42.8015 52.8902 42.9955H48.6214C48.67 43.5129 48.868 43.9171 49.2157 44.2082C49.5714 44.4912 49.9959 44.6326 50.489 44.6326C51.0226 44.6326 51.6128 44.4063 52.2596 43.9535L52.8659 45.0571C52.5911 45.2835 52.2313 45.4896 51.7866 45.6756C51.342 45.8534 50.8731 45.9424 50.3799 45.9424C49.3855 45.9424 48.581 45.6311 47.9666 45.0086C47.3521 44.378 47.0449 43.6099 47.0449 42.7044ZM48.67 41.9404H51.3986C51.3905 41.5362 51.2692 41.2168 51.0347 40.9824C50.8084 40.7479 50.5173 40.6307 50.1616 40.6307C49.7735 40.6307 49.4461 40.752 49.1793 40.9945C48.9125 41.229 48.7427 41.5443 48.67 41.9404Z" fill="#F9F5F2"/>
<path id="Vector_13" d="M39.6211 42.7044C39.6211 41.7342 39.8798 40.954 40.3972 40.3639C40.9227 39.7656 41.5978 39.4665 42.4225 39.4665C42.6731 39.4665 42.9075 39.4948 43.1258 39.5513C43.3441 39.5999 43.5179 39.6605 43.6473 39.7333C43.7767 39.806 43.8858 39.8788 43.9747 39.9515C44.0637 40.0243 44.1283 40.089 44.1688 40.1456L44.2173 40.2183H44.2415C44.2254 40.1132 44.2173 39.992 44.2173 39.8545V38.7631C44.2173 38.5852 44.1283 38.4963 43.9505 38.4963H43.4775V37.1866H44.9449C45.2279 37.1866 45.434 37.2553 45.5634 37.3927C45.6927 37.5221 45.7574 37.7282 45.7574 38.0112V44.2324C45.7574 44.4103 45.8464 44.4992 46.0242 44.4992H46.5093V45.7968H45.0904C44.573 45.7968 44.3143 45.5866 44.3143 45.1662L44.3264 44.9358H44.3022C44.286 44.96 44.2617 44.9964 44.2294 45.0449C44.2051 45.0934 44.1364 45.1743 44.0232 45.2875C43.9181 45.4007 43.7969 45.5017 43.6594 45.5907C43.5301 45.6796 43.3482 45.7604 43.1137 45.8332C42.8793 45.906 42.6286 45.9423 42.3618 45.9423C41.5291 45.9423 40.8621 45.6432 40.3608 45.0449C39.8677 44.4467 39.6211 43.6665 39.6211 42.7044ZM41.1734 42.7044C41.1734 43.2865 41.3149 43.7554 41.5978 44.1111C41.8808 44.4669 42.2527 44.6447 42.7135 44.6447C43.1501 44.6447 43.5179 44.483 43.8171 44.1597C44.1162 43.8282 44.2658 43.339 44.2658 42.6923C44.2658 42.1748 44.1324 41.7302 43.8656 41.3583C43.5988 40.9783 43.2188 40.7883 42.7256 40.7883C42.2891 40.7883 41.9212 40.9621 41.6221 41.3098C41.3229 41.6493 41.1734 42.1142 41.1734 42.7044Z" fill="#F9F5F2"/>
<path id="Vector_14" d="M29.9946 45.0328C29.3478 44.4184 29.0244 43.6423 29.0244 42.7044C29.0244 41.7666 29.3478 40.9945 29.9946 40.3882C30.6495 39.7737 31.4539 39.4665 32.4079 39.4665C33.3619 39.4665 34.1663 39.7737 34.8212 40.3882C35.476 40.9945 35.8035 41.7666 35.8035 42.7044C35.8035 43.6423 35.476 44.4184 34.8212 45.0328C34.1744 45.6392 33.374 45.9424 32.42 45.9424C31.4579 45.9424 30.6495 45.6392 29.9946 45.0328ZM30.5767 42.7044C30.5767 43.2704 30.7546 43.7352 31.1103 44.0991C31.466 44.4548 31.9026 44.6326 32.42 44.6326C32.9294 44.6326 33.3619 44.4548 33.7176 44.0991C34.0733 43.7352 34.2512 43.2704 34.2512 42.7044C34.2512 42.1466 34.0733 41.6858 33.7176 41.3219C33.3619 40.9581 32.9294 40.7762 32.42 40.7762C31.9107 40.7762 31.4741 40.9581 31.1103 41.3219C30.7546 41.6858 30.5767 42.1466 30.5767 42.7044Z" fill="#F9F5F2"/>
<path id="Vector_15" d="M21.6006 42.7044C21.6006 41.7342 21.8593 40.954 22.3767 40.3639C22.9022 39.7656 23.5773 39.4665 24.402 39.4665C24.6526 39.4665 24.887 39.4948 25.1053 39.5513C25.3236 39.5999 25.4974 39.6605 25.6268 39.7333C25.7561 39.806 25.8653 39.8788 25.9542 39.9515C26.0432 40.0243 26.1078 40.089 26.1483 40.1456L26.1968 40.2183H26.221C26.2049 40.1132 26.1968 39.992 26.1968 39.8545V38.7631C26.1968 38.5852 26.1078 38.4963 25.93 38.4963H25.457V37.1866H26.9244C27.2074 37.1866 27.4135 37.2553 27.5429 37.3927C27.6722 37.5221 27.7369 37.7282 27.7369 38.0112V44.2324C27.7369 44.4103 27.8258 44.4992 28.0037 44.4992H28.4888V45.7968H27.0699C26.5525 45.7968 26.2938 45.5866 26.2938 45.1662L26.3059 44.9358H26.2817C26.2655 44.96 26.2412 44.9964 26.2089 45.0449C26.1846 45.0934 26.1159 45.1743 26.0027 45.2875C25.8976 45.4007 25.7764 45.5017 25.6389 45.5907C25.5096 45.6796 25.3277 45.7604 25.0932 45.8332C24.8587 45.906 24.6081 45.9423 24.3413 45.9423C23.5086 45.9423 22.8416 45.6432 22.3403 45.0449C21.8472 44.4467 21.6006 43.6665 21.6006 42.7044ZM23.1529 42.7044C23.1529 43.2865 23.2943 43.7554 23.5773 44.1111C23.8603 44.4669 24.2322 44.6447 24.693 44.6447C25.1296 44.6447 25.4974 44.483 25.7966 44.1597C26.0957 43.8282 26.2453 43.339 26.2453 42.6923C26.2453 42.1748 26.1119 41.7302 25.8451 41.3583C25.5783 40.9783 25.1983 40.7883 24.7051 40.7883C24.2686 40.7883 23.9007 40.9621 23.6016 41.3098C23.3024 41.6493 23.1529 42.1142 23.1529 42.7044Z" fill="#F9F5F2"/>
<path id="Vector_16" d="M14.5331 43.5897V41.1885C14.5331 41.0106 14.4442 40.9217 14.2663 40.9217H13.7812V39.612H15.2486C15.5316 39.612 15.7378 39.6766 15.8671 39.806C15.9965 39.9354 16.0612 40.1415 16.0612 40.4245V43.2744C16.0612 43.6867 16.1299 44.002 16.2673 44.2203C16.4128 44.4305 16.6635 44.5356 17.0192 44.5356C17.5528 44.5356 17.9732 44.3335 18.2804 43.9292C18.5957 43.525 18.7534 43.0318 18.7534 42.4497V39.612H20.2935V44.2324C20.2935 44.4103 20.3825 44.4992 20.5603 44.4992H21.0454V45.7968H19.6265C19.0848 45.7968 18.814 45.5664 18.814 45.1056V44.9358L18.8261 44.6569H18.8019C18.6402 45.0126 18.3693 45.3158 17.9894 45.5664C17.6094 45.817 17.1688 45.9423 16.6675 45.9423C15.2446 45.9423 14.5331 45.1581 14.5331 43.5897Z" fill="#F9F5F2"/>
<path id="Vector_17" d="M9.24499 45.7968V38.5327H7.92314C7.74527 38.5327 7.65634 38.6216 7.65634 38.7995V39.3209H6.26172V37.9627C6.26172 37.6797 6.31831 37.4816 6.4315 37.3685C6.54469 37.2472 6.74276 37.1866 7.02573 37.1866H13.0408C13.3238 37.1866 13.5218 37.2472 13.635 37.3685C13.7563 37.4816 13.8169 37.6797 13.8169 37.9627V39.3209H12.4102V38.7995C12.4102 38.6216 12.3212 38.5327 12.1434 38.5327H10.8336V45.7968H9.24499Z" fill="#F9F5F2"/>
</g>
</g>
</g>
</svg>
