<svg width="143" height="49" viewBox="0 0 143 49" fill="none" xmlns="http://www.w3.org/2000/svg">
<rect x="0.311646" y="0.11084" width="141.809" height="33.2518" fill="#5C5C5C"/>
<path fill-rule="evenodd" clip-rule="evenodd" d="M14.134 27.299C14.1557 27.2991 14.1774 27.2992 14.1992 27.2989H18.0134V19.6406C17.2473 21.0709 15.9129 22.0177 14.3948 22.0177C12.0182 22.0177 10.0916 19.6971 10.0916 16.8344C10.0916 13.9716 12.0182 11.651 14.3948 11.651C15.9129 11.651 17.2473 12.5978 18.0134 14.0281V6.36982H14.1992C14.1831 6.36963 14.167 6.36963 14.1509 6.36963L14.1014 6.36982C8.9701 6.36982 4.81042 11.0549 4.81042 16.8344C4.81042 22.6138 8.9701 27.2989 14.1014 27.2989L14.134 27.299ZM21.4363 6.36982H18.8935V27.2989H21.4363H23.0011H30.4339V22.8001H23.0011V18.8881H28.4779V14.3894H23.0011V10.8686H30.4339V6.36982H23.0011H21.4363ZM60.1649 6.36982H62.7077H64.2725H71.7053V10.8686H64.2725V14.3894H69.7493V18.8881H64.2725V22.8001H71.7053V27.2989H64.2725H62.7077H60.1649V6.36982ZM35.3239 16.6524V27.2989H31.6075V6.36982L41.1918 17.0112V6.36982H44.9082V26.9077L35.3239 16.6524ZM46.2774 6.36982H58.9913V10.8686H55.0793V27.2989H50.1894V10.8686H46.2774V6.36982ZM72.8788 6.36982V26.9077H76.9864V19.4749H80.3021C80.7053 19.6404 81.012 20.002 81.094 20.4529L82.6588 26.9077H86.7664C86.7664 26.9077 85.5928 21.9199 84.9082 19.0837C84.8003 18.6367 84.4944 18.1257 84.1258 17.9102C84.115 17.9038 84.1043 17.8977 84.0937 17.8918C85.4906 16.6901 86.3752 14.9095 86.3752 12.9224C86.3752 9.46798 83.7021 6.63791 80.3116 6.38778V6.36982H72.8788ZM79.9204 10.4774H76.9864V15.3674H79.9204V15.3655C81.2254 15.3141 82.2676 14.2399 82.2676 12.9224C82.2676 11.6049 81.2254 10.5307 79.9204 10.4793V10.4774ZM87.94 6.36982H94.5903V6.37058C94.6228 6.37011 94.6555 6.36982 94.6881 6.36982C97.9829 6.36982 100.654 9.04078 100.654 12.3356C100.654 13.9307 100.028 15.3796 99.0082 16.4499C100.088 17.5598 100.753 19.0754 100.753 20.7463C100.753 24.1492 97.9947 26.9077 94.5919 26.9077H87.94V6.36982ZM91.8519 14.585V10.673H94.5903C95.6706 10.673 96.5463 11.5487 96.5463 12.629C96.5463 13.7093 95.6706 14.585 94.5903 14.585H91.8519ZM91.8519 23.1913H94.4925C95.6082 23.1913 96.511 22.165 96.511 21.0494C96.511 19.967 95.6598 19.1356 94.5903 19.0837H91.8519V23.1913ZM110.14 26.9077C115.272 26.9077 119.431 22.3101 119.431 16.6388C119.431 10.9674 115.272 6.36982 110.14 6.36982C105.009 6.36982 100.849 10.9674 100.849 16.6388C100.849 22.3101 105.009 26.9077 110.14 26.9077ZM110.14 21.6265C112.355 21.6265 114.15 19.3934 114.15 16.6388C114.15 13.8841 112.355 11.651 110.14 11.651C107.926 11.651 106.131 13.8841 106.131 16.6388C106.131 19.3934 107.926 21.6265 110.14 21.6265ZM129.407 6.36982H134.492L127.867 16.7748L134.492 27.1033H129.309L125.299 20.8065L121.29 27.1033H116.106L122.732 16.7748L116.106 6.36982H121.192L125.299 12.7728L129.407 6.36982Z" fill="white"/>
<path d="M0.311646 33.306L0.349084 33.3626L5.80967 25.1025C3.97234 22.8854 2.85443 19.9527 2.85443 16.7367C2.85443 13.5208 3.97234 10.5881 5.80967 8.37097L0.349084 0.11084L0.311646 0.167476V33.306Z" fill="#333333"/>
<path d="M142.121 0.172363L131.171 16.7367L142.121 33.301V0.172363Z" fill="#333333"/>
<path d="M134.407 45.6857V44.1455H135.899V45.6857H134.407Z" fill="#333333"/>
<path d="M128.83 38.7245L129.934 37.0752H131.256L132.371 38.7245H131.219L130.613 37.7422H130.589L129.97 38.7245H128.83ZM127.521 42.593C127.521 41.639 127.812 40.8629 128.394 40.2646C128.984 39.6583 129.744 39.3551 130.674 39.3551C131.531 39.3551 132.202 39.634 132.687 40.1919C133.172 40.7416 133.414 41.441 133.414 42.2899C133.414 42.492 133.398 42.6901 133.366 42.8841H129.097C129.146 43.4015 129.344 43.8058 129.691 44.0968C130.047 44.3798 130.471 44.5213 130.965 44.5213C131.498 44.5213 132.088 44.2949 132.735 43.8421L133.342 44.9457C133.067 45.1721 132.707 45.3782 132.262 45.5642C131.818 45.742 131.349 45.831 130.855 45.831C129.861 45.831 129.057 45.5197 128.442 44.8972C127.828 44.2666 127.521 43.4985 127.521 42.593ZM129.146 41.829H131.874C131.866 41.4248 131.745 41.1054 131.51 40.871C131.284 40.6365 130.993 40.5193 130.637 40.5193C130.249 40.5193 129.922 40.6406 129.655 40.8831C129.388 41.1176 129.218 41.4329 129.146 41.829Z" fill="#333333"/>
<path d="M121.139 42.5929C121.139 41.6874 121.446 40.9234 122.06 40.3009C122.675 39.6703 123.495 39.355 124.522 39.355C124.837 39.355 125.153 39.3954 125.468 39.4763C125.783 39.549 126.078 39.6986 126.353 39.925C126.628 40.1432 126.766 40.4181 126.766 40.7496V41.4772H125.419V41.1377C125.419 40.9841 125.322 40.8668 125.128 40.786C124.942 40.697 124.74 40.6526 124.522 40.6526C123.988 40.6526 123.548 40.8345 123.2 41.1983C122.861 41.5621 122.691 42.0229 122.691 42.5808C122.691 43.1791 122.877 43.648 123.249 43.9875C123.629 44.319 124.089 44.4848 124.631 44.4848C124.825 44.4848 125.019 44.4565 125.213 44.3999C125.415 44.3433 125.585 44.2746 125.723 44.1937C125.868 44.1048 125.997 44.0199 126.111 43.939C126.232 43.8582 126.321 43.7895 126.377 43.7329L126.462 43.648L127.093 44.7152C127.069 44.7475 127.032 44.7879 126.984 44.8364C126.935 44.885 126.826 44.9739 126.656 45.1032C126.495 45.2326 126.321 45.3458 126.135 45.4428C125.949 45.5398 125.706 45.6287 125.407 45.7096C125.116 45.7904 124.813 45.8309 124.498 45.8309C123.495 45.8309 122.683 45.5236 122.06 44.9092C121.446 44.2867 121.139 43.5146 121.139 42.5929Z" fill="#333333"/>
<path d="M114.685 44.9213C114.038 44.3069 113.714 43.5308 113.714 42.5929C113.714 41.6551 114.038 40.883 114.685 40.2766C115.34 39.6622 116.144 39.355 117.098 39.355C118.052 39.355 118.856 39.6622 119.511 40.2766C120.166 40.883 120.494 41.6551 120.494 42.5929C120.494 43.5308 120.166 44.3069 119.511 44.9213C118.864 45.5277 118.064 45.8309 117.11 45.8309C116.148 45.8309 115.34 45.5277 114.685 44.9213ZM115.267 42.5929C115.267 43.1589 115.445 43.6237 115.8 43.9875C116.156 44.3433 116.593 44.5211 117.11 44.5211C117.619 44.5211 118.052 44.3433 118.408 43.9875C118.763 43.6237 118.941 43.1589 118.941 42.5929C118.941 42.0351 118.763 41.5742 118.408 41.2104C118.052 40.8466 117.619 40.6647 117.11 40.6647C116.601 40.6647 116.164 40.8466 115.8 41.2104C115.445 41.5742 115.267 42.0351 115.267 42.5929Z" fill="#333333"/>
<path d="M109.312 45.6853L107.529 41.0285C107.472 40.883 107.359 40.8102 107.189 40.8102H107.056V39.5005H107.953C108.204 39.5005 108.394 39.545 108.523 39.6339C108.661 39.7228 108.77 39.8724 108.851 40.0826L110.027 43.3327L110.245 44.2179H110.27C110.334 43.8703 110.407 43.5752 110.488 43.3327L111.652 40.0826C111.733 39.8724 111.842 39.7228 111.98 39.6339C112.117 39.545 112.311 39.5005 112.562 39.5005H113.386V40.8102H113.253C113.075 40.8102 112.958 40.883 112.901 41.0285L111.131 45.6853H109.312Z" fill="#333333"/>
<path d="M97.4928 43.9875C97.4928 43.5914 97.5898 43.2518 97.7839 42.9689C97.986 42.6778 98.2204 42.4636 98.4872 42.3261C98.754 42.1806 99.0734 42.0674 99.4453 41.9866C99.8253 41.8976 100.137 41.8451 100.379 41.8289C100.63 41.8127 100.892 41.8047 101.167 41.8047H101.361V41.7198C101.361 41.2994 101.268 41.0002 101.082 40.8224C100.905 40.6364 100.618 40.5434 100.221 40.5434C100.027 40.5434 99.8414 40.5758 99.6636 40.6405C99.4857 40.697 99.3968 40.8022 99.3968 40.9558V41.2832H97.9536V40.6283C97.9536 40.3615 98.0385 40.1392 98.2083 39.9613C98.3781 39.7754 98.5964 39.642 98.8632 39.5611C99.13 39.4803 99.3685 39.4277 99.5787 39.4035C99.7889 39.3711 99.991 39.355 100.185 39.355C101.171 39.355 101.871 39.5733 102.283 40.0098C102.695 40.4383 102.902 41.0407 102.902 41.8168V44.1209C102.902 44.2988 102.99 44.3877 103.168 44.3877H103.653V45.6853H102.259C101.741 45.6853 101.483 45.459 101.483 45.0062V44.7394H101.458C101.466 44.7394 101.446 44.7798 101.398 44.8607C101.357 44.9335 101.285 45.0224 101.179 45.1275C101.082 45.2326 100.961 45.3377 100.816 45.4428C100.678 45.5479 100.496 45.6368 100.27 45.7096C100.044 45.7904 99.801 45.8309 99.5423 45.8309C98.9683 45.8309 98.4832 45.6651 98.087 45.3337C97.6909 44.9941 97.4928 44.5454 97.4928 43.9875ZM99.0208 43.8299C99.0208 44.0563 99.1017 44.2503 99.2634 44.412C99.4331 44.5737 99.6636 44.6545 99.9546 44.6545C100.359 44.6545 100.694 44.4848 100.961 44.1452C101.236 43.8056 101.373 43.4337 101.373 43.0295V42.8597H101.095C99.7121 42.8597 99.0208 43.1831 99.0208 43.8299Z" fill="#333333"/>
<path d="M93.4246 45.6853V41.0769C93.4246 40.8991 93.3357 40.8101 93.1578 40.8101H92.6727V39.5004H94.0916C94.6333 39.5004 94.9041 39.751 94.9041 40.2523V40.6161L94.8799 41.0042H94.9041C95.0577 40.5434 95.3084 40.1634 95.656 39.8642C96.0117 39.5651 96.416 39.4155 96.8687 39.4155L97.1598 39.4398V40.9557C97.0466 40.9395 96.9213 40.9314 96.7838 40.9314C96.42 40.9314 96.0805 41.0406 95.7651 41.2589C95.4579 41.4771 95.2356 41.8005 95.0982 42.229C95.0092 42.5039 94.9648 42.8394 94.9648 43.2356V45.6853H93.4246Z" fill="#333333"/>
<path d="M85.9769 48.1108V41.077C85.9769 40.8992 85.8879 40.8102 85.7101 40.8102H85.225V39.5005H86.6075C87.1249 39.5005 87.3836 39.6986 87.3836 40.0947V40.3373H87.4079C87.424 40.313 87.4442 40.2807 87.4685 40.2403C87.5008 40.1918 87.5736 40.1109 87.6868 39.9977C87.8 39.8845 87.9212 39.7875 88.0506 39.7067C88.188 39.6177 88.374 39.5369 88.6084 39.4641C88.851 39.3914 89.1057 39.355 89.3725 39.355C90.2052 39.355 90.8681 39.6541 91.3613 40.2524C91.8626 40.8507 92.1132 41.6308 92.1132 42.5929C92.1132 43.5631 91.8464 44.3473 91.3128 44.9456C90.7873 45.5358 90.1122 45.8309 89.2876 45.8309C89.0612 45.8309 88.8429 45.8026 88.6327 45.746C88.4306 45.6894 88.2648 45.6247 88.1355 45.5519C88.0061 45.4711 87.8889 45.3902 87.7838 45.3094C87.6868 45.2286 87.6181 45.1598 87.5776 45.1032L87.517 45.0183H87.4928C87.5089 45.1639 87.517 45.3417 87.517 45.5519V48.1108H85.9769ZM87.4685 42.6293C87.4685 43.1467 87.6019 43.5954 87.8687 43.9754C88.1436 44.3473 88.5236 44.5333 89.0086 44.5333C89.4533 44.5333 89.8212 44.3635 90.1122 44.0239C90.4114 43.6763 90.5609 43.2074 90.5609 42.6172C90.5609 42.0351 90.4194 41.5662 90.1365 41.2104C89.8535 40.8547 89.4856 40.6768 89.0329 40.6768C88.5882 40.6768 88.2163 40.8426 87.9172 41.174C87.6181 41.4974 87.4685 41.9825 87.4685 42.6293Z" fill="#333333"/>
<path d="M71.4839 45.6853V41.077C71.4839 40.8992 71.395 40.8102 71.2171 40.8102H70.7321V39.5005H72.1631C72.7047 39.5005 72.9756 39.7309 72.9756 40.1918V40.3737L72.9635 40.6405H72.9877C73.1494 40.3009 73.4081 40.0018 73.7638 39.743C74.1277 39.4843 74.5359 39.355 74.9887 39.355C75.9265 39.355 76.5248 39.7794 76.7835 40.6283H76.8078C76.9856 40.2726 77.2645 39.9735 77.6445 39.7309C78.0326 39.4803 78.457 39.355 78.9179 39.355C80.268 39.355 80.9431 40.1392 80.9431 41.7076V44.1209C80.9431 44.2988 81.032 44.3877 81.2099 44.3877H81.695V45.6853H80.2276C79.9446 45.6853 79.7385 45.6207 79.6091 45.4913C79.4798 45.362 79.4151 45.1517 79.4151 44.8607V41.9987C79.4151 41.6025 79.3544 41.2994 79.2332 41.0892C79.1119 40.8709 78.8896 40.7617 78.5662 40.7617C78.2024 40.7617 77.8871 40.8992 77.6203 41.174C77.3535 41.4408 77.1716 41.7764 77.0746 42.1806C77.018 42.407 76.9897 42.6697 76.9897 42.9689V45.6853H75.4495V41.9987C75.4495 41.6025 75.3929 41.2994 75.2797 41.0892C75.1665 40.8709 74.9442 40.7617 74.6127 40.7617C74.2408 40.7617 73.9215 40.8992 73.6547 41.174C73.396 41.4408 73.2141 41.7804 73.109 42.1927C73.0524 42.4757 73.0241 42.7344 73.0241 42.9689V45.6853H71.4839Z" fill="#333333"/>
<path d="M64.3874 44.9213C63.7406 44.3069 63.4172 43.5308 63.4172 42.5929C63.4172 41.6551 63.7406 40.883 64.3874 40.2766C65.0423 39.6622 65.8467 39.355 66.8007 39.355C67.7547 39.355 68.5591 39.6622 69.214 40.2766C69.8689 40.883 70.1963 41.6551 70.1963 42.5929C70.1963 43.5308 69.8689 44.3069 69.214 44.9213C68.5672 45.5277 67.7668 45.8309 66.8128 45.8309C65.8507 45.8309 65.0423 45.5277 64.3874 44.9213ZM64.9695 42.5929C64.9695 43.1589 65.1474 43.6237 65.5031 43.9875C65.8588 44.3433 66.2954 44.5211 66.8128 44.5211C67.3222 44.5211 67.7547 44.3433 68.1104 43.9875C68.4662 43.6237 68.644 43.1589 68.644 42.5929C68.644 42.0351 68.4662 41.5742 68.1104 41.2104C67.7547 40.8466 67.3222 40.6647 66.8128 40.6647C66.3035 40.6647 65.8669 40.8466 65.5031 41.2104C65.1474 41.5742 64.9695 42.0351 64.9695 42.5929Z" fill="#333333"/>
<path d="M56.6299 45.6855V38.6517C56.6299 38.4739 56.541 38.3849 56.3631 38.3849H55.8781V37.0752H57.3454C57.6284 37.0752 57.8346 37.1439 57.9639 37.2814C58.0933 37.4107 58.158 37.6169 58.158 37.8998V39.6947L58.1337 40.2161H58.158C58.1741 40.1919 58.1943 40.1636 58.2186 40.1312C58.2509 40.0908 58.3237 40.0221 58.4369 39.9251C58.5501 39.82 58.6713 39.731 58.8007 39.6583C58.93 39.5774 59.1039 39.5087 59.3222 39.4521C59.5404 39.3874 59.7709 39.3551 60.0134 39.3551C60.8461 39.3551 61.5131 39.6542 62.0144 40.2525C62.5156 40.8508 62.7663 41.631 62.7663 42.593C62.7663 43.5632 62.4995 44.3474 61.9659 44.9457C61.4323 45.5359 60.7491 45.831 59.9164 45.831C59.6738 45.831 59.4434 45.7986 59.2251 45.734C59.0149 45.6774 58.8411 45.6087 58.7037 45.5278C58.5743 45.4389 58.4611 45.354 58.3641 45.2731C58.2671 45.1842 58.1943 45.1114 58.1458 45.0548L58.0852 44.9578H58.0609C58.069 45.071 58.0731 45.2085 58.0731 45.3702V45.6855H56.6299ZM58.1216 42.6294C58.1216 43.1468 58.255 43.5955 58.5218 43.9755C58.7886 44.3474 59.1645 44.5334 59.6496 44.5334C60.0943 44.5334 60.4662 44.3636 60.7653 44.024C61.0644 43.6764 61.214 43.2075 61.214 42.6173C61.214 42.0352 61.0725 41.5663 60.7895 41.2105C60.5066 40.8548 60.1347 40.677 59.6738 40.677C59.2373 40.677 58.8694 40.8427 58.5703 41.1742C58.2711 41.4976 58.1216 41.9826 58.1216 42.6294Z" fill="#333333"/>
<path d="M46.5334 42.5929C46.5334 41.6389 46.8245 40.8628 47.4066 40.2645C47.9968 39.6582 48.7568 39.355 49.6865 39.355C50.5435 39.355 51.2145 39.6339 51.6996 40.1918C52.1847 40.7415 52.4272 41.4408 52.4272 42.2897C52.4272 42.4919 52.4111 42.6899 52.3787 42.884H48.11C48.1585 43.4014 48.3566 43.8056 48.7042 44.0967C49.0599 44.3797 49.4844 44.5211 49.9776 44.5211C50.5111 44.5211 51.1013 44.2948 51.7481 43.842L52.3545 44.9456C52.0796 45.172 51.7198 45.3781 51.2752 45.5641C50.8305 45.7419 50.3616 45.8309 49.8684 45.8309C48.874 45.8309 48.0695 45.5196 47.4551 44.8971C46.8407 44.2665 46.5334 43.4984 46.5334 42.5929ZM48.1585 41.8289H50.8871C50.879 41.4247 50.7577 41.1053 50.5233 40.8709C50.2969 40.6364 50.0058 40.5192 49.6501 40.5192C49.262 40.5192 48.9346 40.6405 48.6678 40.883C48.401 41.1175 48.2312 41.4328 48.1585 41.8289Z" fill="#333333"/>
<path d="M39.11 42.593C39.11 41.6229 39.3687 40.8427 39.8861 40.2525C40.4116 39.6542 41.0867 39.3551 41.9114 39.3551C42.162 39.3551 42.3964 39.3834 42.6147 39.44C42.833 39.4885 43.0068 39.5491 43.1362 39.6219C43.2655 39.6947 43.3747 39.7674 43.4636 39.8402C43.5526 39.9129 43.6172 39.9776 43.6577 40.0342L43.7062 40.107H43.7304C43.7143 40.0019 43.7062 39.8806 43.7062 39.7432V38.6517C43.7062 38.4739 43.6172 38.3849 43.4394 38.3849H42.9664V37.0752H44.4338C44.7168 37.0752 44.9229 37.1439 45.0523 37.2814C45.1816 37.4107 45.2463 37.6169 45.2463 37.8998V44.1211C45.2463 44.2989 45.3352 44.3879 45.5131 44.3879H45.9982V45.6855H44.5793C44.0619 45.6855 43.8032 45.4753 43.8032 45.0548L43.8153 44.8244H43.7911C43.7749 44.8487 43.7506 44.8851 43.7183 44.9336C43.694 44.9821 43.6253 45.0629 43.5121 45.1761C43.407 45.2893 43.2858 45.3904 43.1483 45.4793C43.019 45.5682 42.8371 45.6491 42.6026 45.7218C42.3681 45.7946 42.1175 45.831 41.8507 45.831C41.018 45.831 40.351 45.5318 39.8497 44.9336C39.3566 44.3353 39.11 43.5551 39.11 42.593ZM40.6623 42.593C40.6623 43.1751 40.8037 43.6441 41.0867 43.9998C41.3697 44.3555 41.7416 44.5334 42.2024 44.5334C42.639 44.5334 43.0068 44.3717 43.306 44.0483C43.6051 43.7168 43.7547 43.2277 43.7547 42.5809C43.7547 42.0635 43.6213 41.6188 43.3545 41.2469C43.0877 40.8669 42.7077 40.677 42.2145 40.677C41.778 40.677 41.4101 40.8508 41.111 41.1984C40.8118 41.538 40.6623 42.0029 40.6623 42.593Z" fill="#333333"/>
<path d="M29.483 44.9213C28.8362 44.3069 28.5128 43.5308 28.5128 42.5929C28.5128 41.6551 28.8362 40.883 29.483 40.2766C30.1379 39.6622 30.9423 39.355 31.8963 39.355C32.8503 39.355 33.6547 39.6622 34.3096 40.2766C34.9645 40.883 35.2919 41.6551 35.2919 42.5929C35.2919 43.5308 34.9645 44.3069 34.3096 44.9213C33.6628 45.5277 32.8624 45.8309 31.9084 45.8309C30.9463 45.8309 30.1379 45.5277 29.483 44.9213ZM30.0651 42.5929C30.0651 43.1589 30.243 43.6237 30.5987 43.9875C30.9544 44.3433 31.391 44.5211 31.9084 44.5211C32.4178 44.5211 32.8503 44.3433 33.206 43.9875C33.5617 43.6237 33.7396 43.1589 33.7396 42.5929C33.7396 42.0351 33.5617 41.5742 33.206 41.2104C32.8503 40.8466 32.4178 40.6647 31.9084 40.6647C31.3991 40.6647 30.9625 40.8466 30.5987 41.2104C30.243 41.5742 30.0651 42.0351 30.0651 42.5929Z" fill="#333333"/>
<path d="M21.0894 42.593C21.0894 41.6229 21.3481 40.8427 21.8655 40.2525C22.391 39.6542 23.0661 39.3551 23.8907 39.3551C24.1414 39.3551 24.3758 39.3834 24.5941 39.44C24.8124 39.4885 24.9862 39.5491 25.1156 39.6219C25.2449 39.6947 25.3541 39.7674 25.443 39.8402C25.5319 39.9129 25.5966 39.9776 25.637 40.0342L25.6855 40.107H25.7098C25.6936 40.0019 25.6855 39.8806 25.6855 39.7432V38.6517C25.6855 38.4739 25.5966 38.3849 25.4187 38.3849H24.9458V37.0752H26.4132C26.6961 37.0752 26.9023 37.1439 27.0317 37.2814C27.161 37.4107 27.2257 37.6169 27.2257 37.8998V44.1211C27.2257 44.2989 27.3146 44.3879 27.4925 44.3879H27.9776V45.6855H26.5587C26.0413 45.6855 25.7826 45.4753 25.7826 45.0548L25.7947 44.8244H25.7704C25.7543 44.8487 25.73 44.8851 25.6977 44.9336C25.6734 44.9821 25.6047 45.0629 25.4915 45.1761C25.3864 45.2893 25.2651 45.3904 25.1277 45.4793C24.9983 45.5682 24.8164 45.6491 24.582 45.7218C24.3475 45.7946 24.0969 45.831 23.8301 45.831C22.9974 45.831 22.3304 45.5318 21.8291 44.9336C21.3359 44.3353 21.0894 43.5551 21.0894 42.593ZM22.6416 42.593C22.6416 43.1751 22.7831 43.6441 23.0661 43.9998C23.349 44.3555 23.7209 44.5334 24.1818 44.5334C24.6184 44.5334 24.9862 44.3717 25.2853 44.0483C25.5845 43.7168 25.734 43.2277 25.734 42.5809C25.734 42.0635 25.6006 41.6188 25.3339 41.2469C25.0671 40.8669 24.6871 40.677 24.1939 40.677C23.7573 40.677 23.3895 40.8508 23.0903 41.1984C22.7912 41.538 22.6416 42.0029 22.6416 42.593Z" fill="#333333"/>
<path d="M14.0218 43.4782V41.077C14.0218 40.8992 13.9328 40.8102 13.755 40.8102H13.2699V39.5005H14.7373C15.0202 39.5005 15.2264 39.5652 15.3558 39.6945C15.4851 39.8239 15.5498 40.03 15.5498 40.313V43.1629C15.5498 43.5752 15.6185 43.8905 15.756 44.1088C15.9015 44.319 16.1521 44.4241 16.5078 44.4241C17.0414 44.4241 17.4618 44.222 17.7691 43.8177C18.0844 43.4135 18.242 42.9203 18.242 42.3382V39.5005H19.7822V44.1209C19.7822 44.2988 19.8711 44.3877 20.049 44.3877H20.5341V45.6853H19.1152C18.5735 45.6853 18.3027 45.4549 18.3027 44.9941V44.8243L18.3148 44.5454H18.2905C18.1288 44.9011 17.858 45.2043 17.478 45.4549C17.098 45.7055 16.6574 45.8308 16.1562 45.8308C14.7332 45.8308 14.0218 45.0466 14.0218 43.4782Z" fill="#333333"/>
<path d="M8.73376 45.6855V38.4213H7.41191C7.23404 38.4213 7.14511 38.5102 7.14511 38.6881V39.2096H5.75049V37.8513C5.75049 37.5684 5.80708 37.3703 5.92027 37.2571C6.03345 37.1358 6.23153 37.0752 6.5145 37.0752H12.5296C12.8125 37.0752 13.0106 37.1358 13.1238 37.2571C13.2451 37.3703 13.3057 37.5684 13.3057 37.8513V39.2096H11.8989V38.6881C11.8989 38.5102 11.81 38.4213 11.6321 38.4213H10.3224V45.6855H8.73376Z" fill="#333333"/>
</svg>
