<svg width="154" height="49" viewBox="0 0 154 49" fill="none" xmlns="http://www.w3.org/2000/svg">
<g id="Coca-Cola_logo" clip-path="url(#clip0_355_1888)">
<g id="Layer 2">
<g id="Layer 1">
<path id="Vector" d="M107.685 3.90676C107.685 3.90676 104.817 5.04867 101.481 8.72567C98.1446 12.4027 96.2016 16.5374 97.6396 17.637C98.1919 18.055 99.4657 18.1346 101.777 16.0448C103.91 14.193 105.584 11.8715 106.668 9.26304C108.161 5.62336 107.685 3.95154 107.685 3.91173M125.944 10.5219C122.237 8.62118 119.527 6.29258 116.709 4.85213C114.019 3.47139 112.28 2.89422 110.106 3.18529C109.803 3.23936 109.504 3.31417 109.21 3.4092C109.21 3.4092 110.33 7.23298 105.874 13.6565C101.361 20.1696 97.2664 20.1249 96.1021 18.3361C94.8831 16.4479 96.4579 12.5992 99.0875 9.17347C101.842 5.59101 106.678 2.62056 106.678 2.62056C106.678 2.62056 105.135 1.67767 101.349 3.82466C97.6545 5.90945 91.2957 10.8851 85.3945 19.2765C79.4934 27.6679 78.3242 32.2853 77.4783 35.92C76.6324 39.5547 77.4012 43.4482 81.4314 43.4482C85.4617 43.4482 90.1537 37.3008 91.4773 35.1637C93.9377 31.1832 95.5424 25.0781 92.1938 25.9165C90.5443 26.3295 89.2084 28.1555 88.365 29.9144C87.8326 31.0441 87.4254 32.2288 87.1509 33.4471C85.9808 33.9294 84.8819 34.5688 83.8844 35.3478C82.7748 36.1698 81.7378 37.0853 80.7846 38.0844C80.7846 38.0844 80.7995 35.1787 83.1157 30.4767C85.4319 25.7747 89.6835 23.6277 92.0918 23.4262C94.2611 23.252 97.0848 25.093 94.6915 31.8848C92.2982 38.6765 85.2378 46.9336 77.8216 47.0356C70.9776 47.1301 66.4995 38.3954 76.0254 23.1525C86.5688 6.31248 98.9358 1.14528 102.951 0.570592C106.966 -0.004094 108.273 1.76723 108.273 1.76723C110.69 0.775602 113.3 0.34519 115.908 0.508397C120.811 0.839277 124.603 4.30979 129.608 6.74785C128.307 7.99176 127.066 9.29787 125.946 10.5219M147.973 4.85213C144.575 7.03146 139.873 9.00679 135.355 8.58386C134.211 9.76558 132.987 11.1339 131.76 12.6266C139.594 14.1765 146.458 9.32274 150.108 5.19047C151.438 3.70477 152.581 2.06129 153.511 0.296932C151.85 2.02758 149.99 3.55651 147.971 4.85213M137.539 26.9241C137.599 26.8208 137.647 26.7115 137.684 26.5982C137.66 26.4188 137.576 26.2527 137.445 26.1278C137.315 26.0029 137.145 25.9265 136.965 25.9115C136.218 25.8767 135.201 26.0185 132.531 28.974C130.317 31.4147 128.411 34.1186 126.857 37.0246C125.329 39.816 124.71 41.8958 125.588 42.4331C125.873 42.5809 126.204 42.6147 126.513 42.5277C127.108 42.3859 127.782 41.8286 128.807 40.6419C129.287 40.0846 129.82 39.296 130.456 38.4228C132.223 36.0195 136.661 28.4541 137.539 26.9241ZM109.81 30.1383C110.255 28.974 110.823 26.6877 109.643 25.7896C108.377 24.8368 105.148 27.0733 105.13 29.3671C105.108 31.7156 107.404 32.7779 107.954 32.9272C108.268 33.0118 108.377 32.9993 108.529 32.7481C109.016 31.9089 109.444 31.0369 109.81 30.1383ZM107.367 34.4099C106.567 34.0404 105.82 33.5642 105.148 32.9944C104.474 32.4287 103.91 31.7429 103.486 30.9718C103.441 30.8971 103.396 30.9543 103.347 31.0215C103.297 31.0887 103.098 31.2703 101.376 33.7929C99.6547 36.3156 97.0102 41.5425 99.4035 42.4331C100.936 43.0029 103.486 40.3185 104.877 38.5397C105.824 37.2981 106.683 35.9913 107.447 34.6289C107.519 34.4771 107.447 34.4423 107.369 34.4099M134.517 40.4479C133.867 41.4878 133.126 43.483 135.263 42.2416C137.878 40.7315 141.602 35.0816 141.602 35.0816H143.291C141.754 37.445 140.043 39.6903 138.171 41.7987C135.522 44.7344 132.29 47.4013 130.014 47.1376C127.354 46.8266 128.188 43.3362 128.188 43.3362C128.188 43.3362 124.384 47.3864 121.752 47.0953C118.196 46.7022 119.281 42.3088 119.281 42.3088C119.281 42.3088 115.261 47.2421 112.522 47.0903C108.228 46.8416 109.307 41.6171 110.502 37.9377C111.141 35.9698 111.733 34.4248 111.733 34.4248C111.733 34.4248 111.308 34.5368 110.392 34.6736C109.915 34.7408 109.044 34.7906 109.044 34.7906C109.044 34.7906 107.255 37.9451 105.825 39.8408C104.394 41.7366 98.3138 48.2721 94.7363 46.9635C91.4275 45.7544 92.5222 40.6892 94.4477 36.6639C97.259 30.7951 105.165 22.3639 109.725 23.4784C114.452 24.6253 109.832 33.2506 109.832 33.2506C109.832 33.2506 109.832 33.2829 109.882 33.3053C109.977 33.3402 110.223 33.3675 110.793 33.2556C111.383 33.1352 111.962 32.9628 112.522 32.7406C112.522 32.7406 117.273 22.7893 122.523 16.2787C127.772 9.76806 138.243 -1.44454 142.353 1.26718C143.348 1.93392 142.901 4.23018 141.547 7.01653C140.938 7.21454 140.318 7.38062 139.691 7.5141C140.597 5.86965 141.196 4.48393 141.376 3.51617C141.995 0.152638 134.141 7.2479 128.528 14.8706C125.148 19.466 122.144 24.3273 119.547 29.4069C120.561 28.7886 121.529 28.0976 122.443 27.3395C124.947 25.2637 127.326 23.0424 129.568 20.6871C131.728 18.4764 133.753 16.1387 135.634 13.6864C136.231 13.6575 136.827 13.596 137.417 13.5023C135.367 16.2852 133.131 18.9266 130.725 21.4086C128.486 23.6725 126.063 26.1081 123.958 27.8769C122.078 29.4756 120.095 30.9491 118.022 32.2878C118.022 32.2878 113.114 42.1868 115.783 42.8212C117.353 43.1994 120.453 38.4253 120.453 38.4253C120.453 38.4253 124.498 32.253 126.936 29.4691C130.262 25.6876 133.126 23.4983 135.987 23.4585C137.654 23.4287 138.636 25.2 138.636 25.2L139.42 23.986H144.246C144.246 23.986 135.233 39.2811 134.512 40.4329M147.971 4.85213C144.572 7.03146 139.87 9.00679 135.353 8.58386C134.208 9.76558 132.984 11.1339 131.758 12.6266C139.592 14.1765 146.456 9.32274 150.105 5.19047C151.437 3.70491 152.581 2.06142 153.511 0.296932C151.85 2.02758 149.99 3.55651 147.971 4.85213ZM80.19 12.3554H75.6L73.0052 16.5474H77.5952L80.19 12.3554ZM58.4564 26.8718C60.4093 24.1949 65.798 14.8134 65.798 14.8134C65.7752 14.6342 65.6917 14.4682 65.5613 14.3432C65.4308 14.2182 65.2615 14.1418 65.0815 14.1267C64.3351 14.0919 63.0912 14.3432 60.6208 17.4355C58.1504 20.5279 56.2323 22.9883 54.8341 25.5483C53.3016 28.3421 52.6324 30.3125 53.5131 30.8474C53.7989 30.9905 54.1272 31.0242 54.4361 30.9419C55.0083 30.7976 55.7571 30.2229 56.7846 29.0412C57.2672 28.4889 57.8145 27.7451 58.4564 26.8718ZM33.827 14.1839C32.5582 13.2261 29.3315 15.4677 29.314 17.7565C29.2941 20.1074 32.2173 20.8264 32.5955 20.8438C32.7067 20.8531 32.8182 20.8297 32.9164 20.7767C32.9839 20.7373 33.0377 20.6783 33.0707 20.6075C33.4143 19.9321 33.7232 19.2396 33.9961 18.5327C34.4414 17.3684 35.0062 15.082 33.827 14.1839ZM31.9138 22.2768C31.0389 22.0035 30.2028 21.6189 29.426 21.1324C28.6732 20.6417 28.0611 19.9635 27.6497 19.1646C27.6049 19.0899 27.5552 19.1471 27.5104 19.2143C27.4656 19.2815 27.2069 19.6049 25.4803 22.1375C23.7538 24.6701 21.1963 29.8497 23.5921 30.7404C25.1196 31.32 27.6994 28.6133 29.1001 26.842C30.1482 25.45 31.1167 23.9997 32.0009 22.4982C32.0581 22.3465 32.0009 22.3117 31.9163 22.2843M69.4028 23.8367H71.0846C71.0846 23.8367 62.6583 36.027 57.8991 35.4598C55.2421 35.1488 56.0308 31.8699 56.0308 31.8699C56.0308 31.8699 52.299 36.2385 48.8708 35.3528C45.761 34.5542 47.7687 29.382 47.7687 29.382C47.4154 29.5238 40.6859 37.1092 35.9565 35.2906C31.0083 33.38 33.5782 27.0286 34.5186 25.1179C35.3172 23.5083 36.2003 21.941 36.2003 21.941C36.2003 21.941 35.4416 22.1549 34.9564 22.2644C34.4713 22.3738 33.7697 22.5132 33.7697 22.5132C33.7697 22.5132 31.4287 26.317 29.9982 28.2152C28.5677 30.1135 22.4875 36.6365 18.905 35.3379C15.3225 34.0392 16.2107 29.0263 18.2233 25.0458C21.4874 18.5899 29.232 10.6562 33.8966 11.8603C38.6086 13.0619 34.7076 20.7045 34.7076 20.7045C34.7076 20.7045 35.6456 20.8264 37.8921 19.2939C41.1262 17.0872 45.3953 11.1513 50.0177 11.8479C52.197 12.1763 54.2271 14.4029 51.4507 18.6322C50.565 19.9905 49.0798 21.2046 47.9429 20.003C47.2338 19.2566 47.8533 17.8958 48.5972 16.9653C48.8867 16.586 49.265 16.2837 49.6988 16.085C50.1327 15.8864 50.6087 15.7974 51.085 15.8259C51.085 15.8259 51.8487 14.0844 49.9058 14.1093C48.3335 14.1392 44.3529 17.8037 42.1064 21.5056C40.0465 24.904 36.9243 30.6931 40.059 31.9544C42.9324 33.1138 48.4006 26.623 50.9332 23.2222C53.4658 19.8213 59.2376 12.1141 64.0789 11.8056C65.7457 11.6961 66.7384 13.2162 66.7384 13.2162L67.2981 12.3305H72.1394C72.1394 12.3305 63.0216 27.546 62.31 28.6979C61.7503 29.5985 61.0064 31.6236 63.0564 30.4891C65.1064 29.3547 69.4028 23.8367 69.4028 23.8367ZM66.7682 48.2173C63.2036 45.7498 58.9351 44.5042 54.6028 44.6672C53.4302 44.6992 52.2816 45.0071 51.2503 45.566C50.2189 46.1249 49.3338 46.919 48.6668 47.884C46.8209 44.6622 43.1712 42.6844 37.5288 42.7292C28.411 42.8337 19.3677 47.0381 12.2028 47.0331C5.33641 47.0331 0.328426 42.7168 0.490135 35.0518C0.791161 21.6001 12.158 9.48694 20.6415 4.03613C25.5326 0.90396 29.6225 -0.0264844 32.2969 0.274542C34.2474 0.490982 36.5934 2.74495 35.1132 6.06619C32.9388 10.9199 29.936 10.5219 30.048 8.20074C30.1101 6.69063 31.1152 5.74028 31.8715 5.21535C32.3517 4.88447 33.2 4.78994 33.6429 4.77998C34.0733 4.41676 34.3892 1.75977 30.9063 2.633C27.4233 3.50622 23.194 6.93941 19.1787 11.3752C15.1633 15.811 8.91141 24.1949 7.36648 32.9993C6.64501 37.0818 7.11769 44.5279 16.7978 44.4433C25.0076 44.3761 37.1084 38.9701 48.229 39.082C52.5453 39.1243 56.3019 40.2886 59.2301 42.0948C62.106 43.8661 65.5542 46.4535 66.7782 48.2198" fill="#F9F5F2"/>
</g>
</g>
</g>
<defs>
<clipPath id="clip0_355_1888">
<rect width="153.021" height="48" fill="white" transform="translate(0.490234 0.22229)"/>
</clipPath>
</defs>
</svg>
