<svg width="154" height="49" viewBox="0 0 154 49" fill="none" xmlns="http://www.w3.org/2000/svg">
<g clip-path="url(#clip0_437_2304)">
<path d="M107.318 3.79513C107.318 3.79513 104.449 4.93704 101.113 8.61403C97.7767 12.291 95.8337 16.4258 97.2717 17.5254C97.824 17.9434 99.0977 18.023 101.409 15.9332C103.542 14.0813 105.216 11.7599 106.3 9.1514C107.793 5.51172 107.318 3.83991 107.318 3.8001M125.576 10.4102C121.869 8.50955 119.16 6.18095 116.341 4.7405C113.652 3.35976 111.913 2.78258 109.738 3.07366C109.435 3.12773 109.136 3.20254 108.843 3.29756C108.843 3.29756 109.962 7.12134 105.506 13.5449C100.993 20.058 96.8985 20.0132 95.7342 18.2245C94.5152 16.3362 96.09 12.4876 98.7196 9.06184C101.474 5.47938 106.31 2.50892 106.31 2.50892C106.31 2.50892 104.767 1.56604 100.981 3.71303C97.2866 5.79782 90.9277 10.7735 85.0266 19.1649C79.1255 27.5563 77.9562 32.1737 77.1104 35.8084C76.2645 39.4431 77.0332 43.3365 81.0635 43.3365C85.0938 43.3365 89.7858 37.1891 91.1094 35.0521C93.5698 31.0716 95.1744 24.9665 91.8258 25.8049C90.1764 26.2178 88.8405 28.0439 87.9971 29.8028C87.4646 30.9325 87.0575 32.1171 86.783 33.3355C85.6129 33.8178 84.514 34.4572 83.5165 35.2362C82.4069 36.0581 81.3698 36.9737 80.4167 37.9728C80.4167 37.9728 80.4316 35.067 82.7478 30.365C85.0639 25.6631 89.3156 23.5161 91.7238 23.3146C93.8932 23.1404 96.7169 24.9814 94.3236 31.7731C91.9303 38.5649 84.8699 46.822 77.4537 46.924C70.6097 47.0185 66.1316 38.2838 75.6575 23.0409C86.2009 6.20085 98.5678 1.03365 102.583 0.458959C106.599 -0.115727 107.905 1.6556 107.905 1.6556C110.322 0.663969 112.932 0.233556 115.54 0.396764C120.443 0.727644 124.235 4.19815 129.24 6.63622C127.939 7.88013 126.698 9.18623 125.578 10.4102M147.605 4.7405C144.207 6.91983 139.505 8.89516 134.987 8.47223C133.843 9.65394 132.619 11.0222 131.392 12.5149C139.226 14.0648 146.09 9.21111 149.74 5.07884C151.07 3.59314 152.213 1.94966 153.143 0.185299C151.482 1.91594 149.622 3.44487 147.603 4.7405M137.171 26.8124C137.231 26.7091 137.279 26.5999 137.316 26.4865C137.292 26.3071 137.208 26.1411 137.078 26.0162C136.947 25.8912 136.777 25.8149 136.597 25.7999C135.85 25.7651 134.833 25.9069 132.163 28.8624C129.949 31.3031 128.043 34.0069 126.489 36.913C124.961 39.7043 124.342 41.7841 125.22 42.3215C125.505 42.4693 125.836 42.5031 126.145 42.416C126.74 42.2742 127.414 41.717 128.439 40.5303C128.919 39.973 129.452 39.1844 130.089 38.3111C131.855 35.9079 136.293 28.3424 137.171 26.8124ZM109.442 30.0267C109.887 28.8624 110.455 26.5761 109.275 25.678C108.009 24.7252 104.78 26.9617 104.763 29.2555C104.74 31.604 107.036 32.6663 107.586 32.8156C107.9 32.9001 108.009 32.8877 108.161 32.6364C108.648 31.7973 109.076 30.9252 109.442 30.0267ZM106.999 34.2983C106.199 33.9288 105.452 33.4526 104.78 32.8827C104.106 32.3171 103.542 31.6313 103.118 30.8601C103.073 30.7855 103.029 30.8427 102.979 30.9099C102.929 30.977 102.73 31.1587 101.008 33.6813C99.2868 36.204 96.6423 41.4309 99.0356 42.3215C100.568 42.8912 103.118 40.2069 104.509 38.4281C105.456 37.1865 106.315 35.8796 107.079 34.5172C107.151 34.3655 107.079 34.3306 107.002 34.2983M134.149 40.3362C133.499 41.3761 132.758 43.3714 134.895 42.1299C137.51 40.6198 141.234 34.97 141.234 34.97H142.923C141.386 37.3334 139.675 39.5787 137.803 41.6871C135.154 44.6227 131.922 47.2897 129.646 47.026C126.986 46.715 127.82 43.2246 127.82 43.2246C127.82 43.2246 124.016 47.2748 121.384 46.9837C117.829 46.5906 118.913 42.1971 118.913 42.1971C118.913 42.1971 114.893 47.1305 112.154 46.9787C107.86 46.7299 108.94 41.5055 110.134 37.826C110.773 35.8582 111.365 34.3132 111.365 34.3132C111.365 34.3132 110.94 34.4252 110.024 34.562C109.547 34.6292 108.676 34.6789 108.676 34.6789C108.676 34.6789 106.887 37.8335 105.457 39.7292C104.026 41.6249 97.9459 48.1604 94.3684 46.8518C91.0596 45.6427 92.1542 40.5775 94.0798 36.5523C96.8911 30.6835 104.797 22.2523 109.358 23.3668C114.084 24.5137 109.465 33.139 109.465 33.139C109.465 33.139 109.465 33.1713 109.514 33.1937C109.609 33.2285 109.855 33.2559 110.425 33.1439C111.015 33.0235 111.594 32.8512 112.154 32.629C112.154 32.629 116.906 22.6777 122.155 16.1671C127.404 9.65643 137.875 -1.55618 141.985 1.15555C142.98 1.82228 142.533 4.11854 141.179 6.9049C140.57 7.1029 139.95 7.26899 139.323 7.40246C140.229 5.75802 140.828 4.3723 141.008 3.40454C141.627 0.0410051 133.773 7.13627 128.16 14.7589C124.78 19.3543 121.776 24.2156 119.179 29.2953C120.193 28.6769 121.161 27.986 122.075 27.2279C124.579 25.1521 126.958 22.9308 129.2 20.5755C131.36 18.3648 133.385 16.027 135.266 13.5747C135.863 13.5458 136.459 13.4844 137.049 13.3906C134.999 16.1736 132.763 18.815 130.357 21.2969C128.118 23.5609 125.695 25.9964 123.59 27.7653C121.71 29.3639 119.728 30.8374 117.654 32.1762C117.654 32.1762 112.746 42.0752 115.415 42.7096C116.985 43.0878 120.085 38.3136 120.085 38.3136C120.085 38.3136 124.13 32.1413 126.568 29.3575C129.895 25.576 132.758 23.3867 135.619 23.3469C137.286 23.317 138.269 25.0884 138.269 25.0884L139.052 23.8743H143.879C143.879 23.8743 134.865 39.1694 134.144 40.3213M147.603 4.7405C144.204 6.91983 139.502 8.89516 134.985 8.47223C133.84 9.65394 132.616 11.0222 131.39 12.5149C139.224 14.0648 146.088 9.21111 149.737 5.07884C151.069 3.59328 152.213 1.94979 153.143 0.185299C151.482 1.91594 149.622 3.44487 147.603 4.7405ZM79.8221 12.2438H75.2321L72.6373 16.4357H77.2273L79.8221 12.2438ZM58.0885 26.7602C60.0414 24.0833 65.43 14.7017 65.43 14.7017C65.4073 14.5225 65.3238 14.3566 65.1933 14.2316C65.0629 14.1066 64.8936 14.0302 64.7136 14.0151C63.9672 13.9803 62.7233 14.2315 60.2529 17.3239C57.7825 20.4163 55.8644 22.8767 54.4662 25.4367C52.9337 28.2305 52.2645 30.2008 53.1452 30.7357C53.431 30.8789 53.7593 30.9125 54.0682 30.8303C54.6404 30.686 55.3892 30.1113 56.4167 28.9296C56.8993 28.3773 57.4466 27.6334 58.0885 26.7602ZM33.459 14.0723C32.1903 13.1145 28.9635 15.356 28.9461 17.6448C28.9262 19.9958 31.8494 20.7148 32.2276 20.7322C32.3388 20.7415 32.4503 20.7181 32.5485 20.665C32.616 20.6257 32.6698 20.5667 32.7027 20.4959C33.0464 19.8205 33.3553 19.128 33.6282 18.421C34.0735 17.2567 34.6383 14.9704 33.459 14.0723ZM31.5459 22.1652C30.671 21.8919 29.8349 21.5073 29.0581 21.0208C28.3053 20.53 27.6931 19.8519 27.2818 19.0529C27.237 18.9783 27.1872 19.0355 27.1425 19.1027C27.0977 19.1699 26.8389 19.4933 25.1124 22.0259C23.3858 24.5585 20.8284 29.7381 23.2241 30.6288C24.7517 31.2084 27.3315 28.5017 28.7322 26.7303C29.7803 25.3383 30.7488 23.8881 31.633 22.3866C31.6902 22.2348 31.633 22.2 31.5484 22.1727M69.0349 23.7251H70.7167C70.7167 23.7251 62.2904 35.9154 57.5312 35.3481C54.8742 35.0372 55.6629 31.7582 55.6629 31.7582C55.6629 31.7582 51.9311 36.1268 48.5029 35.2412C45.3931 34.4426 47.4008 29.2704 47.4008 29.2704C47.0475 29.4122 40.318 36.9976 35.5886 35.179C30.6403 33.2683 33.2103 26.9169 34.1507 25.0063C34.9492 23.3967 35.8324 21.8293 35.8324 21.8293C35.8324 21.8293 35.0736 22.0433 34.5885 22.1528C34.1034 22.2622 33.4018 22.4015 33.4018 22.4015C33.4018 22.4015 31.0608 26.2054 29.6303 28.1036C28.1998 30.0018 22.1195 36.5249 18.5371 35.2262C14.9546 33.9276 15.8428 28.9146 17.8554 24.9341C21.1194 18.4782 28.864 10.5446 33.5287 11.7487C38.2406 12.9503 34.3397 20.5929 34.3397 20.5929C34.3397 20.5929 35.2776 20.7148 37.5241 19.1823C40.7583 16.9756 45.0274 11.0397 49.6498 11.7362C51.8291 12.0646 53.8592 14.2912 51.0828 18.5205C50.1971 19.8789 48.7119 21.0929 47.5749 19.8913C46.8659 19.145 47.4854 17.7841 48.2292 16.8537C48.5188 16.4744 48.8971 16.1721 49.3309 15.9734C49.7647 15.7747 50.2408 15.6857 50.7171 15.7143C50.7171 15.7143 51.4808 13.9728 49.5378 13.9977C47.9655 14.0275 43.985 17.6921 41.7385 21.394C39.6786 24.7923 36.5564 30.5815 39.691 31.8428C42.5645 33.0021 48.0327 26.5114 50.5653 23.1106C53.0979 19.7097 58.8697 12.0024 63.711 11.694C65.3778 11.5845 66.3704 13.1045 66.3704 13.1045L66.9302 12.2189H71.7715C71.7715 12.2189 62.6536 27.4344 61.9421 28.5863C61.3824 29.4868 60.6385 31.5119 62.6885 30.3775C64.7384 29.243 69.0349 23.7251 69.0349 23.7251ZM66.4003 48.1057C62.8356 45.6381 58.5672 44.3925 54.2348 44.5556C53.0622 44.5875 51.9137 44.8955 50.8823 45.4544C49.851 46.0133 48.9659 46.8074 48.2989 47.7723C46.4529 44.5506 42.8033 42.5728 37.1609 42.6176C28.0431 42.722 18.9998 46.9265 11.8349 46.9215C4.96849 46.9215 -0.0394938 42.6051 0.122215 34.9401C0.423241 21.4885 11.7901 9.37531 20.2736 3.92449C25.1646 0.792327 29.2546 -0.138118 31.929 0.162909C33.8795 0.379349 36.2255 2.63331 34.7452 5.95455C32.5709 10.8083 29.5681 10.4102 29.68 8.0891C29.7422 6.579 30.7473 5.62865 31.5036 5.10372C31.9838 4.77284 32.8321 4.6783 33.2749 4.66835C33.7053 4.30513 34.0213 1.64814 30.5383 2.52136C27.0554 3.39459 22.8261 6.82778 18.8107 11.2636C14.7954 15.6993 8.54349 24.0833 6.99856 32.8877C6.27709 36.9702 6.74977 44.4163 16.4299 44.3317C24.6397 44.2645 36.7405 38.8585 47.861 38.9704C52.1774 39.0127 55.934 40.177 58.8622 41.9832C61.7381 43.7545 65.1862 46.3418 66.4102 48.1082" fill="#333333"/>
</g>
<defs>
<clipPath id="clip0_437_2304">
<rect width="153.021" height="48" fill="white" transform="translate(0.122314 0.11084)"/>
</clipPath>
</defs>
</svg>
