<svg width="44" height="43" viewBox="0 0 44 43" fill="none" xmlns="http://www.w3.org/2000/svg">
<g id="contato">
<path id="Vector" d="M30.8889 37.5562C27.949 37.5535 25.0548 36.8269 22.4622 35.4406L21.6622 34.9962C16.1347 32.0242 11.603 27.4925 8.63111 21.965L8.18667 21.165C6.76413 18.5578 6.01268 15.6374 6 12.6672V11.4761C5.99925 10.5285 6.37682 9.61976 7.04889 8.95167L10.0533 5.94723C10.3451 5.65319 10.757 5.51146 11.1679 5.56369C11.5789 5.61592 11.9422 5.85621 12.1511 6.2139L16.1511 13.0761C16.5556 13.7746 16.4388 14.6579 15.8667 15.2272L12.5067 18.5873C12.2276 18.8632 12.1626 19.2895 12.3467 19.6362L12.9689 20.8095C15.2036 24.9489 18.6032 28.3423 22.7467 30.5695L23.92 31.2095C24.2667 31.3935 24.693 31.3284 24.9689 31.0495L28.3289 27.6895C28.8981 27.1174 29.7815 27.0006 30.48 27.405L37.3422 31.405C37.6999 31.6139 37.9403 31.9773 37.9924 32.3882C38.0446 32.7992 37.9029 33.2111 37.6089 33.5028L34.6044 36.5073C33.9364 37.1793 33.0276 37.5569 32.08 37.5562H30.8889Z" fill="#A0DD7F"/>
</g>
</svg>
