<svg width="201" height="49" viewBox="0 0 201 49" fill="none" xmlns="http://www.w3.org/2000/svg">
<g clip-path="url(#clip0_437_2242)">
<path fill-rule="evenodd" clip-rule="evenodd" d="M200.121 21.9776V22.9109C200.121 22.9109 199.054 23.3109 199.054 24.6442V45.7109C199.054 46.5109 198.388 47.0442 197.721 47.0442H193.588L184.521 32.6442C184.521 32.6442 184.654 33.8442 184.654 35.3109V47.0442H179.588V21.9776H182.921C184.654 21.9776 185.854 22.6442 186.654 23.9776L194.254 35.9776C194.254 35.9776 193.988 35.1776 193.988 33.3109V21.9776H200.121ZM103.054 21.9776V45.7109C103.054 46.5109 102.388 47.0442 101.721 47.0442H97.4543L88.3876 32.6442C88.3876 32.6442 88.5209 33.8442 88.5209 35.3109V47.0442H83.4543V21.9776H86.7876C88.5209 21.9776 89.7209 22.6442 90.5209 23.9776L98.1209 35.9776C98.1209 35.9776 97.8543 35.1776 97.8543 33.3109V21.9776C97.9876 21.9776 103.054 21.9776 103.054 21.9776ZM40.3876 21.9776H33.5876V31.5776H27.7209V21.9776H19.8542V22.9109C19.8542 22.9109 20.9209 23.3109 20.9209 24.6442V47.0442H27.7209V36.2442H33.5876V47.0442H40.3876V21.9776ZM62.3876 21.9776H47.3209V44.7776C47.3209 46.1109 48.5209 47.0442 49.8542 47.0442H62.3876C63.1876 47.0442 63.7209 46.3776 63.7209 45.7109V42.5109H55.0543C54.5209 42.5109 53.9876 42.1109 53.9876 41.4442V36.1109H61.7209V31.5776H53.9876V26.5109H63.5876V23.3109C63.7209 22.6442 63.0543 21.9776 62.3876 21.9776ZM76.6543 21.9776H69.8542V45.7109C69.8542 46.5109 70.5209 47.0442 71.1876 47.0442H76.6543V21.9776ZM172.521 21.9776H157.454V44.7776C157.454 45.9776 158.654 47.0442 159.988 47.0442H172.521C173.321 47.0442 173.854 46.3776 173.854 45.7109V42.5109H165.188C164.654 42.5109 164.121 42.1109 164.121 41.4442V36.1109H171.854V31.5776H164.121V26.5109H173.721V23.3109C173.854 22.6442 173.188 21.9776 172.521 21.9776ZM124.921 21.9776H109.854V44.7776C109.854 45.9776 111.054 47.0442 112.388 47.0442H124.921C125.721 47.0442 126.254 46.3776 126.254 45.7109V42.5109H117.588C117.054 42.5109 116.521 42.1109 116.521 41.4442V36.1109H124.254V31.5776H116.521V26.5109H126.121V23.3109C126.254 22.6442 125.588 21.9776 124.921 21.9776ZM153.454 21.9776H148.521C147.321 21.9776 146.388 22.2442 145.454 23.3109L138.521 31.1776V21.8442H131.721V45.5776C131.721 46.3776 132.388 46.9109 133.054 46.9109H138.521V35.5776L144.521 44.9109C145.454 46.2442 146.254 47.0442 148.388 47.0442H153.988L144.521 32.2442L153.454 21.9776Z" fill="#333333"/>
<path fill-rule="evenodd" clip-rule="evenodd" d="M6.78755 31.3108C6.65421 31.4442 6.38755 31.4442 6.25421 31.1775C6.12088 31.0442 6.12088 30.9108 6.25421 30.7775C6.38755 30.2442 9.85421 19.4442 9.85421 19.4442L0.254214 12.5108C-0.0124524 12.2442 0.120881 11.7108 0.520881 11.7108C1.05421 11.7108 12.2542 11.7108 12.2542 11.7108C12.2542 11.7108 15.7209 0.91084 15.8542 0.377507C15.9875 0.244173 16.1209 0.11084 16.3875 0.11084C16.5209 0.11084 16.6542 0.244173 16.6542 0.377507C16.7875 0.91084 20.2542 11.7108 20.2542 11.7108C20.2542 11.7108 31.3209 11.7108 31.9875 11.7108C32.3875 11.7108 32.5209 12.2442 32.2542 12.5108L26.6542 16.6442H19.9875L17.9875 10.2442L15.9875 16.6442H9.32088L14.7875 20.6442L12.7875 27.0442L6.78755 31.3108Z" fill="#333333"/>
</g>
<defs>
<clipPath id="clip0_437_2242">
<rect width="200" height="48" fill="white" transform="translate(0.12085 0.11084)"/>
</clipPath>
</defs>
</svg>
