<svg width="201" height="49" viewBox="0 0 201 49" fill="none" xmlns="http://www.w3.org/2000/svg">
<g id="Heineken_Logo" clip-path="url(#clip0_355_1826)">
<g id="Group">
<path id="Vector" fill-rule="evenodd" clip-rule="evenodd" d="M200.631 22.089V23.0223C200.631 23.0223 199.564 23.4223 199.564 24.7556V45.8223C199.564 46.6223 198.898 47.1556 198.231 47.1556H194.098L185.031 32.7556C185.031 32.7556 185.164 33.9556 185.164 35.4223V47.1556H180.098V22.089H183.431C185.164 22.089 186.364 22.7556 187.164 24.089L194.764 36.089C194.764 36.089 194.498 35.289 194.498 33.4223V22.089H200.631ZM103.564 22.089V45.8223C103.564 46.6223 102.898 47.1556 102.231 47.1556H97.9643L88.8976 32.7556C88.8976 32.7556 89.0309 33.9556 89.0309 35.4223V47.1556H83.9643V22.089H87.2976C89.0309 22.089 90.2309 22.7556 91.0309 24.089L98.6309 36.089C98.6309 36.089 98.3643 35.289 98.3643 33.4223V22.089C98.4976 22.089 103.564 22.089 103.564 22.089ZM40.8976 22.089H34.0976V31.689H28.2309V22.089H20.3643V23.0223C20.3643 23.0223 21.4309 23.4223 21.4309 24.7556V47.1556H28.2309V36.3556H34.0976V47.1556H40.8976V22.089ZM62.8976 22.089H47.8309V44.889C47.8309 46.2223 49.0309 47.1556 50.3643 47.1556H62.8976C63.6976 47.1556 64.2309 46.489 64.2309 45.8223V42.6223H55.5643C55.0309 42.6223 54.4976 42.2223 54.4976 41.5556V36.2223H62.2309V31.689H54.4976V26.6223H64.0976V23.4223C64.2309 22.7556 63.5643 22.089 62.8976 22.089ZM77.1643 22.089H70.3643V45.8223C70.3643 46.6223 71.0309 47.1556 71.6976 47.1556H77.1643V22.089ZM173.031 22.089H157.964V44.889C157.964 46.089 159.164 47.1556 160.498 47.1556H173.031C173.831 47.1556 174.364 46.489 174.364 45.8223V42.6223H165.698C165.164 42.6223 164.631 42.2223 164.631 41.5556V36.2223H172.364V31.689H164.631V26.6223H174.231V23.4223C174.364 22.7556 173.698 22.089 173.031 22.089ZM125.431 22.089H110.364V44.889C110.364 46.089 111.564 47.1556 112.898 47.1556H125.431C126.231 47.1556 126.764 46.489 126.764 45.8223V42.6223H118.098C117.564 42.6223 117.031 42.2223 117.031 41.5556V36.2223H124.764V31.689H117.031V26.6223H126.631V23.4223C126.764 22.7556 126.098 22.089 125.431 22.089ZM153.964 22.089H149.031C147.831 22.089 146.898 22.3556 145.964 23.4223L139.031 31.289V21.9556H132.231V45.689C132.231 46.489 132.898 47.0223 133.564 47.0223H139.031V35.689L145.031 45.0223C145.964 46.3556 146.764 47.1556 148.898 47.1556H154.498L145.031 32.3556L153.964 22.089Z" fill="#F9F5F2"/>
<path id="Vector_2" fill-rule="evenodd" clip-rule="evenodd" d="M7.29805 31.4223C7.16471 31.5556 6.89805 31.5556 6.76471 31.289C6.63138 31.1556 6.63138 31.0223 6.76471 30.889C6.89805 30.3556 10.3647 19.5556 10.3647 19.5556L0.764712 12.6223C0.498046 12.3556 0.631379 11.8223 1.03138 11.8223C1.56471 11.8223 12.7647 11.8223 12.7647 11.8223C12.7647 11.8223 16.2314 1.02229 16.3647 0.488957C16.498 0.355623 16.6314 0.22229 16.898 0.22229C17.0314 0.22229 17.1647 0.355623 17.1647 0.488957C17.298 1.02229 20.7647 11.8223 20.7647 11.8223C20.7647 11.8223 31.8314 11.8223 32.498 11.8223C32.898 11.8223 33.0314 12.3556 32.7647 12.6223L27.1647 16.7556H20.498L18.498 10.3556L16.498 16.7556H9.83138L15.298 20.7556L13.298 27.1556L7.29805 31.4223Z" fill="#F9F5F2"/>
</g>
</g>
<defs>
<clipPath id="clip0_355_1826">
<rect width="200" height="48" fill="white" transform="translate(0.631836 0.22229)"/>
</clipPath>
</defs>
</svg>
