<svg width="25" height="26" viewBox="0 0 25 26" fill="none" xmlns="http://www.w3.org/2000/svg">
<g id="linkedin-in" clip-path="url(#clip0_741_805)">
<path id="Vector" d="M6.45898 21.9858H1.92383V7.38135H6.45898V21.9858ZM4.18896 5.38916C2.73877 5.38916 1.5625 4.18799 1.5625 2.73779C1.5625 2.04121 1.83922 1.37316 2.33177 0.880602C2.82433 0.388044 3.49238 0.111328 4.18896 0.111328C4.88555 0.111328 5.5536 0.388044 6.04616 0.880602C6.53871 1.37316 6.81543 2.04121 6.81543 2.73779C6.81543 4.18799 5.63867 5.38916 4.18896 5.38916ZM23.4326 21.9858H18.9072V14.8765C18.9072 13.1821 18.873 11.0093 16.5493 11.0093C14.1914 11.0093 13.8301 12.8501 13.8301 14.7544V21.9858H9.29981V7.38135H13.6494V9.37354H13.7129C14.3184 8.22607 15.7974 7.01514 18.0039 7.01514C22.5938 7.01514 23.4375 10.0376 23.4375 13.9634V21.9858H23.4326Z" fill="black"/>
</g>
<defs>
<clipPath id="clip0_741_805">
<rect width="25" height="25" fill="white" transform="translate(0 0.11084)"/>
</clipPath>
</defs>
</svg>
