<svg width="158" height="24" viewBox="0 0 158 24" fill="none" xmlns="http://www.w3.org/2000/svg">
<path d="M8.55645 12.3131C10.9116 12.3131 12.283 11.18 12.283 9.18248C12.283 7.48316 11.1502 6.26081 9.30182 6.26081H6.85712V12.3131H8.55645ZM0 21.1673L2.23613 20.2732V6.26081L0 5.36636V2.83208L6.85712 2.68334H9.123C14.0124 2.68334 16.8746 4.71056 16.8746 8.76534C16.8746 11.5677 15.5329 13.3863 13.5057 14.3998C13.8336 14.7875 14.2805 15.3537 14.7578 16.3378L16.7552 20.4219L18.7825 21.1673V23.7016H13.267L10.7628 18.1865C9.74905 15.9203 9.48065 15.4433 7.90065 15.4433H6.85712V20.2732L9.00367 21.1673V23.7016H0V21.1673Z" fill="#063B27"/>
<path d="M29.4866 13.8632C29.4866 12.1638 28.771 10.8817 27.0419 10.8817C25.3723 10.8817 24.3288 12.1043 24.0905 13.8632H29.4866ZM24.0306 16.6361C24.2098 19.021 25.5812 20.4221 27.6382 20.4221C30.1126 20.4221 32.6469 19.021 32.6469 19.021L33.9288 21.4954C33.9288 21.4954 30.9472 23.9999 27.1315 23.9999C22.0034 23.9999 19.3799 21.0184 19.3799 15.9502C19.3799 10.7329 22.3313 7.30419 27.34 7.30419C31.7822 7.30419 34.1076 10.047 34.1076 14.3107C34.1076 15.4432 33.9288 16.5465 33.9288 16.6361H24.0306Z" fill="#063B27"/>
<path d="M49.9095 21.4657C49.1641 22.1215 46.8388 23.9999 43.4996 23.9999C38.5805 23.9999 35.748 20.9589 35.748 15.8907C35.748 10.5838 38.7295 7.30419 43.9468 7.30419C46.5109 7.30419 49.1641 8.34772 49.1641 8.34772L49.0151 13.2371H46.3317L45.9146 11.1203C45.9146 11.1203 45.0499 10.8817 43.8573 10.8817C41.7107 10.8817 40.3694 12.3132 40.3694 15.2944C40.3694 18.544 41.6215 20.4221 44.0959 20.4221C46.183 20.4221 47.4946 19.3789 48.4188 18.8421L49.9095 21.4657Z" fill="#063B27"/>
<path d="M55.7294 -1.52588e-05C57.2797 -1.52588e-05 58.2336 0.805187 58.2336 2.68334C58.2336 4.44216 56.9518 5.3961 55.7294 5.3961C54.1194 5.3961 53.1654 4.44216 53.1654 2.68334C53.1654 0.984013 54.3878 -1.52588e-05 55.7294 -1.52588e-05ZM60.2609 21.3164V23.7016H51.317V21.3164L53.7022 20.571V10.8818L51.317 10.1364V7.75156L58.1741 7.60248V20.571L60.2609 21.3164Z" fill="#063B27"/>
<path d="M74.9542 21.4657C74.2088 22.1215 71.8835 23.9999 68.5443 23.9999C63.6252 23.9999 60.7927 20.9589 60.7927 15.8907C60.7927 10.5838 63.7742 7.30419 68.9915 7.30419C71.5556 7.30419 74.2088 8.34772 74.2088 8.34772L74.0597 13.2371H71.3767L70.9593 11.1203C70.9593 11.1203 70.0946 10.8817 68.9019 10.8817C66.7554 10.8817 65.4141 12.3132 65.4141 15.2944C65.4141 18.544 66.6662 20.4221 69.1406 20.4221C71.2277 20.4221 72.5393 19.3789 73.4635 18.8421L74.9542 21.4657Z" fill="#063B27"/>
<path d="M85.8148 21.3165V23.7017H76.2446V21.3165L78.6298 20.5711V3.81623L76.2446 3.21993V0.834728L83.1318 0.596407V20.5711L85.8148 21.3165Z" fill="#063B27"/>
<path d="M96.3688 13.8632C96.3688 12.1638 95.6536 10.8817 93.9245 10.8817C92.2552 10.8817 91.2111 12.1043 90.9731 13.8632H96.3688ZM90.9136 16.6361C91.0924 19.021 92.4638 20.4221 94.5205 20.4221C96.9952 20.4221 99.5298 19.021 99.5298 19.021L100.811 21.4954C100.811 21.4954 97.8299 23.9999 94.0137 23.9999C88.8857 23.9999 86.2628 21.0184 86.2628 15.9502C86.2628 10.7329 89.2139 7.30419 94.223 7.30419C98.6645 7.30419 100.99 10.047 100.99 14.3107C100.99 15.4432 100.811 16.5465 100.811 16.6361H90.9136Z" fill="#063B27"/>
<path d="M113.99 22.1513C112.529 23.2245 110.859 24 108.922 24C105.493 24 104.509 21.6148 104.509 18.1864V11.3293H101.736V8.43736L104.509 8.04963V3.93568L108.981 3.13048V8.04963H113.155V11.3293H108.981V17.8883C108.981 19.7961 109.309 20.5713 110.562 20.5713C111.366 20.5713 112.529 20.0943 112.917 19.8857L113.99 22.1513Z" fill="#063B27"/>
<path d="M119.208 15.6521C119.208 18.9314 120.162 20.4221 122.338 20.4221C124.485 20.4221 125.528 19.0805 125.528 15.503C125.528 12.4623 124.634 10.8817 122.488 10.8817C120.311 10.8817 119.208 12.0746 119.208 15.6521ZM130.15 15.3539C130.15 20.7203 127.019 23.9999 122.189 23.9999C117.33 23.9999 114.587 21.4657 114.587 15.8011C114.587 10.4348 117.777 7.30419 122.637 7.30419C127.466 7.30419 130.15 10.2262 130.15 15.3539Z" fill="#063B27"/>
<path d="M136.113 15.6521C136.113 18.9314 137.067 20.4221 139.243 20.4221C141.39 20.4221 142.433 19.0805 142.433 15.503C142.433 12.4623 141.539 10.8817 139.392 10.8817C137.216 10.8817 136.113 12.0746 136.113 15.6521ZM147.054 15.3539C147.054 20.7203 143.924 23.9999 139.094 23.9999C134.235 23.9999 131.492 21.4657 131.492 15.8011C131.492 10.4348 134.682 7.30419 139.541 7.30419C144.371 7.30419 147.054 10.2262 147.054 15.3539Z" fill="#063B27"/>
<path d="M157.52 21.3165V23.7017H147.95V21.3165L150.335 20.5711V3.81623L147.95 3.21993V0.834728L154.837 0.596407V20.5711L157.52 21.3165Z" fill="#063B27"/>
</svg>
