<svg width="166" height="48" viewBox="0 0 166 48" fill="none" xmlns="http://www.w3.org/2000/svg">
<g id="g15904">
<g id="g15910">
<path id="path15912" d="M88.3881 13.0101C88.1564 13.291 88.0253 13.6047 88.0253 14.1501V29.1469H87.9422C87.9422 29.1469 79.734 14.513 79.3372 13.8364C79.0563 13.3566 78.7426 13.0265 78.3295 12.7784C77.9163 12.5478 77.4867 12.3992 76.6616 12.3992H73.9532C73.3247 12.3992 72.9291 12.6133 72.6482 12.9446C72.4164 13.2243 72.2842 13.5392 72.2842 14.0834V35.3408C72.2842 35.8862 72.4164 36.1999 72.6482 36.4808C72.9291 36.8108 73.3247 37.025 73.9532 37.025H75.4888C76.1162 37.025 76.5129 36.8108 76.7939 36.4808C77.0244 36.1999 77.1567 35.8862 77.1567 35.3408V19.98H77.2398C77.2398 19.98 85.7617 35.0763 86.1093 35.6381C86.588 36.4305 87.3968 37.025 88.5532 37.025H91.1796C91.807 37.025 92.2038 36.8108 92.4847 36.4808C92.7152 36.1999 92.8475 35.8862 92.8475 35.3408V16.1644H127.351C127.698 16.1644 127.962 16.0661 128.161 15.9011C128.375 15.7021 128.474 15.4376 128.474 15.042V13.5883C128.474 13.1915 128.375 12.927 128.161 12.7292C127.962 12.5642 127.698 12.4647 127.351 12.4647H89.6932C89.0658 12.4647 88.6691 12.6801 88.3881 13.0101ZM103.452 18.6914C97.72 18.6914 94.499 23.1683 94.499 27.8922C94.499 32.9297 97.9517 37.3563 103.484 37.3563C106.243 37.3563 108.951 36.3157 110.503 34.4817C111.181 33.6893 111.727 32.5821 111.727 31.9056C111.727 31.6738 111.676 31.476 111.545 31.3274C111.413 31.1623 111.214 31.0629 110.867 31.0629H108.208C107.679 31.0629 107.316 31.2607 107.052 31.6574C106.276 32.7974 105.152 33.392 103.501 33.392C101.023 33.392 99.4218 31.5088 99.3059 29.4441H110.802C111.313 29.4441 111.676 29.3283 111.924 29.0813C112.205 28.8168 112.338 28.4364 112.338 27.726C112.338 25.563 111.66 23.3169 110.24 21.5987C108.786 19.8642 106.573 18.6914 103.452 18.6914ZM121.173 18.6914C116.648 18.6914 113.675 20.8391 113.675 24.2744C113.675 25.4963 114.121 26.4876 114.848 27.2636C115.691 28.1731 116.896 28.8004 118.647 29.2463L122.429 30.2038C123.469 30.4683 124.394 30.7819 124.394 31.6902C124.394 33.0947 122.908 33.5734 121.323 33.5734C120.546 33.5734 119.737 33.4248 119.076 33.0947C118.613 32.863 118.218 32.5329 117.937 32.087C117.689 31.7066 117.607 31.4257 117.226 31.2115C116.995 31.0792 116.714 31.0629 116.335 31.0629H114.286C113.84 31.0629 113.626 31.1951 113.478 31.3765C113.329 31.5579 113.279 31.8225 113.279 32.087C113.279 32.7471 113.51 33.5734 114.056 34.3167C115.31 36.0009 117.937 37.3563 121.289 37.3563C124.593 37.3563 129.168 35.9845 129.168 31.5579C129.168 30.4191 128.837 29.4441 128.226 28.6518C127.45 27.644 126.344 26.95 124.461 26.4713L120.712 25.5127C119.159 25.1171 118.432 24.8362 118.432 23.8776C118.432 22.9529 119.258 22.2097 121.173 22.2097C122.297 22.2097 123.321 22.4578 123.982 23.1519C124.526 23.7301 124.428 24.0274 124.858 24.258C125.121 24.3902 125.418 24.3902 125.882 24.3902H127.747C128.045 24.3902 128.26 24.3411 128.424 24.1585C128.557 24.0098 128.639 23.7793 128.639 23.3989C128.639 22.5398 128.077 21.4337 127.087 20.591C125.766 19.451 123.685 18.6914 121.173 18.6914ZM131.464 19.3199H130.539C130.192 19.3199 129.928 19.4182 129.73 19.5833C129.515 19.7822 129.415 20.0468 129.415 20.4424V21.5824C129.415 21.9791 129.515 22.2425 129.73 22.4415C129.928 22.6065 130.192 22.706 130.539 22.706H131.464V30.947C131.464 33.0608 132.042 34.3822 133.115 35.4403C134.106 36.4141 135.395 37.025 137.641 37.025H139.044C139.392 37.025 139.655 36.9267 139.854 36.7617C140.069 36.5627 140.201 36.2982 140.201 35.9026V34.4653C140.201 34.0685 140.069 33.8052 139.854 33.6062C139.655 33.4412 139.392 33.3417 139.044 33.3417H138.847C137.955 33.3417 137.344 33.1111 136.931 32.7143C136.436 32.252 136.187 31.5416 136.187 30.6169V22.706H139.194C139.541 22.706 139.805 22.6065 140.003 22.4415C140.217 22.2425 140.317 21.9791 140.317 21.5824V20.4424C140.317 20.0468 140.217 19.7822 140.003 19.5833C139.805 19.4182 139.541 19.3199 139.194 19.3199H136.204V13.9348C136.204 13.5052 136.072 13.1915 135.874 12.9446C135.626 12.6473 135.279 12.4647 134.768 12.4647H132.901C132.388 12.4647 132.042 12.6473 131.794 12.9446C131.596 13.1915 131.464 13.5052 131.464 13.9348V19.3199ZM141.573 35.555C141.573 35.9845 141.704 36.2982 141.903 36.5463C142.15 36.8436 142.497 37.025 143.009 37.025H144.974C145.486 37.025 145.833 36.8436 146.081 36.5463C146.279 36.2982 146.411 35.9845 146.411 35.555V13.9359C146.411 13.5064 146.279 13.1927 146.081 12.9446C145.833 12.6473 145.486 12.4647 144.974 12.4647H143.009C142.497 12.4647 142.15 12.6473 141.903 12.9446C141.704 13.1927 141.573 13.5064 141.573 13.9359V35.555ZM99.3387 25.9258C99.5529 23.894 101.106 22.3747 103.468 22.3747C105.781 22.3747 107.382 23.894 107.597 25.9258H99.3387ZM164.299 16.1644C164.645 16.1644 164.91 16.0661 165.108 15.9011C165.323 15.7021 165.422 15.4376 165.422 15.042V13.5052C165.422 12.9106 165.307 12.6133 165.108 12.3992C164.926 12.2002 164.629 12.0855 164.299 12.0855C164.034 12.0855 163.771 12.1183 163.325 12.1674L150.144 13.4724C149.764 13.5052 149.583 13.6211 149.451 13.7697C149.302 13.9348 149.235 14.1501 149.235 14.4474V15.3053C149.235 15.6366 149.302 15.7852 149.418 15.9175C149.565 16.0825 149.781 16.1644 150.078 16.1644H164.299ZM157.015 18.6914C151.284 18.6914 148.063 23.1683 148.063 27.8922C148.063 32.9297 151.515 37.3563 157.048 37.3563C159.807 37.3563 162.515 36.3157 164.067 34.4817C164.745 33.6893 165.29 32.5821 165.29 31.9056C165.29 31.6738 165.24 31.476 165.108 31.3274C164.977 31.1623 164.778 31.0629 164.431 31.0629H161.772C161.243 31.0629 160.88 31.2607 160.615 31.6574C159.839 32.7974 158.716 33.392 157.064 33.392C154.587 33.392 152.984 31.5088 152.87 29.4441H164.398C164.91 29.4441 165.274 29.3283 165.521 29.0813C165.802 28.8168 165.934 28.4364 165.934 27.726C165.934 25.563 165.256 23.3169 163.837 21.5987C162.383 19.8642 160.137 18.6914 157.015 18.6914ZM152.902 25.9258C153.118 23.894 154.67 22.3747 157.032 22.3747C159.344 22.3747 160.946 23.894 161.161 25.9258H152.902Z" fill="#F9F5F2"/>
</g>
<g id="g15914">
<path id="path15916" d="M53.6567 16.3624C49.3811 9.98475 45.624 7.83584 44.5671 6.82459C43.4061 5.70917 42.5212 4.44511 41.9583 3.83648C40.7059 2.46825 39.0848 0.779312 36.4186 0.779312C33.8448 0.779312 32.1442 2.45654 31.5917 3.90553C31.4314 4.3187 31.305 4.82433 31.1903 5.00808C30.9375 5.42242 29.7998 7.36416 29.3281 8.1343H31.4548L30.4201 10.0877C31.6269 9.82323 32.4883 9.62777 33.6377 9.62777C34.6606 9.62777 35.3956 9.87005 35.7175 10.5126C36.3156 11.7088 36.3156 15.3278 37.3269 18.0525C38.2691 20.6134 40.5678 23.1193 43.1533 25.0388C43.1872 25.0611 43.2223 25.0728 43.268 25.0728C43.3944 25.0728 43.4751 24.9815 43.4751 24.889C43.4751 24.82 43.4517 24.7743 43.3944 24.717C41.2338 22.5564 39.4758 20.1663 38.5336 17.5469C37.6019 14.9954 37.7517 11.4092 36.9359 9.81153C36.3952 8.75463 35.247 8.47958 34.1889 8.47958C33.3392 8.47958 32.5456 8.65163 32.1781 8.73122L33.1086 7.15699H31.5344C31.868 6.57178 32.2121 6.03104 32.3853 5.70917C32.5339 5.43295 32.5925 5.08884 32.7762 4.61833C33.3731 3.11198 34.6946 2.15808 36.4186 2.15808C38.5792 2.15808 39.8433 3.54855 41.0956 4.93903C41.6703 5.58276 42.6125 6.92759 43.7045 7.92714C44.4513 8.61652 45.8769 9.38667 48.0714 11.6514C49.3355 12.9612 50.8067 14.6618 52.3575 16.9371C57.9089 25.0611 61.5513 32.2206 63.5855 37.8059L63.5515 37.8293C57.7251 33.8756 52.6794 30.1408 48.6122 25.5328C45.727 22.2579 43.2223 18.4657 41.0383 13.6271C40.8885 13.3053 40.7632 13.0068 40.6251 12.6966C40.5678 12.5702 40.5104 12.5351 40.418 12.5351C40.3033 12.5351 40.2225 12.6159 40.2225 12.7306C40.2225 12.857 40.2799 13.1332 40.4063 13.6845C41.5673 18.6951 44.7848 23.1884 48.2212 26.9232C51.6459 30.6358 55.5177 33.83 58.7013 36.1521L61.1838 43.2531C61.2411 43.4263 61.3102 43.6101 61.3102 43.7821C61.3102 43.9085 61.2751 44.0115 61.1955 44.0806C61.1264 44.1496 61.0351 44.1848 60.8279 44.1848H60.0812C59.7593 44.1848 59.6318 44.1379 59.5171 44.0466C59.4024 43.9542 59.3228 43.8161 59.2643 43.6557C59.0466 42.9886 57.7357 39.2537 57.484 38.4953C57.4372 38.3583 57.3565 38.3115 57.2652 38.3115C57.1505 38.3115 57.0697 38.404 57.0697 38.507C57.0697 38.5995 57.1036 38.7025 57.1622 39.0243C57.4946 40.725 57.8855 42.6328 58.0458 43.3573C58.1161 43.6897 58.1957 44.001 58.1957 44.2304C58.1957 44.4364 58.15 44.5523 57.9779 44.7243L57.2078 45.5062C57.024 45.6899 56.9199 45.7356 56.7712 45.7356C56.5875 45.7356 56.4377 45.6092 56.3686 45.2873C55.4955 41.2072 54.174 36.1521 53.8288 34.7487C53.748 34.4397 53.6907 34.2665 53.5069 34.2665C53.3466 34.2665 53.2892 34.3812 53.2892 34.5193C53.2892 34.6223 53.3114 34.7487 53.3231 34.8412C53.5303 36.289 54.3695 41.5642 55.2766 46.3793C55.4381 47.2068 55.7483 47.6656 56.4611 47.6656C56.7829 47.6656 57.0919 47.5392 57.3799 47.2642C57.8515 46.7925 57.9885 46.6661 58.5526 46.1148C58.9541 45.7239 59.2303 45.5635 59.9197 45.5635H61.6203C62.023 45.5635 62.2407 45.4605 62.4361 45.2756C62.6199 45.1035 62.7346 44.8624 62.7346 44.5172C62.7346 44.1613 62.6433 43.8746 62.5169 43.5176C62.0803 42.346 60.6781 38.3806 60.2638 37.2663L60.2989 37.2429C61.735 38.3349 63.8266 39.7254 64.7466 39.7254C65.0333 39.7254 65.2065 39.599 65.2065 39.1507C65.2065 37.0369 61.6894 28.3371 53.6567 16.3624Z" fill="#F9F5F2"/>
</g>
<g id="g15918">
<path id="path15920" d="M14.2046 3.00869C14.4457 2.47965 14.9748 2.11214 15.6068 2.11214C16.4682 2.11214 17.1576 2.77929 17.1576 3.66413C17.1576 4.18029 16.9165 4.62974 16.5373 4.90479C16.618 5.20442 16.6754 5.46777 16.6754 5.72058C16.6754 6.68618 16.1007 7.36386 15.0438 7.72085C14.9057 8.30606 14.6529 8.8351 14.2386 9.22602C13.5492 9.89199 12.8481 9.892 12.8481 10.1682C12.8481 10.318 12.9522 10.4093 13.239 10.4093C14.5148 10.4093 15.7671 9.6977 15.917 8.51323C17.1354 8.10007 17.8704 6.86994 17.8704 5.8938C17.8704 5.63982 17.847 5.42212 17.744 5.21612C18.0776 4.89308 18.4685 4.34181 18.4685 3.52602C18.4685 2.81323 18.1572 2.0899 17.6059 1.56087C17.1237 1.08918 16.4448 0.779018 15.6524 0.779018C14.5031 0.779018 13.7563 1.40052 13.3315 2.00914C12.0779 2.00914 10.4581 3.39961 10.4581 5.38818H10.286C10.1701 4.69879 9.45851 4.23764 8.86042 4.2037C8.3782 2.75588 7.28619 1.51522 5.49309 1.51522C5.28709 1.51522 5.03428 1.52692 4.81541 1.56087C4.28754 1.07748 3.70116 0.779018 2.88537 0.779018C1.32167 0.779018 0.0458984 2.03255 0.0458984 3.61731C0.0458984 4.60633 0.494173 5.28401 1.34508 5.8821C1.34508 5.8821 1.33337 6.0085 1.33337 6.06586C1.33337 7.32992 2.71214 9.30678 4.75806 9.30678C4.75806 9.62748 5.16069 10.0652 5.60896 10.1448V10.3063H5.43574C2.62085 10.3063 1.42584 11.6629 1.42584 12.5699C0.586638 12.9152 0.0458984 13.8457 0.0458984 14.7071C0.0458984 16.4195 1.29943 17.6379 2.95442 17.6379C3.50569 17.6379 4.06867 17.4202 4.4596 17.1206C4.74635 17.2236 5.11387 17.2809 5.49309 17.2809C6.28664 17.2809 7.17149 17.0059 7.79181 16.0976C7.88428 16.1093 7.96387 16.1093 8.05633 16.1093C9.06759 16.1093 9.94073 15.4422 10.4007 14.569C10.5154 14.3513 10.5611 14.1793 10.5611 14.0517C10.5611 13.9265 10.5037 13.8223 10.3773 13.8223C10.2169 13.8223 10.1935 13.9721 9.90679 14.2366C9.26305 14.823 8.27403 15.0407 7.26278 15.0407C6.76886 15.7652 6.16023 16.1444 5.45914 16.1444C4.94181 16.1444 4.54036 16.0063 4.12602 15.7301C3.79245 16.0976 3.37929 16.2474 2.97666 16.2474C2.06957 16.2474 1.42584 15.6154 1.42584 14.6954C1.42584 14.0517 1.839 13.4782 2.41368 13.2593C2.51668 12.1217 3.7351 11.3515 5.25198 11.3515C5.44744 11.3515 5.6429 11.3632 5.85007 11.3866C6.07947 11.0191 6.63075 10.6282 7.4126 10.524C7.57411 10.5018 7.69935 10.4901 7.79181 10.4444C7.88428 10.3976 7.92993 10.3063 7.92993 10.2022C7.92993 10.1109 7.89481 10.0301 7.80352 9.97275C7.72276 9.92711 7.58465 9.90487 7.4243 9.86976C6.6998 9.73165 5.83836 9.28337 5.40179 8.19136C3.66604 8.19136 2.39027 6.80089 2.39027 5.23836V5.13536C1.81559 4.90479 1.42584 4.35351 1.42584 3.69807C1.42584 2.83664 2.10352 2.14725 2.96496 2.14725C3.48229 2.14725 3.93056 2.40006 4.21849 2.77928C4.4596 2.71023 4.73465 2.68682 4.99917 2.68682C6.28664 2.68682 7.66541 3.50261 7.92993 5.08854C9.58492 5.23836 9.97584 6.64054 10.0788 7.22692C10.1362 7.52538 10.1818 7.7782 10.3773 7.7782C10.5845 7.7782 10.6301 7.54762 10.6992 7.23746C10.8256 6.65224 11.0444 6.18056 11.481 5.81304C11.481 4.3067 12.607 3.00869 14.2046 3.00869Z" fill="#F9F5F2"/>
</g>
<g id="g15922">
<path id="path15924" d="M17.5482 12.0181C17.0075 12.7883 16.6177 13.1675 15.3876 14.6153C13.7677 16.5348 12.9168 18.0868 11.5029 21.5337C11.7335 21.5103 12.0671 21.4881 12.4346 21.4881C12.6184 21.4881 12.767 21.4881 13.0093 21.4986L13.1813 21.1311C13.9749 19.4305 15.0423 17.1317 16.537 15.362L17.0543 14.7534C18.5934 12.9498 19.5473 11.88 20.1454 9.42093C20.3526 8.54779 20.5246 7.76711 21.111 7.20296C21.6389 6.69734 22.306 6.47964 22.9837 6.47964C23.5584 6.47964 23.9844 6.61775 24.6047 6.88109C25.1677 7.1222 25.3737 7.16902 25.9718 7.16902C26.179 7.16902 26.3276 7.15731 26.4657 7.14561L25.6616 8.22592L26.7537 8.99606C25.3854 9.39752 24.6621 10.7201 24.4198 11.3287C24.3742 11.4551 24.3519 11.5359 24.3519 11.6167C24.3519 11.7091 24.3976 11.8004 24.5357 11.8004C24.6843 11.8004 24.799 11.6857 24.9945 11.4551C25.6616 10.6511 26.1907 10.0986 28.6486 9.32964L26.914 8.01875L28.2237 6.10041H26.9948C26.2129 6.10041 25.6956 6.08871 25.0179 5.77855C24.0979 5.35368 23.6274 5.16992 22.8116 5.16992C21.8121 5.16992 20.9038 5.52573 20.1571 6.21512C19.2945 7.0075 19.03 8.06557 18.721 9.22664C18.4787 10.122 18.1919 11.111 17.5482 12.0181Z" fill="#F9F5F2"/>
</g>
<g id="g15926">
<path id="path15928" d="M20.1916 19.8441C19.5361 20.729 18.6396 21.8889 17.9502 23.119C18.1691 23.2232 18.8936 23.6141 19.1464 23.751C19.9388 22.556 21.0425 21.086 21.7658 19.9705C22.4212 18.9593 22.6858 18.5227 22.7314 17.1662C22.7431 16.9368 22.7431 16.7179 22.7654 16.5002C22.8227 15.7991 23.0076 15.0863 23.6736 14.4321C24.1675 13.937 24.8803 13.6853 25.5931 13.6853C26.2825 13.6853 26.684 13.8796 27.282 13.8796C27.7069 13.8796 28.0171 13.7766 28.2933 13.6736L28.5122 13.5929L27.9831 14.8581L29.2238 15.3626C28.4314 15.8565 26.6957 17.9832 26.6957 20.4996C26.6957 21.4078 26.8338 22.2459 27.0292 22.9926C27.0526 23.0734 27.0983 23.1541 27.2247 23.1541C27.3394 23.1541 27.4202 23.0851 27.4319 22.9587L27.4436 22.6941C27.4775 21.924 27.5349 20.7067 27.845 19.6147C28.3624 17.776 29.7528 16.0519 31.1433 15.2244L29.1664 14.363L30.0173 12.2832L29.0869 12.4786C28.5239 12.5933 28.1095 12.6963 27.6156 12.6963C27.2937 12.6963 26.9262 12.6507 26.4897 12.5465C26.1561 12.4669 25.7991 12.3979 25.2947 12.3979C24.3864 12.3979 23.4091 12.742 22.7431 13.3857C21.5247 14.5468 21.4556 15.7991 21.3749 16.9145C21.2719 18.3963 20.9957 18.7638 20.1916 19.8441Z" fill="#F9F5F2"/>
</g>
<g id="g15930">
<path id="path15932" d="M49.6797 20.545C49.599 20.442 49.5299 20.3952 49.4386 20.3952C49.3005 20.3952 49.2314 20.4876 49.2314 20.5906C49.2314 20.7521 49.3461 20.9476 49.6341 21.431C50.5072 22.9128 51.5875 24.4062 52.9206 25.8096C54.3568 27.337 56.0457 28.7614 57.8505 30.0372L58.4135 30.4281C58.4942 30.4866 58.5516 30.5206 58.6206 30.5206C58.7354 30.5206 58.8161 30.4059 58.8161 30.3134C58.8161 30.2561 58.7927 30.1975 58.7236 30.1402C57.0464 28.6128 55.2416 26.7506 53.5527 24.9587C52.2301 23.5448 50.8747 22.0513 49.6797 20.545Z" fill="#F9F5F2"/>
</g>
<g id="g15934">
<path id="path15936" d="M12.6988 15.3395C12.8708 15.0527 13.3881 14.3516 13.5953 14.1328C12.7105 12.3408 11.2626 10.6285 10.6306 9.94964L10.1016 10.467C10.7114 11.3518 11.7331 13.0642 12.6988 15.3395Z" fill="#F9F5F2"/>
</g>
<g id="g15938">
<path id="path15940" d="M4.27582 4.96257C4.17165 4.87011 4.14941 4.81276 4.14941 4.7437C4.14941 4.66411 4.20677 4.57165 4.33317 4.57165C4.37882 4.57165 4.42447 4.58335 4.48299 4.60676C5.33272 4.95087 6.05722 5.3535 6.70096 5.84742C7.24052 6.26058 7.76956 6.76738 8.28572 7.376L7.8035 7.92728C7.20658 7.43218 5.27537 5.81348 4.27582 4.96257Z" fill="#F9F5F2"/>
</g>
<g id="g15942">
<path id="path15944" d="M12.4231 8.81226L11.8027 8.43304C12.2042 7.47913 12.6993 6.60599 13.2845 5.95055C13.6988 5.48004 14.0898 5.09965 14.5263 4.7216C14.6293 4.64084 14.6867 4.57178 14.7897 4.57178C14.9055 4.57178 14.9863 4.66425 14.9863 4.75554C14.9863 4.80119 14.9629 4.85854 14.9173 4.92759C14.2162 6.01961 12.8479 8.18022 12.4231 8.81226Z" fill="#F9F5F2"/>
</g>
<g id="g15946">
<path id="path15948" d="M4.63183 14.1442C4.48201 14.2016 4.41296 14.2367 4.33337 14.2367C4.20696 14.2367 4.14844 14.1325 4.14844 14.0517C4.14844 13.9721 4.18355 13.9265 4.26431 13.8563C5.67702 12.7537 6.91885 12.3172 8.63119 12.0292L8.83719 12.7198L4.63183 14.1442Z" fill="#F9F5F2"/>
</g>
<g id="g15950">
<path id="path15952" d="M34.1084 5.22707C34.1084 4.82445 34.3156 4.09995 35.0623 4.09995C35.3151 4.09995 35.5562 4.1573 35.7517 4.24976C36.0279 4.37617 36.2117 4.55993 36.2117 4.75539C36.2117 4.96256 36.0045 5.16972 35.6943 5.42254C35.3725 5.68588 34.9593 5.92816 34.6257 5.92816C34.2243 5.92816 34.1084 5.54777 34.1084 5.22707Z" fill="#F9F5F2"/>
</g>
<g id="g15954">
<path id="path15956" d="M22.4443 8.58239C22.4443 8.08847 22.7428 7.54773 23.3175 7.54773C23.5703 7.54773 23.8688 7.65073 24.0876 7.85906C24.214 7.97377 24.2714 8.099 24.2714 8.22658C24.2714 8.5028 24.0069 8.76615 23.6967 8.94991C23.4556 9.08802 23.2028 9.18048 22.9851 9.18048C22.6281 9.18048 22.4443 8.96044 22.4443 8.58239Z" fill="#F9F5F2"/>
</g>
<g id="g15958">
<path id="path15960" d="M25.1445 15.673C25.1445 15.5583 25.1562 15.4202 25.2019 15.282C25.2943 14.9836 25.4886 14.6957 25.972 14.6957C26.1909 14.6957 26.4308 14.753 26.6263 14.8923C26.7995 15.007 26.8686 15.1556 26.8686 15.3055C26.8686 15.7994 26.0411 16.3741 25.6267 16.3741C25.3283 16.3741 25.1445 16.0861 25.1445 15.673Z" fill="#F9F5F2"/>
</g>
<g id="g15962">
<path id="path15964" d="M20.6174 30.1752C19.0665 30.1752 18.376 29.4402 18.376 28.5097C18.376 26.877 21.2377 25.2805 23.8115 24.2915L24.4786 25.1541C22.8927 25.7849 19.6986 27.1426 19.6986 28.3142C19.6986 28.7274 19.9397 29.027 20.9041 29.027C22.5825 29.027 24.3873 28.2101 26.0528 27.3943C26.1792 27.3369 26.3291 27.2796 26.4672 27.2796C26.6849 27.2796 26.823 27.3486 26.9833 27.578L27.2596 27.9573C25.3178 29.027 22.8927 30.1752 20.6174 30.1752Z" fill="#F9F5F2"/>
</g>
<g id="g15966">
<path id="path15968" d="M24.8925 30.6124C23.3756 31.4622 21.8014 32.0263 20.4109 32.0263C18.8589 32.0263 17.4802 31.3592 16.3308 29.6234C15.8486 28.8884 15.4694 27.9696 15.0094 27.1538C14.4581 26.1882 13.86 25.6709 12.8148 25.6709C11.8609 25.6709 10.9293 26.0618 9.94141 26.4867L9.98705 26.7055C10.0678 27.0613 10.2059 27.3142 10.5383 27.3142C10.6881 27.3142 10.838 27.2463 10.9187 27.2229C11.47 27.0496 11.8714 26.8998 12.4356 26.8998C13.297 26.8998 13.7102 27.4066 14.2966 28.6473L14.5155 29.1073C13.9174 29.3144 12.5152 29.4174 11.47 29.4174H10.9761L11.0568 29.9113C11.0908 30.1185 11.1715 30.2906 11.3436 30.3713C11.5496 30.4743 11.8492 30.486 12.3665 30.486C13.6763 30.486 14.6302 30.3257 15.1814 30.1864C16.5953 32.2908 18.5371 33.0949 20.4109 33.0949C22.0074 33.0949 23.6284 32.5085 25.1804 31.6588L24.8925 30.6124Z" fill="#F9F5F2"/>
</g>
<g id="g15970">
<path id="path15972" d="M26.4547 31.1296L26.1797 30.0715C28.5463 28.7969 30.7069 27.7739 34.155 27.4404C34.2241 28.7618 34.1316 30.4285 35.1089 30.4285C36.0043 30.4285 37.9577 28.118 40.2108 25.2224C40.418 25.4178 40.7504 25.625 41.05 25.8544L40.4753 26.6012C38.2796 29.4289 36.4069 31.8423 34.8666 31.8423C33.4305 31.8423 32.8898 30.1522 32.8675 28.8882C30.673 29.107 28.6037 29.8421 26.4547 31.1296Z" fill="#F9F5F2"/>
</g>
<g id="g15974">
<path id="path15976" d="M56.8621 8.06526C55.9656 8.06526 55.7128 7.57016 55.7128 6.87025C55.7128 5.42242 56.621 3.34257 57.1957 2.15809H55.804C55.0807 3.56027 52.2307 8.05355 50.6904 9.91571L51.5753 10.8684C52.4028 9.94965 53.311 8.38712 54.2989 6.84684H54.4826C54.4826 6.9276 54.4721 7.01889 54.4721 7.09965C54.4721 8.39883 55.1381 9.36326 56.7814 9.36326C57.7926 9.36326 59.3785 8.85764 60.8732 8.35201C62.1138 7.92714 63.2515 7.49057 63.8145 7.33022V5.95146C63.1707 6.14575 61.861 6.65137 60.5045 7.12306C59.0801 7.61698 57.6779 8.06526 56.8621 8.06526Z" fill="#F9F5F2"/>
</g>
<g id="g15978">
<path id="path15980" d="M59.931 12.2365C61.3098 11.6513 63.7806 10.6623 65.2062 10.145V8.74279C62.3445 9.80086 57.3221 11.8807 53.8975 13.7429C53.9899 13.8564 54.588 14.6956 54.6559 14.7998C56.1037 14.2017 57.4029 13.8108 58.5745 13.8108C60.219 13.8108 61.5626 13.8108 63.8157 13.2817V12.2248C62.5516 12.4554 61.2068 12.7305 60.3337 12.7305C59.8163 12.7305 59.6665 12.6614 59.6665 12.4893C59.6665 12.3863 59.7356 12.3173 59.931 12.2365Z" fill="#F9F5F2"/>
</g>
</g>
</svg>
