<svg width="168" height="49" viewBox="0 0 168 49" fill="none" xmlns="http://www.w3.org/2000/svg">
<g clip-path="url(#clip0_437_2246)">
<mask id="mask0_437_2246" style="mask-type:luminance" maskUnits="userSpaceOnUse" x="-497" y="-33" width="701" height="864">
<path d="M-496.986 830.107H203.061V-32.5098H-496.986V830.107Z" fill="white"/>
</mask>
<g mask="url(#mask0_437_2246)">
<path d="M89.0197 12.8985C88.788 13.1794 88.6569 13.4931 88.6569 14.0385V29.0352H88.5738C88.5738 29.0352 80.3656 14.4013 79.9688 13.7248C79.6879 13.2449 79.3742 12.9149 78.9611 12.6667C78.5479 12.4362 78.1183 12.2875 77.2932 12.2875H74.5848C73.9563 12.2875 73.5607 12.5017 73.2798 12.8329C73.048 13.1127 72.9158 13.4275 72.9158 13.9718V35.2291C72.9158 35.7746 73.048 36.0882 73.2798 36.3691C73.5607 36.6992 73.9563 36.9134 74.5848 36.9134H76.1204C76.7478 36.9134 77.1445 36.6992 77.4254 36.3691C77.656 36.0882 77.7883 35.7746 77.7883 35.2291V19.8684H77.8714C77.8714 19.8684 86.3933 34.9646 86.7409 35.5264C87.2196 36.3188 88.0284 36.9134 89.1848 36.9134H91.8112C92.4386 36.9134 92.8353 36.6992 93.1162 36.3691C93.3468 36.0882 93.4791 35.7746 93.4791 35.2291V16.0528H127.982C128.33 16.0528 128.593 15.9545 128.792 15.7895C129.006 15.5905 129.106 15.326 129.106 14.9304V13.4767C129.106 13.0799 129.006 12.8154 128.792 12.6176C128.593 12.4526 128.33 12.3531 127.982 12.3531H90.3248C89.6974 12.3531 89.3006 12.5684 89.0197 12.8985ZM104.083 18.5798C98.3516 18.5798 95.1306 23.0567 95.1306 27.7805C95.1306 32.8181 98.5833 37.2446 104.116 37.2446C106.875 37.2446 109.583 36.2041 111.135 34.37C111.813 33.5777 112.358 32.4704 112.358 31.7939C112.358 31.5622 112.308 31.3644 112.177 31.2157C112.044 31.0507 111.845 30.9512 111.499 30.9512H108.84C108.311 30.9512 107.948 31.149 107.683 31.5458C106.907 32.6858 105.784 33.2804 104.132 33.2804C101.655 33.2804 100.053 31.3972 99.9375 29.3325H111.434C111.945 29.3325 112.308 29.2166 112.556 28.9697C112.837 28.7052 112.969 28.3248 112.969 27.6143C112.969 25.4514 112.291 23.2053 110.872 21.4871C109.418 19.7525 107.205 18.5798 104.083 18.5798ZM121.805 18.5798C117.28 18.5798 114.307 20.7275 114.307 24.1627C114.307 25.3846 114.753 26.376 115.48 27.152C116.322 28.0614 117.528 28.6888 119.279 29.1347L123.061 30.0921C124.101 30.3566 125.026 30.6703 125.026 31.5786C125.026 32.9831 123.539 33.4618 121.955 33.4618C121.177 33.4618 120.369 33.3131 119.707 32.9831C119.245 32.7513 118.849 32.4213 118.568 31.9753C118.32 31.595 118.238 31.3141 117.858 31.0999C117.626 30.9676 117.345 30.9512 116.966 30.9512H114.918C114.472 30.9512 114.258 31.0835 114.109 31.2649C113.96 31.4463 113.91 31.7108 113.91 31.9753C113.91 32.6355 114.142 33.4618 114.687 34.205C115.942 35.8893 118.568 37.2446 121.921 37.2446C125.225 37.2446 129.8 35.8729 129.8 31.4463C129.8 30.3075 129.469 29.3325 128.858 28.5401C128.082 27.5324 126.976 26.8383 125.092 26.3596L121.344 25.401C119.79 25.0054 119.064 24.7245 119.064 23.7659C119.064 22.8413 119.89 22.0981 121.805 22.0981C122.928 22.0981 123.952 22.3462 124.614 23.0403C125.158 23.6185 125.06 23.9158 125.489 24.1463C125.753 24.2786 126.05 24.2786 126.513 24.2786H128.379C128.676 24.2786 128.892 24.2294 129.056 24.0468C129.189 23.8982 129.271 23.6676 129.271 23.2872C129.271 22.4281 128.709 21.3221 127.719 20.4794C126.397 19.3394 124.316 18.5798 121.805 18.5798ZM132.095 19.2083H131.17C130.824 19.2083 130.56 19.3066 130.362 19.4716C130.146 19.6706 130.047 19.9351 130.047 20.3307V21.4707C130.047 21.8675 130.146 22.1308 130.362 22.3298C130.56 22.4949 130.824 22.5943 131.17 22.5943H132.095V30.8353C132.095 32.9491 132.673 34.2706 133.747 35.3286C134.738 36.3024 136.027 36.9134 138.273 36.9134H139.676C140.024 36.9134 140.287 36.8151 140.486 36.65C140.7 36.4511 140.832 36.1866 140.832 35.791V34.3537C140.832 33.9569 140.7 33.6935 140.486 33.4946C140.287 33.3295 140.024 33.23 139.676 33.23H139.478C138.586 33.23 137.975 32.9995 137.562 32.6027C137.067 32.1404 136.819 31.4299 136.819 30.5053V22.5943H139.826C140.172 22.5943 140.437 22.4949 140.635 22.3298C140.849 22.1308 140.948 21.8675 140.948 21.4707V20.3307C140.948 19.9351 140.849 19.6706 140.635 19.4716C140.437 19.3066 140.172 19.2083 139.826 19.2083H136.835V13.8231C136.835 13.3936 136.703 13.0799 136.505 12.8329C136.257 12.5357 135.911 12.3531 135.399 12.3531H133.532C133.02 12.3531 132.673 12.5357 132.425 12.8329C132.227 13.0799 132.095 13.3936 132.095 13.8231V19.2083ZM142.204 35.4433C142.204 35.8729 142.335 36.1866 142.534 36.4347C142.781 36.732 143.129 36.9134 143.64 36.9134H145.605C146.118 36.9134 146.465 36.732 146.713 36.4347C146.91 36.1866 147.043 35.8729 147.043 35.4433V13.8243C147.043 13.3948 146.91 13.0811 146.713 12.8329C146.465 12.5357 146.118 12.3531 145.605 12.3531H143.64C143.129 12.3531 142.781 12.5357 142.534 12.8329C142.335 13.0811 142.204 13.3948 142.204 13.8243V35.4433ZM99.9703 25.8142C100.184 23.7823 101.738 22.2631 104.1 22.2631C106.412 22.2631 108.014 23.7823 108.229 25.8142H99.9703ZM164.93 16.0528C165.277 16.0528 165.541 15.9545 165.739 15.7895C165.955 15.5905 166.054 15.326 166.054 14.9304V13.3936C166.054 12.799 165.938 12.5017 165.739 12.2875C165.558 12.0886 165.26 11.9738 164.93 11.9738C164.666 11.9738 164.403 12.0066 163.957 12.0558L150.775 13.3608C150.396 13.3936 150.215 13.5095 150.082 13.6581C149.934 13.8231 149.867 14.0385 149.867 14.3358V15.1937C149.867 15.5249 149.934 15.6736 150.05 15.8058C150.197 15.9709 150.412 16.0528 150.71 16.0528H164.93ZM157.647 18.5798C151.915 18.5798 148.694 23.0567 148.694 27.7805C148.694 32.8181 152.147 37.2446 157.68 37.2446C160.438 37.2446 163.147 36.2041 164.699 34.37C165.376 33.5777 165.922 32.4704 165.922 31.7939C165.922 31.5622 165.871 31.3644 165.739 31.2157C165.608 31.0507 165.409 30.9512 165.063 30.9512H162.403C161.874 30.9512 161.512 31.149 161.247 31.5458C160.471 32.6858 159.347 33.2804 157.696 33.2804C155.218 33.2804 153.616 31.3972 153.501 29.3325H165.03C165.541 29.3325 165.905 29.2166 166.152 28.9697C166.433 28.7052 166.566 28.3248 166.566 27.6143C166.566 25.4514 165.888 23.2053 164.468 21.4871C163.014 19.7525 160.768 18.5798 157.647 18.5798ZM153.534 25.8142C153.749 23.7823 155.301 22.2631 157.663 22.2631C159.976 22.2631 161.577 23.7823 161.792 25.8142H153.534Z" fill="#333333"/>
<path d="M54.2878 16.251C50.0122 9.87333 46.2551 7.72442 45.1982 6.71317C44.0372 5.59775 43.1523 4.33369 42.5894 3.72506C41.337 2.35683 39.7159 0.667892 37.0497 0.667892C34.4759 0.667892 32.7753 2.34512 32.2228 3.79411C32.0625 4.20728 31.9361 4.71291 31.8214 4.89666C31.5686 5.311 30.4309 7.25274 29.9592 8.02288H32.0859L31.0512 9.97633C32.258 9.71181 33.1194 9.51635 34.2688 9.51635C35.2917 9.51635 36.0267 9.75863 36.3486 10.4012C36.9467 11.5974 36.9467 15.2164 37.958 17.9411C38.9002 20.502 41.1989 23.0079 43.7844 24.9274C43.8183 24.9497 43.8534 24.9614 43.8991 24.9614C44.0255 24.9614 44.1062 24.8701 44.1062 24.7776C44.1062 24.7085 44.0828 24.6629 44.0255 24.6056C41.8649 22.4449 40.1069 20.0549 39.1647 17.4355C38.233 14.8839 38.3828 11.2977 37.567 9.70011C37.0263 8.64321 35.8781 8.36816 34.82 8.36816C33.9703 8.36816 33.1767 8.54021 32.8092 8.6198L33.7397 7.04557H32.1655C32.4991 6.46036 32.8432 5.91962 33.0164 5.59775C33.165 5.32153 33.2236 4.97742 33.4073 4.50691C34.0042 3.00056 35.3257 2.04666 37.0497 2.04666C39.2103 2.04666 40.4744 3.43713 41.7267 4.82761C42.3014 5.47134 43.2436 6.81617 44.3356 7.81572C45.0824 8.5051 46.508 9.27525 48.7025 11.54C49.9666 12.8497 51.4378 14.5504 52.9886 16.8257C58.54 24.9497 62.1824 32.1092 64.2166 37.6945L64.1826 37.7179C58.3562 33.7642 53.3105 30.0293 49.2433 25.4213C46.3581 22.1465 43.8534 18.3543 41.6694 13.5157C41.5196 13.1938 41.3943 12.8954 41.2562 12.5852C41.1989 12.4588 41.1415 12.4237 41.0491 12.4237C40.9344 12.4237 40.8536 12.5045 40.8536 12.6192C40.8536 12.7456 40.911 13.0218 41.0374 13.5731C42.1984 18.5837 45.4159 23.077 48.8523 26.8118C52.277 30.5244 56.1488 33.7185 59.3324 36.0407L61.8149 43.1417C61.8722 43.3149 61.9413 43.4987 61.9413 43.6707C61.9413 43.7971 61.9062 43.9001 61.8266 43.9692C61.7575 44.0382 61.6662 44.0733 61.4591 44.0733H60.7123C60.3904 44.0733 60.2629 44.0265 60.1482 43.9352C60.0335 43.8428 59.9539 43.7047 59.8954 43.5443C59.6777 42.8772 58.3668 39.1423 58.1151 38.3839C58.0683 38.2469 57.9876 38.2001 57.8963 38.2001C57.7816 38.2001 57.7008 38.2926 57.7008 38.3956C57.7008 38.488 57.7347 38.591 57.7933 38.9129C58.1257 40.6135 58.5166 42.5213 58.6769 43.2458C58.7472 43.5782 58.8268 43.8896 58.8268 44.119C58.8268 44.325 58.7811 44.4409 58.6091 44.6129L57.8389 45.3948C57.6552 45.5785 57.551 45.6242 57.4023 45.6242C57.2186 45.6242 57.0688 45.4977 56.9997 45.1759C56.1266 41.0958 54.8051 36.0407 54.4599 34.6373C54.3791 34.3283 54.3218 34.1551 54.138 34.1551C53.9777 34.1551 53.9203 34.2698 53.9203 34.4079C53.9203 34.5109 53.9425 34.6373 53.9542 34.7298C54.1614 36.1776 55.0006 41.4527 55.9077 46.2679C56.0692 47.0954 56.3794 47.5542 57.0922 47.5542C57.414 47.5542 57.723 47.4278 58.011 47.1527C58.4826 46.6811 58.6196 46.5547 59.1837 46.0034C59.5852 45.6125 59.8614 45.4521 60.5508 45.4521H62.2514C62.6541 45.4521 62.8718 45.3491 63.0672 45.1642C63.251 44.9921 63.3657 44.751 63.3657 44.4057C63.3657 44.0499 63.2744 43.7632 63.148 43.4062C62.7114 42.2346 61.3092 38.2692 60.8949 37.1549L60.93 37.1315C62.3661 38.2235 64.4577 39.614 65.3777 39.614C65.6644 39.614 65.8376 39.4876 65.8376 39.0393C65.8376 36.9255 62.3205 28.2257 54.2878 16.251Z" fill="#333333"/>
<path d="M14.8362 2.89715C15.0773 2.36811 15.6063 2.0006 16.2384 2.0006C17.0998 2.0006 17.7892 2.66774 17.7892 3.55259C17.7892 4.06875 17.5481 4.51819 17.1689 4.79325C17.2496 5.09288 17.307 5.35622 17.307 5.60904C17.307 6.57464 16.7323 7.25232 15.6754 7.6093C15.5373 8.19452 15.2845 8.72355 14.8701 9.11448C14.1808 9.78045 13.4797 9.78045 13.4797 10.0567C13.4797 10.2065 13.5838 10.2978 13.8706 10.2978C15.1464 10.2978 16.3987 9.58616 16.5485 8.40169C17.767 7.98852 18.502 6.7584 18.502 5.78226C18.502 5.52828 18.4786 5.31058 18.3756 5.10458C18.7092 4.78154 19.1001 4.23027 19.1001 3.41448C19.1001 2.70169 18.7887 1.97836 18.2375 1.44932C17.7553 0.97764 17.0764 0.667477 16.284 0.667477C15.1347 0.667477 14.3879 1.28897 13.9631 1.8976C12.7095 1.8976 11.0897 3.28807 11.0897 5.27663H10.9176C10.8017 4.58725 10.0901 4.1261 9.49201 4.09216C9.00979 2.64433 7.91778 1.40368 6.12468 1.40368C5.91868 1.40368 5.66587 1.41538 5.447 1.44932C4.91913 0.965935 4.33275 0.667477 3.51696 0.667477C1.95326 0.667477 0.67749 1.92101 0.67749 3.50577C0.67749 4.49479 1.12577 5.17247 1.97667 5.77056C1.97667 5.77056 1.96497 5.89696 1.96497 5.95431C1.96497 7.21838 3.34373 9.19524 5.38965 9.19524C5.38965 9.51594 5.79228 9.95368 6.24055 10.0333V10.1948H6.06733C3.25244 10.1948 2.05743 11.5513 2.05743 12.4584C1.21823 12.8037 0.67749 13.7342 0.67749 14.5956C0.67749 16.3079 1.93102 17.5264 3.58601 17.5264C4.13729 17.5264 4.70026 17.3087 5.09119 17.009C5.37794 17.112 5.74546 17.1694 6.12468 17.1694C6.91823 17.1694 7.80308 16.8943 8.42341 15.9861C8.51587 15.9978 8.59546 15.9978 8.68792 15.9978C9.69918 15.9978 10.5723 15.3306 11.0323 14.4575C11.147 14.2398 11.1926 14.0677 11.1926 13.9402C11.1926 13.8149 11.1353 13.7108 11.0089 13.7108C10.8485 13.7108 10.8251 13.8606 10.5384 14.1251C9.89464 14.7115 8.90562 14.9292 7.89437 14.9292C7.40045 15.6537 6.79182 16.0329 6.09074 16.0329C5.57341 16.0329 5.17195 15.8948 4.75762 15.6186C4.42404 15.9861 4.01088 16.1359 3.60825 16.1359C2.70117 16.1359 2.05743 15.5039 2.05743 14.5839C2.05743 13.9402 2.47059 13.3667 3.04527 13.1478C3.14827 12.0101 4.36669 11.24 5.88357 11.24C6.07903 11.24 6.27449 11.2517 6.48166 11.2751C6.71107 10.9076 7.26234 10.5167 8.04419 10.4125C8.20571 10.3902 8.33094 10.3785 8.42341 10.3329C8.51587 10.2861 8.56152 10.1948 8.56152 10.0906C8.56152 9.99932 8.5264 9.91856 8.43511 9.86121C8.35435 9.81557 8.21624 9.79333 8.05589 9.75822C7.33139 9.6201 6.46996 9.17183 6.03339 8.07982C4.29764 8.07982 3.02187 6.68934 3.02187 5.12682V5.02382C2.44718 4.79325 2.05743 4.24197 2.05743 3.58653C2.05743 2.72509 2.73511 2.03571 3.59655 2.03571C4.11388 2.03571 4.56215 2.28852 4.85008 2.66774C5.09119 2.59869 5.36624 2.57528 5.63076 2.57528C6.91823 2.57528 8.297 3.39107 8.56152 4.977C10.2165 5.12682 10.6074 6.529 10.7104 7.11538C10.7678 7.41384 10.8134 7.66665 11.0089 7.66665C11.2161 7.66665 11.2617 7.43608 11.3308 7.12592C11.4572 6.5407 11.676 6.06902 12.1126 5.7015C12.1126 4.19516 13.2386 2.89715 14.8362 2.89715Z" fill="#333333"/>
<path d="M18.1803 11.9068C17.6395 12.6769 17.2498 13.0561 16.0197 14.5039C14.3998 16.4235 13.5489 17.9754 12.135 21.4224C12.3656 21.399 12.6992 21.3767 13.0667 21.3767C13.2504 21.3767 13.3991 21.3767 13.6414 21.3873L13.8134 21.0197C14.607 19.3191 15.6744 17.0204 17.169 15.2507L17.6864 14.6421C19.2255 12.8384 20.1794 11.7686 20.7775 9.30957C20.9846 8.43643 21.1567 7.65575 21.7431 7.0916C22.2709 6.58598 22.9381 6.36828 23.6158 6.36828C24.1905 6.36828 24.6165 6.50639 25.2368 6.76973C25.7998 7.01084 26.0058 7.05766 26.6039 7.05766C26.8111 7.05766 26.9597 7.04596 27.0978 7.03425L26.2937 8.11456L27.3857 8.8847C26.0175 9.28616 25.2942 10.6087 25.0519 11.2174C25.0062 11.3438 24.984 11.4245 24.984 11.5053C24.984 11.5978 25.0297 11.6891 25.1678 11.6891C25.3164 11.6891 25.4311 11.5744 25.6266 11.3438C26.2937 10.5397 26.8228 9.98725 29.2807 9.21828L27.5461 7.90739L28.8558 5.98906H27.6268C26.845 5.98906 26.3277 5.97735 25.65 5.66719C24.73 5.24232 24.2595 5.05856 23.4437 5.05856C22.4442 5.05856 21.5359 5.41438 20.7892 6.10376C19.9266 6.89614 19.6621 7.95421 19.3531 9.11528C19.1108 10.0107 18.824 10.9997 18.1803 11.9068Z" fill="#333333"/>
<path d="M20.8232 19.7327C20.1677 20.6176 19.2712 21.7775 18.5818 23.0076C18.8007 23.1118 19.5252 23.5027 19.778 23.6396C20.5704 22.4446 21.6741 20.9746 22.3974 19.8592C23.0528 18.8479 23.3174 18.4113 23.363 17.0548C23.3747 16.8254 23.3747 16.6065 23.3969 16.3888C23.4543 15.6877 23.6392 14.9749 24.3052 14.3207C24.7991 13.8256 25.5119 13.5739 26.2247 13.5739C26.9141 13.5739 27.3155 13.7682 27.9136 13.7682C28.3385 13.7682 28.6487 13.6652 28.9249 13.5622L29.1438 13.4815L28.6147 14.7467L29.8554 15.2512C29.063 15.7451 27.3273 17.8718 27.3273 20.3882C27.3273 21.2964 27.4654 22.1345 27.6608 22.8812C27.6842 22.962 27.7299 23.0427 27.8563 23.0427C27.971 23.0427 28.0517 22.9737 28.0635 22.8473L28.0752 22.5827C28.1091 21.8126 28.1665 20.5954 28.4766 19.5033C28.9939 17.6646 30.3844 15.9406 31.7749 15.1131L29.798 14.2516L30.6489 12.1718L29.7184 12.3672C29.1555 12.4819 28.7411 12.5849 28.2472 12.5849C27.9253 12.5849 27.5578 12.5393 27.1213 12.4351C26.7877 12.3555 26.4307 12.2865 25.9262 12.2865C25.018 12.2865 24.0407 12.6306 23.3747 13.2743C22.1563 14.4354 22.0872 15.6877 22.0065 16.8032C21.9035 18.2849 21.6273 18.6524 20.8232 19.7327Z" fill="#333333"/>
<path d="M50.3116 20.4336C50.2308 20.3306 50.1617 20.2838 50.0704 20.2838C49.9323 20.2838 49.8633 20.3762 49.8633 20.4792C49.8633 20.6408 49.978 20.8362 50.2659 21.3196C51.1391 22.8014 52.2194 24.2948 53.5525 25.6982C54.9886 27.2256 56.6775 28.65 58.4823 29.9258L59.0453 30.3167C59.1261 30.3752 59.1834 30.4092 59.2525 30.4092C59.3672 30.4092 59.4479 30.2945 59.4479 30.202C59.4479 30.1447 59.4245 30.0861 59.3555 30.0288C57.6783 28.5014 55.8734 26.6392 54.1845 24.8473C52.8619 23.4334 51.5066 21.9399 50.3116 20.4336Z" fill="#333333"/>
<path d="M13.3306 15.228C13.5026 14.9413 14.02 14.2402 14.2271 14.0213C13.3423 12.2294 11.8945 10.517 11.2624 9.83819L10.7334 10.3555C11.3432 11.2404 12.365 12.9527 13.3306 15.228Z" fill="#333333"/>
<path d="M4.90717 4.85122C4.803 4.75875 4.78076 4.7014 4.78076 4.63235C4.78076 4.55276 4.83811 4.46029 4.96452 4.46029C5.01017 4.46029 5.05581 4.472 5.11433 4.4954C5.96407 4.83951 6.68857 5.24214 7.3323 5.73606C7.87187 6.14922 8.40091 6.65602 8.91707 7.26464L8.43485 7.81592C7.83793 7.32083 5.90672 5.70212 4.90717 4.85122Z" fill="#333333"/>
<path d="M13.0549 8.70068L12.4346 8.32146C12.836 7.36756 13.3311 6.49442 13.9163 5.83898C14.3307 5.36847 14.7216 4.98808 15.1582 4.61003C15.2612 4.52927 15.3185 4.46021 15.4215 4.46021C15.5374 4.46021 15.6181 4.55268 15.6181 4.64397C15.6181 4.68962 15.5947 4.74697 15.5491 4.81602C14.848 5.90803 13.4798 8.06865 13.0549 8.70068Z" fill="#333333"/>
<path d="M5.26342 14.033C5.1136 14.0904 5.04455 14.1255 4.96496 14.1255C4.83855 14.1255 4.78003 14.0213 4.78003 13.9406C4.78003 13.861 4.81514 13.8153 4.8959 13.7451C6.30861 12.6426 7.55044 12.206 9.26278 11.9181L9.46878 12.6086L5.26342 14.033Z" fill="#333333"/>
<path d="M34.74 5.11581C34.74 4.71318 34.9472 3.98868 35.6939 3.98868C35.9467 3.98868 36.1878 4.04603 36.3833 4.1385C36.6595 4.2649 36.8433 4.44866 36.8433 4.64412C36.8433 4.85129 36.6361 5.05846 36.3259 5.31127C36.0041 5.57462 35.5909 5.81689 35.2573 5.81689C34.8559 5.81689 34.74 5.4365 34.74 5.11581Z" fill="#333333"/>
<path d="M23.0757 8.47076C23.0757 7.97684 23.3741 7.4361 23.9488 7.4361C24.2016 7.4361 24.5001 7.53909 24.719 7.74743C24.8454 7.86213 24.9027 7.98737 24.9027 8.11495C24.9027 8.39117 24.6382 8.65452 24.328 8.83827C24.0869 8.97638 23.8341 9.06885 23.6164 9.06885C23.2594 9.06885 23.0757 8.84881 23.0757 8.47076Z" fill="#333333"/>
<path d="M25.7764 15.5616C25.7764 15.4469 25.7881 15.3088 25.8337 15.1707C25.9262 14.8722 26.1205 14.5843 26.6039 14.5843C26.8227 14.5843 27.0627 14.6416 27.2581 14.7809C27.4314 14.8956 27.5004 15.0443 27.5004 15.1941C27.5004 15.688 26.6729 16.2627 26.2586 16.2627C25.9601 16.2627 25.7764 15.9748 25.7764 15.5616Z" fill="#333333"/>
<path d="M21.2485 30.064C19.6976 30.064 19.0071 29.3289 19.0071 28.3984C19.0071 26.7657 21.8688 25.1692 24.4426 24.1802L25.1097 25.0428C23.5238 25.6737 20.3297 27.0314 20.3297 28.203C20.3297 28.6161 20.5708 28.9158 21.5352 28.9158C23.2136 28.9158 25.0184 28.0988 26.6839 27.283C26.8103 27.2257 26.9602 27.1683 27.0983 27.1683C27.316 27.1683 27.4541 27.2374 27.6144 27.4668L27.8907 27.846C25.9489 28.9158 23.5238 30.064 21.2485 30.064Z" fill="#333333"/>
<path d="M25.5236 30.5009C24.0067 31.3506 22.4325 31.9148 21.042 31.9148C19.49 31.9148 18.1113 31.2476 16.9619 29.5119C16.4797 28.7769 16.1005 27.8581 15.6405 27.0423C15.0892 26.0767 14.4911 25.5594 13.4459 25.5594C12.492 25.5594 11.5604 25.9503 10.5725 26.3751L10.6182 26.594C10.6989 26.9498 10.837 27.2026 11.1694 27.2026C11.3192 27.2026 11.4691 27.1348 11.5498 27.1113C12.1011 26.9381 12.5026 26.7883 13.0667 26.7883C13.9281 26.7883 14.3413 27.2951 14.9277 28.5358L15.1466 28.9957C14.5485 29.2029 13.1463 29.3059 12.1011 29.3059H11.6072L11.6879 29.7998C11.7219 30.007 11.8026 30.179 11.9747 30.2598C12.1807 30.3628 12.4803 30.3745 12.9976 30.3745C14.3074 30.3745 15.2613 30.2142 15.8125 30.0749C17.2264 32.1793 19.1682 32.9834 21.042 32.9834C22.6385 32.9834 24.2595 32.397 25.8115 31.5473L25.5236 30.5009Z" fill="#333333"/>
<path d="M27.0863 31.0182L26.8113 29.9601C29.1779 28.6855 31.3385 27.6625 34.7866 27.329C34.8557 28.6504 34.7632 30.3171 35.7405 30.3171C36.6359 30.3171 38.5893 28.0066 40.8424 25.111C41.0496 25.3065 41.382 25.5136 41.6816 25.743L41.1069 26.4898C38.9112 29.3175 37.0385 31.731 35.4982 31.731C34.0621 31.731 33.5214 30.0409 33.4991 28.7768C31.3046 28.9957 29.2352 29.7307 27.0863 31.0182Z" fill="#333333"/>
<path d="M57.4942 7.95365C56.5976 7.95365 56.3448 7.45856 56.3448 6.75864C56.3448 5.31082 57.2531 3.23096 57.8278 2.04649H56.4361C55.7128 3.44866 52.8628 7.94195 51.3225 9.8041L52.2074 10.7568C53.0349 9.83805 53.9431 8.27552 54.9309 6.73523H55.1147C55.1147 6.81599 55.1042 6.90729 55.1042 6.98805C55.1042 8.28723 55.7701 9.25166 57.4134 9.25166C58.4247 9.25166 60.0106 8.74603 61.5053 8.24041C62.7459 7.81554 63.8836 7.37897 64.4466 7.21862V5.83985C63.8028 6.03415 62.4931 6.53977 61.1366 7.01146C59.7122 7.50538 58.31 7.95365 57.4942 7.95365Z" fill="#333333"/>
<path d="M60.5621 12.1252C61.9409 11.54 64.4117 10.551 65.8373 10.0337V8.63149C62.9756 9.68956 57.9532 11.7694 54.5286 13.6316C54.621 13.7451 55.2191 14.5843 55.287 14.6885C56.7348 14.0904 58.034 13.6995 59.2056 13.6995C60.8501 13.6995 62.1937 13.6995 64.4468 13.1704V12.1135C63.1827 12.3441 61.8379 12.6192 60.9648 12.6192C60.4474 12.6192 60.2976 12.5501 60.2976 12.378C60.2976 12.275 60.3667 12.206 60.5621 12.1252Z" fill="#333333"/>
</g>
<path d="M31.1198 18.5835L30.5674 19.6416H36.4406L36.004 18.5835H31.1198Z" fill="#333333"/>
<mask id="mask1_437_2246" style="mask-type:luminance" maskUnits="userSpaceOnUse" x="-497" y="-33" width="701" height="864">
<path d="M-496.986 830.107H203.061V-32.5098H-496.986V830.107Z" fill="white"/>
</mask>
<g mask="url(#mask1_437_2246)">
<path d="M9.96326 24.8924C10.5836 24.8924 11.0892 24.6853 11.5726 24.491C12.0314 24.306 12.4914 24.1223 13.1117 24.1223C14.583 24.1223 16.3983 24.8351 17.9959 25.5127C18.0884 25.5479 18.1914 25.5701 18.2944 25.5701C18.5484 25.5701 18.7438 25.4554 18.8691 25.2143L19.0762 24.8351C17.3182 23.8121 14.5139 22.7201 13.0544 22.7201C12.3884 22.7201 11.905 22.8933 11.4462 23.0759C10.9289 23.2842 10.4806 23.5019 10.0089 23.5019C8.84901 23.5019 5.8726 22.3526 5.8726 21.2383C5.8726 19.9286 10.607 19.423 11.1243 19.423L11.5948 18.3532C8.15962 18.3532 4.06779 19.5599 4.06779 21.1576C4.06779 21.6176 4.33231 21.847 4.33231 22.2718C4.33231 22.8465 4.06779 23.2374 4.06779 23.8812C4.06779 24.306 4.32061 24.8468 4.61907 25.3185C4.94093 25.8124 5.32015 26.1331 5.32015 26.5474C5.32015 26.8576 5.11416 27.2251 5.11416 27.9496C5.11416 29.5004 5.999 30.4438 7.72188 32.2931L8.06716 32.6606C6.64274 33.213 3.98703 34.3624 3.3667 34.6257C1.21779 35.5223 0.678223 36.6143 0.678223 38.3383C0.678223 39.0043 0.678223 39.7627 0.72387 40.4404H1.13703C1.99964 40.4404 2.10264 39.9243 2.10264 39.4303C2.10264 39.0968 2.09093 38.7176 2.09093 38.3032C2.10264 37.3505 2.13775 36.4996 3.67687 35.8102C4.29837 35.534 7.34266 34.2933 9.60745 33.3277C10.2734 33.0398 10.8938 32.7987 11.5831 32.7987C12.3533 32.7987 13.2381 33.1323 14.3418 33.7877C15.2723 34.339 16.2496 35.0857 17.0198 35.9471L17.9959 35.2004C17.1567 34.2126 15.9968 33.3277 14.8358 32.6383C13.6747 31.949 12.6412 31.5463 11.7681 31.5463C11.3888 31.5463 11.0787 31.6154 10.8142 31.6844C10.504 31.7652 10.2161 31.8565 9.84855 31.8565C9.42369 31.8565 9.06671 31.7535 8.54938 31.1554C8.35391 30.9377 7.11326 29.5238 6.84874 29.1107C6.72233 28.9152 6.49293 28.5243 6.49293 28.0643C6.49293 27.8688 6.52687 27.6394 6.64274 27.4323C7.71018 28.2598 9.03276 28.7654 10.6409 28.9608L10.4232 27.8688C8.1128 27.2602 5.65373 25.226 5.65373 23.9163C5.65373 23.6401 5.72278 23.4446 5.82695 23.2035C6.72233 24.031 8.8256 24.8924 9.96326 24.8924Z" fill="#333333"/>
<path d="M26.5005 25.0998C27.9483 24.0768 29.4418 23.9621 30.6485 23.9621C31.373 23.9621 32.2227 24.0651 33.1193 24.1798C33.8438 24.2723 34.498 24.3413 35.2799 24.3413C36.8541 24.3413 38.4401 23.7666 39.1294 23.467C39.3249 23.7093 39.6585 24.0311 39.923 24.2606C39.5894 24.4677 37.4756 25.6159 35.315 25.6159C34.3611 25.6159 33.4529 25.5024 32.671 25.3982C31.9816 25.3069 31.2349 25.2262 30.5104 25.2262C29.718 25.2262 28.1204 25.4556 27.1325 25.9272L26.5005 25.0998Z" fill="#333333"/>
<path d="M47.8405 29.2024C46.1165 32.8343 43.4959 35.4771 40.8074 37.0057C39.5316 37.729 38.3823 38.2007 35.901 38.2007H30.5334C28.615 38.2007 27.4083 38.4535 26.4661 38.6946C25.4537 38.9592 24.8111 39.2225 23.7882 39.2225C22.2713 39.2225 20.8691 38.4758 20.1914 37.7641L21.4555 36.7646L20.8235 35.9242C20.4559 36.1899 15.9627 39.5104 15.0193 40.2572L14.9619 40.2232C14.9854 39.9938 14.9854 39.7866 14.9854 39.5795C14.9854 37.0514 13.8126 36.4416 12.0324 35.7299L10.8256 36.4416C13.273 37.2585 13.8816 37.9128 13.8816 39.7398C13.8816 41.1888 13.3643 41.7623 12.6176 42.2001C11.8474 42.6484 10.8935 42.8543 10.0555 42.8543C9.69851 42.8543 9.53816 42.9234 9.41175 43.0498C9.27364 43.1879 9.20459 43.3951 9.20459 43.6818V44.0845H9.49251C11.0316 44.0845 12.4572 43.8434 14.0197 42.6132L19.1111 38.6373C19.8344 39.4648 21.6627 40.6141 23.8221 40.6141C25.0405 40.6141 25.8224 40.3145 26.9483 40.0278C27.8215 39.8089 28.6724 39.6134 30.5334 39.6134H35.9232C38.6819 39.6134 40.015 39.0387 41.4851 38.2124C44.6804 36.4193 47.404 33.3856 48.9443 29.9024C48.5416 29.6507 48.1624 29.4201 47.8405 29.2024Z" fill="#333333"/>
<path d="M39.1874 33.5235C40.5778 31.2938 41.8185 29.317 44.864 27.7088C44.5421 27.5134 44.0833 27.2149 43.841 27.0534C42.6577 27.5707 41.4861 28.6042 40.4865 29.6506C38.1878 32.0406 38.3938 33.4193 35.9699 34.351C35.3601 34.5804 34.6133 34.8332 33.6594 35.0521C33.0964 33.3164 31.6837 31.5923 30.1891 31.5923C29.1544 31.5923 27.9594 32.1319 26.5807 32.7417C24.9608 33.4545 23.4778 34.2703 23.0073 34.5804L23.6394 35.4313C24.1216 35.1656 25.512 34.4762 26.9025 33.8793C28.1092 33.362 29.2012 32.9371 29.9363 32.9371C31.1196 32.9371 31.8897 34.282 32.3158 35.3611C30.7638 35.7298 28.2122 35.8211 27.4433 35.8211C27.0863 35.8211 26.9599 35.8784 26.8335 35.9826C26.7188 36.0856 26.6263 36.2693 26.5689 36.5222L26.4777 36.9131H27.304C31.603 36.9131 35.6597 36.2354 38.2674 34.6495C38.6361 34.7536 38.958 34.8215 39.3711 34.8215C40.8646 34.8215 42.4049 34.0057 43.3705 33.259C43.7146 32.9945 43.7954 32.7522 43.7954 32.4889C43.7954 32.3624 43.7837 32.2477 43.772 32.1319L43.7263 31.6848C42.3475 32.7756 41.1982 33.5926 39.7738 33.5926C39.5209 33.5926 39.3372 33.5692 39.1874 33.5235Z" fill="#333333"/>
</g>
</g>
<defs>
<clipPath id="clip0_437_2246">
<rect width="167.001" height="48" fill="white" transform="translate(0.12085 0.11084)"/>
</clipPath>
</defs>
</svg>
