<svg width="158" height="49" viewBox="0 0 158 49" fill="none" xmlns="http://www.w3.org/2000/svg">
<g id="recibom">
<path id="Union" fill-rule="evenodd" clip-rule="evenodd" d="M37.1919 1.56485C37.8895 2.82317 37.4348 4.40869 36.1765 5.10619C34.9182 5.80369 33.3326 5.34905 32.6351 4.09072C31.9376 2.8324 32.3923 1.24689 33.6506 0.549385C34.9089 -0.148117 36.4944 0.306522 37.1919 1.56485ZM28.233 10.2539C29.8059 9.38204 30.3742 7.40015 29.5024 5.82724C28.6305 4.25433 26.6486 3.68603 25.0757 4.55791C23.5028 5.42979 22.9345 7.41168 23.8064 8.98458C24.6782 10.5575 26.6601 11.1258 28.233 10.2539ZM20.6735 10.7212C21.807 12.7659 21.0682 15.3424 19.0234 16.4758C16.9786 17.6093 14.4022 16.8705 13.2687 14.8257C12.1353 12.7809 12.8741 10.2045 14.9189 9.07104C16.9636 7.9376 19.5401 8.67638 20.6735 10.7212ZM10.136 16.5622C11.531 19.0789 10.6217 22.2499 8.10503 23.6449C5.58838 25.0399 2.41736 24.1306 1.02235 21.614C-0.372649 19.0973 0.536627 15.9263 3.05328 14.5313C5.56993 13.1363 8.74096 14.0456 10.136 16.5622ZM14.7355 35.6065C17.2521 34.2115 18.1614 31.0405 16.7664 28.5239C15.3714 26.0072 12.2004 25.0979 9.68373 26.4929C7.16707 27.8879 6.2578 31.059 7.6528 33.5756C9.0478 36.0923 12.2188 37.0015 14.7355 35.6065ZM27.304 22.6828C28.4374 24.7276 27.6986 27.304 25.6539 28.4375C23.6091 29.5709 21.0326 28.8321 19.8992 26.7873C18.7657 24.7426 19.5045 22.1661 21.5493 21.0327C23.5941 19.8992 26.1705 20.638 27.304 22.6828ZM34.8635 22.2155C36.4364 21.3437 37.0047 19.3618 36.1328 17.7889C35.2609 16.216 33.279 15.6477 31.7061 16.5195C30.1332 17.3914 29.5649 19.3733 30.4368 20.9462C31.3087 22.5191 33.2906 23.0874 34.8635 22.2155ZM43.8224 13.5265C44.5199 14.7848 44.0653 16.3703 42.8069 17.0678C41.5486 17.7653 39.9631 17.3107 39.2656 16.0524C38.5681 14.794 39.0227 13.2085 40.2811 12.511C41.5394 11.8135 43.1249 12.2682 43.8224 13.5265ZM21.3659 47.5681C23.8826 46.1731 24.7919 43.0021 23.3969 40.4854C22.0018 37.9688 18.8308 37.0595 16.3142 38.4545C13.7975 39.8495 12.8882 43.0205 14.2832 45.5372C15.6782 48.0538 18.8493 48.9631 21.3659 47.5681ZM33.1761 33.9478C34.3095 35.9926 33.5707 38.569 31.526 39.7025C29.4812 40.8359 26.9047 40.0971 25.7713 38.0523C24.6378 36.0076 25.3766 33.4311 27.4214 32.2977C29.4662 31.1642 32.0427 31.903 33.1761 33.9478ZM39.9772 32.784C41.5501 31.9122 42.1184 29.9303 41.2465 28.3574C40.3746 26.7845 38.3927 26.2162 36.8198 27.088C35.2469 27.9599 34.6786 29.9418 35.5505 31.5147C36.4224 33.0876 38.4043 33.6559 39.9772 32.784ZM48.3355 23.6833C49.0331 24.9416 48.5784 26.5271 47.3201 27.2246C46.0618 27.9221 44.4762 27.4675 43.7787 26.2091C43.0812 24.9508 43.5359 23.3653 44.7942 22.6678C46.0525 21.9703 47.638 22.4249 48.3355 23.6833ZM104.765 23.7186L105.124 21.0268C105.151 20.8081 105.204 20.421 105.284 19.8653C105.604 17.6973 105.857 15.8207 106.043 14.2357L106.203 13.0059C106.212 12.9421 106.22 12.8693 106.229 12.7873C106.238 12.7053 106.243 12.6005 106.243 12.473C106.243 12.136 106.181 11.8991 106.056 11.7625C105.932 11.6167 105.719 11.5438 105.417 11.5438C105.373 11.5438 105.302 11.5484 105.204 11.5575C105.107 11.5666 105.022 11.5712 104.951 11.5712C104.738 11.5712 104.578 11.4983 104.472 11.3525C104.374 11.1977 104.326 10.9563 104.326 10.6283C104.326 10.2731 104.432 9.93147 104.645 9.60353C104.867 9.26648 105.151 9.01142 105.497 8.83834C106.331 8.41931 107.268 8.08681 108.306 7.84086C109.345 7.58579 110.326 7.45826 111.249 7.45826C111.754 7.45826 112.127 7.55391 112.367 7.74521C112.607 7.93651 112.726 8.23256 112.726 8.63338C112.726 8.86111 112.704 9.15717 112.66 9.52155C112.624 9.88593 112.553 10.4416 112.447 11.1886L111.941 14.7549C111.923 14.8187 111.91 14.8779 111.901 14.9326V15.1512C111.91 15.2696 111.932 15.3516 111.968 15.3971C112.003 15.4427 112.056 15.4655 112.127 15.4655C112.181 15.4655 112.247 15.4427 112.327 15.3971C112.416 15.3425 112.549 15.2332 112.726 15.0692L113.246 14.5636C113.725 14.1264 114.217 13.803 114.723 13.5935C115.229 13.3839 115.771 13.2792 116.348 13.2792C117.431 13.2792 118.3 13.7347 118.957 14.6456C119.459 15.3255 119.772 16.1788 119.895 17.2056C120.294 16.6768 120.747 16.189 121.255 15.7424C122.177 14.9348 123.199 14.3291 124.319 13.9253C125.449 13.5215 126.678 13.3196 128.007 13.3196C130.022 13.3196 131.626 13.8535 132.819 14.9213C132.971 15.0574 133.114 15.1994 133.246 15.3473C133.55 15.1313 133.955 14.8767 134.462 14.5835C135.118 14.1891 135.834 13.8798 136.608 13.6557C137.392 13.4316 138.112 13.3196 138.768 13.3196C139.133 13.3196 139.415 13.3644 139.616 13.454C139.816 13.5347 139.953 13.6647 140.026 13.8439C140.126 14.0591 140.194 14.4401 140.231 14.9869C140.276 15.5247 140.386 15.7936 140.559 15.7936C140.778 15.7936 141.429 15.4126 142.514 14.6507L142.828 14.4221C143.32 14.0725 143.84 13.8036 144.386 13.6154C144.933 13.4182 145.457 13.3196 145.959 13.3196C146.569 13.3196 147.066 13.445 147.449 13.696C147.831 13.947 148.159 14.3728 148.433 14.9734C148.478 15.081 148.533 15.2334 148.597 15.4306C148.679 15.7085 148.779 15.8519 148.898 15.8609C148.97 15.8609 149.144 15.7533 149.417 15.5381C149.69 15.314 149.923 15.1348 150.114 15.0003C150.962 14.3908 151.704 13.9605 152.342 13.7095C152.989 13.4495 153.637 13.3196 154.284 13.3196C155.195 13.3196 155.888 13.593 156.361 14.1398C156.835 14.6866 157.072 15.4888 157.072 16.5466C157.072 17.5416 156.931 18.7921 156.648 20.298C156.375 21.795 156.238 22.7721 156.238 23.2293C156.238 23.6237 156.507 23.8657 157.045 23.9553C157.163 23.9733 157.259 23.9912 157.332 24.0091C157.441 24.0271 157.533 24.0943 157.605 24.2108C157.687 24.3274 157.728 24.4618 157.728 24.6142C157.728 25.0176 157.587 25.4165 157.305 25.8109C157.022 26.2053 156.603 26.5952 156.047 26.9807C155.427 27.411 154.789 27.7382 154.133 27.9623C153.486 28.1864 152.844 28.2984 152.206 28.2984C151.458 28.2984 150.884 28.1236 150.483 27.774C150.082 27.4155 149.882 26.9045 149.882 26.2412C149.882 25.8557 149.982 25.0669 150.183 23.8747C150.383 22.6825 150.524 21.7547 150.606 21.0913L150.893 18.9669C150.903 18.931 150.907 18.8907 150.907 18.8459C150.916 18.801 150.921 18.7293 150.921 18.6307C150.921 18.3977 150.866 18.2273 150.757 18.1198C150.656 18.0032 150.497 17.945 150.278 17.945C149.631 17.945 149.13 18.4514 148.775 19.4644C148.419 20.4773 148.137 22.2567 147.927 24.8024C147.927 24.8383 147.922 24.8876 147.913 24.9504C147.822 26.1695 147.535 26.9673 147.052 27.3437C146.697 27.6127 146.182 27.8412 145.507 28.0295C144.833 28.2088 144.145 28.2984 143.443 28.2984C142.787 28.2984 142.286 28.1819 141.94 27.9488C141.602 27.7157 141.434 27.3751 141.434 26.9269C141.434 26.5863 141.539 25.8288 141.748 24.6545C141.967 23.4803 142.131 22.5121 142.24 21.7502L142.582 19.3703C142.591 19.3165 142.596 19.2582 142.596 19.1955C142.605 19.1237 142.609 19.0296 142.609 18.9131C142.609 18.6083 142.55 18.3708 142.432 18.2005C142.322 18.0301 142.167 17.945 141.967 17.945C141.393 17.945 140.942 18.3573 140.614 19.182C140.295 19.9977 139.98 21.8085 139.67 24.6142L139.657 24.7083C139.502 26.1246 139.242 26.9941 138.877 27.3169C138.549 27.6037 138.025 27.8412 137.305 28.0295C136.585 28.2088 135.783 28.2984 134.899 28.2984C134.289 28.2984 133.833 28.1864 133.532 27.9623C133.232 27.7382 133.081 27.393 133.081 26.9269C133.081 26.7028 133.186 26.035 133.396 24.9235C133.514 24.3237 133.617 23.7604 133.706 23.2337C133.328 24.0408 132.843 24.7876 132.25 25.4743C131.364 26.5063 130.307 27.2915 129.078 27.8299C127.858 28.3593 126.506 28.624 125.024 28.624C122.873 28.624 121.165 28.0946 119.9 27.0357C119.007 26.2825 118.43 25.3485 118.167 24.2336C118.025 24.4581 117.876 24.6781 117.719 24.8937C116.84 26.1053 115.753 27.0299 114.457 27.6675C113.17 28.3052 111.737 28.624 110.157 28.624C108.399 28.624 107.05 28.2733 106.11 27.5719C105.178 26.8614 104.712 25.8502 104.712 24.5385V24.2378C104.72 24.1285 104.738 23.9555 104.765 23.7186ZM112.806 17.7064C112.549 17.7064 112.323 17.8567 112.127 18.1573C111.932 18.4488 111.715 19.0045 111.475 19.8243C111.226 20.717 111.031 21.5733 110.889 22.3932C110.747 23.213 110.676 23.8962 110.676 24.4428C110.676 24.7434 110.725 24.9803 110.823 25.1533C110.929 25.3173 111.071 25.3993 111.249 25.3993C111.541 25.3993 111.817 25.2262 112.074 24.8801C112.331 24.5248 112.584 23.9873 112.833 23.2677C113.073 22.5754 113.259 21.8785 113.392 21.1771C113.525 20.4665 113.592 19.8289 113.592 19.2641C113.592 18.7357 113.53 18.344 113.405 18.089C113.281 17.8339 113.081 17.7064 112.806 17.7064ZM126.393 16.6308C126.619 16.4424 126.85 16.3481 127.085 16.3481C127.383 16.3481 127.605 16.4738 127.749 16.725C127.894 16.9673 127.966 17.3487 127.966 17.8692C127.966 18.7127 127.867 19.7177 127.668 20.8843C127.478 22.0419 127.229 23.0873 126.922 24.0206C126.778 24.4513 126.601 24.7654 126.393 24.9628C126.186 25.1602 125.924 25.2589 125.607 25.2589C125.318 25.2589 125.092 25.1423 124.929 24.909C124.776 24.6757 124.699 24.3526 124.699 23.9398C124.699 23.5809 124.735 23.1142 124.807 22.5399C124.88 21.9656 124.984 21.315 125.119 20.5882L125.146 20.4132C125.426 18.8787 125.675 17.8557 125.892 17.3442C126.009 17.0481 126.177 16.8103 126.393 16.6308ZM96.2994 19.5601L95.3636 24.1943C95.2656 24.7213 95.1898 25.1848 95.1363 25.5846C95.0918 25.9753 95.0695 26.3297 95.0695 26.6477C95.0695 27.2928 95.2834 27.7835 95.7112 28.1197C96.1479 28.4559 96.7807 28.624 97.6096 28.624C98.3404 28.624 99.0935 28.4832 99.8689 28.2015C100.653 27.9198 101.389 27.5246 102.075 27.0157C102.511 26.6886 102.85 26.3433 103.091 25.9798C103.331 25.6164 103.452 25.262 103.452 24.9167C103.452 24.6441 103.389 24.426 103.265 24.2625C103.14 24.0989 102.97 24.0171 102.757 24.0171C102.703 24.0171 102.601 24.0308 102.449 24.058C102.298 24.0762 102.173 24.0853 102.075 24.0853C102.003 24.0853 101.954 24.0535 101.928 23.9899C101.901 23.9263 101.888 23.8081 101.888 23.6355C101.888 23.4538 101.928 23.0994 102.008 22.5724C102.088 22.0453 102.213 21.3275 102.382 20.4188L102.85 18.02C103.011 17.1658 103.126 16.4934 103.198 16.0027C103.269 15.503 103.305 15.144 103.305 14.926C103.305 14.4535 103.167 14.0855 102.89 13.8219C102.614 13.5493 102.235 13.413 101.754 13.413C101.005 13.413 100.172 13.5312 99.2539 13.7674C98.3359 13.9946 97.4893 14.2944 96.7139 14.667C96.1799 14.9314 95.7635 15.2091 95.4646 15.5001C95.2608 15.0905 94.9781 14.7271 94.6165 14.4098C93.788 13.683 92.6818 13.3196 91.298 13.3196C89.8959 13.3196 88.5895 13.5708 87.3786 14.0733C86.1769 14.5669 85.1071 15.2982 84.1694 16.2674C83.7748 16.6752 83.4174 17.1036 83.0969 17.5527C83.1388 17.2922 83.1597 17.0277 83.1597 16.7594C83.1597 15.6755 82.7691 14.8334 81.9878 14.2333C81.2065 13.6241 80.1073 13.3196 78.6901 13.3196C77.391 13.3196 76.1282 13.5301 74.9018 13.9511C73.6845 14.3631 72.5852 14.9588 71.6041 15.7382C70.9114 16.2827 70.3026 16.8667 69.7778 17.4902C69.7986 17.3071 69.809 17.1176 69.809 16.9215C69.809 15.8342 69.5356 14.9642 68.9887 14.3118C68.4418 13.6503 67.7246 13.3196 66.8371 13.3196C66.2902 13.3196 65.8195 13.4555 65.425 13.7273C65.0395 13.9992 64.7033 14.4296 64.4165 15.0186C64.3627 15.1273 64.2999 15.2814 64.2282 15.4807C64.0668 15.8976 63.901 16.106 63.7306 16.106C63.6141 16.106 63.5065 15.9112 63.4079 15.5215C63.3272 15.2044 63.251 14.9461 63.1793 14.7468C62.982 14.1849 62.7848 13.8089 62.5876 13.6186C62.3903 13.4192 62.1169 13.3196 61.7673 13.3196C61.2562 13.3196 60.6466 13.4419 59.9384 13.6865C59.2301 13.9312 58.5084 14.2756 57.7733 14.7196C57.1905 15.073 56.7692 15.4128 56.5092 15.739C56.2582 16.0562 56.1327 16.4005 56.1327 16.772C56.1327 17.0439 56.2133 17.2614 56.3747 17.4245C56.5451 17.5876 56.7737 17.6691 57.0606 17.6691C57.1323 17.6691 57.2219 17.6601 57.3295 17.6419C57.4461 17.6238 57.5312 17.6148 57.585 17.6148C57.8002 17.6148 57.9436 17.6555 58.0153 17.7371C58.096 17.8186 58.1364 17.9727 58.1364 18.1992C58.1364 19.4497 57.9078 21.0808 57.4505 23.0925C56.9933 25.0951 56.7647 26.4317 56.7647 27.1023C56.7647 27.5825 56.9037 27.9042 57.1816 28.0673C57.4685 28.2214 58.0602 28.2984 58.9567 28.2984C60.0146 28.2984 60.9245 28.1806 61.6866 27.945C62.4576 27.7094 62.9641 27.4013 63.2062 27.0207C63.3317 26.8214 63.4751 25.9877 63.6365 24.5197C63.7979 23.0427 63.9548 21.7876 64.1072 20.7546L64.4165 18.8381V18.8109C64.4703 18.4756 64.5599 18.308 64.6854 18.308C64.8289 18.308 64.9364 18.4666 65.0082 18.7837C65.044 18.9831 65.0844 19.1371 65.1292 19.2459C65.2995 19.6174 65.5506 19.9028 65.8823 20.1022C66.214 20.3015 66.5995 20.4012 67.0388 20.4012C67.4428 20.4012 67.8132 20.3125 68.1499 20.1349C67.7364 21.1268 67.5296 22.1291 67.5296 23.1418C67.5296 24.9065 68.0929 26.2636 69.2194 27.2132C70.3549 28.1538 71.9856 28.624 74.1114 28.624C75.3288 28.624 76.4916 28.4583 77.5999 28.1269C78.7173 27.7954 79.7485 27.3072 80.6933 26.6623C81.1838 26.3308 81.5336 26.0263 81.7425 25.7486L81.7476 25.7421C82.0093 26.2832 82.3659 26.7592 82.8174 27.1703C83.9008 28.1395 85.403 28.624 87.324 28.624C88.4529 28.624 89.5818 28.4311 90.7108 28.0452C91.8397 27.6594 92.8548 27.1254 93.7561 26.4435C94.1112 26.1742 94.3798 25.9005 94.5619 25.6224C94.753 25.3352 94.8486 25.057 94.8486 24.7878C94.8486 24.3391 94.7257 23.9443 94.4799 23.6033C94.2432 23.2533 93.9746 23.0784 93.6742 23.0784C93.392 23.0784 92.9231 23.2713 92.2676 23.6571C92.1037 23.7559 91.9763 23.8276 91.8852 23.8725C91.339 24.1776 90.8929 24.3885 90.5469 24.5052C90.21 24.6218 89.9005 24.6801 89.6183 24.6801C89.1722 24.6801 88.8399 24.4827 88.6214 24.0879C88.412 23.693 88.3073 23.0739 88.3073 22.2303C88.3073 20.7228 88.5394 19.3857 89.0037 18.2191C89.4771 17.0526 89.9642 16.4693 90.465 16.4693C90.6015 16.4693 90.7199 16.5186 90.82 16.6174C90.9202 16.7161 90.9702 16.8372 90.9702 16.9808C90.9702 17.0974 90.8929 17.3666 90.7381 17.7884C90.5924 18.2012 90.5196 18.5691 90.5196 18.8922C90.5196 19.4396 90.7153 19.8972 91.1068 20.2651C91.5074 20.633 92.0081 20.817 92.609 20.817C93.5194 20.817 94.2887 20.485 94.9169 19.8209C95.473 19.2251 95.783 18.5027 95.8468 17.6538C95.9096 17.6636 95.9758 17.6721 96.0454 17.6792C96.3574 17.7156 96.5133 17.8927 96.5133 18.2108C96.5133 18.3107 96.5 18.4516 96.4732 18.6333C96.4465 18.806 96.3885 19.1149 96.2994 19.5601ZM81.206 23.1322C81.206 22.2317 81.3515 21.3313 81.6425 20.4308C80.7013 21.4717 79.5037 22.2007 78.0496 22.6178C77.3774 22.8149 76.637 22.9448 75.8284 23.0075C75.0199 23.0612 74.6156 23.1597 74.6156 23.3031C74.6156 23.6793 74.7928 24.0152 75.1471 24.3108C75.5014 24.5975 75.9193 24.7408 76.4008 24.7408C77.2002 24.7408 78.0905 24.49 79.0716 23.9884C80.0528 23.4778 80.6342 23.2225 80.8159 23.2225C80.9557 23.2225 81.0862 23.2469 81.2076 23.2956C81.2065 23.2415 81.206 23.1871 81.206 23.1322ZM96.6871 12.3635C97.1417 12.6725 97.7433 12.827 98.4919 12.827C99.9625 12.827 101.246 12.4771 102.342 11.7775C103.447 11.0687 104 10.2827 104 9.41948C104 8.94697 103.755 8.55625 103.265 8.2473C102.774 7.93836 102.142 7.78389 101.366 7.78389C100.796 7.78389 100.19 7.87475 99.5481 8.05649C98.9153 8.22913 98.3359 8.46993 97.8101 8.77887C97.204 9.13325 96.7495 9.5058 96.4465 9.89653C96.1524 10.2872 96.0053 10.6961 96.0053 11.1232C96.0053 11.6321 96.2326 12.0455 96.6871 12.3635ZM74.7519 19.7289C74.7519 19.9081 74.7837 20.0469 74.8473 20.1454C74.9109 20.235 75.0017 20.2798 75.1198 20.2798C75.6286 20.2798 76.1328 19.9125 76.6324 19.178C77.1321 18.4434 77.3819 17.6552 77.3819 16.8131C77.3819 16.6071 77.341 16.4414 77.2593 16.316C77.1775 16.1905 77.0685 16.1278 76.9322 16.1278C76.5507 16.1278 76.0919 16.5578 75.5559 17.4178C75.0199 18.2688 74.7519 19.0391 74.7519 19.7289ZM95.7073 35.2805C95.7425 34.8878 95.7718 34.5185 95.7952 34.1727C95.8128 33.8738 95.8274 33.5778 95.8392 33.2847C95.8509 32.9917 95.8509 32.7689 95.8392 32.6165C95.8274 32.47 95.8597 32.3352 95.9359 32.2121C96.0179 32.089 96.1117 31.9835 96.2172 31.8956C96.3227 31.8077 96.4282 31.7403 96.5337 31.6934C96.6392 31.6465 96.7154 31.6231 96.7623 31.6231C96.8092 31.6231 96.8356 31.7403 96.8415 31.9747C96.8532 32.2092 96.8532 32.514 96.8415 32.8891C96.8356 33.2584 96.8239 33.6774 96.8063 34.1463C96.7946 34.6152 96.7916 35.0871 96.7975 35.5618C96.8034 36.0014 96.8297 36.359 96.8766 36.6345C96.9235 36.9099 96.9821 37.1268 97.0525 37.2851C97.1287 37.4375 97.2078 37.5459 97.2898 37.6104C97.3719 37.6748 97.451 37.7188 97.5272 37.7422C97.6034 37.7598 97.6679 37.7715 97.7206 37.7774C97.7734 37.7833 97.8086 37.8038 97.8261 37.839C97.8496 37.8917 97.8291 37.9591 97.7646 38.0412C97.706 38.1232 97.6151 38.1936 97.4921 38.2522C97.3748 38.3108 97.2342 38.343 97.07 38.3489C96.9059 38.3489 96.733 38.2991 96.5513 38.1994C96.3989 38.1174 96.2846 38.0089 96.2084 37.8741C96.1322 37.7334 96.0795 37.5957 96.0502 37.4609C96.015 37.3085 96.0004 37.1502 96.0062 36.9861C95.8773 37.2206 95.7249 37.4257 95.549 37.6016C95.4728 37.6778 95.3878 37.751 95.2941 37.8214C95.2003 37.8917 95.0977 37.9532 94.9864 38.006C94.875 38.0588 94.7548 38.0998 94.6259 38.1291C94.4969 38.1584 94.3592 38.1672 94.2127 38.1555C94.1411 38.1502 94.0726 38.1347 94.007 38.109C93.9582 38.1958 93.8861 38.2846 93.7906 38.3753C93.6792 38.4866 93.5356 38.5804 93.3598 38.6566C93.1898 38.7387 92.9935 38.765 92.7707 38.7357C92.3311 38.6771 92.0146 38.4515 91.8212 38.0588C91.6278 37.6602 91.5164 37.1415 91.4871 36.5026C91.4754 36.274 91.4461 36.104 91.3992 35.9926C91.3582 35.8813 91.3025 35.8227 91.2322 35.8168C91.1618 35.811 91.0798 35.852 90.986 35.9399C90.8981 36.022 90.8013 36.1421 90.6958 36.3004C90.5728 36.4821 90.4819 36.6638 90.4233 36.8455C90.3647 37.0272 90.3237 37.1971 90.3002 37.3554C90.2826 37.5137 90.2709 37.6543 90.265 37.7774C90.2592 37.9005 90.2445 37.9914 90.2211 38.05C90.1918 38.1144 90.1302 38.1584 90.0364 38.1818C89.9427 38.2053 89.8401 38.217 89.7287 38.217C89.6232 38.217 89.5177 38.2053 89.4122 38.1818C89.3126 38.1584 89.2422 38.1291 89.2012 38.0939C89.1858 38.0785 89.1717 38.0379 89.1588 37.972C89.0203 38.1046 88.8475 38.2097 88.6404 38.2874C88.5173 38.3343 88.403 38.3577 88.2975 38.3577C88.192 38.3577 88.0953 38.3431 88.0073 38.3138C87.9253 38.2844 87.852 38.2434 87.7876 38.1907C87.7231 38.1379 87.6645 38.0793 87.6117 38.0148C87.4945 37.8683 87.4007 37.6866 87.3304 37.4697C87.2718 37.6104 87.1897 37.7335 87.0842 37.839C86.9963 37.9328 86.882 38.0207 86.7413 38.1027C86.6006 38.1789 86.4277 38.2229 86.2226 38.2346C86.0174 38.2405 85.824 38.176 85.6423 38.0412C85.4606 37.9064 85.3141 37.7247 85.2027 37.4961C85.0972 37.2675 85.0386 37.0038 85.0269 36.7048C85.021 36.4 85.0884 36.0806 85.2291 35.7465C85.3229 35.5296 85.446 35.345 85.5984 35.1926C85.7507 35.0402 85.9119 34.9171 86.0819 34.8234C86.2578 34.7237 86.4307 34.6534 86.6006 34.6123C86.7765 34.5655 86.9318 34.5391 87.0666 34.5332C87.2073 34.5274 87.3186 34.5391 87.4007 34.5684C87.4886 34.5918 87.5267 34.627 87.515 34.6739C87.4974 34.7501 87.4476 34.8146 87.3655 34.8673C87.2835 34.9142 87.1897 34.964 87.0842 35.0168C86.9787 35.0695 86.8703 35.1281 86.7589 35.1926C86.6475 35.2571 86.5537 35.3421 86.4775 35.4476C86.3603 35.6176 86.2783 35.8198 86.2314 36.0542C86.1845 36.2887 86.161 36.5143 86.161 36.7312C86.1669 36.9422 86.1933 37.1268 86.2402 37.2851C86.2929 37.4375 86.3574 37.5137 86.4336 37.5137C86.5274 37.5137 86.6241 37.4697 86.7237 37.3818C86.8292 37.2939 86.923 37.1942 87.0051 37.0829C87.0871 36.9657 87.1545 36.8484 87.2073 36.7312C87.26 36.6081 87.2864 36.5143 87.2864 36.4499C87.2864 36.3854 87.2835 36.2975 87.2776 36.1861C87.2718 36.0689 87.2718 35.9546 87.2776 35.8432C87.2893 35.7319 87.3069 35.6351 87.3304 35.5531C87.3597 35.471 87.4066 35.4271 87.471 35.4212C87.5355 35.4153 87.6117 35.4007 87.6996 35.3772C87.7934 35.3538 87.8813 35.3509 87.9634 35.3685C88.0454 35.386 88.1099 35.4447 88.1568 35.5443C88.2096 35.6381 88.2301 35.8022 88.2184 36.0366C88.2008 36.5114 88.2242 36.8719 88.2887 37.118C88.3532 37.3584 88.4792 37.499 88.6667 37.5401C88.7957 37.5635 88.91 37.5342 89.0096 37.4521C89.0459 37.4219 89.0807 37.3907 89.1142 37.3584L89.1133 37.329C89.1074 37.1239 89.1045 36.907 89.1045 36.6784C89.1104 36.444 89.1162 36.2242 89.1221 36.019C89.1338 35.808 89.1485 35.6263 89.166 35.4739C89.1836 35.3215 89.2041 35.2248 89.2276 35.1838C89.2628 35.1252 89.3126 35.0724 89.3771 35.0255C89.4474 34.9728 89.5177 34.9288 89.5881 34.8937C89.6643 34.8526 89.7375 34.8233 89.8079 34.8057C89.8841 34.7823 89.9456 34.7706 89.9925 34.7706C90.0159 34.7706 90.0335 34.794 90.0452 34.8409C90.0628 34.8878 90.0775 34.9493 90.0892 35.0255C90.1068 35.1017 90.1185 35.1897 90.1244 35.2893C90.1302 35.3831 90.1361 35.4798 90.142 35.5794C90.1537 35.8139 90.1566 36.0806 90.1507 36.3795C90.2269 36.2271 90.309 36.0776 90.3969 35.9311C90.4731 35.808 90.561 35.682 90.6607 35.5531C90.7603 35.4182 90.8629 35.3039 90.9684 35.2102C91.068 35.1222 91.1765 35.0548 91.2937 35.008C91.4168 34.9611 91.5399 34.9435 91.663 34.9552C91.786 34.9611 91.9033 35.005 92.0146 35.0871C92.1319 35.1691 92.2344 35.2922 92.3223 35.4563C92.381 35.5677 92.4249 35.7084 92.4542 35.8784C92.4835 36.0425 92.5041 36.2183 92.5158 36.4059C92.5334 36.5876 92.548 36.7722 92.5597 36.9598C92.5773 37.1473 92.6037 37.3202 92.6389 37.4785C92.6799 37.6367 92.7326 37.7716 92.7971 37.8829C92.8675 37.9943 92.9671 38.0646 93.096 38.0939C93.2015 38.1232 93.3041 38.1262 93.4038 38.1027C93.5093 38.0734 93.606 38.0382 93.6939 37.9972C93.7205 37.9839 93.7459 37.9714 93.7701 37.9595C93.652 37.8444 93.5504 37.7046 93.4653 37.54C93.3833 37.3642 93.3217 37.1708 93.2807 36.9598C93.2455 36.7429 93.2338 36.529 93.2455 36.3179C93.2573 36.1011 93.2983 35.8959 93.3686 35.7025C93.439 35.5032 93.5415 35.3332 93.6764 35.1926C93.776 35.0929 93.8815 35.0167 93.9929 34.964C94.1042 34.9112 94.2156 34.879 94.327 34.8673C94.4442 34.8497 94.5585 34.8497 94.6698 34.8673C94.7871 34.879 94.8955 34.8995 94.9951 34.9288C95.2296 34.9992 95.467 35.1164 95.7073 35.2805ZM94.3357 36.0718C94.283 36.2124 94.2478 36.3619 94.2302 36.5202C94.2185 36.6726 94.2156 36.8132 94.2215 36.9422C94.2332 37.0711 94.2537 37.1796 94.283 37.2675C94.3123 37.3554 94.3475 37.4023 94.3885 37.4081C94.4706 37.4316 94.5555 37.414 94.6435 37.3554C94.7372 37.2968 94.8603 37.1766 95.0127 36.9949C95.0831 36.9011 95.1534 36.7868 95.2237 36.652C95.2999 36.5172 95.3615 36.3853 95.4084 36.2564C95.4611 36.1275 95.4934 36.0132 95.5051 35.9135C95.5168 35.8139 95.5021 35.7553 95.4611 35.7377C95.4142 35.7201 95.338 35.7025 95.2325 35.6849C95.1329 35.6673 95.0245 35.6644 94.9072 35.6761C94.7959 35.6879 94.6845 35.723 94.5731 35.7816C94.4676 35.8344 94.3885 35.9311 94.3357 36.0718ZM152.559 34.5859C152.424 34.6973 152.313 34.8321 152.225 34.9904C152.102 35.1955 152.011 35.3977 151.952 35.597C151.899 35.7963 151.867 35.9721 151.855 36.1245C151.832 36.3062 151.832 36.4791 151.855 36.6433C151.88 36.8459 151.921 37.0359 151.979 37.2133C151.971 37.2144 151.963 37.216 151.954 37.2181C151.948 37.2196 151.941 37.2214 151.935 37.2235C151.888 37.2411 151.824 37.2821 151.741 37.3466C151.665 37.4111 151.572 37.4726 151.46 37.5312C151.349 37.584 151.223 37.6221 151.082 37.6455C150.941 37.669 150.783 37.6455 150.607 37.5752C150.484 37.5224 150.385 37.4257 150.308 37.2851C150.238 37.1444 150.188 36.9803 150.159 36.7927C150.135 36.5993 150.135 36.3971 150.159 36.1861C150.188 35.9751 150.238 35.7758 150.308 35.5882C150.385 35.4007 150.484 35.2746 150.607 35.2102C150.73 35.1398 150.853 35.1017 150.977 35.0959C151.1 35.0841 151.208 35.0871 151.302 35.1047C151.396 35.1164 151.451 35.1076 151.469 35.0783C151.498 35.0255 151.469 34.9493 151.381 34.8497C151.293 34.7442 151.167 34.6592 151.003 34.5947C150.845 34.5303 150.657 34.5009 150.44 34.5068C150.229 34.5127 150.012 34.5947 149.79 34.753C149.555 34.9288 149.371 35.131 149.236 35.3596C149.107 35.5824 149.019 35.8139 148.972 36.0542C148.931 36.2945 148.928 36.5348 148.963 36.7751C149.004 37.0154 149.072 37.2411 149.165 37.4521C149.265 37.6573 149.391 37.839 149.544 37.9972C149.696 38.1555 149.866 38.2698 150.053 38.3401C150.253 38.4163 150.44 38.4515 150.616 38.4456C150.798 38.4397 150.965 38.4075 151.117 38.3489C151.27 38.2903 151.407 38.2141 151.53 38.1203C151.654 38.0207 151.756 37.9181 151.838 37.8126C151.956 37.6677 152.032 37.5438 152.065 37.4409L152.066 37.4433C152.154 37.6543 152.283 37.8595 152.453 38.0588C152.623 38.2522 152.849 38.3841 153.13 38.4544C153.441 38.5365 153.708 38.5482 153.93 38.4896C154.153 38.4368 154.338 38.346 154.484 38.217C154.637 38.0881 154.754 37.9386 154.836 37.7686C154.918 37.5928 154.974 37.4287 155.003 37.2763C155.038 37.118 155.05 36.9861 155.038 36.8806C155.026 36.7693 155 36.7136 154.959 36.7136C154.9 36.7136 154.842 36.7605 154.783 36.8543C154.725 36.9422 154.648 37.0448 154.555 37.162C154.467 37.2792 154.355 37.3906 154.221 37.4961C154.086 37.6016 153.913 37.669 153.702 37.6983C153.602 37.71 153.514 37.7042 153.438 37.6807C153.368 37.6573 153.306 37.6221 153.253 37.5752C153.201 37.5283 153.157 37.4726 153.122 37.4082C153.092 37.3437 153.069 37.2763 153.051 37.2059C153.004 37.0418 152.987 36.8513 152.998 36.6345C153.168 36.6462 153.338 36.6257 153.508 36.5729C153.655 36.526 153.813 36.4528 153.983 36.3531C154.159 36.2476 154.329 36.0835 154.493 35.8608C154.64 35.6615 154.73 35.4622 154.766 35.2629C154.807 35.0636 154.801 34.8819 154.748 34.7178C154.701 34.5479 154.616 34.4101 154.493 34.3046C154.37 34.1932 154.221 34.1317 154.045 34.12C153.875 34.1141 153.699 34.1258 153.517 34.1551C153.341 34.1844 153.171 34.2343 153.007 34.3046C152.849 34.3749 152.699 34.4687 152.559 34.5859ZM153.306 35.9399C153.206 35.9634 153.11 35.9751 153.016 35.9751C153.016 35.934 153.025 35.8813 153.042 35.8168C153.054 35.7582 153.078 35.6849 153.113 35.597C153.148 35.5091 153.201 35.4007 153.271 35.2717C153.33 35.1604 153.406 35.0754 153.5 35.0168C153.593 34.9523 153.687 34.9054 153.781 34.8761C153.886 34.8409 153.998 34.8175 154.115 34.8057C154.127 34.8644 154.124 34.9288 154.106 34.9992C154.094 35.0636 154.071 35.1428 154.036 35.2366C154.001 35.3303 153.942 35.4358 153.86 35.5531C153.772 35.6703 153.678 35.7582 153.579 35.8168C153.479 35.8754 153.388 35.9165 153.306 35.9399ZM153.209 33.021C153.262 32.9448 153.324 32.8657 153.394 32.7836C153.47 32.8188 153.552 32.8803 153.64 32.9682C153.734 33.0562 153.828 33.1411 153.922 33.2232C154.021 33.3053 154.115 33.3697 154.203 33.4166C154.297 33.4635 154.379 33.4635 154.449 33.4166C154.519 33.3697 154.534 33.2877 154.493 33.1704C154.452 33.0532 154.385 32.9301 154.291 32.8012C154.197 32.6664 154.092 32.5404 153.974 32.4231C153.857 32.3059 153.757 32.2238 153.675 32.177C153.558 32.1183 153.459 32.0773 153.376 32.0539C153.294 32.0304 153.221 32.0304 153.157 32.0539C153.092 32.0715 153.034 32.1154 152.981 32.1858C152.934 32.2502 152.884 32.344 152.831 32.4671C152.802 32.5198 152.764 32.599 152.717 32.7045C152.676 32.81 152.641 32.9155 152.612 33.021C152.588 33.1265 152.579 33.2173 152.585 33.2935C152.597 33.3697 152.641 33.402 152.717 33.3902C152.793 33.3844 152.858 33.3668 152.911 33.3375C152.969 33.3023 153.022 33.2584 153.069 33.2056C153.116 33.1529 153.163 33.0913 153.209 33.021ZM156.662 37.2851C156.585 37.2382 156.506 37.2148 156.424 37.2148C156.371 37.2441 156.295 37.2675 156.196 37.2851C156.102 37.3027 156.008 37.332 155.914 37.373C155.826 37.4082 155.753 37.4609 155.694 37.5313C155.636 37.6016 155.615 37.7012 155.633 37.8302C155.668 38.0588 155.741 38.2141 155.853 38.2962C155.97 38.3782 156.096 38.4105 156.231 38.3929C156.366 38.3812 156.494 38.3313 156.618 38.2434C156.747 38.1555 156.84 38.0588 156.899 37.9533C156.94 37.8771 156.955 37.795 156.943 37.7071C156.931 37.6192 156.899 37.5401 156.846 37.4697C156.799 37.3935 156.738 37.332 156.662 37.2851ZM148.516 35.43C148.37 35.1897 148.162 34.9874 147.892 34.8233C147.828 34.7882 147.784 34.7764 147.76 34.7882L147.655 34.8585C147.602 34.8878 147.517 34.923 147.4 34.964C147.283 34.9992 147.095 35.0255 146.837 35.0431C146.556 35.0607 146.321 35.1574 146.134 35.3333C145.946 35.5091 145.811 35.723 145.729 35.9751C145.647 36.2212 145.618 36.4879 145.642 36.7751C145.659 37.0565 145.729 37.3173 145.853 37.5576C145.976 37.7979 146.151 37.9972 146.38 38.1555C146.615 38.3079 146.902 38.3811 147.242 38.3753C147.511 38.3694 147.752 38.2991 147.963 38.1643C148.174 38.0295 148.347 37.8595 148.481 37.6543C148.622 37.4433 148.722 37.2089 148.78 36.951C148.839 36.6931 148.845 36.4352 148.798 36.1773C148.757 35.9135 148.663 35.6644 148.516 35.43ZM146.776 35.8432C146.799 35.7084 146.828 35.6234 146.864 35.5882C146.981 35.4769 147.095 35.43 147.206 35.4476C147.324 35.4593 147.464 35.5501 147.628 35.7201C147.699 35.7904 147.749 35.893 147.778 36.0278C147.807 36.1626 147.816 36.3121 147.804 36.4762C147.798 36.6403 147.775 36.8103 147.734 36.9861C147.699 37.1561 147.649 37.3144 147.585 37.4609C147.526 37.6016 147.459 37.7217 147.382 37.8214C147.306 37.9152 147.227 37.9679 147.145 37.9796C147.063 37.9914 146.993 37.9445 146.934 37.839C146.875 37.7335 146.828 37.5987 146.793 37.4345C146.764 37.2704 146.743 37.0887 146.732 36.8894C146.72 36.6902 146.717 36.4997 146.723 36.318C146.735 36.1363 146.752 35.978 146.776 35.8432ZM142.399 34.6915C142.528 34.627 142.66 34.5977 142.795 34.6036C142.935 34.6036 143.058 34.627 143.164 34.6739C143.275 34.7208 143.363 34.7823 143.428 34.8585C143.492 34.9347 143.519 35.0139 143.507 35.0959C143.46 35.5003 143.457 35.8784 143.498 36.2301C143.545 36.5759 143.606 36.8719 143.683 37.1181C143.759 37.3584 143.838 37.5342 143.92 37.6456C144.002 37.7569 144.064 37.7775 144.105 37.7071C144.146 37.6368 144.184 37.4932 144.219 37.2763C144.254 37.0536 144.304 36.8103 144.368 36.5466C144.439 36.277 144.535 36.0132 144.659 35.7553C144.787 35.4974 144.963 35.2952 145.186 35.1487C145.379 35.0256 145.508 34.9845 145.573 35.0256C145.643 35.0666 145.673 35.1604 145.661 35.3069C145.649 35.4534 145.611 35.6381 145.547 35.8608C145.488 36.0777 145.426 36.3004 145.362 36.529C145.321 36.6814 145.262 36.8602 145.186 37.0653C145.11 37.2646 145.022 37.4609 144.922 37.6544C144.829 37.8419 144.723 38.009 144.606 38.1555C144.494 38.2962 144.383 38.3782 144.272 38.4017C144.061 38.4486 143.876 38.4456 143.718 38.3929C143.565 38.346 143.431 38.2727 143.313 38.1731C143.196 38.0734 143.091 37.9591 142.997 37.8302C142.909 37.7013 142.827 37.5752 142.751 37.4521C142.698 37.3759 142.639 37.2617 142.575 37.1093C142.516 36.951 142.458 36.7781 142.399 36.5905C142.346 36.3971 142.299 36.1978 142.258 35.9927C142.217 35.7875 142.191 35.597 142.179 35.4212C142.173 35.2395 142.185 35.0842 142.214 34.9552C142.25 34.8204 142.311 34.7325 142.399 34.6915ZM132.96 34.454C132.872 34.413 132.772 34.3954 132.661 34.4013C132.602 34.413 132.556 34.5039 132.52 34.6738C132.491 34.8438 132.471 35.0578 132.459 35.3156C132.453 35.5677 132.456 35.8461 132.468 36.1509C132.485 36.4498 132.512 36.7341 132.547 37.0037C132.582 37.2733 132.629 37.5107 132.687 37.7158C132.746 37.9151 132.813 38.0441 132.89 38.1027C133.013 38.1906 133.136 38.2434 133.259 38.2609C133.382 38.2727 133.49 38.2609 133.584 38.2258C133.678 38.1906 133.754 38.1379 133.813 38.0675C133.871 37.9972 133.901 37.9181 133.901 37.8301C133.901 37.7422 133.898 37.5957 133.892 37.3905C133.886 37.1854 133.892 36.9627 133.91 36.7224C133.927 36.482 133.962 36.2476 134.015 36.019C134.068 35.7846 134.156 35.5999 134.279 35.4651C134.525 35.1838 134.724 35.0167 134.877 34.964C135.035 34.9054 135.146 34.9464 135.211 35.0871C135.228 35.1398 135.243 35.2307 135.255 35.3596C135.272 35.4827 135.287 35.6322 135.299 35.808C135.316 35.9838 135.337 36.1714 135.36 36.3707C135.389 36.57 135.425 36.7692 135.466 36.9685C135.513 37.162 135.568 37.3466 135.633 37.5224C135.703 37.6924 135.791 37.8331 135.896 37.9444C136.055 38.1144 136.198 38.217 136.327 38.2522C136.456 38.2815 136.571 38.2668 136.67 38.2082C136.776 38.1496 136.869 38.0617 136.952 37.9444C137.039 37.8272 137.119 37.7041 137.189 37.5752C137.259 37.4462 137.33 37.2938 137.4 37.118C137.47 36.9363 137.538 36.7751 137.602 36.6344C137.667 36.4879 137.725 36.3824 137.778 36.3179C137.831 36.2535 137.875 36.274 137.91 36.3795C137.933 36.4498 137.966 36.5524 138.007 36.6872C138.053 36.822 138.109 36.9744 138.174 37.1444C138.244 37.3085 138.326 37.4785 138.42 37.6543C138.519 37.8243 138.631 37.9796 138.754 38.1203C138.877 38.2609 139.015 38.3782 139.167 38.472C139.319 38.5657 139.489 38.6126 139.677 38.6126C139.87 38.6126 140.023 38.5775 140.134 38.5071C140.251 38.4426 140.328 38.3723 140.363 38.2961C140.398 38.2199 140.395 38.1525 140.354 38.0939C140.313 38.0353 140.24 38.0177 140.134 38.0411C139.994 38.0705 139.876 38.0734 139.783 38.0499C139.695 38.0265 139.621 37.9708 139.563 37.8829C139.51 37.795 139.466 37.6748 139.431 37.5224C139.402 37.37 139.378 37.1795 139.361 36.9509C139.343 36.7282 139.308 36.5172 139.255 36.3179C139.202 36.1128 139.135 35.9282 139.053 35.764C138.977 35.5941 138.886 35.4505 138.78 35.3332C138.681 35.2101 138.575 35.1164 138.464 35.0519C138.3 34.964 138.141 34.9522 137.989 35.0167C137.837 35.0812 137.696 35.1867 137.567 35.3332C137.438 35.4739 137.327 35.638 137.233 35.8256C137.139 36.0073 137.069 36.1714 137.022 36.3179C136.928 36.5934 136.867 36.7077 136.837 36.6608C136.808 36.6081 136.767 36.4264 136.714 36.1157C136.679 35.9633 136.647 35.8051 136.617 35.6409C136.588 35.471 136.541 35.3127 136.477 35.1662C136.418 35.0138 136.33 34.8761 136.213 34.753C136.102 34.6299 135.946 34.5332 135.747 34.4628C135.542 34.3866 135.36 34.3515 135.202 34.3573C135.044 34.3632 134.897 34.3984 134.762 34.4628C134.633 34.5214 134.516 34.6006 134.411 34.7002C134.305 34.7999 134.205 34.9054 134.112 35.0167C133.918 35.2512 133.786 35.4299 133.716 35.553C133.663 35.6292 133.622 35.6966 133.593 35.7552C133.575 35.4973 133.534 35.2688 133.47 35.0695C133.441 34.9816 133.402 34.8966 133.356 34.8145C133.309 34.7324 133.253 34.6621 133.189 34.6035C133.124 34.539 133.048 34.4892 132.96 34.454ZM129.454 35.0343C129.536 34.8761 129.645 34.7383 129.78 34.6211C129.914 34.5039 130.061 34.4101 130.219 34.3397C130.383 34.2636 130.553 34.2079 130.729 34.1727C130.911 34.1375 131.087 34.12 131.257 34.12C131.432 34.1317 131.582 34.1903 131.705 34.2958C131.834 34.3954 131.925 34.5273 131.978 34.6914C132.03 34.8497 132.039 35.0285 132.004 35.2277C131.975 35.427 131.89 35.6292 131.749 35.8344C131.597 36.0571 131.432 36.2242 131.257 36.3355C131.087 36.4469 130.928 36.526 130.782 36.5729C130.612 36.6315 130.445 36.6579 130.281 36.652C130.275 36.8748 130.298 37.0653 130.351 37.2235C130.375 37.2938 130.401 37.3612 130.43 37.4257C130.465 37.4843 130.509 37.5371 130.562 37.584C130.615 37.6309 130.679 37.666 130.755 37.6895C130.832 37.7071 130.92 37.7071 131.019 37.6895C131.23 37.6543 131.4 37.5781 131.529 37.4609C131.664 37.3378 131.775 37.2147 131.863 37.0916C131.951 36.9685 132.022 36.863 132.074 36.7751C132.133 36.6813 132.189 36.6462 132.241 36.6696C132.306 36.6989 132.338 36.7722 132.338 36.8894C132.344 37.0066 132.318 37.1444 132.259 37.3026C132.2 37.4609 132.112 37.625 131.995 37.795C131.884 37.9591 131.74 38.0998 131.564 38.217C131.389 38.3342 131.186 38.4133 130.958 38.4544C130.729 38.5013 130.474 38.4808 130.193 38.3928C129.964 38.3225 129.774 38.2111 129.621 38.0587C129.469 37.9063 129.349 37.7305 129.261 37.5312C129.173 37.3319 129.114 37.118 129.085 36.8894C129.056 36.6608 129.05 36.4352 129.067 36.2124C129.091 35.9838 129.135 35.767 129.199 35.5618C129.27 35.3567 129.355 35.1808 129.454 35.0343ZM130.272 35.9926C130.348 35.9809 130.433 35.9575 130.527 35.9223C130.609 35.893 130.697 35.849 130.791 35.7904C130.89 35.7318 130.996 35.6497 131.107 35.5442C131.213 35.4446 131.283 35.3479 131.318 35.2541C131.359 35.1603 131.383 35.0812 131.389 35.0167C131.394 34.9405 131.383 34.8702 131.353 34.8057C131.271 34.7823 131.183 34.7823 131.09 34.8057C131.008 34.8292 130.917 34.8761 130.817 34.9464C130.717 35.0167 130.615 35.1281 130.509 35.2805C130.427 35.3977 130.369 35.5032 130.333 35.597C130.298 35.6849 130.275 35.7582 130.263 35.8168C130.251 35.8871 130.254 35.9457 130.272 35.9926ZM124.179 34.6211C124.044 34.7383 123.936 34.8761 123.854 35.0343C123.754 35.1808 123.669 35.3567 123.599 35.5618C123.534 35.767 123.49 35.9838 123.467 36.2124C123.449 36.4352 123.455 36.6608 123.485 36.8894C123.514 37.118 123.572 37.3319 123.66 37.5312C123.748 37.7305 123.868 37.9063 124.021 38.0587C124.173 38.2111 124.364 38.3225 124.592 38.3928C124.874 38.4808 125.129 38.5013 125.357 38.4544C125.586 38.4133 125.788 38.3342 125.964 38.217C126.14 38.0998 126.283 37.9591 126.395 37.795C126.512 37.625 126.6 37.4609 126.658 37.3026C126.717 37.1444 126.743 37.0066 126.738 36.8894C126.738 36.7722 126.705 36.6989 126.641 36.6696C126.588 36.6462 126.532 36.6813 126.474 36.7751C126.421 36.863 126.351 36.9685 126.263 37.0916C126.175 37.2147 126.064 37.3378 125.929 37.4609C125.8 37.5781 125.63 37.6543 125.419 37.6895C125.319 37.7071 125.231 37.7071 125.155 37.6895C125.079 37.666 125.014 37.6309 124.962 37.584C124.909 37.5371 124.865 37.4843 124.83 37.4257C124.8 37.3612 124.774 37.2938 124.751 37.2235C124.698 37.0653 124.674 36.8748 124.68 36.652C124.844 36.6579 125.011 36.6315 125.181 36.5729C125.328 36.526 125.486 36.4469 125.656 36.3355C125.832 36.2242 125.996 36.0571 126.149 35.8344C126.289 35.6292 126.374 35.427 126.403 35.2277C126.439 35.0285 126.43 34.8497 126.377 34.6914C126.324 34.5273 126.234 34.3954 126.105 34.2958C125.981 34.1903 125.832 34.1317 125.656 34.12C125.486 34.12 125.31 34.1375 125.129 34.1727C124.953 34.2079 124.783 34.2636 124.619 34.3397C124.46 34.4101 124.314 34.5039 124.179 34.6211ZM124.926 35.9223C124.833 35.9575 124.748 35.9809 124.671 35.9926C124.654 35.9457 124.651 35.8871 124.663 35.8168C124.674 35.7582 124.698 35.6849 124.733 35.597C124.768 35.5032 124.827 35.3977 124.909 35.2805C125.014 35.1281 125.117 35.0167 125.217 34.9464C125.316 34.8761 125.407 34.8292 125.489 34.8057C125.583 34.7823 125.671 34.7823 125.753 34.8057C125.782 34.8702 125.794 34.9405 125.788 35.0167C125.782 35.0812 125.759 35.1603 125.718 35.2541C125.683 35.3479 125.612 35.4446 125.507 35.5442C125.395 35.6497 125.29 35.7318 125.19 35.7904C125.096 35.849 125.008 35.893 124.926 35.9223ZM120.709 34.9552C120.644 34.92 120.585 34.8995 120.533 34.8936C120.48 34.8878 120.433 34.8848 120.392 34.8848C120.345 34.8848 120.307 34.8819 120.278 34.876C120.243 34.8643 120.213 34.835 120.19 34.7881C120.172 34.7471 120.202 34.6914 120.278 34.6211C120.348 34.5507 120.445 34.4921 120.568 34.4452C120.691 34.3984 120.829 34.3808 120.981 34.3925C121.133 34.3984 121.28 34.457 121.421 34.5683C121.544 34.6738 121.643 34.7764 121.72 34.876C121.802 34.9698 121.866 35.0548 121.913 35.131C121.966 35.2189 122.004 35.3039 122.027 35.386C122.191 35.2277 122.361 35.0958 122.537 34.9903C122.69 34.8966 122.86 34.8204 123.047 34.7618C123.235 34.7031 123.422 34.7002 123.61 34.753C123.657 34.7705 123.677 34.8086 123.671 34.8673C123.671 34.92 123.648 34.9786 123.601 35.0431C123.56 35.1076 123.501 35.1691 123.425 35.2277C123.349 35.2863 123.258 35.3274 123.153 35.3508C122.948 35.3977 122.783 35.4856 122.66 35.6146C122.543 35.7435 122.452 35.8959 122.388 36.0718C122.323 36.2417 122.282 36.4264 122.265 36.6256C122.247 36.8191 122.238 37.0066 122.238 37.1883C122.244 37.5693 122.191 37.8536 122.08 38.0411C121.969 38.2228 121.819 38.3196 121.632 38.3313C121.415 38.343 121.254 38.2434 121.148 38.0324C121.043 37.8213 120.99 37.4638 120.99 36.9597C120.996 36.6432 120.999 36.3677 120.999 36.1333C120.999 35.8988 120.99 35.7025 120.972 35.5442C120.955 35.3801 120.925 35.2512 120.884 35.1574C120.843 35.0636 120.785 34.9962 120.709 34.9552ZM117.314 34.2518C117.244 34.2401 117.182 34.2636 117.129 34.3222C117.112 34.3456 117.094 34.4511 117.077 34.6387C117.065 34.8262 117.053 35.0665 117.041 35.3596C117.03 35.6468 117.021 35.9721 117.015 36.3355C117.009 36.6989 117.006 37.0711 117.006 37.4521C117.006 37.655 117.007 37.8562 117.009 38.0557C116.904 38.0706 116.814 38.0687 116.739 38.0499C116.652 38.0265 116.578 37.9708 116.52 37.8829C116.467 37.795 116.423 37.6748 116.388 37.5224C116.358 37.37 116.335 37.1795 116.317 36.9509C116.3 36.7282 116.265 36.5172 116.212 36.3179C116.159 36.1128 116.092 35.9282 116.01 35.764C115.934 35.5941 115.843 35.4505 115.737 35.3332C115.638 35.2101 115.532 35.1164 115.421 35.0519C115.257 34.964 115.098 34.9522 114.946 35.0167C114.793 35.0812 114.653 35.1867 114.524 35.3332C114.395 35.4739 114.284 35.638 114.19 35.8256C114.096 36.0073 114.026 36.1714 113.979 36.3179C113.885 36.5934 113.823 36.7077 113.794 36.6608C113.765 36.6081 113.724 36.4264 113.671 36.1157C113.636 35.9633 113.604 35.8051 113.574 35.6409C113.545 35.471 113.498 35.3127 113.434 35.1662C113.375 35.0138 113.287 34.8761 113.17 34.753C113.059 34.6299 112.903 34.5332 112.704 34.4628C112.499 34.3866 112.317 34.3515 112.159 34.3573C112.001 34.3632 111.854 34.3984 111.719 34.4628C111.59 34.5214 111.473 34.6006 111.368 34.7002C111.262 34.7999 111.162 34.9054 111.069 35.0167C110.875 35.2512 110.743 35.4299 110.673 35.553C110.62 35.6292 110.579 35.6966 110.55 35.7552C110.532 35.4973 110.491 35.2688 110.427 35.0695C110.398 34.9816 110.359 34.8966 110.313 34.8145C110.266 34.7324 110.21 34.6621 110.145 34.6035C110.081 34.539 110.005 34.4892 109.917 34.454C109.829 34.413 109.729 34.3954 109.618 34.4013C109.559 34.413 109.512 34.5039 109.477 34.6738C109.448 34.8438 109.427 35.0578 109.416 35.3156C109.41 35.5677 109.413 35.8461 109.425 36.1509C109.442 36.4498 109.468 36.7341 109.504 37.0037C109.539 37.2733 109.586 37.5107 109.644 37.7158C109.703 37.9151 109.77 38.0441 109.847 38.1027C109.97 38.1906 110.093 38.2434 110.216 38.2609C110.339 38.2727 110.447 38.2609 110.541 38.2258C110.635 38.1906 110.711 38.1379 110.77 38.0675C110.828 37.9972 110.858 37.9181 110.858 37.8301C110.858 37.7422 110.855 37.5957 110.849 37.3905C110.843 37.1854 110.849 36.9627 110.866 36.7224C110.884 36.482 110.919 36.2476 110.972 36.019C111.025 35.7846 111.113 35.5999 111.236 35.4651C111.482 35.1838 111.681 35.0167 111.834 34.964C111.992 34.9054 112.103 34.9464 112.168 35.0871C112.185 35.1398 112.2 35.2307 112.212 35.3596C112.229 35.4827 112.244 35.6322 112.256 35.808C112.273 35.9838 112.294 36.1714 112.317 36.3707C112.346 36.57 112.382 36.7692 112.423 36.9685C112.469 37.162 112.525 37.3466 112.59 37.5224C112.66 37.6924 112.748 37.8331 112.853 37.9444C113.012 38.1144 113.155 38.217 113.284 38.2522C113.413 38.2815 113.527 38.2668 113.627 38.2082C113.733 38.1496 113.826 38.0617 113.908 37.9444C113.996 37.8272 114.075 37.7041 114.146 37.5752C114.216 37.4462 114.286 37.2938 114.357 37.118C114.427 36.9363 114.495 36.7751 114.559 36.6344C114.624 36.4879 114.682 36.3824 114.735 36.3179C114.788 36.2535 114.832 36.274 114.867 36.3795C114.89 36.4498 114.922 36.5524 114.963 36.6872C115.01 36.822 115.066 36.9744 115.131 37.1444C115.201 37.3085 115.283 37.4785 115.377 37.6543C115.476 37.8243 115.588 37.9796 115.711 38.1203C115.834 38.2609 115.972 38.3782 116.124 38.472C116.276 38.5657 116.446 38.6126 116.634 38.6126C116.786 38.6126 116.913 38.5908 117.015 38.5471L117.015 38.5599C117.021 38.9233 117.03 39.2486 117.041 39.5358C117.053 39.8288 117.068 40.0692 117.085 40.2567C117.103 40.4501 117.123 40.5586 117.147 40.582C117.211 40.6524 117.291 40.7168 117.384 40.7754C117.484 40.8399 117.581 40.881 117.674 40.8985C117.768 40.9161 117.85 40.9073 117.921 40.8722C117.991 40.837 118.035 40.7579 118.052 40.6348C118.064 40.5527 118.07 40.4033 118.07 40.1864C118.07 39.9695 118.067 39.7175 118.061 39.4303V38.5071C118.061 38.1789 118.067 37.8624 118.079 37.5576C118.096 37.2469 118.123 36.9627 118.158 36.7048C118.193 36.4469 118.243 36.2476 118.307 36.1069C118.448 35.7904 118.618 35.5823 118.817 35.4827C119.023 35.3831 119.228 35.4182 119.433 35.5882C119.556 35.6878 119.632 35.8051 119.661 35.9399C119.691 36.0747 119.688 36.2095 119.653 36.3443C119.617 36.4733 119.553 36.5963 119.459 36.7136C119.371 36.8249 119.272 36.9099 119.16 36.9685C119.037 37.033 118.929 37.0858 118.835 37.1268C118.747 37.162 118.671 37.1971 118.606 37.2323C118.548 37.2616 118.501 37.2938 118.466 37.329C118.431 37.3583 118.407 37.3964 118.395 37.4433C118.372 37.5371 118.413 37.5928 118.518 37.6104C118.63 37.6279 118.841 37.6045 119.151 37.54C119.327 37.5048 119.494 37.4521 119.653 37.3818C119.817 37.3056 119.963 37.2089 120.092 37.0916C120.221 36.9685 120.324 36.822 120.4 36.652C120.476 36.4762 120.52 36.274 120.532 36.0454C120.544 35.8285 120.517 35.6351 120.453 35.4651C120.394 35.2951 120.312 35.1545 120.206 35.0431C120.101 34.9259 119.975 34.838 119.828 34.7793C119.688 34.7149 119.544 34.6768 119.398 34.6651C119.192 34.6475 119.011 34.6768 118.853 34.753C118.7 34.8292 118.568 34.92 118.457 35.0255C118.351 35.1252 118.266 35.2248 118.202 35.3244C118.137 35.4182 118.093 35.4827 118.07 35.5179C118.041 35.553 118.02 35.5384 118.009 35.4739C117.997 35.4094 117.985 35.3274 117.973 35.2277C117.967 35.1222 117.956 35.0167 117.938 34.9112C117.921 34.7999 117.894 34.7178 117.859 34.6651C117.83 34.6182 117.783 34.5625 117.718 34.498C117.66 34.4335 117.595 34.3778 117.525 34.331C117.455 34.2841 117.384 34.2577 117.314 34.2518ZM106.736 34.6211C106.602 34.7383 106.493 34.8761 106.411 35.0343C106.311 35.1808 106.227 35.3567 106.156 35.5618C106.092 35.767 106.048 35.9838 106.024 36.2124C106.007 36.4352 106.013 36.6608 106.042 36.8894C106.071 37.118 106.13 37.3319 106.218 37.5312C106.306 37.7305 106.426 37.9063 106.578 38.0587C106.731 38.2111 106.921 38.3225 107.15 38.3928C107.431 38.4808 107.686 38.5013 107.915 38.4544C108.143 38.4133 108.345 38.3342 108.521 38.217C108.697 38.0998 108.841 37.9591 108.952 37.795C109.069 37.625 109.157 37.4609 109.216 37.3026C109.274 37.1444 109.301 37.0066 109.295 36.8894C109.295 36.7722 109.263 36.6989 109.198 36.6696C109.145 36.6462 109.09 36.6813 109.031 36.7751C108.978 36.863 108.908 36.9685 108.82 37.0916C108.732 37.2147 108.621 37.3378 108.486 37.4609C108.357 37.5781 108.187 37.6543 107.976 37.6895C107.876 37.7071 107.789 37.7071 107.712 37.6895C107.636 37.666 107.572 37.6309 107.519 37.584C107.466 37.5371 107.422 37.4843 107.387 37.4257C107.358 37.3612 107.331 37.2938 107.308 37.2235C107.255 37.0653 107.232 36.8748 107.238 36.652C107.402 36.6579 107.569 36.6315 107.739 36.5729C107.885 36.526 108.044 36.4469 108.213 36.3355C108.389 36.2242 108.553 36.0571 108.706 35.8344C108.847 35.6292 108.931 35.427 108.961 35.2277C108.996 35.0285 108.987 34.8497 108.934 34.6914C108.882 34.5273 108.791 34.3954 108.662 34.2958C108.539 34.1903 108.389 34.1317 108.213 34.12C108.044 34.12 107.868 34.1375 107.686 34.1727C107.51 34.2079 107.34 34.2636 107.176 34.3397C107.018 34.4101 106.871 34.5039 106.736 34.6211ZM107.484 35.9223C107.39 35.9575 107.305 35.9809 107.229 35.9926C107.211 35.9457 107.208 35.8871 107.22 35.8168C107.232 35.7582 107.255 35.6849 107.29 35.597C107.326 35.5032 107.384 35.3977 107.466 35.2805C107.572 35.1281 107.674 35.0167 107.774 34.9464C107.874 34.8761 107.964 34.8292 108.046 34.8057C108.14 34.7823 108.228 34.7823 108.31 34.8057C108.34 34.8702 108.351 34.9405 108.345 35.0167C108.34 35.0812 108.316 35.1603 108.275 35.2541C108.24 35.3479 108.17 35.4446 108.064 35.5442C107.953 35.6497 107.847 35.7318 107.748 35.7904C107.654 35.849 107.566 35.893 107.484 35.9223ZM105.377 34.1112C105.401 34.1581 105.398 34.1962 105.369 34.2255C105.339 34.2489 105.295 34.2753 105.237 34.3046C105.184 34.328 105.122 34.3603 105.052 34.4013C104.982 34.4365 104.914 34.4892 104.85 34.5596C104.785 34.6299 104.73 34.7208 104.683 34.8321C104.642 34.9435 104.621 35.0842 104.621 35.2541C104.615 35.4241 104.653 35.5882 104.736 35.7465C104.823 35.9047 104.929 36.0601 105.052 36.2125C105.175 36.359 105.31 36.5055 105.456 36.6521C105.603 36.7927 105.735 36.9393 105.852 37.0916C105.969 37.2382 106.06 37.3906 106.125 37.5488C106.195 37.7012 106.218 37.8595 106.195 38.0236C106.166 38.1877 106.072 38.3254 105.914 38.4368C105.761 38.554 105.574 38.642 105.351 38.7006C105.128 38.765 104.888 38.8002 104.63 38.8061C104.372 38.8119 104.129 38.7885 103.9 38.7357C103.678 38.6888 103.484 38.6127 103.32 38.5071C103.156 38.4016 103.053 38.2668 103.012 38.1027C102.948 37.8624 102.93 37.6602 102.96 37.4961C102.983 37.332 103.03 37.1971 103.1 37.0916C103.171 36.9803 103.25 36.8953 103.338 36.8367C103.426 36.7722 103.502 36.7224 103.566 36.6872C103.701 36.611 103.789 36.611 103.83 36.6872C103.877 36.7634 103.85 36.8836 103.751 37.0477C103.704 37.1297 103.692 37.2235 103.716 37.329C103.739 37.4287 103.792 37.5254 103.874 37.6192C103.962 37.7071 104.07 37.7833 104.199 37.8478C104.334 37.9122 104.486 37.9474 104.656 37.9533C104.762 37.9591 104.867 37.9503 104.973 37.9269C105.084 37.8976 105.175 37.8565 105.245 37.8038C105.316 37.7452 105.357 37.6778 105.369 37.6016C105.386 37.5195 105.357 37.4287 105.281 37.329C105.204 37.2294 105.073 37.1034 104.885 36.951C104.697 36.7986 104.504 36.6315 104.305 36.4498C104.111 36.2623 103.938 36.0659 103.786 35.8608C103.639 35.6498 103.566 35.4388 103.566 35.2278C103.566 34.8116 103.639 34.5068 103.786 34.3134C103.938 34.12 104.182 33.994 104.516 33.9353C104.68 33.906 104.815 33.8943 104.92 33.9002C105.026 33.9002 105.108 33.9119 105.166 33.9353C105.231 33.9588 105.278 33.9881 105.307 34.0233C105.336 34.0526 105.36 34.0819 105.377 34.1112ZM100.313 35.43C100.166 35.1897 99.958 34.9874 99.6884 34.8233C99.6239 34.7882 99.58 34.7764 99.5565 34.7882L99.451 34.8585C99.3983 34.8878 99.3133 34.923 99.1961 34.964C99.0788 34.9992 98.8913 35.0255 98.6334 35.0431C98.352 35.0607 98.1176 35.1574 97.93 35.3333C97.7425 35.5091 97.6077 35.723 97.5256 35.9751C97.4435 36.2212 97.4142 36.4879 97.4377 36.7751C97.4553 37.0565 97.5256 37.3173 97.6487 37.5576C97.7718 37.7979 97.9476 37.9972 98.1762 38.1555C98.4107 38.3079 98.6979 38.3811 99.0378 38.3753C99.3074 38.3694 99.5478 38.2991 99.7588 38.1643C99.9698 38.0295 100.143 37.8595 100.277 37.6543C100.418 37.4433 100.518 37.2089 100.576 36.951C100.635 36.6931 100.641 36.4352 100.594 36.1773C100.553 35.9135 100.459 35.6644 100.313 35.43ZM98.5718 35.8432C98.5953 35.7084 98.6246 35.6234 98.6598 35.5882C98.777 35.4769 98.8913 35.43 99.0026 35.4476C99.1199 35.4593 99.2605 35.5501 99.4247 35.7201C99.495 35.7904 99.5448 35.893 99.5741 36.0278C99.6034 36.1626 99.6122 36.3121 99.6005 36.4762C99.5946 36.6403 99.5712 36.8103 99.5302 36.9861C99.495 37.1561 99.4452 37.3144 99.3807 37.4609C99.3221 37.6016 99.2547 37.7217 99.1785 37.8214C99.1023 37.9152 99.0232 37.9679 98.9411 37.9796C98.859 37.9914 98.7887 37.9445 98.7301 37.839C98.6715 37.7335 98.6246 37.5987 98.5894 37.4345C98.5601 37.2704 98.5396 37.0887 98.5279 36.8894C98.5162 36.6902 98.5132 36.4997 98.5191 36.318C98.5308 36.1363 98.5484 35.978 98.5718 35.8432ZM84.2744 34.2255C84.3037 34.1962 84.3066 34.1581 84.2832 34.1112C84.2656 34.0819 84.2421 34.0526 84.2128 34.0233C84.1835 33.9881 84.1367 33.9588 84.0722 33.9353C84.0136 33.9119 83.9315 33.9002 83.826 33.9002C83.7205 33.8943 83.5857 33.906 83.4216 33.9353C83.0875 33.994 82.8442 34.12 82.6918 34.3134C82.5453 34.5068 82.472 34.8116 82.472 35.2278C82.472 35.4388 82.5453 35.6498 82.6918 35.8608C82.8442 36.0659 83.0171 36.2623 83.2106 36.4498C83.4099 36.6315 83.6033 36.7986 83.7908 36.951C83.9784 37.1034 84.1103 37.2294 84.1865 37.329C84.2627 37.4287 84.292 37.5195 84.2744 37.6016C84.2627 37.6778 84.2216 37.7452 84.1513 37.8038C84.081 37.8565 83.9901 37.8976 83.8788 37.9269C83.7732 37.9503 83.6677 37.9591 83.5622 37.9533C83.3923 37.9474 83.2399 37.9122 83.1051 37.8478C82.9761 37.7833 82.8677 37.7071 82.7798 37.6192C82.6977 37.5254 82.645 37.4287 82.6215 37.329C82.5981 37.2235 82.6098 37.1297 82.6567 37.0477C82.7563 36.8836 82.7827 36.7634 82.7358 36.6872C82.6948 36.611 82.6068 36.611 82.472 36.6872C82.4076 36.7224 82.3314 36.7722 82.2435 36.8367C82.1555 36.8953 82.0764 36.9803 82.0061 37.0916C81.9357 37.1971 81.8888 37.332 81.8654 37.4961C81.8364 37.6586 81.8533 37.8585 81.9163 38.0958L81.9094 38.0939C81.7804 38.0646 81.6808 37.9943 81.6104 37.8829C81.546 37.7716 81.4932 37.6367 81.4522 37.4785C81.417 37.3202 81.3906 37.1473 81.373 36.9598C81.3613 36.7722 81.3467 36.5876 81.3291 36.4059C81.3174 36.2183 81.2969 36.0425 81.2675 35.8784C81.2382 35.7084 81.1943 35.5677 81.1357 35.4563C81.0477 35.2922 80.9452 35.1691 80.8279 35.0871C80.7166 35.005 80.5994 34.9611 80.4763 34.9552C80.3532 34.9435 80.2301 34.9611 80.107 35.008C79.9898 35.0548 79.8813 35.1222 79.7817 35.2102C79.6762 35.3039 79.5736 35.4182 79.474 35.5531C79.3744 35.682 79.2864 35.808 79.2102 35.9311C79.1223 36.0776 79.0403 36.2271 78.9641 36.3795C78.9699 36.0806 78.967 35.8139 78.9553 35.5794C78.9494 35.4798 78.9435 35.3831 78.9377 35.2893C78.9318 35.1897 78.9201 35.1017 78.9025 35.0255C78.8908 34.9493 78.8761 34.8878 78.8586 34.8409C78.8468 34.794 78.8292 34.7706 78.8058 34.7706C78.7589 34.7706 78.6974 34.7823 78.6212 34.8057C78.5508 34.8233 78.4776 34.8526 78.4014 34.8937C78.331 34.9288 78.2607 34.9728 78.1904 35.0255C78.1259 35.0724 78.0761 35.1252 78.0409 35.1838C78.0175 35.2248 77.9969 35.3215 77.9794 35.4739C77.9618 35.6263 77.9471 35.808 77.9354 36.019C77.9295 36.2242 77.9237 36.444 77.9178 36.6784C77.9178 36.907 77.9207 37.1239 77.9266 37.329C77.9325 37.5283 77.9413 37.7012 77.953 37.8477C77.9706 37.9884 77.9911 38.0705 78.0145 38.0939C78.0556 38.1291 78.1259 38.1584 78.2255 38.1818C78.331 38.2053 78.4365 38.217 78.542 38.217C78.6534 38.217 78.756 38.2053 78.8498 38.1818C78.9435 38.1584 79.0051 38.1144 79.0344 38.05C79.0578 37.9914 79.0725 37.9005 79.0784 37.7774C79.0842 37.6543 79.0959 37.5137 79.1135 37.3554C79.137 37.1971 79.178 37.0272 79.2366 36.8455C79.2952 36.6638 79.3861 36.4821 79.5092 36.3004C79.6147 36.1421 79.7114 36.022 79.7993 35.9399C79.8931 35.852 79.9751 35.811 80.0455 35.8168C80.1158 35.8227 80.1715 35.8813 80.2125 35.9926C80.2594 36.104 80.2887 36.274 80.3004 36.5026C80.3297 37.1415 80.4411 37.6602 80.6345 38.0588C80.8279 38.4515 81.1445 38.6771 81.5841 38.7357C81.8068 38.765 82.0031 38.7387 82.1731 38.6566C82.2325 38.6309 82.2882 38.6032 82.3402 38.5734C82.4778 38.6452 82.6331 38.6993 82.8061 38.7357C83.0347 38.7885 83.278 38.8119 83.5359 38.8061C83.7938 38.8002 84.0341 38.765 84.2568 38.7006C84.4795 38.642 84.6671 38.554 84.8195 38.4368C84.9777 38.3254 85.0715 38.1877 85.1008 38.0236C85.1243 37.8595 85.1008 37.7012 85.0305 37.5488C84.966 37.3906 84.8752 37.2382 84.7579 37.0916C84.6407 36.9393 84.5088 36.7927 84.3623 36.6521C84.2158 36.5055 84.081 36.359 83.9579 36.2125C83.8348 36.0601 83.7293 35.9047 83.6414 35.7465C83.5593 35.5882 83.5212 35.4241 83.5271 35.2541C83.5271 35.0842 83.5476 34.9435 83.5886 34.8321C83.6355 34.7208 83.6912 34.6299 83.7557 34.5596C83.8201 34.4892 83.8875 34.4365 83.9579 34.4013C84.0282 34.3603 84.0898 34.328 84.1425 34.3046C84.2011 34.2753 84.2451 34.2489 84.2744 34.2255ZM75.1682 34.6211C75.0334 34.7383 74.925 34.8761 74.8429 35.0343C74.7433 35.1808 74.6583 35.3567 74.588 35.5618C74.5235 35.767 74.4795 35.9838 74.4561 36.2124C74.4385 36.4352 74.4444 36.6608 74.4737 36.8894C74.503 37.118 74.5616 37.3319 74.6495 37.5312C74.7374 37.7305 74.8576 37.9063 75.01 38.0587C75.1624 38.2111 75.3529 38.3225 75.5814 38.3928C75.8628 38.4808 76.1177 38.5013 76.3463 38.4544C76.5749 38.4133 76.7771 38.3342 76.953 38.217C77.1288 38.0998 77.2724 37.9591 77.3838 37.795C77.501 37.625 77.5889 37.4609 77.6475 37.3026C77.7062 37.1444 77.7325 37.0066 77.7267 36.8894C77.7267 36.7722 77.6944 36.6989 77.63 36.6696C77.5772 36.6462 77.5215 36.6813 77.4629 36.7751C77.4102 36.863 77.3398 36.9685 77.2519 37.0916C77.164 37.2147 77.0526 37.3378 76.9178 37.4609C76.7889 37.5781 76.6189 37.6543 76.4079 37.6895C76.3082 37.7071 76.2203 37.7071 76.1441 37.6895C76.0679 37.666 76.0034 37.6309 75.9507 37.584C75.8979 37.5371 75.854 37.4843 75.8188 37.4257C75.7895 37.3612 75.7631 37.2938 75.7397 37.2235C75.6869 37.0653 75.6635 36.8748 75.6694 36.652C75.8335 36.6579 76.0005 36.6315 76.1705 36.5729C76.317 36.526 76.4753 36.4469 76.6453 36.3355C76.8211 36.2242 76.9852 36.0571 77.1376 35.8344C77.2783 35.6292 77.3633 35.427 77.3926 35.2277C77.4277 35.0285 77.419 34.8497 77.3662 34.6914C77.3135 34.5273 77.2226 34.3954 77.0937 34.2958C76.9706 34.1903 76.8211 34.1317 76.6453 34.12C76.4753 34.12 76.2994 34.1375 76.1177 34.1727C75.9419 34.2079 75.7719 34.2636 75.6078 34.3397C75.4496 34.4101 75.303 34.5039 75.1682 34.6211ZM75.9155 35.9223C75.8218 35.9575 75.7368 35.9809 75.6606 35.9926C75.643 35.9457 75.6401 35.8871 75.6518 35.8168C75.6635 35.7582 75.6869 35.6849 75.7221 35.597C75.7573 35.5032 75.8159 35.3977 75.8979 35.2805C76.0034 35.1281 76.106 35.0167 76.2057 34.9464C76.3053 34.8761 76.3962 34.8292 76.4782 34.8057C76.572 34.7823 76.6599 34.7823 76.742 34.8057C76.7713 34.8702 76.783 34.9405 76.7771 35.0167C76.7713 35.0812 76.7478 35.1603 76.7068 35.2541C76.6716 35.3479 76.6013 35.4446 76.4958 35.5442C76.3844 35.6497 76.2789 35.7318 76.1793 35.7904C76.0855 35.849 75.9976 35.893 75.9155 35.9223ZM73.4068 37.6192C73.4303 37.7247 73.4508 37.8331 73.4684 37.9445C73.486 38.05 73.4801 38.1584 73.4508 38.2698C73.4039 38.3401 73.3365 38.3841 73.2486 38.4017C73.1607 38.4193 73.0669 38.4193 72.9672 38.4017C72.8735 38.3841 72.7797 38.3577 72.6859 38.3225C72.598 38.2815 72.5276 38.2434 72.4749 38.2083C72.3753 37.9211 72.3049 37.6221 72.2639 37.3115C72.2229 37.0008 72.1994 36.6902 72.1936 36.3795C72.1877 36.0689 72.1936 35.7612 72.2111 35.4564C72.2287 35.1516 72.2522 34.8644 72.2815 34.5948C72.2932 34.3955 72.3284 34.1845 72.387 33.9617C72.4514 33.739 72.5335 33.5251 72.6331 33.3199C72.7328 33.1089 72.8529 32.9155 72.9936 32.7397C73.1343 32.5638 73.2925 32.429 73.4684 32.3352C73.6501 32.2356 73.8494 32.1828 74.0662 32.177C74.2831 32.1711 74.5146 32.2327 74.7608 32.3616C75.007 32.4906 75.1682 32.6547 75.2444 32.854C75.3205 33.0532 75.3352 33.2701 75.2883 33.5046C75.2473 33.7332 75.1535 33.9676 75.007 34.2079C74.8604 34.4424 74.6905 34.6592 74.497 34.8585C74.3095 35.0578 74.1073 35.2249 73.8904 35.3597C73.6794 35.4945 73.4801 35.5736 73.2925 35.597C73.2808 35.9311 73.2808 36.2682 73.2925 36.6081C73.3043 36.9481 73.3424 37.2851 73.4068 37.6192ZM74.6465 32.766C74.4179 32.7602 74.2216 32.8188 74.0574 32.9419C73.8992 33.065 73.7673 33.2144 73.6618 33.3903C73.5563 33.5661 73.4801 33.7537 73.4332 33.953C73.3863 34.1464 73.3658 34.3076 73.3717 34.4365C73.3834 34.4307 73.4303 34.4043 73.5123 34.3574C73.6003 34.3105 73.7028 34.2519 73.8201 34.1815C73.9373 34.1054 74.0574 34.0174 74.1805 33.9178C74.3095 33.8123 74.4179 33.7009 74.5058 33.5837C74.5996 33.4606 74.6641 33.3317 74.6993 33.1968C74.7344 33.0562 74.7168 32.9126 74.6465 32.766Z" fill="#F9F5F2"/>
</g>
</svg>
