<svg width="159" height="49" viewBox="0 0 159 49" fill="none" xmlns="http://www.w3.org/2000/svg">
<path fill-rule="evenodd" clip-rule="evenodd" d="M37.6805 1.4534C38.378 2.71172 37.9233 4.29724 36.665 4.99474C35.4067 5.69224 33.8212 5.2376 33.1237 3.97927C32.4262 2.72095 32.8808 1.13544 34.1391 0.437935C35.3975 -0.259567 36.983 0.195071 37.6805 1.4534ZM28.7216 10.1425C30.2945 9.27059 30.8628 7.2887 29.9909 5.71579C29.119 4.14288 27.1371 3.57458 25.5642 4.44646C23.9913 5.31834 23.423 7.30023 24.2949 8.87313C25.1668 10.446 27.1487 11.0143 28.7216 10.1425ZM21.1621 10.6097C22.2955 12.6545 21.5567 15.2309 19.5119 16.3644C17.4672 17.4978 14.8907 16.759 13.7573 14.7143C12.6238 12.6695 13.3626 10.093 15.4074 8.95959C17.4522 7.82615 20.0286 8.56493 21.1621 10.6097ZM10.6245 16.4508C12.0195 18.9674 11.1102 22.1385 8.59356 23.5335C6.07691 24.9285 2.90588 24.0192 1.51088 21.5025C0.115876 18.9859 1.02515 15.8149 3.54181 14.4199C6.05846 13.0249 9.22948 13.9341 10.6245 16.4508ZM15.224 35.4951C17.7407 34.1001 18.6499 30.9291 17.2549 28.4124C15.8599 25.8958 12.6889 24.9865 10.1723 26.3815C7.6556 27.7765 6.74632 30.9475 8.14132 33.4642C9.53633 35.9808 12.7074 36.8901 15.224 35.4951ZM27.7925 22.5713C28.926 24.6161 28.1872 27.1926 26.1424 28.326C24.0976 29.4595 21.5211 28.7207 20.3877 26.6759C19.2543 24.6311 19.9931 22.0547 22.0378 20.9212C24.0826 19.7878 26.6591 20.5266 27.7925 22.5713ZM35.352 22.1041C36.9249 21.2322 37.4932 19.2503 36.6213 17.6774C35.7495 16.1045 33.7676 15.5362 32.1947 16.4081C30.6218 17.28 30.0535 19.2619 30.9253 20.8348C31.7972 22.4077 33.7791 22.976 35.352 22.1041ZM44.3109 13.415C45.0084 14.6734 44.5538 16.2589 43.2955 16.9564C42.0371 17.6539 40.4516 17.1992 39.7541 15.9409C39.0566 14.6826 39.5113 13.0971 40.7696 12.3996C42.0279 11.7021 43.6134 12.1567 44.3109 13.415ZM21.8545 47.4567C24.3711 46.0616 25.2804 42.8906 23.8854 40.374C22.4904 37.8573 19.3193 36.948 16.8027 38.3431C14.286 39.7381 13.3768 42.9091 14.7718 45.4257C16.1668 47.9424 19.3378 48.8517 21.8545 47.4567ZM33.6646 33.8363C34.7981 35.8811 34.0593 38.4576 32.0145 39.591C29.9697 40.7245 27.3933 39.9857 26.2598 37.9409C25.1264 35.8961 25.8652 33.3196 27.9099 32.1862C29.9547 31.0528 32.5312 31.7916 33.6646 33.8363ZM40.4657 32.6726C42.0386 31.8007 42.6069 29.8188 41.735 28.2459C40.8631 26.673 38.8813 26.1047 37.3083 26.9766C35.7354 27.8485 35.1671 29.8304 36.039 31.4033C36.9109 32.9762 38.8928 33.5445 40.4657 32.6726ZM48.8241 23.5718C49.5216 24.8301 49.0669 26.4156 47.8086 27.1131C46.5503 27.8106 44.9648 27.356 44.2673 26.0977C43.5698 24.8394 44.0244 23.2538 45.2827 22.5563C46.5411 21.8588 48.1266 22.3135 48.8241 23.5718ZM105.253 23.6072L105.613 20.9153C105.639 20.6967 105.693 20.3095 105.773 19.7539C106.092 17.5858 106.345 15.7093 106.532 14.1242L106.691 12.8945C106.7 12.8307 106.709 12.7578 106.718 12.6758C106.727 12.5938 106.731 12.4891 106.731 12.3616C106.731 12.0245 106.669 11.7877 106.545 11.651C106.421 11.5053 106.208 11.4324 105.906 11.4324C105.861 11.4324 105.79 11.4369 105.693 11.4461C105.595 11.4552 105.511 11.4597 105.44 11.4597C105.227 11.4597 105.067 11.3868 104.96 11.2411C104.863 11.0862 104.814 10.8448 104.814 10.5169C104.814 10.1616 104.921 9.82002 105.134 9.49208C105.355 9.15503 105.639 8.89997 105.986 8.72689C106.82 8.30786 107.756 7.97536 108.795 7.72941C109.833 7.47434 110.814 7.34681 111.737 7.34681C112.243 7.34681 112.616 7.44246 112.855 7.63376C113.095 7.82506 113.215 8.12111 113.215 8.52193C113.215 8.74966 113.193 9.04572 113.148 9.4101C113.113 9.77448 113.042 10.3302 112.935 11.0771L112.429 14.6435C112.412 14.7072 112.398 14.7664 112.389 14.8211V15.0397C112.398 15.1582 112.421 15.2401 112.456 15.2857C112.492 15.3312 112.545 15.354 112.616 15.354C112.669 15.354 112.736 15.3312 112.815 15.2857C112.904 15.231 113.037 15.1217 113.215 14.9577L113.734 14.4522C114.213 14.0149 114.706 13.6915 115.212 13.482C115.718 13.2725 116.259 13.1677 116.836 13.1677C117.919 13.1677 118.789 13.6232 119.446 14.5342C119.948 15.2141 120.26 16.0674 120.384 17.0942C120.782 16.5653 121.236 16.0776 121.744 15.631C122.666 14.8234 123.687 14.2176 124.808 13.8138C125.938 13.41 127.167 13.2081 128.495 13.2081C130.511 13.2081 132.115 13.742 133.308 14.8099C133.46 14.946 133.602 15.0879 133.735 15.2358C134.039 15.0199 134.444 14.7653 134.951 14.472C135.607 14.0776 136.322 13.7684 137.097 13.5443C137.88 13.3202 138.6 13.2081 139.257 13.2081C139.621 13.2081 139.904 13.2529 140.104 13.3426C140.305 13.4232 140.441 13.5532 140.514 13.7325C140.615 13.9476 140.683 14.3286 140.719 14.8754C140.765 15.4132 140.874 15.6822 141.047 15.6822C141.266 15.6822 141.918 15.3012 143.002 14.5393L143.317 14.3107C143.809 13.9611 144.328 13.6922 144.875 13.5039C145.422 13.3067 145.946 13.2081 146.447 13.2081C147.058 13.2081 147.554 13.3336 147.937 13.5846C148.32 13.8356 148.648 14.2614 148.921 14.862C148.967 14.9695 149.022 15.1219 149.085 15.3191C149.167 15.597 149.268 15.7404 149.386 15.7494C149.459 15.7494 149.632 15.6418 149.906 15.4267C150.179 15.2026 150.411 15.0233 150.603 14.8889C151.45 14.2793 152.193 13.849 152.831 13.598C153.478 13.3381 154.125 13.2081 154.772 13.2081C155.683 13.2081 156.376 13.4815 156.85 14.0283C157.324 14.5751 157.561 15.3774 157.561 16.4351C157.561 17.4302 157.42 18.6806 157.137 20.1866C156.864 21.6836 156.727 22.6607 156.727 23.1178C156.727 23.5122 156.996 23.7543 157.533 23.8439C157.652 23.8618 157.748 23.8798 157.821 23.8977C157.93 23.9156 158.021 23.9828 158.094 24.0994C158.176 24.2159 158.217 24.3504 158.217 24.5028C158.217 24.9061 158.076 25.305 157.793 25.6994C157.511 26.0939 157.091 26.4838 156.536 26.8693C155.916 27.2995 155.278 27.6267 154.622 27.8508C153.975 28.0749 153.332 28.187 152.694 28.187C151.947 28.187 151.373 28.0122 150.972 27.6626C150.571 27.304 150.37 26.7931 150.37 26.1297C150.37 25.7443 150.471 24.9554 150.671 23.7632C150.872 22.571 151.013 21.6432 151.095 20.9799L151.382 18.8554C151.391 18.8196 151.396 18.7792 151.396 18.7344C151.405 18.6896 151.409 18.6179 151.409 18.5193C151.409 18.2862 151.355 18.1159 151.245 18.0083C151.145 17.8918 150.986 17.8335 150.767 17.8335C150.12 17.8335 149.618 18.34 149.263 19.3529C148.908 20.3659 148.625 22.1452 148.416 24.691C148.416 24.7269 148.411 24.7762 148.402 24.8389C148.311 26.058 148.024 26.8558 147.541 27.2323C147.185 27.5012 146.67 27.7298 145.996 27.918C145.322 28.0973 144.633 28.187 143.932 28.187C143.276 28.187 142.774 28.0704 142.428 27.8374C142.091 27.6043 141.922 27.2637 141.922 26.8155C141.922 26.4748 142.027 25.7174 142.237 24.5431C142.455 23.3688 142.619 22.4007 142.729 21.6388L143.071 19.2588C143.08 19.205 143.084 19.1468 143.084 19.084C143.093 19.0123 143.098 18.9182 143.098 18.8016C143.098 18.4969 143.039 18.2593 142.92 18.089C142.811 17.9187 142.656 17.8335 142.455 17.8335C141.881 17.8335 141.43 18.2459 141.102 19.0706C140.783 19.8863 140.469 21.697 140.159 24.5028L140.145 24.5969C139.99 26.0132 139.73 26.8827 139.366 27.2054C139.038 27.4923 138.514 27.7298 137.794 27.918C137.074 28.0973 136.272 28.187 135.388 28.187C134.777 28.187 134.322 28.0749 134.021 27.8508C133.72 27.6267 133.57 27.2816 133.57 26.8155C133.57 26.5914 133.675 25.9235 133.884 24.812C134.002 24.2122 134.106 23.649 134.195 23.1222C133.817 23.9293 133.331 24.6762 132.739 25.3629C131.853 26.3948 130.795 27.18 129.566 27.7184C128.346 28.2479 126.995 28.5126 125.513 28.5126C123.362 28.5126 121.654 27.9831 120.388 26.9243C119.496 26.171 118.918 25.237 118.655 24.1222C118.514 24.3467 118.365 24.5667 118.207 24.7823C117.329 25.9938 116.242 26.9184 114.946 27.5561C113.659 28.1938 112.225 28.5126 110.645 28.5126C108.888 28.5126 107.539 28.1619 106.598 27.4604C105.666 26.7499 105.2 25.7388 105.2 24.427V24.1264C105.209 24.0171 105.227 23.844 105.253 23.6072ZM113.295 17.5949C113.037 17.5949 112.811 17.7452 112.616 18.0458C112.421 18.3373 112.203 18.893 111.963 19.7129C111.715 20.6056 111.52 21.4619 111.378 22.2817C111.236 23.1016 111.165 23.7848 111.165 24.3314C111.165 24.632 111.213 24.8688 111.311 25.0419C111.418 25.2059 111.56 25.2878 111.737 25.2878C112.03 25.2878 112.305 25.1148 112.563 24.7686C112.82 24.4133 113.073 23.8759 113.321 23.1562C113.561 22.4639 113.747 21.767 113.881 21.0656C114.014 20.3551 114.08 19.7174 114.08 19.1526C114.08 18.6243 114.018 18.2326 113.894 17.9775C113.77 17.7225 113.57 17.5949 113.295 17.5949ZM126.882 16.5194C127.108 16.3309 127.338 16.2367 127.573 16.2367C127.872 16.2367 128.093 16.3623 128.238 16.6136C128.382 16.8559 128.455 17.2373 128.455 17.7577C128.455 18.6012 128.355 19.6063 128.156 20.7729C127.967 21.9304 127.718 22.9759 127.411 23.9091C127.266 24.3399 127.09 24.6539 126.882 24.8514C126.674 25.0488 126.412 25.1475 126.096 25.1475C125.807 25.1475 125.581 25.0308 125.418 24.7975C125.264 24.5642 125.187 24.2412 125.187 23.8284C125.187 23.4694 125.224 23.0028 125.296 22.4285C125.368 21.8542 125.472 21.2036 125.608 20.4767L125.635 20.3017C125.915 18.7673 126.164 17.7443 126.38 17.2328C126.498 16.9366 126.665 16.6988 126.882 16.5194ZM96.7879 19.4487L95.8521 24.0829C95.7541 24.6099 95.6783 25.0733 95.6249 25.4731C95.5803 25.8638 95.558 26.2182 95.558 26.5362C95.558 27.1814 95.7719 27.6721 96.1997 28.0083C96.6364 28.3445 97.2692 28.5126 98.0981 28.5126C98.8289 28.5126 99.582 28.3717 100.357 28.0901C101.142 27.8084 101.877 27.4131 102.563 26.9043C103 26.5771 103.339 26.2318 103.579 25.8684C103.82 25.5049 103.94 25.1505 103.94 24.8052C103.94 24.5326 103.878 24.3146 103.753 24.151C103.628 23.9875 103.459 23.9057 103.245 23.9057C103.192 23.9057 103.089 23.9193 102.938 23.9466C102.786 23.9647 102.661 23.9738 102.563 23.9738C102.492 23.9738 102.443 23.942 102.416 23.8784C102.39 23.8148 102.376 23.6967 102.376 23.524C102.376 23.3423 102.416 22.9879 102.496 22.4609C102.577 21.9339 102.701 21.216 102.871 20.3074L103.339 17.9085C103.499 17.0544 103.615 16.382 103.686 15.8913C103.758 15.3915 103.793 15.0326 103.793 14.8145C103.793 14.342 103.655 13.974 103.379 13.7105C103.103 13.4379 102.724 13.3016 102.242 13.3016C101.494 13.3016 100.66 13.4197 99.7425 13.656C98.8245 13.8831 97.9778 14.183 97.2024 14.5555C96.6685 14.8199 96.252 15.0977 95.9531 15.3887C95.7493 14.9791 95.4666 14.6157 95.105 14.2984C94.2765 13.5715 93.1704 13.2081 91.7865 13.2081C90.3845 13.2081 89.078 13.4594 87.8672 13.9619C86.6654 14.4554 85.5956 15.1868 84.6579 16.1559C84.2634 16.5637 83.9059 16.9921 83.5855 17.4412C83.6273 17.1807 83.6483 16.9163 83.6483 16.6479C83.6483 15.564 83.2576 14.722 82.4763 14.1218C81.6951 13.5127 80.5958 13.2081 79.1786 13.2081C77.8795 13.2081 76.6168 13.4186 75.3903 13.8396C74.173 14.2517 73.0737 14.8474 72.0926 15.6267C71.3999 16.1712 70.7911 16.7552 70.2663 17.3787C70.2871 17.1957 70.2975 17.0061 70.2975 16.8101C70.2975 15.7227 70.0241 14.8528 69.4772 14.2003C68.9304 13.5389 68.2131 13.2081 67.3256 13.2081C66.7787 13.2081 66.308 13.344 65.9136 13.6159C65.5281 13.8877 65.1919 14.3182 64.905 14.9072C64.8512 15.0159 64.7884 15.1699 64.7167 15.3693C64.5554 15.7861 64.3895 15.9945 64.2192 15.9945C64.1026 15.9945 63.995 15.7997 63.8964 15.4101C63.8157 15.0929 63.7395 14.8347 63.6678 14.6353C63.4706 14.0735 63.2733 13.6974 63.0761 13.5071C62.8789 13.3078 62.6054 13.2081 62.2558 13.2081C61.7448 13.2081 61.1351 13.3304 60.4269 13.5751C59.7186 13.8198 58.9969 14.1641 58.2618 14.6081C57.6791 14.9615 57.2577 15.3013 56.9977 15.6276C56.7467 15.9447 56.6212 16.2891 56.6212 16.6606C56.6212 16.9324 56.7019 17.1499 56.8632 17.313C57.0336 17.4761 57.2622 17.5577 57.5491 17.5577C57.6208 17.5577 57.7104 17.5486 57.818 17.5305C57.9346 17.5124 58.0197 17.5033 58.0735 17.5033C58.2887 17.5033 58.4321 17.5441 58.5039 17.6256C58.5846 17.7072 58.6249 17.8612 58.6249 18.0878C58.6249 19.3383 58.3963 20.9694 57.9391 22.9811C57.4818 24.9837 57.2532 26.3203 57.2532 26.9908C57.2532 27.4711 57.3922 27.7928 57.6701 27.9559C57.957 28.1099 58.5487 28.187 59.4452 28.187C60.5031 28.187 61.4131 28.0692 62.1751 27.8336C62.9461 27.598 63.4526 27.2899 63.6947 26.9093C63.8202 26.7099 63.9636 25.8762 64.125 24.4083C64.2864 22.9312 64.4433 21.6762 64.5957 20.6432L64.905 18.7266V18.6994C64.9588 18.3642 65.0484 18.1965 65.1739 18.1965C65.3174 18.1965 65.425 18.3551 65.4967 18.6723C65.5326 18.8716 65.5729 19.0257 65.6177 19.1344C65.7881 19.5059 66.0391 19.7914 66.3708 19.9907C66.7025 20.1901 67.088 20.2898 67.5273 20.2898C67.9314 20.2898 68.3017 20.201 68.6384 20.0235C68.2249 21.0153 68.0181 22.0176 68.0181 23.0304C68.0181 24.7951 68.5814 26.1522 69.7079 27.1017C70.8435 28.0423 72.4742 28.5126 74.6 28.5126C75.8173 28.5126 76.9801 28.3469 78.0885 28.0154C79.2059 27.684 80.237 27.1958 81.1818 26.5508C81.6724 26.2194 82.0221 25.9148 82.2311 25.6371L82.2361 25.6307C82.4978 26.1717 82.8544 26.6478 83.3059 27.0589C84.3893 28.028 85.8915 28.5126 87.8125 28.5126C88.9415 28.5126 90.0704 28.3197 91.1993 27.9338C92.3282 27.5479 93.3433 27.014 94.2447 26.332C94.5997 26.0628 94.8683 25.7891 95.0504 25.5109C95.2416 25.2238 95.3372 24.9456 95.3372 24.6764C95.3372 24.2277 95.2143 23.8329 94.9684 23.4919C94.7317 23.1419 94.4632 22.9669 94.1627 22.9669C93.8805 22.9669 93.4116 23.1598 92.7561 23.5457C92.5922 23.6444 92.4648 23.7162 92.3737 23.7611C91.8275 24.0662 91.3814 24.277 91.0354 24.3937C90.6986 24.5104 90.389 24.5687 90.1068 24.5687C89.6607 24.5687 89.3284 24.3713 89.1099 23.9764C88.9005 23.5816 88.7958 22.9624 88.7958 22.1189C88.7958 20.6113 89.0279 19.2743 89.4923 18.1077C89.9657 16.9411 90.4528 16.3578 90.9535 16.3578C91.09 16.3578 91.2084 16.4072 91.3085 16.5059C91.4087 16.6046 91.4588 16.7258 91.4588 16.8693C91.4588 16.986 91.3814 17.2552 91.2266 17.677C91.0809 18.0897 91.0081 18.4577 91.0081 18.7807C91.0081 19.3281 91.2038 19.7858 91.5953 20.1537C91.9959 20.5216 92.4967 20.7056 93.0975 20.7056C94.0079 20.7056 94.7773 20.3735 95.4054 19.7095C95.9616 19.1137 96.2715 18.3913 96.3353 17.5423C96.3981 17.5522 96.4643 17.5607 96.5339 17.5678C96.8459 17.6041 97.0019 17.7813 97.0019 18.0993C97.0019 18.1993 96.9885 18.3401 96.9617 18.5219C96.935 18.6945 96.8771 19.0034 96.7879 19.4487ZM81.6945 23.0207C81.6945 22.1203 81.84 21.2198 82.131 20.3194C81.1898 21.3603 79.9922 22.0893 78.5382 22.5063C77.8659 22.7034 77.1255 22.8333 76.317 22.896C75.5084 22.9498 75.1042 23.0483 75.1042 23.1916C75.1042 23.5679 75.2813 23.9038 75.6356 24.1994C75.9899 24.486 76.4078 24.6294 76.8893 24.6294C77.6887 24.6294 78.579 24.3785 79.5602 23.8769C80.5413 23.3663 81.1227 23.111 81.3044 23.111C81.4442 23.111 81.5748 23.1354 81.6961 23.1842C81.695 23.1301 81.6945 23.0756 81.6945 23.0207ZM97.1757 12.2521C97.6302 12.561 98.2318 12.7155 98.9804 12.7155C100.451 12.7155 101.734 12.3657 102.831 11.666C103.936 10.9572 104.488 10.1713 104.488 9.30803C104.488 8.83552 104.243 8.4448 103.753 8.13585C103.263 7.82691 102.63 7.67244 101.855 7.67244C101.284 7.67244 100.678 7.7633 100.037 7.94504C99.4038 8.11768 98.8245 8.35848 98.2986 8.66742C97.6926 9.0218 97.238 9.39435 96.935 9.78508C96.6409 10.1758 96.4938 10.5847 96.4938 11.0118C96.4938 11.5206 96.7211 11.9341 97.1757 12.2521ZM75.2404 19.6174C75.2404 19.7966 75.2722 19.9354 75.3358 20.034C75.3994 20.1236 75.4903 20.1684 75.6084 20.1684C76.1171 20.1684 76.6213 19.8011 77.1209 19.0665C77.6206 18.332 77.8704 17.5437 77.8704 16.7017C77.8704 16.4956 77.8296 16.3299 77.7478 16.2045C77.666 16.0791 77.557 16.0164 77.4207 16.0164C77.0392 16.0164 76.5804 16.4464 76.0444 17.3063C75.5084 18.1573 75.2404 18.9277 75.2404 19.6174ZM96.1958 35.169C96.231 34.7763 96.2603 34.4071 96.2837 34.0613C96.3013 33.7623 96.316 33.4663 96.3277 33.1733C96.3394 32.8802 96.3394 32.6575 96.3277 32.5051C96.316 32.3586 96.3482 32.2237 96.4244 32.1007C96.5065 31.9776 96.6002 31.8721 96.7057 31.7842C96.8112 31.6962 96.9168 31.6288 97.0223 31.5819C97.1278 31.535 97.204 31.5116 97.2508 31.5116C97.2977 31.5116 97.3241 31.6288 97.33 31.8633C97.3417 32.0977 97.3417 32.4025 97.33 32.7776C97.3241 33.1469 97.3124 33.566 97.2948 34.0349C97.2831 34.5038 97.2802 34.9756 97.286 35.4504C97.2919 35.89 97.3183 36.2475 97.3651 36.523C97.412 36.7985 97.4706 37.0154 97.541 37.1736C97.6172 37.326 97.6963 37.4344 97.7784 37.4989C97.8604 37.5634 97.9396 37.6073 98.0157 37.6308C98.0919 37.6484 98.1564 37.6601 98.2092 37.666C98.2619 37.6718 98.2971 37.6923 98.3147 37.7275C98.3381 37.7803 98.3176 37.8477 98.2531 37.9297C98.1945 38.0118 98.1037 38.0821 97.9806 38.1407C97.8633 38.1993 97.7227 38.2316 97.5586 38.2374C97.3944 38.2374 97.2215 38.1876 97.0398 38.088C96.8874 38.0059 96.7732 37.8975 96.697 37.7627C96.6208 37.622 96.568 37.4843 96.5387 37.3494C96.5035 37.1971 96.4889 37.0388 96.4947 36.8747C96.3658 37.1091 96.2134 37.3143 96.0376 37.4901C95.9614 37.5663 95.8764 37.6396 95.7826 37.7099C95.6888 37.7803 95.5862 37.8418 95.4749 37.8946C95.3635 37.9473 95.2434 37.9883 95.1144 38.0176C94.9855 38.0469 94.8477 38.0557 94.7012 38.044C94.6296 38.0387 94.5611 38.0232 94.4956 37.9976C94.4467 38.0844 94.3746 38.1731 94.2791 38.2638C94.1678 38.3752 94.0242 38.469 93.8483 38.5452C93.6784 38.6272 93.482 38.6536 93.2593 38.6243C92.8197 38.5657 92.5032 38.34 92.3097 37.9473C92.1163 37.5487 92.005 37.03 91.9756 36.3911C91.9639 36.1625 91.9346 35.9926 91.8877 35.8812C91.8467 35.7698 91.791 35.7112 91.7207 35.7054C91.6503 35.6995 91.5683 35.7405 91.4745 35.8284C91.3866 35.9105 91.2899 36.0307 91.1844 36.1889C91.0613 36.3706 90.9704 36.5523 90.9118 36.734C90.8532 36.9157 90.8122 37.0857 90.7887 37.2439C90.7711 37.4022 90.7594 37.5429 90.7536 37.666C90.7477 37.7891 90.733 37.8799 90.7096 37.9385C90.6803 38.003 90.6188 38.0469 90.525 38.0704C90.4312 38.0938 90.3286 38.1056 90.2173 38.1056C90.1118 38.1056 90.0062 38.0938 89.9007 38.0704C89.8011 38.0469 89.7308 38.0176 89.6897 37.9825C89.6744 37.9671 89.6602 37.9264 89.6474 37.8605C89.5089 37.9931 89.336 38.0983 89.1289 38.1759C89.0058 38.2228 88.8915 38.2463 88.786 38.2463C88.6805 38.2463 88.5838 38.2316 88.4959 38.2023C88.4138 38.173 88.3405 38.132 88.2761 38.0792C88.2116 38.0265 88.153 37.9679 88.1002 37.9034C87.983 37.7568 87.8892 37.5751 87.8189 37.3583C87.7603 37.499 87.6782 37.622 87.5727 37.7275C87.4848 37.8213 87.3705 37.9092 87.2298 37.9913C87.0892 38.0675 86.9163 38.1115 86.7111 38.1232C86.506 38.129 86.3125 38.0646 86.1308 37.9298C85.9491 37.7949 85.8026 37.6132 85.6912 37.3847C85.5857 37.1561 85.5271 36.8923 85.5154 36.5934C85.5095 36.2886 85.577 35.9692 85.7176 35.6351C85.8114 35.4182 85.9345 35.2336 86.0869 35.0812C86.2393 34.9288 86.4005 34.8057 86.5704 34.7119C86.7463 34.6123 86.9192 34.5419 87.0892 34.5009C87.265 34.454 87.4203 34.4276 87.5551 34.4218C87.6958 34.4159 87.8072 34.4276 87.8892 34.4569C87.9771 34.4804 88.0152 34.5156 88.0035 34.5624C87.9859 34.6386 87.9361 34.7031 87.8541 34.7559C87.772 34.8028 87.6782 34.8526 87.5727 34.9053C87.4672 34.9581 87.3588 35.0167 87.2474 35.0812C87.1361 35.1456 87.0423 35.2306 86.9661 35.3361C86.8488 35.5061 86.7668 35.7083 86.7199 35.9428C86.673 36.1772 86.6496 36.4029 86.6496 36.6198C86.6554 36.8308 86.6818 37.0154 86.7287 37.1736C86.7814 37.326 86.8459 37.4022 86.9221 37.4022C87.0159 37.4022 87.1126 37.3583 87.2122 37.2704C87.3177 37.1824 87.4115 37.0828 87.4936 36.9714C87.5756 36.8542 87.6431 36.737 87.6958 36.6198C87.7486 36.4967 87.7749 36.4029 87.7749 36.3384C87.7749 36.2739 87.772 36.186 87.7661 36.0747C87.7603 35.9574 87.7603 35.8431 87.7661 35.7318C87.7779 35.6204 87.7954 35.5237 87.8189 35.4416C87.8482 35.3596 87.8951 35.3156 87.9596 35.3098C88.024 35.3039 88.1002 35.2892 88.1882 35.2658C88.2819 35.2424 88.3699 35.2394 88.4519 35.257C88.534 35.2746 88.5984 35.3332 88.6453 35.4328C88.6981 35.5266 88.7186 35.6907 88.7069 35.9252C88.6893 36.4 88.7127 36.7604 88.7772 37.0066C88.8417 37.2469 88.9677 37.3876 89.1553 37.4286C89.2842 37.4521 89.3985 37.4228 89.4982 37.3407C89.5344 37.3105 89.5692 37.2793 89.6027 37.247L89.6018 37.2176C89.596 37.0124 89.593 36.7956 89.593 36.567C89.5989 36.3325 89.6048 36.1127 89.6106 35.9076C89.6223 35.6966 89.637 35.5149 89.6546 35.3625C89.6722 35.2101 89.6927 35.1134 89.7161 35.0723C89.7513 35.0137 89.8011 34.961 89.8656 34.9141C89.9359 34.8613 90.0062 34.8174 90.0766 34.7822C90.1528 34.7412 90.2261 34.7119 90.2964 34.6943C90.3726 34.6708 90.4341 34.6591 90.481 34.6591C90.5045 34.6591 90.522 34.6826 90.5338 34.7295C90.5514 34.7763 90.566 34.8379 90.5777 34.9141C90.5953 34.9903 90.607 35.0782 90.6129 35.1778C90.6188 35.2716 90.6246 35.3683 90.6305 35.468C90.6422 35.7024 90.6451 35.9691 90.6393 36.268C90.7155 36.1157 90.7975 35.9662 90.8854 35.8197C90.9616 35.6966 91.0496 35.5706 91.1492 35.4416C91.2488 35.3068 91.3514 35.1925 91.4569 35.0987C91.5566 35.0108 91.665 34.9434 91.7822 34.8965C91.9053 34.8496 92.0284 34.832 92.1515 34.8438C92.2746 34.8496 92.3918 34.8936 92.5032 34.9756C92.6204 35.0577 92.723 35.1808 92.8109 35.3449C92.8695 35.4563 92.9135 35.5969 92.9428 35.7669C92.9721 35.931 92.9926 36.1069 93.0043 36.2944C93.0219 36.4761 93.0365 36.6608 93.0483 36.8483C93.0658 37.0359 93.0922 37.2088 93.1274 37.367C93.1684 37.5253 93.2212 37.6601 93.2856 37.7715C93.356 37.8828 93.4556 37.9532 93.5846 37.9825C93.6901 38.0118 93.7926 38.0147 93.8923 37.9913C93.9978 37.962 94.0945 37.9268 94.1824 37.8858C94.209 37.8725 94.2344 37.8599 94.2586 37.848C94.1405 37.7329 94.039 37.5931 93.9539 37.4286C93.8718 37.2527 93.8103 37.0593 93.7692 36.8483C93.7341 36.6314 93.7224 36.4175 93.7341 36.2065C93.7458 35.9896 93.7868 35.7845 93.8572 35.5911C93.9275 35.3918 94.0301 35.2218 94.1649 35.0811C94.2645 34.9815 94.37 34.9053 94.4814 34.8525C94.5928 34.7998 94.7041 34.7675 94.8155 34.7558C94.9327 34.7382 95.047 34.7382 95.1584 34.7558C95.2756 34.7675 95.384 34.7881 95.4837 34.8174C95.7181 34.8877 95.9555 35.0049 96.1958 35.169ZM94.8243 35.9603C94.7715 36.101 94.7364 36.2505 94.7188 36.4087C94.707 36.5611 94.7041 36.7018 94.71 36.8307C94.7217 36.9597 94.7422 37.0681 94.7715 37.156C94.8008 37.2439 94.836 37.2908 94.877 37.2967C94.9591 37.3201 95.0441 37.3026 95.132 37.2439C95.2258 37.1853 95.3489 37.0652 95.5013 36.8835C95.5716 36.7897 95.6419 36.6754 95.7123 36.5406C95.7885 36.4058 95.85 36.2739 95.8969 36.145C95.9496 36.016 95.9819 35.9017 95.9936 35.8021C96.0053 35.7024 95.9907 35.6438 95.9496 35.6262C95.9027 35.6086 95.8266 35.5911 95.7211 35.5735C95.6214 35.5559 95.513 35.553 95.3958 35.5647C95.2844 35.5764 95.173 35.6116 95.0617 35.6702C94.9562 35.7229 94.877 35.8197 94.8243 35.9603ZM153.047 34.4745C152.913 34.5859 152.801 34.7207 152.713 34.8789C152.59 35.0841 152.499 35.2863 152.441 35.4856C152.388 35.6849 152.356 35.8607 152.344 36.0131C152.321 36.1948 152.321 36.3677 152.344 36.5318C152.368 36.7344 152.409 36.9244 152.467 37.1018C152.46 37.1029 152.451 37.1045 152.443 37.1067C152.436 37.1082 152.43 37.11 152.423 37.1121C152.377 37.1297 152.312 37.1707 152.23 37.2352C152.154 37.2996 152.06 37.3612 151.949 37.4198C151.837 37.4725 151.711 37.5106 151.571 37.5341C151.43 37.5575 151.272 37.5341 151.096 37.4637C150.973 37.411 150.873 37.3143 150.797 37.1736C150.727 37.0329 150.677 36.8688 150.647 36.6813C150.624 36.4878 150.624 36.2856 150.647 36.0746C150.677 35.8636 150.727 35.6643 150.797 35.4768C150.873 35.2892 150.973 35.1632 151.096 35.0987C151.219 35.0284 151.342 34.9903 151.465 34.9844C151.588 34.9727 151.697 34.9756 151.79 34.9932C151.884 35.0049 151.94 34.9961 151.957 34.9668C151.987 34.9141 151.957 34.8379 151.87 34.7382C151.782 34.6327 151.656 34.5478 151.491 34.4833C151.333 34.4188 151.146 34.3895 150.929 34.3954C150.718 34.4012 150.501 34.4833 150.278 34.6415C150.044 34.8174 149.859 35.0196 149.724 35.2482C149.595 35.4709 149.507 35.7024 149.461 35.9427C149.42 36.1831 149.417 36.4234 149.452 36.6637C149.493 36.904 149.56 37.1297 149.654 37.3407C149.754 37.5458 149.88 37.7275 150.032 37.8858C150.184 38.044 150.354 38.1583 150.542 38.2286C150.741 38.3048 150.929 38.34 151.105 38.3341C151.286 38.3283 151.453 38.2961 151.606 38.2374C151.758 38.1788 151.896 38.1026 152.019 38.0088C152.142 37.9092 152.245 37.8066 152.327 37.7011C152.444 37.5563 152.52 37.4324 152.554 37.3295L152.555 37.3319C152.643 37.5429 152.772 37.748 152.942 37.9473C153.112 38.1407 153.337 38.2726 153.619 38.3429C153.929 38.425 154.196 38.4367 154.419 38.3781C154.642 38.3254 154.826 38.2345 154.973 38.1056C155.125 37.9766 155.242 37.8272 155.324 37.6572C155.407 37.4813 155.462 37.3172 155.492 37.1648C155.527 37.0066 155.538 36.8747 155.527 36.7692C155.515 36.6578 155.489 36.6021 155.448 36.6021C155.389 36.6021 155.33 36.649 155.272 36.7428C155.213 36.8307 155.137 36.9333 155.043 37.0505C154.955 37.1678 154.844 37.2791 154.709 37.3846C154.574 37.4901 154.401 37.5575 154.19 37.5868C154.091 37.5986 154.003 37.5927 153.927 37.5693C153.856 37.5458 153.795 37.5106 153.742 37.4638C153.689 37.4169 153.645 37.3612 153.61 37.2967C153.581 37.2322 153.557 37.1648 153.54 37.0945C153.493 36.9304 153.475 36.7399 153.487 36.523C153.657 36.5347 153.827 36.5142 153.997 36.4615C154.143 36.4146 154.302 36.3413 154.472 36.2417C154.647 36.1362 154.817 35.9721 154.982 35.7493C155.128 35.55 155.219 35.3508 155.254 35.1515C155.295 34.9522 155.289 34.7705 155.237 34.6064C155.19 34.4364 155.105 34.2987 154.982 34.1932C154.858 34.0818 154.709 34.0202 154.533 34.0085C154.363 34.0027 154.187 34.0144 154.006 34.0437C153.83 34.073 153.66 34.1228 153.496 34.1932C153.337 34.2635 153.188 34.3573 153.047 34.4745ZM153.795 35.8285C153.695 35.8519 153.598 35.8636 153.505 35.8636C153.505 35.8226 153.513 35.7698 153.531 35.7054C153.543 35.6468 153.566 35.5735 153.601 35.4856C153.636 35.3977 153.689 35.2892 153.76 35.1603C153.818 35.0489 153.894 34.9639 153.988 34.9053C154.082 34.8408 154.176 34.7939 154.269 34.7646C154.375 34.7295 154.486 34.706 154.604 34.6943C154.615 34.7529 154.612 34.8174 154.595 34.8877C154.583 34.9522 154.56 35.0313 154.524 35.1251C154.489 35.2189 154.431 35.3244 154.349 35.4416C154.261 35.5588 154.167 35.6468 154.067 35.7054C153.968 35.764 153.877 35.805 153.795 35.8285ZM153.698 32.9095C153.751 32.8333 153.812 32.7542 153.883 32.6721C153.959 32.7073 154.041 32.7689 154.129 32.8568C154.223 32.9447 154.316 33.0297 154.41 33.1117C154.51 33.1938 154.604 33.2583 154.691 33.3052C154.785 33.3521 154.867 33.3521 154.938 33.3052C155.008 33.2583 155.023 33.1762 154.982 33.059C154.941 32.9418 154.873 32.8187 154.779 32.6897C154.686 32.5549 154.58 32.4289 154.463 32.3117C154.346 32.1945 154.246 32.1124 154.164 32.0655C154.047 32.0069 153.947 31.9659 153.865 31.9424C153.783 31.919 153.71 31.919 153.645 31.9424C153.581 31.96 153.522 32.004 153.469 32.0743C153.422 32.1388 153.373 32.2326 153.32 32.3556C153.291 32.4084 153.253 32.4875 153.206 32.593C153.165 32.6985 153.129 32.804 153.1 32.9095C153.077 33.015 153.068 33.1059 153.074 33.1821C153.085 33.2583 153.129 33.2905 153.206 33.2788C153.282 33.2729 153.346 33.2553 153.399 33.226C153.458 33.1909 153.51 33.1469 153.557 33.0942C153.604 33.0414 153.651 32.9799 153.698 32.9095ZM157.15 37.1736C157.074 37.1268 156.995 37.1033 156.913 37.1033C156.86 37.1326 156.784 37.1561 156.684 37.1736C156.59 37.1912 156.497 37.2205 156.403 37.2616C156.315 37.2967 156.242 37.3495 156.183 37.4198C156.124 37.4902 156.104 37.5898 156.121 37.7187C156.157 37.9473 156.23 38.1027 156.341 38.1847C156.458 38.2668 156.584 38.299 156.719 38.2814C156.854 38.2697 156.983 38.2199 157.106 38.132C157.235 38.044 157.329 37.9473 157.387 37.8418C157.428 37.7656 157.443 37.6836 157.431 37.5957C157.42 37.5077 157.387 37.4286 157.335 37.3583C157.288 37.2821 157.226 37.2205 157.15 37.1736ZM149.005 35.3185C148.858 35.0782 148.65 34.876 148.381 34.7119C148.316 34.6767 148.272 34.665 148.249 34.6767L148.143 34.747C148.091 34.7764 148.006 34.8115 147.888 34.8526C147.771 34.8877 147.584 34.9141 147.326 34.9317C147.044 34.9493 146.81 35.046 146.622 35.2218C146.435 35.3977 146.3 35.6116 146.218 35.8636C146.136 36.1098 146.107 36.3765 146.13 36.6637C146.148 36.945 146.218 37.2059 146.341 37.4462C146.464 37.6865 146.64 37.8858 146.869 38.044C147.103 38.1964 147.39 38.2697 147.73 38.2638C148 38.258 148.24 38.1876 148.451 38.0528C148.662 37.918 148.835 37.748 148.97 37.5429C149.111 37.3319 149.21 37.0974 149.269 36.8395C149.327 36.5816 149.333 36.3237 149.286 36.0658C149.245 35.8021 149.152 35.553 149.005 35.3185ZM147.264 35.7317C147.288 35.5969 147.317 35.5119 147.352 35.4768C147.469 35.3654 147.584 35.3185 147.695 35.3361C147.812 35.3478 147.953 35.4387 148.117 35.6087C148.187 35.679 148.237 35.7816 148.266 35.9164C148.296 36.0512 148.305 36.2006 148.293 36.3648C148.287 36.5289 148.264 36.6989 148.223 36.8747C148.187 37.0447 148.138 37.2029 148.073 37.3495C148.014 37.4901 147.947 37.6103 147.871 37.7099C147.795 37.8037 147.716 37.8565 147.633 37.8682C147.551 37.8799 147.481 37.833 147.422 37.7275C147.364 37.622 147.317 37.4872 147.282 37.3231C147.252 37.159 147.232 36.9773 147.22 36.778C147.209 36.5787 147.206 36.3882 147.211 36.2065C147.223 36.0248 147.241 35.8666 147.264 35.7317ZM142.888 34.58C143.016 34.5156 143.148 34.4862 143.283 34.4921C143.424 34.4921 143.547 34.5156 143.652 34.5624C143.764 34.6093 143.852 34.6709 143.916 34.7471C143.981 34.8233 144.007 34.9024 143.995 34.9845C143.948 35.3889 143.945 35.7669 143.987 36.1186C144.033 36.4644 144.095 36.7604 144.171 37.0066C144.247 37.2469 144.326 37.4228 144.409 37.5341C144.491 37.6455 144.552 37.666 144.593 37.5957C144.634 37.5253 144.672 37.3817 144.707 37.1649C144.743 36.9421 144.792 36.6989 144.857 36.4351C144.927 36.1655 145.024 35.9018 145.147 35.6439C145.276 35.386 145.452 35.1837 145.675 35.0372C145.868 34.9141 145.997 34.8731 146.061 34.9141C146.132 34.9552 146.161 35.0489 146.149 35.1955C146.138 35.342 146.1 35.5266 146.035 35.7494C145.976 35.9662 145.915 36.189 145.85 36.4175C145.809 36.5699 145.751 36.7487 145.675 36.9539C145.598 37.1531 145.51 37.3495 145.411 37.5429C145.317 37.7305 145.212 37.8975 145.094 38.0441C144.983 38.1847 144.872 38.2668 144.76 38.2902C144.549 38.3371 144.365 38.3342 144.206 38.2814C144.054 38.2345 143.919 38.1613 143.802 38.0616C143.685 37.962 143.579 37.8477 143.485 37.7188C143.397 37.5898 143.315 37.4638 143.239 37.3407C143.186 37.2645 143.128 37.1502 143.063 36.9978C143.005 36.8396 142.946 36.6666 142.888 36.4791C142.835 36.2857 142.788 36.0864 142.747 35.8812C142.706 35.6761 142.679 35.4856 142.668 35.3098C142.662 35.1281 142.674 34.9727 142.703 34.8438C142.738 34.709 142.8 34.6211 142.888 34.58ZM133.449 34.3426C133.361 34.3016 133.261 34.284 133.15 34.2898C133.091 34.3016 133.044 34.3924 133.009 34.5624C132.98 34.7324 132.959 34.9463 132.947 35.2042C132.941 35.4562 132.944 35.7346 132.956 36.0394C132.974 36.3384 133 36.6226 133.035 36.8923C133.07 37.1619 133.117 37.3993 133.176 37.6044C133.235 37.8037 133.302 37.9326 133.378 37.9912C133.501 38.0792 133.624 38.1319 133.747 38.1495C133.871 38.1612 133.979 38.1495 134.073 38.1143C134.167 38.0792 134.243 38.0264 134.301 37.9561C134.36 37.8857 134.389 37.8066 134.389 37.7187C134.389 37.6308 134.386 37.4842 134.38 37.2791C134.375 37.074 134.38 36.8512 134.398 36.6109C134.416 36.3706 134.451 36.1361 134.504 35.9076C134.556 35.6731 134.644 35.4885 134.767 35.3537C135.013 35.0723 135.213 34.9053 135.365 34.8525C135.523 34.7939 135.635 34.8349 135.699 34.9756C135.717 35.0284 135.731 35.1192 135.743 35.2482C135.761 35.3712 135.775 35.5207 135.787 35.6965C135.805 35.8724 135.825 36.0599 135.849 36.2592C135.878 36.4585 135.913 36.6578 135.954 36.8571C136.001 37.0505 136.057 37.2351 136.121 37.411C136.192 37.581 136.279 37.7216 136.385 37.833C136.543 38.003 136.687 38.1055 136.816 38.1407C136.945 38.17 137.059 38.1554 137.159 38.0967C137.264 38.0381 137.358 37.9502 137.44 37.833C137.528 37.7158 137.607 37.5927 137.677 37.4637C137.748 37.3348 137.818 37.1824 137.888 37.0065C137.959 36.8248 138.026 36.6637 138.091 36.523C138.155 36.3765 138.214 36.271 138.266 36.2065C138.319 36.142 138.363 36.1625 138.398 36.268C138.422 36.3384 138.454 36.4409 138.495 36.5757C138.542 36.7106 138.598 36.8629 138.662 37.0329C138.732 37.197 138.815 37.367 138.908 37.5429C139.008 37.7128 139.119 37.8682 139.242 38.0088C139.365 38.1495 139.503 38.2667 139.656 38.3605C139.808 38.4543 139.978 38.5012 140.166 38.5012C140.359 38.5012 140.511 38.466 140.623 38.3957C140.74 38.3312 140.816 38.2609 140.851 38.1847C140.886 38.1085 140.884 38.0411 140.843 37.9825C140.801 37.9238 140.728 37.9063 140.623 37.9297C140.482 37.959 140.365 37.9619 140.271 37.9385C140.183 37.915 140.11 37.8594 140.051 37.7714C139.998 37.6835 139.955 37.5634 139.919 37.411C139.89 37.2586 139.867 37.0681 139.849 36.8395C139.831 36.6168 139.796 36.4058 139.744 36.2065C139.691 36.0013 139.623 35.8167 139.541 35.6526C139.465 35.4826 139.374 35.339 139.269 35.2218C139.169 35.0987 139.064 35.0049 138.952 34.9404C138.788 34.8525 138.63 34.8408 138.477 34.9053C138.325 34.9697 138.184 35.0752 138.055 35.2218C137.927 35.3625 137.815 35.5266 137.721 35.7141C137.628 35.8958 137.557 36.0599 137.51 36.2065C137.417 36.482 137.355 36.5963 137.326 36.5494C137.296 36.4966 137.255 36.3149 137.203 36.0043C137.167 35.8519 137.135 35.6936 137.106 35.5295C137.077 35.3595 137.03 35.2013 136.965 35.0547C136.907 34.9023 136.819 34.7646 136.702 34.6415C136.59 34.5184 136.435 34.4217 136.236 34.3514C136.03 34.2752 135.849 34.24 135.69 34.2459C135.532 34.2517 135.386 34.2869 135.251 34.3514C135.122 34.41 135.005 34.4891 134.899 34.5888C134.794 34.6884 134.694 34.7939 134.6 34.9053C134.407 35.1397 134.275 35.3185 134.205 35.4416C134.152 35.5178 134.111 35.5852 134.082 35.6438C134.064 35.3859 134.023 35.1573 133.958 34.958C133.929 34.8701 133.891 34.7851 133.844 34.7031C133.797 34.621 133.742 34.5507 133.677 34.4921C133.613 34.4276 133.536 34.3778 133.449 34.3426ZM129.943 34.9229C130.025 34.7646 130.133 34.6269 130.268 34.5096C130.403 34.3924 130.549 34.2986 130.708 34.2283C130.872 34.1521 131.042 34.0964 131.218 34.0613C131.399 34.0261 131.575 34.0085 131.745 34.0085C131.921 34.0202 132.07 34.0788 132.194 34.1843C132.323 34.284 132.413 34.4159 132.466 34.58C132.519 34.7382 132.528 34.917 132.492 35.1163C132.463 35.3156 132.378 35.5178 132.238 35.7229C132.085 35.9457 131.921 36.1127 131.745 36.2241C131.575 36.3354 131.417 36.4146 131.27 36.4615C131.1 36.5201 130.933 36.5464 130.769 36.5406C130.763 36.7633 130.787 36.9538 130.84 37.1121C130.863 37.1824 130.889 37.2498 130.919 37.3143C130.954 37.3729 130.998 37.4256 131.051 37.4725C131.103 37.5194 131.168 37.5546 131.244 37.578C131.32 37.5956 131.408 37.5956 131.508 37.578C131.719 37.5429 131.889 37.4667 132.018 37.3494C132.153 37.2264 132.264 37.1033 132.352 36.9802C132.44 36.8571 132.51 36.7516 132.563 36.6637C132.621 36.5699 132.677 36.5347 132.73 36.5582C132.794 36.5875 132.827 36.6607 132.827 36.778C132.832 36.8952 132.806 37.0329 132.747 37.1912C132.689 37.3494 132.601 37.5136 132.484 37.6835C132.372 37.8476 132.229 37.9883 132.053 38.1055C131.877 38.2228 131.675 38.3019 131.446 38.3429C131.218 38.3898 130.963 38.3693 130.681 38.2814C130.453 38.211 130.262 38.0997 130.11 37.9473C129.957 37.7949 129.837 37.6191 129.749 37.4198C129.661 37.2205 129.603 37.0066 129.574 36.778C129.544 36.5494 129.538 36.3237 129.556 36.101C129.579 35.8724 129.623 35.6555 129.688 35.4504C129.758 35.2452 129.843 35.0694 129.943 34.9229ZM130.76 35.8812C130.837 35.8695 130.922 35.846 131.015 35.8108C131.097 35.7815 131.185 35.7376 131.279 35.679C131.379 35.6204 131.484 35.5383 131.596 35.4328C131.701 35.3332 131.772 35.2364 131.807 35.1427C131.848 35.0489 131.871 34.9698 131.877 34.9053C131.883 34.8291 131.871 34.7587 131.842 34.6943C131.76 34.6708 131.672 34.6708 131.578 34.6943C131.496 34.7177 131.405 34.7646 131.306 34.8349C131.206 34.9053 131.103 35.0166 130.998 35.169C130.916 35.2863 130.857 35.3918 130.822 35.4855C130.787 35.5735 130.763 35.6467 130.752 35.7053C130.74 35.7757 130.743 35.8343 130.76 35.8812ZM124.668 34.5096C124.533 34.6269 124.424 34.7646 124.342 34.9229C124.243 35.0694 124.158 35.2452 124.087 35.4504C124.023 35.6555 123.979 35.8724 123.956 36.101C123.938 36.3237 123.944 36.5494 123.973 36.778C124.002 37.0066 124.061 37.2205 124.149 37.4198C124.237 37.6191 124.357 37.7949 124.509 37.9473C124.662 38.0997 124.852 38.211 125.081 38.2814C125.362 38.3693 125.617 38.3898 125.846 38.3429C126.074 38.3019 126.277 38.2228 126.452 38.1055C126.628 37.9883 126.772 37.8476 126.883 37.6835C127 37.5136 127.088 37.3494 127.147 37.1912C127.206 37.0329 127.232 36.8952 127.226 36.778C127.226 36.6607 127.194 36.5875 127.129 36.5582C127.077 36.5347 127.021 36.5699 126.962 36.6637C126.91 36.7516 126.839 36.8571 126.751 36.9802C126.663 37.1033 126.552 37.2264 126.417 37.3494C126.288 37.4667 126.118 37.5429 125.907 37.578C125.808 37.5956 125.72 37.5956 125.644 37.578C125.567 37.5546 125.503 37.5194 125.45 37.4725C125.397 37.4256 125.353 37.3729 125.318 37.3143C125.289 37.2498 125.263 37.1824 125.239 37.1121C125.186 36.9538 125.163 36.7633 125.169 36.5406C125.333 36.5464 125.5 36.5201 125.67 36.4615C125.816 36.4146 125.975 36.3354 126.145 36.2241C126.321 36.1127 126.485 35.9457 126.637 35.7229C126.778 35.5178 126.863 35.3156 126.892 35.1163C126.927 34.917 126.918 34.7382 126.866 34.58C126.813 34.4159 126.722 34.284 126.593 34.1843C126.47 34.0788 126.321 34.0202 126.145 34.0085C125.975 34.0085 125.799 34.0261 125.617 34.0613C125.441 34.0964 125.271 34.1521 125.107 34.2283C124.949 34.2986 124.802 34.3924 124.668 34.5096ZM125.415 35.8108C125.321 35.846 125.236 35.8695 125.16 35.8812C125.142 35.8343 125.139 35.7757 125.151 35.7053C125.163 35.6467 125.186 35.5735 125.222 35.4855C125.257 35.3918 125.315 35.2863 125.397 35.169C125.503 35.0166 125.605 34.9053 125.705 34.8349C125.805 34.7646 125.896 34.7177 125.978 34.6943C126.071 34.6708 126.159 34.6708 126.241 34.6943C126.271 34.7587 126.282 34.8291 126.277 34.9053C126.271 34.9698 126.247 35.0489 126.206 35.1427C126.171 35.2364 126.101 35.3332 125.995 35.4328C125.884 35.5383 125.778 35.6204 125.679 35.679C125.585 35.7376 125.497 35.7815 125.415 35.8108ZM121.197 34.8437C121.133 34.8086 121.074 34.788 121.021 34.7822C120.968 34.7763 120.922 34.7734 120.881 34.7734C120.834 34.7734 120.796 34.7705 120.766 34.7646C120.731 34.7529 120.702 34.7236 120.678 34.6767C120.661 34.6357 120.69 34.58 120.766 34.5096C120.837 34.4393 120.933 34.3807 121.056 34.3338C121.179 34.2869 121.317 34.2693 121.47 34.281C121.622 34.2869 121.769 34.3455 121.909 34.4569C122.032 34.5624 122.132 34.665 122.208 34.7646C122.29 34.8584 122.355 34.9434 122.402 35.0196C122.454 35.1075 122.492 35.1925 122.516 35.2745C122.68 35.1163 122.85 34.9844 123.026 34.8789C123.178 34.7851 123.348 34.7089 123.536 34.6503C123.723 34.5917 123.911 34.5888 124.098 34.6415C124.145 34.6591 124.166 34.6972 124.16 34.7558C124.16 34.8086 124.136 34.8672 124.09 34.9316C124.049 34.9961 123.99 35.0577 123.914 35.1163C123.838 35.1749 123.747 35.2159 123.641 35.2394C123.436 35.2863 123.272 35.3742 123.149 35.5031C123.032 35.6321 122.941 35.7845 122.876 35.9603C122.812 36.1303 122.771 36.3149 122.753 36.5142C122.736 36.7076 122.727 36.8952 122.727 37.0769C122.733 37.4579 122.68 37.7421 122.569 37.9297C122.457 38.1114 122.308 38.2081 122.12 38.2198C121.903 38.2316 121.742 38.1319 121.637 37.9209C121.531 37.7099 121.478 37.3524 121.478 36.8483C121.484 36.5318 121.487 36.2563 121.487 36.0218C121.487 35.7874 121.478 35.591 121.461 35.4328C121.443 35.2687 121.414 35.1397 121.373 35.0459C121.332 34.9522 121.273 34.8848 121.197 34.8437ZM117.802 34.1404C117.732 34.1287 117.671 34.1521 117.618 34.2107C117.6 34.2342 117.583 34.3397 117.565 34.5272C117.553 34.7148 117.542 34.9551 117.53 35.2482C117.518 35.5354 117.509 35.8607 117.504 36.2241C117.498 36.5875 117.495 36.9597 117.495 37.3406C117.495 37.5436 117.496 37.7447 117.497 37.9442C117.393 37.9591 117.303 37.9572 117.228 37.9385C117.14 37.915 117.067 37.8594 117.008 37.7714C116.955 37.6835 116.911 37.5634 116.876 37.411C116.847 37.2586 116.824 37.0681 116.806 36.8395C116.788 36.6168 116.753 36.4058 116.7 36.2065C116.648 36.0013 116.58 35.8167 116.498 35.6526C116.422 35.4826 116.331 35.339 116.226 35.2218C116.126 35.0987 116.021 35.0049 115.909 34.9404C115.745 34.8525 115.587 34.8408 115.434 34.9053C115.282 34.9697 115.141 35.0752 115.012 35.2218C114.883 35.3625 114.772 35.5266 114.678 35.7141C114.585 35.8958 114.514 36.0599 114.467 36.2065C114.374 36.482 114.312 36.5963 114.283 36.5494C114.253 36.4966 114.212 36.3149 114.16 36.0043C114.124 35.8519 114.092 35.6936 114.063 35.5295C114.034 35.3595 113.987 35.2013 113.922 35.0547C113.864 34.9023 113.776 34.7646 113.658 34.6415C113.547 34.5184 113.392 34.4217 113.192 34.3514C112.987 34.2752 112.806 34.24 112.647 34.2459C112.489 34.2517 112.343 34.2869 112.208 34.3514C112.079 34.41 111.962 34.4891 111.856 34.5888C111.751 34.6884 111.651 34.7939 111.557 34.9053C111.364 35.1397 111.232 35.3185 111.162 35.4416C111.109 35.5178 111.068 35.5852 111.038 35.6438C111.021 35.3859 110.98 35.1573 110.915 34.958C110.886 34.8701 110.848 34.7851 110.801 34.7031C110.754 34.621 110.698 34.5507 110.634 34.4921C110.57 34.4276 110.493 34.3778 110.405 34.3426C110.317 34.3016 110.218 34.284 110.106 34.2898C110.048 34.3016 110.001 34.3924 109.966 34.5624C109.937 34.7324 109.916 34.9463 109.904 35.2042C109.898 35.4562 109.901 35.7346 109.913 36.0394C109.931 36.3384 109.957 36.6226 109.992 36.8923C110.027 37.1619 110.074 37.3993 110.133 37.6044C110.191 37.8037 110.259 37.9326 110.335 37.9912C110.458 38.0792 110.581 38.1319 110.704 38.1495C110.827 38.1612 110.936 38.1495 111.03 38.1143C111.123 38.0792 111.2 38.0264 111.258 37.9561C111.317 37.8857 111.346 37.8066 111.346 37.7187C111.346 37.6308 111.343 37.4842 111.337 37.2791C111.331 37.074 111.337 36.8512 111.355 36.6109C111.373 36.3706 111.408 36.1361 111.46 35.9076C111.513 35.6731 111.601 35.4885 111.724 35.3537C111.97 35.0723 112.17 34.9053 112.322 34.8525C112.48 34.7939 112.592 34.8349 112.656 34.9756C112.674 35.0284 112.688 35.1192 112.7 35.2482C112.718 35.3712 112.732 35.5207 112.744 35.6965C112.762 35.8724 112.782 36.0599 112.806 36.2592C112.835 36.4585 112.87 36.6578 112.911 36.8571C112.958 37.0505 113.014 37.2351 113.078 37.411C113.148 37.581 113.236 37.7216 113.342 37.833C113.5 38.003 113.644 38.1055 113.773 38.1407C113.902 38.17 114.016 38.1554 114.116 38.0967C114.221 38.0381 114.315 37.9502 114.397 37.833C114.485 37.7158 114.564 37.5927 114.634 37.4637C114.705 37.3348 114.775 37.1824 114.845 37.0065C114.916 36.8248 114.983 36.6637 115.048 36.523C115.112 36.3765 115.171 36.271 115.223 36.2065C115.276 36.142 115.32 36.1625 115.355 36.268C115.379 36.3384 115.411 36.4409 115.452 36.5757C115.499 36.7106 115.555 36.8629 115.619 37.0329C115.689 37.197 115.771 37.367 115.865 37.5429C115.965 37.7128 116.076 37.8682 116.199 38.0088C116.322 38.1495 116.46 38.2667 116.613 38.3605C116.765 38.4543 116.935 38.5012 117.122 38.5012C117.275 38.5012 117.402 38.4793 117.503 38.4356L117.504 38.4484C117.509 38.8118 117.518 39.1371 117.53 39.4243C117.542 39.7174 117.556 39.9577 117.574 40.1453C117.591 40.3387 117.612 40.4471 117.635 40.4706C117.7 40.5409 117.779 40.6054 117.873 40.664C117.972 40.7285 118.069 40.7695 118.163 40.7871C118.257 40.8047 118.339 40.7959 118.409 40.7607C118.479 40.7255 118.523 40.6464 118.541 40.5233C118.553 40.4413 118.559 40.2918 118.559 40.0749C118.559 39.8581 118.556 39.606 118.55 39.3188V38.3957C118.55 38.0674 118.556 37.7509 118.567 37.4461C118.585 37.1355 118.611 36.8512 118.646 36.5933C118.682 36.3354 118.731 36.1362 118.796 35.9955C118.937 35.679 119.107 35.4709 119.306 35.3713C119.511 35.2716 119.716 35.3068 119.921 35.4768C120.044 35.5764 120.121 35.6936 120.15 35.8284C120.179 35.9632 120.176 36.098 120.141 36.2329C120.106 36.3618 120.041 36.4849 119.948 36.6021C119.86 36.7135 119.76 36.7985 119.649 36.8571C119.526 36.9216 119.417 36.9743 119.323 37.0153C119.236 37.0505 119.159 37.0857 119.095 37.1208C119.036 37.1502 118.989 37.1824 118.954 37.2176C118.919 37.2469 118.896 37.285 118.884 37.3319C118.86 37.4256 118.901 37.4813 119.007 37.4989C119.118 37.5165 119.329 37.493 119.64 37.4286C119.816 37.3934 119.983 37.3406 120.141 37.2703C120.305 37.1941 120.452 37.0974 120.581 36.9802C120.71 36.8571 120.812 36.7106 120.888 36.5406C120.965 36.3647 121.009 36.1625 121.02 35.9339C121.032 35.7171 121.006 35.5236 120.941 35.3537C120.883 35.1837 120.801 35.043 120.695 34.9317C120.59 34.8144 120.464 34.7265 120.317 34.6679C120.176 34.6034 120.033 34.5653 119.886 34.5536C119.681 34.536 119.499 34.5653 119.341 34.6415C119.189 34.7177 119.057 34.8086 118.945 34.9141C118.84 35.0137 118.755 35.1134 118.69 35.213C118.626 35.3068 118.582 35.3713 118.559 35.4064C118.529 35.4416 118.509 35.4269 118.497 35.3625C118.485 35.298 118.474 35.2159 118.462 35.1163C118.456 35.0108 118.444 34.9053 118.427 34.7998C118.409 34.6884 118.383 34.6063 118.348 34.5536C118.318 34.5067 118.271 34.451 118.207 34.3866C118.148 34.3221 118.084 34.2664 118.013 34.2195C117.943 34.1726 117.873 34.1462 117.802 34.1404ZM107.225 34.5096C107.09 34.6269 106.982 34.7646 106.9 34.9229C106.8 35.0694 106.715 35.2452 106.645 35.4504C106.58 35.6555 106.536 35.8724 106.513 36.101C106.495 36.3237 106.501 36.5494 106.53 36.778C106.56 37.0066 106.618 37.2205 106.706 37.4198C106.794 37.6191 106.914 37.7949 107.067 37.9473C107.219 38.0997 107.41 38.211 107.638 38.2814C107.92 38.3693 108.174 38.3898 108.403 38.3429C108.632 38.3019 108.834 38.2228 109.01 38.1055C109.186 37.9883 109.329 37.8476 109.441 37.6835C109.558 37.5136 109.646 37.3494 109.704 37.1912C109.763 37.0329 109.789 36.8952 109.783 36.778C109.783 36.6607 109.751 36.5875 109.687 36.5582C109.634 36.5347 109.578 36.5699 109.52 36.6637C109.467 36.7516 109.397 36.8571 109.309 36.9802C109.221 37.1033 109.109 37.2264 108.975 37.3494C108.846 37.4667 108.676 37.5429 108.465 37.578C108.365 37.5956 108.277 37.5956 108.201 37.578C108.125 37.5546 108.06 37.5194 108.007 37.4725C107.955 37.4256 107.911 37.3729 107.876 37.3143C107.846 37.2498 107.82 37.1824 107.796 37.1121C107.744 36.9538 107.72 36.7633 107.726 36.5406C107.89 36.5464 108.057 36.5201 108.227 36.4615C108.374 36.4146 108.532 36.3354 108.702 36.2241C108.878 36.1127 109.042 35.9457 109.194 35.7229C109.335 35.5178 109.42 35.3156 109.449 35.1163C109.484 34.917 109.476 34.7382 109.423 34.58C109.37 34.4159 109.279 34.284 109.15 34.1843C109.027 34.0788 108.878 34.0202 108.702 34.0085C108.532 34.0085 108.356 34.0261 108.174 34.0613C107.999 34.0964 107.829 34.1521 107.665 34.2283C107.506 34.2986 107.36 34.3924 107.225 34.5096ZM107.972 35.8108C107.878 35.846 107.794 35.8695 107.717 35.8812C107.7 35.8343 107.697 35.7757 107.709 35.7053C107.72 35.6467 107.744 35.5735 107.779 35.4855C107.814 35.3918 107.873 35.2863 107.955 35.169C108.06 35.0166 108.163 34.9053 108.262 34.8349C108.362 34.7646 108.453 34.7177 108.535 34.6943C108.629 34.6708 108.717 34.6708 108.799 34.6943C108.828 34.7587 108.84 34.8291 108.834 34.9053C108.828 34.9698 108.805 35.0489 108.764 35.1427C108.728 35.2364 108.658 35.3332 108.553 35.4328C108.441 35.5383 108.336 35.6204 108.236 35.679C108.142 35.7376 108.054 35.7815 107.972 35.8108ZM105.866 33.9997C105.889 34.0466 105.886 34.0847 105.857 34.114C105.828 34.1375 105.784 34.1638 105.725 34.1931C105.672 34.2166 105.611 34.2488 105.541 34.2899C105.47 34.325 105.403 34.3778 105.338 34.4481C105.274 34.5185 105.218 34.6093 105.171 34.7207C105.13 34.832 105.11 34.9727 105.11 35.1427C105.104 35.3127 105.142 35.4768 105.224 35.635C105.312 35.7933 105.417 35.9486 105.541 36.101C105.664 36.2475 105.798 36.3941 105.945 36.5406C106.092 36.6813 106.223 36.8278 106.341 36.9802C106.458 37.1267 106.549 37.2791 106.613 37.4374C106.684 37.5898 106.707 37.748 106.684 37.9121C106.654 38.0763 106.56 38.214 106.402 38.3254C106.25 38.4426 106.062 38.5305 105.839 38.5891C105.617 38.6536 105.376 38.6888 105.119 38.6946C104.861 38.7005 104.617 38.677 104.389 38.6243C104.166 38.5774 103.973 38.5012 103.809 38.3957C103.644 38.2902 103.542 38.1554 103.501 37.9913C103.436 37.751 103.419 37.5487 103.448 37.3846C103.472 37.2205 103.518 37.0857 103.589 36.9802C103.659 36.8688 103.738 36.7838 103.826 36.7252C103.914 36.6608 103.99 36.6109 104.055 36.5758C104.19 36.4996 104.277 36.4996 104.318 36.5758C104.365 36.652 104.339 36.7721 104.239 36.9362C104.192 37.0183 104.181 37.1121 104.204 37.2176C104.228 37.3172 104.28 37.4139 104.362 37.5077C104.45 37.5956 104.559 37.6718 104.688 37.7363C104.823 37.8008 104.975 37.8359 105.145 37.8418C105.25 37.8477 105.356 37.8389 105.461 37.8154C105.573 37.7861 105.664 37.7451 105.734 37.6923C105.804 37.6337 105.845 37.5663 105.857 37.4901C105.875 37.4081 105.845 37.3172 105.769 37.2176C105.693 37.1179 105.561 36.9919 105.374 36.8395C105.186 36.6871 104.993 36.5201 104.793 36.3384C104.6 36.1508 104.427 35.9545 104.275 35.7493C104.128 35.5383 104.055 35.3273 104.055 35.1163C104.055 34.7002 104.128 34.3954 104.275 34.2019C104.427 34.0085 104.67 33.8825 105.004 33.8239C105.168 33.7946 105.303 33.7829 105.409 33.7887C105.514 33.7887 105.596 33.8004 105.655 33.8239C105.719 33.8473 105.766 33.8766 105.796 33.9118C105.825 33.9411 105.848 33.9704 105.866 33.9997ZM100.801 35.3185C100.655 35.0782 100.447 34.876 100.177 34.7119C100.112 34.6767 100.069 34.665 100.045 34.6767L99.9396 34.747C99.8868 34.7764 99.8018 34.8115 99.6846 34.8526C99.5674 34.8877 99.3798 34.9141 99.1219 34.9317C98.8406 34.9493 98.6061 35.046 98.4186 35.2218C98.231 35.3977 98.0962 35.6116 98.0141 35.8636C97.9321 36.1098 97.9028 36.3765 97.9262 36.6637C97.9438 36.945 98.0141 37.2059 98.1372 37.4462C98.2603 37.6865 98.4361 37.8858 98.6647 38.044C98.8992 38.1964 99.1864 38.2697 99.5263 38.2638C99.796 38.258 100.036 38.1876 100.247 38.0528C100.458 37.918 100.631 37.748 100.766 37.5429C100.907 37.3319 101.006 37.0974 101.065 36.8395C101.124 36.5816 101.129 36.3237 101.083 36.0658C101.041 35.8021 100.948 35.553 100.801 35.3185ZM99.0604 35.7317C99.0838 35.5969 99.1131 35.5119 99.1483 35.4768C99.2655 35.3654 99.3798 35.3185 99.4912 35.3361C99.6084 35.3478 99.7491 35.4387 99.9132 35.6087C99.9835 35.679 100.033 35.7816 100.063 35.9164C100.092 36.0512 100.101 36.2006 100.089 36.3648C100.083 36.5289 100.06 36.6989 100.019 36.8747C99.9835 37.0447 99.9337 37.2029 99.8692 37.3495C99.8106 37.4901 99.7432 37.6103 99.667 37.7099C99.5908 37.8037 99.5117 37.8565 99.4296 37.8682C99.3476 37.8799 99.2772 37.833 99.2186 37.7275C99.16 37.622 99.1131 37.4872 99.0779 37.3231C99.0486 37.159 99.0281 36.9773 99.0164 36.778C99.0047 36.5787 99.0018 36.3882 99.0076 36.2065C99.0193 36.0248 99.0369 35.8666 99.0604 35.7317ZM84.7629 34.114C84.7922 34.0847 84.7952 34.0466 84.7717 33.9997C84.7541 33.9704 84.7307 33.9411 84.7014 33.9118C84.6721 33.8766 84.6252 33.8473 84.5607 33.8239C84.5021 33.8004 84.42 33.7887 84.3145 33.7887C84.209 33.7829 84.0742 33.7946 83.9101 33.8239C83.576 33.8825 83.3328 34.0085 83.1804 34.2019C83.0338 34.3954 82.9606 34.7002 82.9606 35.1163C82.9606 35.3273 83.0338 35.5383 83.1804 35.7493C83.3328 35.9545 83.5057 36.1508 83.6991 36.3384C83.8984 36.5201 84.0918 36.6871 84.2794 36.8395C84.4669 36.9919 84.5988 37.1179 84.675 37.2176C84.7512 37.3172 84.7805 37.4081 84.7629 37.4901C84.7512 37.5663 84.7102 37.6337 84.6398 37.6923C84.5695 37.7451 84.4786 37.7861 84.3673 37.8154C84.2618 37.8389 84.1563 37.8477 84.0508 37.8418C83.8808 37.8359 83.7284 37.8008 83.5936 37.7363C83.4646 37.6718 83.3562 37.5956 83.2683 37.5077C83.1862 37.4139 83.1335 37.3172 83.11 37.2176C83.0866 37.1121 83.0983 37.0183 83.1452 36.9362C83.2448 36.7721 83.2712 36.652 83.2243 36.5758C83.1833 36.4996 83.0954 36.4996 82.9606 36.5758C82.8961 36.6109 82.8199 36.6608 82.732 36.7252C82.6441 36.7838 82.5649 36.8688 82.4946 36.9802C82.4243 37.0857 82.3774 37.2205 82.3539 37.3846C82.3249 37.5472 82.3419 37.7471 82.4048 37.9844L82.3979 37.9825C82.2689 37.9532 82.1693 37.8828 82.099 37.7715C82.0345 37.6601 81.9817 37.5253 81.9407 37.367C81.9055 37.2088 81.8792 37.0359 81.8616 36.8483C81.8499 36.6608 81.8352 36.4761 81.8176 36.2944C81.8059 36.1069 81.7854 35.931 81.7561 35.7669C81.7268 35.5969 81.6828 35.4563 81.6242 35.3449C81.5363 35.1808 81.4337 35.0577 81.3165 34.9756C81.2051 34.8936 81.0879 34.8496 80.9648 34.8438C80.8417 34.832 80.7186 34.8496 80.5955 34.8965C80.4783 34.9434 80.3699 35.0108 80.2702 35.0987C80.1647 35.1925 80.0622 35.3068 79.9625 35.4416C79.8629 35.5706 79.775 35.6966 79.6988 35.8197C79.6108 35.9662 79.5288 36.1157 79.4526 36.268C79.4584 35.9691 79.4555 35.7024 79.4438 35.468C79.4379 35.3683 79.4321 35.2716 79.4262 35.1778C79.4203 35.0782 79.4086 34.9903 79.391 34.9141C79.3793 34.8379 79.3647 34.7763 79.3471 34.7295C79.3354 34.6826 79.3178 34.6591 79.2943 34.6591C79.2474 34.6591 79.1859 34.6708 79.1097 34.6943C79.0394 34.7119 78.9661 34.7412 78.8899 34.7822C78.8196 34.8174 78.7492 34.8613 78.6789 34.9141C78.6144 34.961 78.5646 35.0137 78.5294 35.0723C78.506 35.1134 78.4855 35.2101 78.4679 35.3625C78.4503 35.5149 78.4356 35.6966 78.4239 35.9076C78.4181 36.1127 78.4122 36.3325 78.4063 36.567C78.4063 36.7956 78.4093 37.0124 78.4151 37.2176C78.421 37.4169 78.4298 37.5898 78.4415 37.7363C78.4591 37.877 78.4796 37.959 78.5031 37.9825C78.5441 38.0176 78.6144 38.0469 78.7141 38.0704C78.8196 38.0938 78.9251 38.1056 79.0306 38.1056C79.1419 38.1056 79.2445 38.0938 79.3383 38.0704C79.4321 38.0469 79.4936 38.003 79.5229 37.9385C79.5464 37.8799 79.561 37.7891 79.5669 37.666C79.5727 37.5429 79.5845 37.4022 79.602 37.2439C79.6255 37.0857 79.6665 36.9157 79.7251 36.734C79.7837 36.5523 79.8746 36.3706 79.9977 36.1889C80.1032 36.0307 80.1999 35.9105 80.2878 35.8284C80.3816 35.7405 80.4637 35.6995 80.534 35.7054C80.6043 35.7112 80.66 35.7698 80.701 35.8812C80.7479 35.9926 80.7772 36.1625 80.789 36.3911C80.8183 37.03 80.9296 37.5487 81.1231 37.9473C81.3165 38.34 81.633 38.5657 82.0726 38.6243C82.2953 38.6536 82.4917 38.6272 82.6616 38.5452C82.721 38.5194 82.7767 38.4917 82.8287 38.462C82.9663 38.5338 83.1217 38.5879 83.2947 38.6243C83.5233 38.677 83.7665 38.7005 84.0244 38.6946C84.2823 38.6888 84.5226 38.6536 84.7453 38.5891C84.9681 38.5305 85.1556 38.4426 85.308 38.3254C85.4663 38.214 85.5601 38.0763 85.5894 37.9121C85.6128 37.748 85.5894 37.5898 85.519 37.4374C85.4546 37.2791 85.3637 37.1267 85.2465 36.9802C85.1292 36.8278 84.9974 36.6813 84.8508 36.5406C84.7043 36.3941 84.5695 36.2475 84.4464 36.101C84.3233 35.9486 84.2178 35.7933 84.1299 35.635C84.0478 35.4768 84.0097 35.3127 84.0156 35.1427C84.0156 34.9727 84.0361 34.832 84.0771 34.7207C84.124 34.6093 84.1797 34.5185 84.2442 34.4481C84.3087 34.3778 84.3761 34.325 84.4464 34.2899C84.5167 34.2488 84.5783 34.2166 84.631 34.1931C84.6897 34.1638 84.7336 34.1375 84.7629 34.114ZM75.6567 34.5096C75.5219 34.6269 75.4135 34.7646 75.3314 34.9229C75.2318 35.0694 75.1468 35.2452 75.0765 35.4504C75.012 35.6555 74.968 35.8724 74.9446 36.101C74.927 36.3237 74.9329 36.5494 74.9622 36.778C74.9915 37.0066 75.0501 37.2205 75.138 37.4198C75.2259 37.6191 75.3461 37.7949 75.4985 37.9473C75.6509 38.0997 75.8414 38.211 76.07 38.2814C76.3513 38.3693 76.6063 38.3898 76.8349 38.3429C77.0635 38.3019 77.2657 38.2228 77.4415 38.1055C77.6173 37.9883 77.7609 37.8476 77.8723 37.6835C77.9895 37.5136 78.0775 37.3494 78.1361 37.1912C78.1947 37.0329 78.2211 36.8952 78.2152 36.778C78.2152 36.6607 78.183 36.5875 78.1185 36.5582C78.0657 36.5347 78.0101 36.5699 77.9514 36.6637C77.8987 36.7516 77.8284 36.8571 77.7404 36.9802C77.6525 37.1033 77.5412 37.2264 77.4063 37.3494C77.2774 37.4667 77.1074 37.5429 76.8964 37.578C76.7968 37.5956 76.7088 37.5956 76.6327 37.578C76.5564 37.5546 76.492 37.5194 76.4392 37.4725C76.3865 37.4256 76.3425 37.3729 76.3074 37.3143C76.278 37.2498 76.2517 37.1824 76.2282 37.1121C76.1755 36.9538 76.152 36.7633 76.1579 36.5406C76.322 36.5464 76.489 36.5201 76.659 36.4615C76.8056 36.4146 76.9638 36.3354 77.1338 36.2241C77.3096 36.1127 77.4737 35.9457 77.6261 35.7229C77.7668 35.5178 77.8518 35.3156 77.8811 35.1163C77.9163 34.917 77.9075 34.7382 77.8547 34.58C77.802 34.4159 77.7111 34.284 77.5822 34.1843C77.4591 34.0788 77.3096 34.0202 77.1338 34.0085C76.9638 34.0085 76.788 34.0261 76.6063 34.0613C76.4304 34.0964 76.2605 34.1521 76.0963 34.2283C75.9381 34.2986 75.7915 34.3924 75.6567 34.5096ZM76.4041 35.8108C76.3103 35.846 76.2253 35.8695 76.1491 35.8812C76.1315 35.8343 76.1286 35.7757 76.1403 35.7053C76.152 35.6467 76.1755 35.5735 76.2106 35.4855C76.2458 35.3918 76.3044 35.2863 76.3865 35.169C76.492 35.0166 76.5946 34.9053 76.6942 34.8349C76.7938 34.7646 76.8847 34.7177 76.9667 34.6943C77.0605 34.6708 77.1484 34.6708 77.2305 34.6943C77.2598 34.7587 77.2715 34.8291 77.2657 34.9053C77.2598 34.9698 77.2364 35.0489 77.1953 35.1427C77.1602 35.2364 77.0898 35.3332 76.9843 35.4328C76.873 35.5383 76.7675 35.6204 76.6678 35.679C76.574 35.7376 76.4861 35.7815 76.4041 35.8108ZM73.8954 37.5077C73.9188 37.6132 73.9393 37.7217 73.9569 37.833C73.9745 37.9385 73.9686 38.047 73.9393 38.1583C73.8924 38.2287 73.825 38.2726 73.7371 38.2902C73.6492 38.3078 73.5554 38.3078 73.4558 38.2902C73.362 38.2726 73.2682 38.2463 73.1744 38.2111C73.0865 38.1701 73.0162 38.132 72.9634 38.0968C72.8638 37.8096 72.7934 37.5107 72.7524 37.2C72.7114 36.8894 72.6879 36.5787 72.6821 36.2681C72.6762 35.9574 72.6821 35.6497 72.6997 35.3449C72.7172 35.0401 72.7407 34.7529 72.77 34.4833C72.7817 34.284 72.8169 34.073 72.8755 33.8503C72.94 33.6276 73.022 33.4136 73.1217 33.2085C73.2213 32.9975 73.3415 32.8041 73.4821 32.6282C73.6228 32.4524 73.7811 32.3176 73.9569 32.2238C74.1386 32.1241 74.3379 32.0714 74.5548 32.0655C74.7716 32.0597 75.0032 32.1212 75.2493 32.2502C75.4955 32.3791 75.6567 32.5432 75.7329 32.7425C75.8091 32.9418 75.8237 33.1587 75.7768 33.3931C75.7358 33.6217 75.642 33.8562 75.4955 34.0965C75.349 34.3309 75.179 34.5478 74.9856 34.7471C74.798 34.9464 74.5958 35.1134 74.3789 35.2482C74.1679 35.383 73.9686 35.4622 73.7811 35.4856C73.7693 35.8197 73.7693 36.1567 73.7811 36.4967C73.7928 36.8366 73.8309 37.1736 73.8954 37.5077ZM75.135 32.6546C74.9064 32.6487 74.7101 32.7073 74.546 32.8304C74.3877 32.9535 74.2558 33.103 74.1503 33.2788C74.0448 33.4547 73.9686 33.6422 73.9217 33.8415C73.8748 34.0349 73.8543 34.1961 73.8602 34.3251C73.8719 34.3192 73.9188 34.2928 74.0009 34.2459C74.0888 34.199 74.1914 34.1404 74.3086 34.0701C74.4258 33.9939 74.546 33.906 74.6691 33.8063C74.798 33.7008 74.9064 33.5895 74.9944 33.4722C75.0881 33.3492 75.1526 33.2202 75.1878 33.0854C75.2229 32.9447 75.2054 32.8011 75.135 32.6546Z" fill="#333333"/>
</svg>
