<svg width="44" height="43" viewBox="0 0 44 43" fill="none" xmlns="http://www.w3.org/2000/svg">
<g id="contato">
<path id="Vector" fill-rule="evenodd" clip-rule="evenodd" d="M32.6671 3.77783H11.3338C7.40641 3.77783 4.22266 6.96158 4.22266 10.8889V38.4445C4.22266 38.9353 4.62063 39.3334 5.11155 39.3334C5.34643 39.332 5.5708 39.2358 5.73377 39.0667L11.0671 33.7334C12.0881 32.7393 13.4645 32.1951 14.8893 32.2223H32.6671C36.5944 32.2223 39.7782 29.0385 39.7782 25.1112V10.8889C39.7782 6.96158 36.5944 3.77783 32.6671 3.77783ZM25.556 22.4445C25.556 22.9353 25.1579 23.3334 24.6671 23.3334H12.2227C11.7317 23.3334 11.3338 22.9353 11.3338 22.4445V20.6667C11.3338 20.1759 11.7317 19.7778 12.2227 19.7778H24.6671C25.1579 19.7778 25.556 20.1759 25.556 20.6667V22.4445ZM31.7782 16.2223C32.2691 16.2223 32.6671 15.8243 32.6671 15.3334V13.5556C32.6671 13.0647 32.2691 12.6667 31.7782 12.6667H12.2227C11.7317 12.6667 11.3338 13.0647 11.3338 13.5556V15.3334C11.3338 15.8243 11.7317 16.2223 12.2227 16.2223H31.7782Z" fill="#A0DD7F"/>
</g>
</svg>
