<svg width="33" height="36" viewBox="0 0 33 36" fill="none" xmlns="http://www.w3.org/2000/svg">
<path id="Vector" fill-rule="evenodd" clip-rule="evenodd" d="M32.4085 9.43523L32.1596 8.99078C31.8386 8.45334 31.3858 8.00666 30.8441 7.69301L18.9152 0.813008C18.3751 0.499674 17.762 0.33411 17.1374 0.333008H16.6219C15.9973 0.33411 15.3842 0.499674 14.8441 0.813008L2.91522 7.71078C2.3765 8.02236 1.92901 8.46984 1.61744 9.00856L1.36855 9.45301C1.05522 9.99317 0.889652 10.6063 0.88855 11.2308V25.0086C0.889652 25.6331 1.05522 26.2462 1.36855 26.7863L1.61744 27.2308C1.93707 27.7632 2.38275 28.2089 2.91522 28.5286L14.8619 35.4086C15.3993 35.7284 16.0142 35.8944 16.6397 35.8886H17.1374C17.762 35.8875 18.3751 35.722 18.9152 35.4086L30.8441 28.5108C31.3881 28.2062 31.8373 27.757 32.1419 27.213L32.4085 26.7686C32.718 26.2269 32.8834 25.6148 32.8885 24.9908V11.213C32.8875 10.5885 32.722 9.97539 32.4085 9.43523ZM16.6219 3.88856H17.1374L27.5552 9.89745L16.8885 16.0486L6.22188 9.89745L16.6219 3.88856ZM18.6663 31.4441L29.0663 25.4352L29.333 24.9908V12.973L18.6663 19.1419V31.4441Z" fill="black"/>
</svg>
