<svg width="17" height="17" viewBox="0 0 17 17" fill="none" xmlns="http://www.w3.org/2000/svg">
<g id="whatsapp">
<path id="Vector" d="M13.4031 3.92335C12.0938 2.61085 10.35 1.88898 8.49687 1.88898C4.67187 1.88898 1.55937 5.00148 1.55937 8.82648C1.55937 10.0484 1.87813 11.2421 2.48438 12.2952L1.5 15.889L5.17812 14.9234C6.19063 15.4765 7.33125 15.7671 8.49375 15.7671H8.49687C12.3188 15.7671 15.5 12.6546 15.5 8.8296C15.5 6.97648 14.7125 5.23585 13.4031 3.92335ZM8.49687 14.5984C7.45937 14.5984 6.44375 14.3202 5.55937 13.7952L5.35 13.6702L3.16875 14.2421L3.75 12.114L3.6125 11.8952C3.03437 10.9765 2.73125 9.9171 2.73125 8.82648C2.73125 5.64835 5.31875 3.06085 8.5 3.06085C10.0406 3.06085 11.4875 3.66085 12.575 4.75148C13.6625 5.8421 14.3313 7.28898 14.3281 8.8296C14.3281 12.0109 11.675 14.5984 8.49687 14.5984ZM11.6594 10.2796C11.4875 10.1921 10.6344 9.77335 10.475 9.7171C10.3156 9.65773 10.2 9.6296 10.0844 9.8046C9.96875 9.9796 9.6375 10.3671 9.53438 10.4859C9.43438 10.6015 9.33125 10.6171 9.15938 10.5296C8.14062 10.0202 7.47188 9.62023 6.8 8.4671C6.62188 8.16085 6.97812 8.18273 7.30937 7.52023C7.36562 7.4046 7.3375 7.3046 7.29375 7.2171C7.25 7.1296 6.90313 6.27648 6.75938 5.9296C6.61875 5.5921 6.475 5.63898 6.36875 5.63273C6.26875 5.62648 6.15312 5.62648 6.0375 5.62648C5.92188 5.62648 5.73438 5.67023 5.575 5.8421C5.41562 6.0171 4.96875 6.43585 4.96875 7.28898C4.96875 8.1421 5.59063 8.9671 5.675 9.08273C5.7625 9.19835 6.89687 10.9484 8.6375 11.7015C9.7375 12.1765 10.1687 12.2171 10.7188 12.1359C11.0531 12.0859 11.7437 11.7171 11.8875 11.3109C12.0312 10.9046 12.0312 10.5577 11.9875 10.4859C11.9469 10.4077 11.8313 10.364 11.6594 10.2796Z" fill="#A0DD7F"/>
</g>
</svg>
